<?xml version="1.0" encoding="utf-8"?>
<!-- Generator: Adobe Illustrator 25.2.1, SVG Export Plug-In . SVG Version: 6.00 Build 0)  -->
<svg version="1.1" id="Capa_1" xmlns="http://www.w3.org/2000/svg" xmlns:xlink="http://www.w3.org/1999/xlink" x="0px" y="0px"
	 viewBox="0 0 1000 1000" style="enable-background:new 0 0 1000 1000;" xml:space="preserve">
<style type="text/css">
	.st0{fill:#FFFFFF;}
	.st1{fill:#E30613;}
	.st2{fill:none;}
	.st3{enable-background:new    ;}
	.st4{fill:#000083;}
</style>
<g>
	<circle class="st0" cx="500" cy="500" r="440"/>
	<rect x="71.2" y="733.4" class="st0" width="858.1" height="143"/>
	<path class="st1" d="M500,940c-37,0-72.8-4.6-107.1-13.2l-12.1,53.7c38.2,9.5,78.1,14.5,119.2,14.5c110.8,0,213-36.3,295.5-97.8
		H689.5C632.1,924.6,567.9,940,500,940z"/>
	<path id="SVGID_x5F_1_x5F_" class="st2" d="M142.5,500c0-197.5,160-357.5,357.5-357.5s357.5,160,357.5,357.5S697.5,857.5,500,857.5
		S142.5,697.5,142.5,500z"/>
	<g>
		<path d="M345.6,677.9c0-110.2-0.1-218.3,0.4-326.6c0-5.5,5.3-13.8,10.2-16c24.1-10.3,49-19,76.5-29.3c0,127.5,0,248.8,0,371.8
			C404.1,677.9,375.9,677.9,345.6,677.9z"/>
		<path d="M345.7,309.5c0-12.5,1.4-23.6-0.3-34.2c-3.4-20.7,6-31.9,23.9-39.6c68.8-29.8,138.2-30.6,205.6,0.6
			c58.7,27.2,82.5,99.8,54,158.1c-7.7,15.8-22.1,28.4-30.6,38.9c-25.8-11-46.4-19.8-67-28.5c14-7.6,26.5-19.4,28.3-39.8
			c4.5-52.1-19.6-81.1-72-85C442.1,276.5,405.4,284.1,345.7,309.5z"/>
		<path d="M450.5,423.4c18.3,1.3,35.9,2.3,53.5,3.8c54.3,5,89.8,34.5,105.6,85.8c13,41.9,22.7,84.8,34,127.3
			c3.3,12.2,7.4,24.2,11.8,38.8c-26.1,0-51.3,0.7-76.3-0.7c-4.3-0.2-10.2-8.8-11.9-14.5c-8.4-29.4-15.5-59.1-23-88.8
			c-1.4-5.5-2.4-11.2-3.9-16.8c-13.4-51.6-26-61.6-79.5-63.6c-3.1-0.1-6.2-0.8-10.3-1.3C450.5,470,450.5,446.6,450.5,423.4z"/>
	</g>
	<g class="st3">
		<path d="M112.8,834.8c6.6,3.4,17.2,6.9,27.8,6.9c11.5,0,17.6-4.8,17.6-12.1c0-6.9-5.3-10.9-18.6-15.5c-18.5-6.6-30.7-16.8-30.7-33
			c0-18.9,15.9-33.3,42-33.3c12.7,0,21.8,2.5,28.4,5.6l-5.6,20.1c-4.3-2.1-12.3-5.3-23.1-5.3c-10.9,0-16.2,5.1-16.2,10.7
			c0,7.2,6.1,10.2,20.6,15.6c19.6,7.3,28.7,17.5,28.7,33.1c0,18.6-14.2,34.4-44.7,34.4c-12.7,0-25.2-3.5-31.5-6.9L112.8,834.8z"/>
		<path d="M267.2,813.7h-40.9v26.4H272v20.7h-70.7V749.6h68.4v20.6h-43.3v23.1h40.9L267.2,813.7L267.2,813.7z"/>
		<path d="M289.1,751c8.1-1.3,19.9-2.3,33.4-2.3c16.5,0,28,2.5,36,8.7c6.7,5.3,10.3,13.2,10.3,23.4c0,14-10,23.8-19.6,27.2v0.4
			c7.7,3.2,12,10.5,14.9,20.7c3.4,12.7,6.7,27.2,8.9,31.5h-25.7c-1.6-3.3-4.4-12.2-7.6-25.9c-3.2-14.1-7.9-17.6-18.3-17.8h-7.4v43.9
			h-24.9V751H289.1z M314.1,798.9h9.9c12.5,0,19.9-6.3,19.9-15.9c0-10-6.9-15.3-18.5-15.3c-6.1,0-9.6,0.3-11.3,0.9L314.1,798.9
			L314.1,798.9z"/>
		<path d="M387,860.8V749.6h29.4l23.1,40.7c6.6,11.8,13,25.5,18.1,38.1h0.3c-1.5-14.6-2-29.7-2-46.5v-32.3h23.1v111.3h-26.4
			l-23.8-42.9c-6.6-11.9-14-26.2-19.3-39.3H409c0.9,14.8,1.2,30.5,1.2,48.6v33.5H387z"/>
		<path d="M526.7,832.2l-7.9,28.5H493l33.8-111.2h33l34.7,111.3h-27.3l-8.6-28.5h-31.8V832.2z M554.9,813.4l-6.9-23.5
			c-2-6.6-4-14.8-5.6-21.4H542c-1.7,6.6-3.3,15-5.2,21.4l-6.6,23.5H554.9z"/>
		<path d="M616.9,770.7h-30v-21.1h85.5v21.1H642v90.1h-25.1L616.9,770.7L616.9,770.7z"/>
		<path d="M710.9,749.6v63.8c0,19.3,7.4,29,20.1,29c13.2,0,20.5-9.2,20.5-29v-63.8h25.1V812c0,34.3-17.4,50.6-46.3,50.6
			c-28,0-44.3-15.7-44.3-50.9v-62H710.9z"/>
		<path d="M798.3,751c8.1-1.3,19.9-2.3,33.4-2.3c16.5,0,28.1,2.5,36,8.7c6.8,5.3,10.3,13.2,10.3,23.4c0,14-10,23.8-19.6,27.2v0.4
			c7.7,3.2,12,10.5,14.8,20.7c3.5,12.7,6.8,27.2,8.9,31.5h-25.7c-1.6-3.3-4.4-12.2-7.6-25.9c-3.1-14.1-7.9-17.6-18.3-17.8h-7.5v43.9
			h-24.9L798.3,751L798.3,751z M823.2,798.9h9.9c12.5,0,19.9-6.3,19.9-15.9c0-10-6.9-15.3-18.5-15.3c-6,0-9.6,0.3-11.3,0.9V798.9z"
			/>
	</g>
	<path d="M923.5,722.4h-847c-9.1,0-16.5,7.4-16.5,16.5V871c0,9.1,7.4,16.5,16.5,16.5h847.1c9.1,0,16.5-7.4,16.5-16.5V738.9
		C940,729.8,932.6,722.4,923.5,722.4z M929.3,859.9c0,9.1-7.4,16.5-16.5,16.5H87.7c-9.1,0-16.5-7.4-16.5-16.5v-110
		c0-9.1,7.4-16.5,16.5-16.5h825.1c9.1,0,16.5,7.4,16.5,16.5V859.9z"/>
	<g>
		<path class="st4" d="M392.9,926.8c-28.7-7.1-56.2-17.2-82.4-29.6H204.5c51.8,38.6,111.4,67.3,176.1,83.3L392.9,926.8z"/>
		<path class="st4" d="M397.3,72.1l-23.2-50.9C161.6,76.9,5,270.2,5,500c0,76.2,17.3,148.4,48,212.8h61.8
			C79.9,649.8,60,577.2,60,500C60,292.4,203.8,118.3,397.3,72.1z"/>
	</g>
	<path class="st1" d="M500,5c-43.6,0-85.8,5.6-126,16.2l23.2,50.9C430.3,64.2,464.6,60,500,60c243,0,440,197,440,440
		c0,77.2-19.9,149.8-54.9,212.8h61.8c30.8-64.5,48-136.7,48-212.8C995,226.6,773.4,5,500,5z"/>
</g>
</svg>
