<?xml version="1.0" encoding="utf-8"?>
<!-- Generator: Adobe Illustrator 25.2.1, SVG Export Plug-In . SVG Version: 6.00 Build 0)  -->
<svg version="1.1" id="Capa_1" xmlns="http://www.w3.org/2000/svg" xmlns:xlink="http://www.w3.org/1999/xlink" x="0px" y="0px"
	 viewBox="0 0 1000 645" style="enable-background:new 0 0 1000 645;" xml:space="preserve">
<style type="text/css">
	.st0{fill:#E13B3F;}
	.st1{fill:#000083;}
	.st2{font-family:'MyriadPro-Bold';}
	.st3{font-size:418.7156px;}
	.st4{fill:#FEFEFE;}
	.st5{fill:#FFFFFF;}
	.st6{font-family:'MyriadPro-Semibold';}
	.st7{font-size:90px;}
</style>
<g>
	<path class="st0" d="M950,383.3c-4.8-0.2-9.7-0.7-14.6-0.7c-178.5,0-357,0-535.5-0.1c-4.9,0-9.7-0.5-14.6-0.8
		c0-5-0.1-10.1-0.1-15.1c10.4-0.1,20.9-0.4,31.3-0.4c173.5,0,346.9,0,520.3-0.1c4.3,0,9.1,1.6,13.1-1.6C950,370.7,950,377,950,383.3
		z"/>
	<path class="st1" d="M385.3,366.6c0,5,0.1,10.1,0.1,15.1c-5.6,0.3-11.1,0.8-16.7,0.8c-101.7,0-203.5,0-305.2,0.1
		c-4.5,0-9,0.5-13.5,0.8c0-5.6,0-11.2,0-16.7c88.4-0.1,176.9-0.2,265.3-0.3C338.6,366.2,361.9,366.5,385.3,366.6z"/>
</g>
<g>
	<g>
		<path class="st1" d="M830.1,298.6L830.1,298.6c-69.8,0-126.4-56.6-126.4-126.4v-40.8C703.7,61.6,760.3,5,830.1,5l0,0
			c69.8,0,126.4,56.6,126.4,126.4v40.8C956.5,242,899.9,298.6,830.1,298.6z"/>
	</g>
	<text transform="matrix(1 0 0 1 43.5089 291.4009)" class="st1 st2 st3">SIG</text>
	<path class="st4" d="M734.1,180.6c0-16.7,0-33.3,0-50c1.5-1.3,3.2-0.8,4.9-0.8c36.7,0,73.3,0,110,0c1.6,0,3.2,0.1,4.7-0.1
		c0.7-0.2,1.1-0.6,1.2-1.3c-13-13.1-25.9-26.1-38.9-39.2c-6.1-6.1-12.1-12.3-18.3-18.2c-1.7-1.6-1.8-2.6,0-4.3
		c8.2-8.1,16.4-16.2,24.4-24.4c2-2,3-1.8,4.8,0.1c26.4,26.6,52.9,53,79.4,79.5c10.4,10.4,20.7,20.8,31.2,31c2,2,1.8,3-0.1,4.9
		c-36.9,36.8-73.8,73.7-110.6,110.6c-1.9,1.9-2.9,2.1-4.8,0.1c-7.9-8.2-16-16.3-24.2-24.2c-2-2-1.8-3,0.1-4.8
		c18.2-18.1,36.4-36.3,54.5-54.5c0.6-0.6,1.1-1.3,1.7-1.9c0-1.2-0.6-1.8-1.8-1.8c-1,0-1.9,0-2.9,0c-37.2,0-74.3,0-111.5,0
		C736.7,181.1,735.3,181.7,734.1,180.6z"/>
</g>
<text transform="matrix(1.033 0 0 1 147.3379 508.7285)" class="st5 st6 st7">Sistema Inicial de</text>
<text transform="matrix(1.033 0 0 1 31.3145 616.7285)" class="st5 st6 st7">Gestión Organizacional</text>
</svg>
