<?xml version="1.0" encoding="utf-8"?>
<!-- Generator: Adobe Illustrator 25.2.1, SVG Export Plug-In . SVG Version: 6.00 Build 0)  -->
<svg version="1.1" id="Capa_1" xmlns="http://www.w3.org/2000/svg" xmlns:xlink="http://www.w3.org/1999/xlink" x="0px" y="0px"
	 viewBox="0 0 1000 1000" style="enable-background:new 0 0 1000 1000;" xml:space="preserve">
<style type="text/css">
	.st0{fill:#D49A3F;}
	.st1{fill:#FDFDFD;}
	.st2{display:none;enable-background:new    ;}
	.st3{font-family:'MyriadPro-Bold';}
	.st4{font-size:70px;}
	.st5{font-family:'MyriadPro-Light';}
	.st6{font-size:130px;}
</style>
<g>
	<path class="st0" d="M158.2,371.8c0-109.2,0-218.3,0-327.5c0-37.1,1.9-39.2,37.5-39.2C397.5,5,599.2,5,800.9,5.1
		c39.1,0,41,2.2,41,42.2c0,215.4-0.4,430.8,0.5,646.2c0.1,27.3-8.7,46.3-29.9,62.9c-96,75.2-191.4,151.1-286.5,227.4
		c-18.5,14.9-33.5,15-52.2,0c-94.3-75.7-188.9-151.1-284.3-225.5c-23.1-18-32.3-38.5-31.8-67.9C159.1,584.2,158.2,478,158.2,371.8z
		 M485.2,544.4c27,7.7,50.2,12.5,72,20.9c28.1,10.8,50.8,4.5,73.3-13.8c68.1-55.4,95.8-127.5,79.4-212.1
		c-17.5-90.3-75.3-148.9-165.6-167.7c-84.6-17.7-158.3,8-212.9,76.5c-71.2,89.2-57.7,223,28.1,294.9c5.6,4.7,14.2,19.2,21.3,5.3
		c7.8-15.4,19.2-13.9,31.7-14.8c27.6-2,55.2-4.4,82.9-13.7c-9.5-8.5-19.9-7-29.2-9.3c-55.5-13.9-97.3-65.3-101.1-124.1
		c-3.5-55.8,35.2-112.1,90.6-131.7c54.3-19.3,115.6-1,150.1,44.8c49.7,65.9,31.1,156.2-42.5,208.3
		C540.7,523.6,514.8,532.3,485.2,544.4z M695.8,647.7c0-39.4,0-39.4-39.8-42.8c-5.9-0.5-11.6-1.9-17.5-2.6
		c-63.7-7.8-123.5-31.4-185.9-44.4c-54.4-11.4-53.5-10.9-54.4,44.8c-0.3,19.6,4.6,27.5,24.8,29.5c21.3,2.1,42.4,8,63.2,13.3
		c56,14.3,110.9,33.2,169.2,37.8C695.9,686.5,695.8,687.4,695.8,647.7z"/>
	<path class="st1" d="M485.2,544.4c29.6-12,55.5-20.8,78.1-36.8c73.6-52,92.3-142.4,42.5-208.3c-34.5-45.8-95.8-64-150.1-44.8
		c-55.4,19.6-94.1,76-90.6,131.7c3.7,58.8,45.6,110.1,101.1,124.1c9.3,2.3,19.7,0.9,29.2,9.3c-27.7,9.4-55.3,11.8-82.9,13.7
		c-12.6,0.9-23.9-0.6-31.7,14.8c-7.1,13.9-15.7-0.6-21.3-5.3C273.6,471,260.1,337.2,331.3,248c54.6-68.5,128.3-94.1,212.9-76.5
		c90.3,18.8,148.1,77.4,165.6,167.7c16.4,84.6-11.3,156.7-79.4,212.1c-22.5,18.4-45.2,24.6-73.3,13.8
		C535.4,556.9,512.2,552.1,485.2,544.4z"/>
	<path class="st1" d="M695.8,647.7c0,39.7,0.1,38.8-40.4,35.5c-58.3-4.6-113.2-23.5-169.2-37.8c-20.9-5.3-41.9-11.3-63.2-13.3
		c-20.2-2-25.1-9.9-24.8-29.5c0.9-55.6,0-56.2,54.4-44.8c62.4,13.1,122.2,36.7,185.9,44.4c5.8,0.7,11.6,2.1,17.5,2.6
		C695.8,608.3,695.8,608.3,695.8,647.7z"/>
</g>
<text transform="matrix(1 0 0 1 532.9279 373.8345)" class="st2 st3 st4">SELLO DE</text>
<text transform="matrix(1 0 0 1 523.9279 497.1074)" class="st2 st5 st6">Calidad</text>
<text transform="matrix(1 0 0 1 524.0568 630.8142)" class="st2 st5 st6">Turística</text>
</svg>
