<?xml version="1.0" encoding="utf-8"?>
<!-- Generator: Adobe Illustrator 25.2.1, SVG Export Plug-In . SVG Version: 6.00 Build 0)  -->
<svg version="1.1" id="Capa_1" xmlns="http://www.w3.org/2000/svg" xmlns:xlink="http://www.w3.org/1999/xlink" x="0px" y="0px"
	 viewBox="0 0 1000 1000" style="enable-background:new 0 0 1000 1000;" xml:space="preserve">
<style type="text/css">
	.st0{fill:#FFFFFF;}
	.st1{fill:#DBAE67;}
	.st2{fill:#CD8D29;}
	.st3{fill:#273179;}
	.st4{fill:#CA4F24;}
	.st5{fill:#CF4E82;}
	.st6{fill:#D9332A;}
	.st7{fill:#85603C;}
	.st8{fill:#4C68CA;}
	.st9{fill:#86603C;}
	.st10{fill:#D9342C;}
	.st11{fill:#D03D42;}
	.st12{fill:#CA5025;}
	.st13{fill:#86613D;}
	.st14{fill:#D13E44;}
	.st15{fill:#87623E;}
	.st16{fill:#D0B792;}
	.st17{fill:#CB5126;}
	.st18{fill:#CB5228;}
	.st19{fill:#8B6642;}
	.st20{fill:#D99861;}
	.st21{fill:#CC5428;}
	.st22{fill:#CBA56C;}
	.st23{fill:#F2E4CE;}
	.st24{fill:#FEFEFF;}
	.st25{fill:#D03C42;}
	.st26{fill:#D03D43;}
	.st27{fill:#85613D;}
	.st28{fill:#CF4F83;}
	.st29{fill:#4D69CA;}
	.st30{fill:#D14046;}
	.st31{fill:#576CC9;}
	.st32{fill:#788AD5;}
	.st33{fill:#7487D4;}
	.st34{fill:#818CD6;}
	.st35{fill:#7C89D5;}
	.st36{fill:#AAB2E3;}
	.st37{fill:#D9342B;}
	.st38{fill:#D9352C;}
	.st39{fill:#8873BF;}
	.st40{fill:#8472BB;}
	.st41{fill:#FFFEFE;}
	.st42{fill:#D13F45;}
	.st43{fill:#CA4F25;}
</style>
<g>
	<path class="st0" d="M934.9,835.7c0-0.6,0-1.1,0.1-1.7c0-0.9,0-1.8,0-2.7c-0.2-1.2-0.3-2.5-0.6-3.7c-1.4-5.4-3.6-10.3-6.8-14.8
		c-3.8-5.4-8.3-9.9-13.8-13.6c-4.9-3.4-10.3-5.7-16.2-6.9c-5.6-1.2-11.2-1.4-17-0.7c-6.7,0.8-12.9,2.9-18.5,6.4
		c-7.2,4.5-13,10.4-17.4,17.6c-3.3,5.3-5.3,11.1-6.1,17.3c-0.5,3.8-0.6,7.7-0.3,11.6c0.5,7.3,2.7,14,6.5,20.3
		c3.1,5.2,7.2,9.7,11.9,13.5c5.6,4.6,12,7.8,19.1,9.4c4.4,1,8.8,1.3,13.2,1.1c4.8-0.1,9.5-1,14-2.6c12.5-4.2,24.6-15.5,29.6-28.5
		c1.1-3,2.1-6,2.3-9.2c0-0.7,0-1.4,0-2c0-0.7,0-1.4,0-2c-0.1-0.8-0.2-1.6,0.6-2.1c0-1.8,0-3.6,0-5.5
		C935.1,836.5,934.9,836.2,934.9,835.7z M887.1,865.6c-14.2,0-25.7-11.9-25.5-25.3c-0.6-13,10-25.8,25.2-25.9
		c14.9-0.1,26,12.4,25.7,25.4C912.9,854,900.6,865.6,887.1,865.6z"/>
	<path class="st0" d="M65.7,768.7c0-1.5,0.1-3,0.1-4.4c0-0.7-0.1-1.4-0.1-2c-0.6,0.6-0.6,1.3-0.7,2c0.1,0.6,0,1.2-0.6,1.5
		c0,41,0,82,0,123c0.5,0,0.9,0,1.4,0c0-1.2-0.1-2.5-0.1-3.7C65.7,846.2,65.7,807.4,65.7,768.7z"/>
	<path class="st0" d="M934.9,831.3c0.4,0.8,0.2,1.7,0.2,2.5c0,0.1,0,0.1,0,0.2c0.1,0,0.2,0,0.3,0c0-0.9,0-1.8,0-2.7
		C935.3,831.3,935.1,831.3,934.9,831.3z"/>
	<path class="st0" d="M935.2,834.3c0,0.9-0.3,1.7,0.3,2.5c0-0.9,0-1.8,0-2.7C935.4,834.2,935.3,834.3,935.2,834.3z"/>
	<path class="st0" d="M935.2,834.3c0-0.1,0-0.2,0-0.3c-0.1,0-0.2,0-0.3,0C935,834.2,935.1,834.3,935.2,834.3z"/>
	<path class="st0" d="M935.2,844.3c0.1,0,0.2,0,0.3,0c0-0.7,0-1.4,0-2.1C935,842.9,935.2,843.6,935.2,844.3z"/>
	<path class="st0" d="M935.2,844.5C935.2,844.5,935.2,844.5,935.2,844.5c0,0.6,0,1.2,0,1.9c0.1,0,0.2,0,0.4,0c0-0.7,0-1.4,0-2.1
		C935.4,844.5,935.3,844.5,935.2,844.5z"/>
	<path class="st0" d="M935.2,844.3c-0.1,0-0.2,0-0.3,0c0.1,0.1,0.2,0.1,0.3,0.2C935.2,844.5,935.2,844.4,935.2,844.3z"/>
	<path class="st0" d="M935.2,846.6c0,0.6,0.1,1.3-0.2,1.9l0.3,0l0.3-0.1c0-0.7,0-1.4,0-2.1C935.4,846.5,935.3,846.6,935.2,846.6z"/>
	<path class="st0" d="M935.2,846.5C935.2,846.5,935.2,846.4,935.2,846.5c-0.1-0.1-0.1-0.1-0.2-0.1
		C935,846.5,935.1,846.5,935.2,846.5C935.2,846.5,935.2,846.5,935.2,846.5z"/>
	<path class="st0" d="M64.5,764.3c0,0.5,0,0.9,0,1.4c0.5-0.4,0.3-1.1,0.6-1.5C64.9,764.2,64.7,764.2,64.5,764.3z"/>
	<path class="st0" d="M156.9,744.7c-4.9-8.9-11.8-15.8-20.8-20.6c-4.5-2.5-9.4-4-14.5-4.7c-4.3-0.6-8.6-0.7-12.9-0.3
		c-6.6,0.7-12.7,2.5-18.4,5.8c-7.9,4.6-14.2,10.9-18.8,18.9c-3.3,5.7-5.2,11.8-5.7,18.4c1.4,1.2,1.2,2.9,1.2,4.5
		c0,39.2,0,78.3,0,117.5c0,1.6,0.1,3.2-1.1,4.5c0.5,0,0.9,0.1,1.4,0.1c6.3,0,12.5,0,18.8,0c0.5,0,0.9,0,1.4,0c0.7,0,1.1-0.4,1.1-1
		c0-1,0-2,0-3.1c0-9.4,0-18.9,0-28.3c0-0.9,0-1.8,0-2.7c0-0.3,0-0.7,0-1c0-0.4,0.4-0.9,0.9-0.9c0.9,0,1.8-0.1,2.7-0.1
		c14.6,0,29.1,0,43.7,0c0.6,0,1.1,0,1.7,0c1.5,0,1.8,0.3,1.8,1.8c0,0.9,0,1.8,0,2.7c0,9.8,0,19.6,0,29.4c0,0.9,0.1,1.8,0.2,2.7
		c0,0.2,0.3,0.4,0.5,0.5c0.2,0.1,0.4,0.1,0.7,0.1c6.8,0,13.7,0,20.5,0c0.2,0,0.5,0,0.7-0.1c0.2-0.1,0.4-0.3,0.4-0.5
		c0.1-1.1,0.1-2.3,0.1-3.4c0-38.6,0-77.2,0-115.8c0-1.6,0-3.2-0.1-4.8C162,757.3,160.2,750.8,156.9,744.7z M135.5,828.5
		c-14.4,0-28.9,0-43.3,0c-1,0-2-0.1-3.1-0.2c-0.2,0-0.4-0.3-0.5-0.5c-0.1-0.4-0.2-0.9-0.2-1.3c0-2.8,0-5.7,0-8.5
		c0-7.2,0-14.3,0-21.5c0-9.4,0-18.9,0-28.3c0-2.6,0.3-5.2,1-7.8c2.2-8.2,9.6-15.4,17.6-17.5c14.3-3.8,26.6,4.6,30.7,15.7
		c1,2.8,1.4,5.7,1.5,8.7c0,0.7,0,1.4,0,2c0,18.4,0,36.9,0,55.3C139.3,829,139.6,828.5,135.5,828.5z"/>
	<path class="st0" d="M392.6,888.8c0.6,0,1.1-0.4,1.1-1c0-1.1,0-2.3,0-3.4c0-26.9,0-53.8,0-80.6c0-26.9,0-53.8,0-80.6c0-1,0-2,0-3.1
		c0-0.2,0-0.5-0.1-0.7c-0.1-0.2-0.3-0.4-0.5-0.5c-0.4-0.1-0.9-0.2-1.3-0.2c-6.4,0-12.7,0-19.1,0c-0.3,0-0.7,0.1-1,0.1
		c-0.4,0-0.8,0.5-0.9,0.9c0,1.1-0.1,2.3-0.1,3.4c0,23.6,0,47.1,0,70.7c0,1.1-0.1,2.3-0.1,3.4c0,0.3-0.5,0.5-0.8,0.4
		c-0.7-0.4-1.4-0.7-2.1-1.1c-6.9-3.6-14.2-5.4-22-5.5c-2.7,0-5.4,0.1-8.2,0.5c-6.2,0.9-11.9,2.9-17.3,6.1
		c-5.7,3.4-10.6,7.9-14.7,13.2c-4.1,5.3-6.9,11.2-8.4,17.7c-1.1,4.6-1.3,9.2-1.2,13.9c0.2,6.6,1.7,12.9,4.6,18.7
		c5.1,10.1,12.7,17.7,22.7,22.8c3,1.6,6.3,2.7,9.6,3.5c4.1,1,8.3,1.4,12.5,1.3c8.1,0,15.8-2,22.9-6c0.5-0.3,1-0.5,1.5-0.8
		c0.2-0.1,0.7,0.2,0.7,0.5c0,1,0.1,2,0.1,3.1c0,0.8,0,1.6,0.1,2.4c0,0.3,0.4,0.6,0.6,0.7c0.4,0.1,0.9,0.2,1.3,0.2
		c6.4,0,12.7,0,19.1,0C392.1,888.8,392.3,888.8,392.6,888.8z M344.9,865.6c-14.1,0-26-11.8-25.7-25.5c-0.3-13.6,11-25.7,25.4-25.8
		c13.5-0.1,25.8,10.6,25.7,25.9C370.3,855.3,357.7,865.6,344.9,865.6z"/>
	<path class="st0" d="M509,888.8c0.9,0,1.3-0.4,1.3-1.2c0-0.9,0-1.8,0-2.7c0-7.5,0-15,0-22.5c0-6.5,0-13,0-19.5
		c0-2.7-0.1-5.5-0.4-8.2c-0.6-7-2.8-13.6-6.5-19.6c-4.4-7.2-10.3-13-17.5-17.4c-4.9-3-10.2-4.9-15.9-5.9c-5-0.8-9.9-1-15-0.3
		c-7.4,0.9-14.1,3.3-20.3,7.5c-5.9,4-10.9,9-14.8,15c-1.2,1.8-2.2,3.7-3.2,5.7c-3.3,6.8-4.5,14-4.3,21.5c0.1,5.3,1,10.4,2.7,15.4
		c4.5,12.8,15.5,23.1,24.8,27.5c0.9,0.4,1.8,0.9,2.8,1.3c6.2,2.5,12.6,3.6,19.3,3.5c8-0.1,15.5-2,22.6-5.7c0.4-0.2,0.8-0.5,1.2-0.7
		c1-0.5,1.3-0.3,1.3,1c0,0.9,0,1.8,0,2.7c0,0.6,0,1.1,0,1.7c0,0.5,0.4,0.9,0.8,0.9c0.2,0,0.5,0.1,0.7,0.1c6.6,0,13.2,0,19.8,0
		C508.8,888.8,508.9,888.8,509,888.8z M461.4,865.5c-13.9,0.3-25.9-11.7-25.4-25.7c-0.3-12.7,10.1-25.4,25.3-25.5
		c14.2-0.1,25.7,11.4,25.7,25.6C487.1,855.1,474.3,865.9,461.4,865.5z"/>
	<path class="st0" d="M689.3,888.8c7.5-0.3,14.6-2.2,21.1-5.9c5.1-2.9,9.5-6.6,13.4-11c8.1-9.2,11.9-20,11.9-32.2
		c-0.1-1.5-0.2-3-0.3-4.4c-0.5-6.8-2.5-13.2-5.9-19.1c-3.8-6.5-8.8-11.8-14.9-16.3c-4.6-3.4-9.8-5.8-15.3-7.2
		c-6-1.5-12.1-2-18.3-1.2c-4.4,0.5-8.7,1.6-12.8,3.3c-10.9,4.5-21.6,15.1-26.4,26c-1.7,4-2.9,8.2-3.4,12.5
		c-0.4,3.4-0.4,6.8-0.3,10.2c0.4,8.4,3,16.1,7.7,23c3.8,5.6,8.5,10.4,14.1,14.2c4.6,3.2,9.7,5.4,15.2,6.8
		C679.8,888.6,684.5,888.9,689.3,888.8z M661.5,839.3c-0.1-12.4,10.4-25.1,25.8-24.9c14.3,0.2,25.6,12.3,25.1,26.1
		c0.1,13.7-12,25.6-26.4,25.1C672.7,865.1,660.9,853.7,661.5,839.3z"/>
	<path class="st0" d="M252.2,830c1,2.2,1.6,4.5,1.7,6.9c0.1,1.6,0.2,3.2,0.2,4.8c0,11.8,0,23.7,0,35.5c0,2.8,0,5.7,0,8.5
		c0,0.7,0,1.4,0.1,2c0,0.5,0.4,0.9,0.8,0.9c0.3,0,0.7,0.1,1,0.1c6.5,0,13,0,19.5,0c0.3,0,0.7,0,1-0.1c0.3-0.1,0.6-0.3,0.6-0.7
		c0-0.8,0.1-1.6,0.1-2.4c0-8.2,0-16.4,0-24.6c0-6.6,0-13.2,0-19.8c0-1.7-0.1-3.4-0.1-5.1c-0.1-2.6-0.5-5.2-1.1-7.8
		c-1.6-7.2-4.9-13.7-9.7-19.3c-4.8-5.8-10.5-10.4-17.3-13.6c-4.6-2.1-9.4-3.4-14.4-4c-7.1-0.8-14.1-0.2-20.9,2
		c-13.8,4.3-24.2,15.6-28.9,25.5c-3.1,6.6-4.5,13.6-4.5,20.8c0,15.4,0,30.7,0,46.1c0,0.7,0,1.4,0.1,2c0,0.4,0.5,0.8,0.9,0.8
		c0.2,0,0.5,0,0.7,0c6.6,0,13.2,0,19.8,0c0.3,0,0.7,0,1-0.1c0.2-0.1,0.5-0.3,0.5-0.5c0.1-1,0.1-2,0.1-3.1c0-14.3,0-28.7,0-43
		c0-1.1,0-2.3,0-3.4c0-2.1,0.4-4.1,1-6.1c3.3-11.8,16.3-21.8,31.8-17.3C243.7,817.6,248.9,822.8,252.2,830z"/>
	<path class="st0" d="M618.7,867c0.2-0.4,0.2-0.8-0.3-1.2c-0.2-0.1-0.3-0.3-0.5-0.4c-5.5-4.1-10.9-8.2-16.4-12.3
		c-0.2-0.1-0.4-0.3-0.6-0.3c-0.2,0-0.5,0-0.6,0.1c-0.7,0.9-1.3,1.8-2,2.7c-7.1,9-17.9,11.8-27.8,8.8c-11.5-3.4-20.8-15.5-17.2-30.8
		c3.1-12.9,16.6-22.5,31.8-18.3c5.3,1.5,9.6,4.5,13.1,8.8c0.7,0.9,1.4,1.8,2,2.7c0.2,0.2,0.7,0.3,0.9,0.2c0.2-0.1,0.4-0.2,0.6-0.4
		c5.5-4.1,10.9-8.2,16.4-12.3c0.3-0.2,0.5-0.4,0.7-0.7c0.1-0.2,0.2-0.5,0.1-0.6c-0.2-0.4-0.5-0.8-0.7-1.2c-3.4-4.6-7.4-8.6-12.1-12
		c-2.9-2.2-6.1-3.9-9.5-5.3c-4.1-1.7-8.4-2.7-12.9-3.2c-5.3-0.6-10.4-0.3-15.6,0.6c-8.1,1.6-15.2,5.2-21.5,10.6
		c-5,4.4-9.3,9.4-12.3,15.3c-2.6,5.1-4.2,10.5-4.8,16.3c-0.9,8-0.1,15.7,2.8,23.1c4,10.5,11.2,18.4,20.5,24.4c7.6,4.9,16,7,25.4,7
		c5.9,0.1,12-0.9,17.9-3.3c9.3-3.7,16.5-9.9,22.3-17.9C618.5,867.4,618.6,867.2,618.7,867z"/>
	<path class="st0" d="M777.6,723.4c0-0.9,0-1.8,0-2.7c0-0.3-0.1-0.7-0.1-1c0-0.4-0.3-0.6-0.6-0.7c-0.4-0.1-0.9-0.1-1.3-0.1
		c-6.4,0-12.7,0-19.1,0c-0.1,0-0.2,0-0.3,0c-1.1,0-1.5,0.4-1.5,1.4c0,1,0,2,0,3.1c0,26.9,0,53.7,0,80.6c0,26.8,0,53.5,0,80.3
		c0,0.9,0,1.8,0,2.7c0,0.3,0,0.7,0,1c0,0.5,0.4,0.9,0.8,0.9c0.6,0,1.1,0.1,1.7,0.1c5.3,0,10.7,0,16,0c5.1,0,4.4,0.7,4.4-4.6
		C777.6,830.6,777.6,777,777.6,723.4z"/>
	<path class="st0" d="M819.2,719.5c-0.1-0.3-0.4-0.6-0.7-0.6c-0.8-0.1-1.6-0.1-2.4-0.1c-5.5,0-10.9,0-16.4,0c-0.7,0-1.4,0-2,0
		c-0.8,0-1.3,0.5-1.3,1.2c0,1.1,0,2.3,0,3.4c0,53.6,0,107.2,0,160.8c0,0.9,0,1.8,0,2.7c0,0.3,0,0.7,0.1,1c0.1,0.3,0.4,0.6,0.6,0.7
		c0.4,0.1,0.9,0.2,1.3,0.2c6.4,0,12.7,0,19.1,0c0.2,0,0.5,0,0.7,0c0.6,0,1.1-0.4,1.1-1c0-1.1,0-2.3,0-3.4c0-26.9,0-53.7,0-80.6
		c0-26.7,0-53.5,0-80.2c0-1,0-2,0-3.1C819.3,720.1,819.3,719.8,819.2,719.5z"/>
	<path class="st0" d="M425,986.1c-0.9-0.1-1.8-0.1-2.7-0.1c-7.5,0-15,0-22.5,0c-1,0-2,0-3.1,0c-0.7,0-1.1-0.4-1.1-1
		c0-1.6,0-3.2,0-4.8c0-5.7,0-11.4,0-17.1c0-0.7,0.1-1.4,0.2-2c0-0.2,0.3-0.4,0.5-0.4c0.7-0.1,1.4-0.1,2-0.1c6.5,0,13,0,19.5,0
		c0.9,0,1.8,0,2.7,0c1.1,0,1.5-0.3,1.5-1.4c0-1.7,0-3.4,0-5.1c0-0.2,0-0.5-0.1-0.7c-0.1-0.2-0.3-0.4-0.5-0.5
		c-0.8-0.1-1.6-0.1-2.4-0.1c-6.6,0-13.2,0-19.8,0c-0.9,0-1.8,0-2.7-0.1c-0.3,0-0.6-0.4-0.7-0.6c-0.1-0.5-0.2-1.1-0.2-1.7
		c0-3.9,0-7.7,0-11.6c0-3,0-5.9,0-8.9c0-1.1,0.4-1.4,1.4-1.4c1,0,2,0,3.1,0c7.4,0,14.8,0,22.2,0c1.5,0,1.8-0.2,1.8-1.8
		c0-1.7,0-3.4,0-5.1c0-0.3-0.6-0.9-0.9-0.9c-0.9,0-1.8-0.1-2.7-0.1c-6,0-12.1,0-18.1,0c-4,0-8,0-11.9,0c-0.8,0-1.6,0-2.4,0.1
		c-0.6,0-1,0.5-1,1.1c0,1,0,2,0,3.1c0,10.8,0,21.6,0,32.4c0,7.1,0,14.1,0,21.2c0,4.6,0,9.1,0,13.7c0,1.5,0.3,1.8,1.8,1.8
		c0.5,0,0.9,0,1.4,0c10.9,0,21.8,0,32.8,0c0.6,0,1.1,0,1.7,0c0.2,0,0.5,0,0.7-0.2c0.2-0.1,0.4-0.3,0.4-0.5c0.3-2.1,0.2-4.3,0-6.5
		C425.6,986.5,425.3,986.1,425,986.1z"/>
	<path class="st0" d="M333.9,948.6c-2.5-3.6-5.7-6.1-9.9-7.4c-1.5-0.5-3.1-0.7-4.7-0.9c-6.8-0.7-12.8,1.1-17.9,5.7
		c-5.4,4.9-8.1,11.2-8.6,18.4c-0.2,2.5-0.2,5,0,7.5c0.2,3.5,1,7,2.5,10.2c3.5,7.6,9.4,11.8,17.6,12.7c2.8,0.3,5.7,0.2,8.5-0.1
		c3.2-0.3,6.3-1,9.2-2.4c4.6-2.3,3.9-1.5,3.9-6c0-1-0.1-2-0.1-3.1c0-0.3-0.5-0.5-0.8-0.3c-0.6,0.4-1.2,0.7-1.7,1.1
		c-4.9,3.1-10.2,4.4-15.9,3.8c-6.2-0.6-10.6-3.7-13-9.5c-1-2.4-1.6-5-1.4-7.6c0-0.4,0.4-0.8,0.9-0.8c0.9,0,1.8-0.1,2.7-0.1
		c4.9,0,9.8,0,14.7,0c4.9,0,9.8,0,14.7,0c0.9,0,1.8,0,2.7-0.1c0.6,0,1.1-0.5,1.1-1.1c0.2-3.5,0-7.1-0.6-10.5
		C337,954.7,335.8,951.5,333.9,948.6z M328.4,962.6c-0.8,0-1.6,0-2.4,0c-3.5,0-7,0-10.5,0c-3.6,0-7.3,0-10.9,0c-0.6,0-1.1,0-1.7,0
		c-1.2,0-1.5-0.5-1.2-1.7c0.2-0.9,0.4-1.8,0.7-2.6c1-2.7,2.4-5.1,4.5-7.1c2.5-2.3,5.4-3.7,8.9-3.7c1.6,0,3.2,0,4.7,0.4
		c3.1,0.9,5.4,2.8,7,5.6c1.4,2.5,2,5.3,2,8.2C329.5,962.2,329.1,962.5,328.4,962.6z"/>
	<path class="st0" d="M591.7,950.6c-1.7-4.7-4.8-7.9-9.7-9.3c-3.2-0.9-6.5-1.3-9.8-1c-1.2,0.1-2.5,0.2-3.7,0.4
		c-3.8,0.7-7.5,1.9-10.8,3.9c-0.4,0.3-0.7,0.6-0.7,1.1c0,2.3,0,4.5,0,6.8c0,0.3,0.5,0.5,0.8,0.3c0.9-0.6,1.7-1.1,2.6-1.7
		c4.8-3,10-4.3,15.6-3.7c3.2,0.3,5.5,1.9,7,4.8c1.2,2.4,1.6,5,1.5,7.6c0,0.2-0.4,0.6-0.6,0.7c-0.6,0.2-1.3,0.4-2,0.5
		c-3.9,0.5-7.9,1.1-11.8,1.6c-1.5,0.2-2.9,0.4-4.4,0.8c-2.3,0.5-4.6,1.3-6.7,2.6c-3.3,1.9-5.6,4.7-6.6,8.4c-0.8,2.9-1,5.8-0.5,8.8
		c1.1,5.5,4.3,9.1,9.6,10.9c2.5,0.9,5.1,1,7.7,0.9c1.5-0.1,2.9-0.3,4.4-0.7c3.4-0.9,6.2-2.8,8.5-5.5c0.6-0.7,1.2-1.4,1.7-2.1
		c0.1-0.1,0.2-0.1,0.3-0.1c0.1,0,0.2,0.1,0.2,0.2c0.1,0.4,0.2,0.9,0.2,1.3c0,1.5,0,3,0.1,4.4c0,0.6,0.5,1.1,1.1,1.1
		c2.2,0,4.3,0,6.5-0.1c0.2,0,0.6-0.4,0.7-0.6c0.1-0.7,0.1-1.4,0.1-2c0-5.3,0-10.7,0-16c0-1.5,0-3,0-4.4c0-3.8,0-7.5,0-11.3
		C593.1,956.3,592.7,953.4,591.7,950.6z M584.4,975.9c-1.1,5.9-4.4,9.9-10.3,11.5c-2.8,0.8-5.6,0.7-8.4-0.3
		c-2.2-0.9-3.9-2.3-4.7-4.6c-1.1-3-0.9-6,0.8-8.9c0.6-1,1.5-1.7,2.5-2.2c1.9-1,4-1.7,6.1-2c3.1-0.5,6.3-0.9,9.4-1.4
		c1.2-0.2,2.5-0.4,3.7-0.5c0.6-0.1,1.1,0.3,1.1,1c0,0.9,0,1.8,0,2.7c0,0,0.1,0,0.1,0C584.7,972.8,584.7,974.4,584.4,975.9z"/>
	<path class="st0" d="M750.3,957.9c-0.1-2.4-0.5-4.8-1.3-7c-1.6-4.9-4.8-8.1-9.8-9.6c-3.2-0.9-6.5-1.3-9.8-1c-1,0.1-2,0.2-3,0.4
		c-4,0.5-7.7,1.8-11.2,3.8c-0.6,0.4-1.1,0.8-1,1.6c0,2.2,0,4.3,0,6.5c0,0.3,0.5,0.6,0.7,0.4c0.9-0.6,1.7-1.2,2.5-1.7
		c4.7-2.9,9.7-4.3,15.3-3.9c3.9,0.3,6.6,2.3,8,5.9c0.8,2,1,4.2,1.1,6.3c0,0.4-0.4,0.9-0.8,1c-0.6,0.1-1.1,0.3-1.7,0.4
		c-2.3,0.3-4.5,0.6-6.8,0.9c-2.9,0.4-5.9,0.8-8.8,1.3c-2.7,0.5-5.3,1.4-7.7,2.8c-2.7,1.6-4.8,3.8-6,6.8c-1.1,2.7-1.5,5.5-1.2,8.4
		c0.1,1.3,0.4,2.7,0.8,4c1.4,4.4,4.5,7.3,8.8,8.8c3.2,1.1,6.5,1.2,9.8,0.8c4-0.4,7.4-2.1,10.2-5c0.8-0.8,1.5-1.7,2.2-2.6
		c0.1-0.2,0.3-0.3,0.5-0.4c0.1,0,0.2,0,0.3,0c0.1,0,0.3,0.1,0.3,0.2c0,1.4,0.1,2.7,0.1,4.1c0,2.8,0,2.8,2.8,2.8c1.3,0,2.5,0,3.8,0
		c0.3,0,0.7,0,1-0.1c0.3-0.1,0.6-0.3,0.6-0.7c0.1-0.8,0.1-1.6,0.1-2.4c0-5.3,0-10.7,0-16c0-4.7,0-9.3,0-14
		C750.3,959.7,750.3,958.8,750.3,957.9z M741.5,976.4c-1.3,5.7-4.6,9.6-10.3,11.1c-2.7,0.7-5.4,0.7-8.1-0.3
		c-3.6-1.4-5.6-4.6-5.5-7.9c0-1,0.1-2.1,0.3-3c0.5-2.4,1.8-4.1,4.1-5.2c1.8-0.8,3.6-1.4,5.5-1.7c3-0.5,6.1-0.9,9.1-1.3
		c1.5-0.2,2.9-0.4,4.4-0.6c0.4,0,0.9,0.4,0.9,0.8c0,0.9,0,1.8,0,2.1C742.1,972.8,741.9,974.7,741.5,976.4z"/>
	<path class="st0" d="M655.4,958.6c-0.3-3.4-0.9-6.8-2.5-9.8c-2-4-5.1-6.6-9.4-7.8c-1.1-0.3-2.2-0.5-3.4-0.6
		c-6.8-0.6-12.6,1.3-17.1,6.5c-0.6,0.7-1.1,1.4-1.7,2.1c-0.1,0.1-0.2,0.1-0.3,0.1c-0.3,0-0.4-0.1-0.4-0.4c0-1.9,0-3.9-0.1-5.8
		c0-1.1-0.4-1.4-1.4-1.5c-1.8,0-3.6,0-5.5,0c-1.2,0-1.5,0.4-1.5,1.7c0,0.9,0,1.8,0,2.7c0,7.3,0,14.6,0,21.8c0,7.4,0,14.8,0,22.2
		c0,0.9,0,1.8,0,2.7c0,0.6,0.5,1.2,1,1.2c2.2,0,4.3,0,6.5,0c0.1,0,0.2,0,0.3-0.1c0.2-0.1,0.4-0.3,0.4-0.5c0.1-0.8,0.2-1.6,0.2-2.4
		c0-8.4,0-16.8,0-25.3c0-1.5,0-3,0.1-4.4c0.5-4.2,2.2-7.8,5.5-10.6c2.1-1.8,4.6-2.9,7.4-3c1,0,2-0.1,3.1,0c3.7,0.3,6.4,2.1,8.2,5.3
		c0.9,1.6,1.4,3.3,1.7,5.1c0.4,2.4,0.6,4.7,0.6,7.1c0,8.2,0,16.4,0,24.6c0,1,0,2,0,3.1c0,0.6,0.5,1.1,1,1.1c1.6,0,3.2,0.1,4.8,0
		c2.4,0,2.5,0,2.5-2.5c0-10.1,0-20.3,0-30.4C655.4,960.2,655.4,959.4,655.4,958.6z"/>
	<path class="st0" d="M482.2,948c-2-3.5-5-5.9-8.9-7c-3.9-1.1-7.9-1-11.8,0.1c-3.4,1-6.2,2.8-8.5,5.4c-0.7,0.8-1.3,1.6-1.9,2.4
		c-0.2,0.2-0.3,0.3-0.6,0.1c-0.1,0-0.2-0.2-0.2-0.2c-0.1-1.9-0.1-3.9-0.1-5.8c0-1.1-0.4-1.5-1.4-1.5c-1.9,0-3.9,0-5.8,0
		c-0.2,0-0.5,0-0.7,0.1c-0.2,0.1-0.4,0.3-0.5,0.5c-0.1,0.7-0.2,1.3-0.2,2c0,7.9,0,15.7,0,23.6c0,7.4,0,14.8,0,22.2c0,1,0,2,0.1,3.1
		c0,0.4,0.5,0.9,0.9,0.9c2.2,0,4.3,0,6.5,0c0.6,0,1-0.5,1-1.1c0-0.9,0-1.8,0-2.7c0-8.1,0-16.2,0-24.2c0-1.6,0-3.2,0.2-4.8
		c0.5-4.1,2.3-7.6,5.4-10.4c1.6-1.5,3.6-2.4,5.7-2.9c1.7-0.4,3.4-0.4,5.1-0.2c3.4,0.4,6,2,7.8,4.9c1.1,1.9,1.8,3.9,2.1,6.1
		c0.3,2.4,0.5,4.7,0.5,7.1c0,8.1,0,16.2,0,24.2c0,1,0,2,0.1,3.1c0,0.4,0.5,0.9,0.9,0.9c2.2,0,4.3,0,6.5,0c0.4,0,0.8-0.5,0.9-0.9
		c0-0.3,0.1-0.7,0.1-1c0-10.4,0-20.7,0-31.1c0-2.3-0.3-4.5-0.8-6.8C484.1,951.9,483.3,949.9,482.2,948z"/>
	<path class="st0" d="M293.4,927.3c0-1,0.1-2,0.1-3.1c0-4.1,0.5-3.8-3.9-3.8c-14.1,0-28.2,0-42.3,0c-5.2,0-4.4-0.6-4.5,4.5
		c0,0.7,0,1.4,0,2c0,0.2,0,0.5,0.1,0.7c0.1,0.2,0.3,0.4,0.5,0.4c0.6,0.1,1.1,0.1,1.7,0.1c4.8,0,9.6,0,14.3,0c0.9,0,1.8,0,2.7,0
		c1.3,0,1.7,0.3,1.7,1.5c0,0.9,0,1.8,0,2.7c0,9.4,0,18.9,0,28.3c0,9.6,0,19.1,0,28.7c0,1,0,2,0,3.1c0,0.6,0.5,1.1,1.1,1.1
		c2,0,4.1,0,6.1,0c0.2,0,0.5,0,0.6-0.1c0.2-0.1,0.4-0.3,0.4-0.5c0.1-0.6,0.2-1.1,0.2-1.7c0-3.8,0-7.5,0-11.3c0-15.9,0-31.9,0-47.8
		c0-1,0-2,0-3.1c0-0.6,0.5-1,1.1-1c0.8,0,1.6,0,2.4,0c4.8,0,9.6,0,14.3,0c0.8,0,1.6,0,2.4-0.1C292.9,928.2,293.3,927.8,293.4,927.3z
		"/>
	<path class="st0" d="M698.4,987c0-0.1-0.1-0.2-0.2-0.2c-0.2,0-0.5,0-0.7,0.1c-1.8,0.8-3.7,1.2-5.6,1c-3.1-0.3-5.1-1.9-5.9-4.8
		c-0.5-1.8-0.5-3.6-0.5-5.4c0-8.7,0-17.3,0-26c0-0.7,0-1.4,0.1-2c0-0.4,0.4-0.8,0.9-0.8c0.7,0,1.4-0.1,2-0.1c2.5,0,5,0,7.5,0
		c0.6,0,1.1,0,1.7-0.1c0.3,0,0.8-0.6,0.8-0.9c0-1.8,0-3.6-0.1-5.5c0-0.4-0.4-0.6-0.7-0.7c-0.6-0.1-1.1-0.1-1.7-0.1
		c-2.7,0-5.5,0-8.2,0c-0.6,0-1.1,0-1.7-0.1c-0.3-0.1-0.6-0.4-0.6-0.7c-0.1-0.7-0.1-1.4-0.1-2c0-3.5,0-7.1,0-10.6
		c0-0.4-0.1-0.9-0.2-1.3c0-0.1-0.4-0.3-0.5-0.3c-2.5,0.4-4.8,1.4-7.1,2.2c-0.2,0.1-0.3,0.3-0.4,0.5c-0.1,0.6-0.1,1.1-0.1,1.7
		c0,2.7,0,5.5,0,8.2c0,0.6,0,1.1-0.1,1.7c-0.1,0.3-0.3,0.6-0.7,0.6c-0.9,0-1.8,0.1-2.7,0.1c-1.5,0-3,0-4.4,0.1
		c-0.4,0-0.9,0.4-0.9,0.8c0,1.8,0,3.6,0,5.4c0,0.3,0.6,0.8,0.9,0.9c0.9,0,1.8,0,2.7,0.1c1.4,0,2.7,0,4.1,0c0.6,0,1.1,0.5,1.1,1
		c0,0.8,0,1.6,0,2.4c0,4.7,0,9.3,0,14c0,4.3,0,8.7,0,13c0,1.4,0.1,2.7,0.2,4.1c0.1,2,0.7,3.8,1.6,5.5c1.3,2.6,3.3,4.3,6,5.3
		c1.2,0.4,2.4,0.7,3.7,0.8c2.7,0.1,5.5,0.2,8.1-0.7c1.7-0.6,1.9-0.8,1.9-2.7c0-1.3,0-2.5,0-3.8C698.5,987.4,698.5,987.2,698.4,987z"
		/>
	<path class="st0" d="M538.8,942.3c-2.4-1-5-1.5-7.6-1.9c-3.6-0.5-7.1-0.2-10.5,0.5c-9,2-15.1,7.6-18.3,16.2c-1,2.7-1.4,5.5-1.7,8.3
		c-0.5,4.1-0.1,8.2,1.1,12.2c2.3,7.8,7.2,13.3,15,16c2.5,0.9,5.1,1.2,7.7,1.3c4.1,0.1,8.2-0.3,12-1.9c3.8-1.6,3.3-1.2,3.4-4.9
		c0-1.1,0-2.3,0-3.4c0-0.7-0.5-0.9-1.2-0.5c-0.4,0.2-0.8,0.5-1.2,0.7c-4,2.4-8.4,3.4-13.1,2.9c-4.6-0.5-8.4-2.5-11.3-6.3
		c-1.5-2-2.6-4.3-3.2-6.7c-1-4.4-1.1-8.8,0-13.2c0.9-4,2.9-7.4,6-10.1c2.4-2.1,5.1-3.5,8.2-3.9c4.5-0.6,8.8-0.1,12.9,2
		c0.7,0.4,1.4,0.7,2.1,1.1c0.2,0.1,0.7-0.1,0.7-0.4c0-1.1,0-2.3,0-3.4c0,0,0,0,0.1,0c0-1,0-2,0-3.1
		C539.9,943,539.5,942.6,538.8,942.3z"/>
</g>
<g>
	<path class="st1" d="M225.1,5.7c0-0.2-0.1-0.5-0.1-0.7c183.5,0,367.1,0,550.6,0c0,0.2,0,0.5,0,0.7c-1,0.9-2.2,1-3.5,1.1
		c-1.3,0-2.5,0-3.8,0c-178.7,0-357.4,0-536,0C229.9,6.8,227.3,7.4,225.1,5.7z"/>
	<path class="st2" d="M225.1,5.7c1.7,0,3.4,0,5.1,0c181.8,0,363.6,0,545.4,0c0.1,1.4,0.2,2.7,0.2,4.1c0,32.6,0,65.1,0,97.7
		c0,47.2,0,94.3,0,141.5c0,42.6,0,85.2,0,127.8c0,3.6-0.1,7.3-0.1,10.9c0,5.4-0.5,10.7-0.9,16c-0.7,7.8-1.7,15.6-3.1,23.3
		c-4.3,25.6-12.2,50.1-23.4,73.6c-9.1,19.2-20.3,37.2-33.4,53.9c-7.7,9.8-16,19-24.9,27.6c-19,18.3-40,33.7-63.4,46
		c-20.1,10.6-41.3,18.5-63.4,23.9c-6.3,1.5-12.7,2.8-19.1,3.8c-3.9,0.6-7.9,1.2-11.8,1.8c-2.1,0.3-4.3,0.5-6.4,0.7
		c-4.2,0.3-8.4,0.7-12.6,0.8c-8.6,0.3-17.3,0.3-26,0c-4.7-0.2-9.3-0.5-13.9-1.1c-2.5-0.3-5-0.5-7.5-0.8c-4.3-0.6-8.6-1.2-12.8-1.9
		c-6.7-1.1-13.4-2.6-20-4.3c-17-4.3-33.5-10.2-49.3-17.9c-13.7-6.6-26.7-14.2-39.2-22.9c-8.2-5.8-16.1-12-23.6-18.6
		c-6.8-5.9-13.2-12.2-19.4-18.8c-14.1-15-26.5-31.3-37-49c-11.8-19.9-21.1-40.8-27.7-63c-3-10-5.5-20.2-7.4-30.5
		c-1-5.1-1.7-10.3-2.4-15.5c-0.4-2.9-0.5-5.9-0.9-8.8c-0.6-4.4-0.5-8.9-1-13.3c-0.1-1-0.1-2-0.1-3.1c-0.1-4-0.2-8-0.2-12
		c0-122.7,0-245.3,0-368C225,8.4,225.1,7.1,225.1,5.7z"/>
	<path class="st3" d="M255.7,204.8c0-1.1-0.1-2.3-0.1-3.4c0-53.8,0-107.5,0-161.3c0-0.2,0-0.5,0-0.7c0-3.6-0.1-3.6,3.6-3.6
		c0.8,0,1.6,0,2.4,0c159.5,0,319,0,478.5,0c1.6,0,3.2,0,4.8,0c0.9,1.2,0.4,2.6,0.4,4c0,54.4,0,108.7,0,163.1
		c0.1,1.4-0.2,2.4-1.8,1.3c-0.8-0.5-1.3-1.3-1.8-2c-9.2-11.8-19.4-22.8-30.3-33.1c-7.4-7-15.3-13.5-23.3-19.9
		c-1-0.8-2.1-1.4-2.5-2.7c-0.2-0.7-0.2-1.3-0.3-2c-0.2-4.2-0.2-4.2-4.2-4.6c-2.2-0.2-3.5-1.1-3.9-3.4c-0.3-1.6,0.8-4.2-1.8-4.5
		c-2.7-0.4-5.7-1.2-7.9,1.4c-1.7,0.8-2.8-0.5-4-1.2c-21.5-13.4-44.3-24.1-68.4-31.9c-18.4-5.9-37.3-10.2-56.5-12.4
		c-1.6-0.2-3.2-0.3-4.3-1.8c-0.7-1.7,0.5-3,1-4.7c-3.8,1.6-7.2,2-10.3-1.3c-1-1.1-1.7-0.5-1.9,0.9c-0.1,1.7,0.4,3.8-1.9,4.6
		c-5.3,0.4-10.7,0.6-16-0.2c-2.3-0.3-4.5-0.3-6.8-0.2c-16.9,0.9-33.8,1.7-50.5,4.7c-26.1,4.7-51.3,12.3-75.4,23.4
		c-11.8,5.4-23.1,11.7-34.2,18.4c-1.4,0.9-2.7,2.2-4.6,1.8c-2.3-2.7-5.4-1.8-8.3-1.6c-1.5,0.1-1.4,1.5-1.6,2.6
		c-0.6,4.9-0.6,5-5.2,5.3c-2.1,0.2-3.1,1-3,3.1c0,1.1,0,2.3-0.2,3.4c-0.3,1.3-1.3,2.1-2.3,2.8c-11.7,9-22.8,18.7-33,29.3
		c-7.3,7.6-14.3,15.5-20.8,23.8C258.2,203.5,257.5,205,255.7,204.8z"/>
	<path class="st0" d="M667,133.5c0.4-0.8-0.2-1.9,0.7-2.5c0.8-0.5,1.8-0.2,2.7-0.2c2.3,0,4.5,0,6.8,0c0.4,0,0.8,0.4,0.8,0.9
		c0.1,2,0.1,4.1,0.1,6.1c0,0.4,0.3,0.6,0.6,0.7c0.4,0.1,0.9,0.2,1.3,0.2c1.5,0,3,0,4.4,0c0.3,0,0.7,0.1,1,0.2
		c0.2,0.1,0.4,0.3,0.4,0.5c0.1,0.6,0.1,1.1,0.2,1.7c0.1,2,0.1,4.1,0.2,6.1c0.9,2.7-1,2.8-2.8,3c-4.6,0.5-4.6,0.5-4.6,5.1
		c0,4.2,0.1,8.4,0,12.6c-0.1,2.7,1.1,3.9,3.7,4.3c12.2,1.8,23,6.9,32.4,15c9.1,7.9,15.2,17.7,18.7,29.2c0.9,2.9,1,6,3.4,8.4
		c1,1,0.7,2.6,0.7,4c0.1,5.7-0.1,11.4,0.1,17.1c0.2,37.6,0,75.1,0.1,112.7c0,0.5,0,0.9,0,1.4c0,6,0,6,5.7,7.3
		c0.6,0.1,1.1,0.4,1.5,0.8c0.3,0.5,0.4,1.1,0.4,1.6c-0.1,5.5,0.2,10.9-0.2,16.4c-0.1,1.5-0.1,3-0.2,4.4c-0.1,5.5-0.7,10.9-1.3,16.3
		c-0.4,4.1-1,8.1-1.6,12.2c-0.6,3.6-1,7.2-2.1,10.7c-0.5,0.2-0.9,0-1.1-0.4c-0.7-1.5-0.5-3.1-0.5-4.7c0-14.4,0-28.7,0-43.1
		c0-4.5-0.3-4.8-4.9-4.8c-40.5,0-81.1,0-121.6,0c-1.4,0-3-0.3-4.1,1.1c-0.7,1.4-0.5,2.9-0.5,4.4c0,28.1,0,56.2,0,84.4
		c0,5.1,0.1,5.2,5.1,5.2c13.2,0.1,26.4-0.1,39.6,0.1c23.8-0.2,47.6-0.1,71.3-0.1c1.4,0,2.8,0,3.7,1.3c-0.5,1.8-1.2,3.5-2.1,5.1
		c-1.1,1-2.4,1.2-3.8,1.2c-23,0-46,0.1-69.1-0.1c-13.2,0.2-26.4,0-39.6,0.1c-5.2,0-5.3,0.1-5.3,5.4c0,6.7,0,13.4,0,20.1
		c0,4.1,0.3,4.4,4.5,4.4c13.4,0.1,26.8-0.1,40.3,0.1c17.4-0.2,34.9-0.1,52.3-0.1c1.3,0,2.7,0,3.8,1.1c-0.4,1.8-1.6,3.2-2.6,4.6
		c-0.2,0.2-0.6,0.3-0.9,0.4c-0.9,0.8-2.1,0.8-3.2,0.8c-2.7-0.2-3.5,1.2-3.4,3.7c0.1,2.4,0.2,4.7-0.8,7c-0.2,0.5-0.4,1.1-0.7,1.5
		c-1.8,2.5-3.7,4.9-5.5,7.3c-0.4,0.6-1,0.8-1.8,0.8c-2.1,0-4.3,0-6.4,0c-2.3,0-4.5,0-6.8,0c-0.5,0-0.9,0.1-1.2,0.4
		c1.3,2.7,0.7,5.5,0.7,8.3c0,2.3,0.4,4.2,2.4,5.6c-1,1.5-2.4,2.7-3.6,4c-0.5,0.5-1.1,0.7-1.8,0.7c-5.4,0-10.9,0-16.3,0
		c-1,0-2,0-3.1,0.1c-0.3,0-0.5,0.3-0.8,0.5c1.5,4.1,0.8,8.4,0.6,12.6c1.7,0.5,3.4,0.1,5,0.3c0.2,0,0.4,0.1,0.6,0.3
		c0.1,0,0.1,0.2,0,0.3c0,0.1-0.1,0.2-0.1,0.3c-1.5,1.2-2.9,2.5-4.4,3.7c-0.3,0.3-0.8,0.3-1.3,0.5c-1.5,0.9-3.2,1-4.9,1
		c-5.7,0-11.3,0-17,0c-2.5,0-3.9,0.9-3.7,3.6c0,0.7,0,1.4,0,2c0,5.3,0,5.3,5.3,6.1c0.9,0.1,1.8,0.2,2.4,1.1c-1.9,1.8-4.2,3-6.4,4.4
		c-0.5,0.3-1.1,0.4-1.6,0.5c-4.4,1.5-9,0.7-13.6,0.8c-5.8,0.1-5.8,0-5.9,5.7c0,1.7,0.2,3.4-1,4.9c-0.2,0.2-0.4,0.5-0.7,0.7
		c-1.7,0.9-3.4,1.9-5.3,2.5c-1.7-1.5-1.1-3.6-1.1-5.5c0-39-0.2-78.1,0.1-117.1c0-6.2-1.5-10-6.9-13.6
		c-29.7-20.2-59.2-40.8-88.8-61.2c-4.3-3-4.3-2.9-8.6,0c-7.1,4.8-14,9.7-21.1,14.5c-23.1,16.1-46.2,32-69.3,48
		c-2.8,1.9-3.8,4-3.8,7.3c0.1,40.5,0.1,81,0,121.5c0,1.9,0.6,3.9-1.1,5.5c-1.3,0-2.3-0.8-3.4-1.3c-2.9-1.4-2.7-1.1-2.7-4.3
		c0-2.3,0-4.5,0-6.8c0-0.5-0.1-0.9-0.4-1.2l-0.1-0.1c-0.2-0.1-0.3-0.4-0.5-0.4c-0.9-0.1-1.8-0.1-2.7-0.1c-5.1,0-10.2,0-15.3,0
		c-1.1,0-2-0.2-2.9-0.8c-1.4-1-2.9-1.9-4.3-2.8c-0.5-0.3-0.9-0.7-1-1.3c0.9-1.1,2.9-1.1,3-3c0.1-2.8,0.6-5.7-0.3-8.4
		c-0.5-1.5-2-1.2-3.2-1.2c-4.3-0.1-8.6,0-12.9,0c-1.7,0-3.4-0.1-4.9-1c-0.3-0.1-0.7-0.1-1-0.3c-1.6-1.3-3.1-2.6-4.7-4
		c-0.1,0,0-0.2,0-0.3c0-0.1,0.1-0.2,0.2-0.2c1.1-0.4,2.2-0.1,3.4-0.2c0.5,0,0.9,0,1.2-0.4c-1.3-4.1-1.5-8.3,0.1-12.4
		c-0.1-0.2-0.3-0.4-0.4-0.5c-0.7-0.1-1.4-0.1-2-0.1c-4.8,0-9.5,0-14.3,0c-0.8,0-1.6,0-2.4,0c-0.6,0-1.1-0.2-1.5-0.6
		c-1.1-1.2-2.2-2.3-3.3-3.5c-0.3-0.3-0.2-0.5,0.3-0.7c0.4-0.2,0.9-0.1,1-0.7c-1.6-4.3-1.5-8.7-0.1-13.1c-0.2-0.1-0.3-0.4-0.5-0.4
		c-0.7-0.1-1.4-0.1-2-0.1c-3.4,0-6.8,0-10.2,0c-1,0-1.7-0.4-2.3-1.2c-2-2.7-4.1-5.4-6.1-8.2c-0.6-0.7-1-1.5-1.2-2.4
		c-1.4-3-1.6-6-0.1-9c-0.1-0.2-0.3-0.4-0.4-0.5c-0.8-0.1-1.6-0.1-2.4-0.1c-1.1,0-2.3,0-3.4-0.1c-0.3,0-0.7-0.2-0.9-0.4
		c-0.8-1.1-1.4-2.3-2.1-3.5c-0.1-0.2,0.2-0.7,0.4-0.8c1.1,0,2.3-0.1,3.4-0.1c30.7,0,61.5,0,92.2,0c1.1,0,2.3,0,3.4,0
		c0.4,0,0.6-0.3,0.8-0.5c-1-3.1-0.4-6.3-0.5-9.5c-0.1-5.3,0-10.7,0-16c0-4.6-0.3-4.9-4.8-4.9c-8.5,0-17.1,0-25.6,0
		c-27,0-53.9,0-80.9,0c-2,0-4.1,0.4-5.8-1.3c-0.7-1.7-1.3-3.3-2-5c1.6-1.8,3.8-1.3,5.8-1.3c22.6,0,45.3,0,67.9,0
		c13.5,0,27.1,0,40.6,0c5.1,0,5.4-0.3,5.4-5.4c0-28,0-56,0-84c0-4.6-0.2-4.7-4.9-4.7c-40.4,0-80.8,0-121.2,0c-1.4,0-2.7-0.1-4,0.5
		c-1.5,1.2-1.1,2.9-1.1,4.4c0,14.5,0,29-0.1,43.5c0,1.5,0.7,3.5-1.5,4.2c-0.3-1.8-0.5-3.6-0.9-5.4c-1.1-5.1-1.7-10.3-2.4-15.4
		c-0.5-3.5-0.6-7-1-10.5c-0.9-9.2-0.8-18.4-0.8-27.5c0-3.3-0.2-3.2,3.1-3.2c1.5,0,2.9,0,4.4,0c0.4,0,0.6-0.3,0.7-0.6
		c-0.8-1.1-0.9-2.3-0.9-3.6c0-21.8-0.2-43.7,0.1-65.5c0-23.1,0-46.2,0-69.3c0-2.2,0.2-4.3,2-5.9c0.9-0.8,0.9-2,1.2-3.1
		c6.9-26.5,24.2-42,50.6-47.7c4.7-1,4.8-0.9,4.8-5.6c0-4.1-0.1-8.2,0-12.3c0.1-2.8-0.9-4.2-3.9-4.2c-1.7,0-4.3,0.3-3.3-3
		c0.1-2.2,0.1-4.3,0.2-6.5c0-0.4,0.1-0.9,0.2-1.3c0-0.2,0.3-0.4,0.4-0.5c0.3-0.1,0.7-0.2,1-0.2c0.9,0,1.8,0,2.7,0c0.8,0,1.6,0,2.4,0
		c0.8,0,1.3-0.4,1.3-1.2c0-1.6,0-3.2,0-4.8c0-0.5,0-0.9,0.1-1.4c0-0.2,0.3-0.3,0.5-0.5c0.1-0.1,0.2-0.1,0.3-0.1c3,0,5.9,0,8.9,0
		c0.7,0,1,0.3,1.1,1c0.1,0.6,0.1,1.1,0.2,1.7c0.6,0.5,0.8,1.1,0.8,1.8c0.1,2,1.3,2.6,3.2,2.7c4.8,0.4,5.1,0.7,5.1,5.5
		c0,0.8,0,1.6,0,2.4c0.1,2.8-1.1,4.1-4,4.3c-4.1,0.2-4.1,0.3-4.1,4.4c0,4.2,0,8.4,0,12.6c0,3.9,0.3,4.2,4.2,4.8
		c10.1,1.6,19.2,5.6,27.4,11.6c11.7,8.7,19.5,19.9,23.2,34c0.6,2.4,1.1,4.8,3,6.8c1.3,1.3,1.1,3.2,1.1,4.9c0,14.5,0,28.9,0,43.4
		c0.2,18.4,0.1,36.9,0.1,55.3c0,11.4,0,22.8,0,34.1c0,4.2,0.3,4.4,4.5,4.6c1.4,0.1,2.7,0.1,4,0.5c2.2,1.4,1.5,3.6,1.6,5.6
		c0.1,23.8,0,47.5,0,71.3c0,5.2-0.1,10.4,0.1,16.4c23.8-16.2,46.8-32.3,69.9-48.3c5-3.7,10.3-7.2,15.5-10.6c3-2,4.2-4.3,4.2-7.9
		c-0.1-28.8-0.1-57.6-0.1-86.5c0-0.8,0-1.6,0-2.4c0-7.6,1.6-8.9,9.1-7.6c1.9,0.3,2.8,1.3,3,3.1c0.1,1.1,0.1,2.3,0.1,3.4
		c0,8.7,0.1,17.3,0,26c-0.4,21.9,1.1,43.7,0.7,65.6c-0.1,2.6,0.9,4.5,3.1,6c28.3,19.6,56.5,39.2,84.8,58.7c0.7,0.5,1.6,1.5,2.4,1
		c1-0.7,0.6-2.1,0.6-3.2c0-27.1,0-54.2,0-81.3c0-0.7,0-1.4,0-2.1c0-7.2,0-7.2,7.3-7.4c0.9,0,1.8,0.1,2.6-0.5
		c0.3-0.3,0.5-0.6,0.7-0.9c0.7-3.4,0.2-6.8,0.3-10.2c0.1-6.3,0.3-12.5,0-18.8c-1.5-34.5-0.4-69-0.8-103.4c0-3.9-0.4-7.8,2.7-10.9
		c0.8-0.9,0.8-2.3,1.2-3.5c7.6-26,24.8-41.4,51.2-46.5c2.7-0.5,4-1.5,3.9-4.4c-0.2-4.7-0.1-9.3,0-14c0-2.4-0.7-3.5-3.3-3.6
		c-3.7-0.2-4.1-0.7-4.2-4.6c0-1.6-0.1-3.2,0.1-4.8c0.2-1.4,1-2.6,2.3-2.5C664.9,138.7,666.2,136.5,667,133.5z"/>
	<path class="st4" d="M261.9,376.1c0.3-0.1,0.7-0.2,1-0.2c0.9,0,1.8,0,2.7,0c41.6,0,83.1,0,124.7,0c1.1,0,2.3,0.1,3.4,0.1
		c0.4,0,0.8,0.5,0.9,0.9c0,0.8,0.1,1.6,0.1,2.4c0,29.8,0,59.7,0,89.5c0,0.8,0,1.6-0.1,2.4c0,0.6-0.8,1.3-1.4,1.4
		c-0.3,0-0.7,0.1-1,0.1c-1,0-2,0-3.1,0c-37,0-74,0-111,0c-1.5,0-3,0.1-4.4,0.1c-0.9-2.4-1.9-4.9-2.8-7.3c-0.5-1.3-1-2.5-1.5-3.8
		c-1.4-3.8-2.4-7.8-3.4-11.7c-0.5-2.1-1-4.2-1.5-6.2c-0.1-0.2-0.3-0.4-0.4-0.5c-1.6-5.2-2.7-10.4-2.6-15.9
		c0.2-15.8,0.1-31.6,0.1-47.4C261.6,378.6,261.3,377.3,261.9,376.1z"/>
	<path class="st5" d="M473.7,423.3c0.1-0.2,0.3-0.4,0.4-0.5c7.9-5.5,15.9-11,23.8-16.5c0.2-0.1,0.4-0.2,0.6-0.4
		c0.4-0.3,0.9-0.3,1.3,0c0.6,0.4,1.2,0.7,1.7,1.1c11.9,8.2,23.8,16.4,35.6,24.6c8,5.6,16.1,11.1,24.1,16.7
		c12.2,8.4,24.3,16.8,36.5,25.2c0.4,0.3,0.7,0.6,1.1,0.8c0.9,0.5,1.3,1.2,1.2,2.2c0,1,0,2,0,3.1c0,41,0,81.9,0,122.9
		c0,1.5,0.1,3,0.1,4.4c-1.7,0.7-3.4,1.3-5,2c-6.7,3-13.6,5.4-20.6,7.7c-3.4,1.1-6.9,2.2-10.4,3.2c-0.7,0.2-1.6,0.2-2.3,0.4
		c-1.7-1.7-1.1-3.8-1.1-5.8c0-38.5,0-77,0-115.5c0-6.5-0.1-13,0-19.5c0-2.8-1-4.7-3.5-6c-10.1-5.5-20-11.3-30-17
		c-1.1-0.6-2.2-1.4-3.4-1.6c-3.5-0.6-4.3-2.9-4.1-6c0.1-1.9,0-3.9,0-5.8c0-2-0.9-2.9-2.9-2.9c-11.7-0.1-23.4-0.1-35.2,0
		c-2.1,0-2.8,1.1-2.8,3c0,2.4,0.1,4.8-0.1,7.2c-0.3,3.7-1.5,4.4-5.1,3.2c-0.9-2.4-0.3-5-0.3-7.4
		C473.5,438.5,472.8,430.9,473.7,423.3z"/>
	<path class="st6" d="M473.7,423.3c0.2,0.3,0.4,0.6,0.5,0.9c0.1,0.4,0.1,0.9,0.1,1.4c0,8.3,0,16.6,0,24.9c0,1-0.1,2-0.6,3
		c-8.5,5.2-17.3,9.9-25.8,14.9c-2.8,1.7-5.7,3.3-8.6,4.9c-1.4,0.8-2.8,2.1-4.7,1.6c-0.2,0.3-0.5,0.5-0.5,0.8c-0.1,1-0.1,2-0.1,3.1
		c0,18.9,0,37.7,0,56.6c0,26.7,0,53.4,0,80.2c0,1.1-0.1,2.3-0.2,3.4c0,0.1-0.3,0.4-0.5,0.4c-0.4,0-0.9-0.1-1.3-0.3
		c-5.8-1.9-11.7-3.8-17.4-5.9c-4.3-1.6-8.4-3.5-12.6-5.2c-0.8-0.3-1.6-0.9-2.3-1.4c0-1.5,0-3,0-4.4c0-41.2,0-82.4,0-123.6
		c0-1.1,0-2.3,0.1-3.4c0-0.5,0.2-0.9,0.6-1.1c0.6-0.5,1.3-0.9,1.9-1.4c23.1-16,46.2-32,69.3-47.9C472.3,424,473,423.7,473.7,423.3z"
		/>
	<path class="st0" d="M434.7,474.7c3.4-1.9,6.7-3.8,10.1-5.7c8.3-4.7,16.6-9.4,24.9-14.2c0.4-0.2,0.8-0.4,1.2-0.7
		c0.9-0.6,1.9-0.7,2.9-0.8c0.3,0,0.7,0.1,1,0.1c3.2,0,3.2,0.2,3.2-3.2c0-3.1,0-6.1,0-9.2c0-0.4,0.1-0.9,0.2-1.3
		c0.1-0.2,0.3-0.3,0.5-0.4c0.2-0.1,0.4-0.1,0.7-0.1c0.9,0,1.8,0,2.7,0c11.5,0,23,0,34.5,0c0.8,0,1.6,0,2.4,0c1.5,0,1.8,0.3,1.8,1.8
		c0,3.1,0,6.1,0,9.2c0,0.8,0,1.6,0.1,2.4c0,0.4,0.4,0.9,0.9,0.8c1.9-0.1,3.5,0.7,5.1,1.6c10.8,6.2,21.6,12.3,32.3,18.4
		c0.7,0.4,1.4,0.8,2,1.3c0.4,0.3,0.6,0.7,0.6,1.1c0,1.1,0,2.3,0,3.4c0,45.7,0,91.3,0,137c0,1.4,0,2.7,0.1,4.1
		c-0.3,0.2-0.6,0.6-1,0.7c-1.1,0.3-2.3,0.6-3.4,0.9c-0.2,0-0.4-0.1-0.6-0.2c-1.3-1.8-0.9-3.9-0.9-5.9c0-30.4,0-60.8,0-91.2
		c0-6.4,0-6.4-6.3-6.4c-3.8,0-7.5,0-11.3,0c-4.5,0-4.7,0.2-4.8,4.9c0,4.2,0,8.4,0,12.6c0,28.2,0,56.5,0,84.7c0,2,0.4,4.1-1,5.9
		c-0.3,0.2-0.6,0.4-0.9,0.5c-1.8,0.3-3.5,0.6-5.3,0.2c-1.4-1.4-1-3.2-1-4.9c0-17.1,0-34.1,0-51.2c0-8-2.6-15.2-8.2-21.1
		c-12-12.6-29.9-11.2-40.1,2.9c-1.1,1.5-2,3-2.9,4.6c-1.8,4.2-2.8,8.6-2.8,13.3c0.1,16.7,0,33.5,0,50.2c0,1.9,0.5,3.9-1.2,5.5
		c-0.3,0.2-0.6,0.5-0.9,0.4c-1.8-0.2-3.6-0.5-5.4-0.7c-0.3,0-0.6-0.3-0.9-0.4c-1.8-1.8-1.2-4-1.2-6.1c0-31.6,0-63.2,0-94.9
		c0-6.5,0-6.5-6.6-6.5c-3.8,0-7.5,0-11.3,0c-2.1,0-3.2,0.9-3.2,3.1c0,1.2,0,2.5,0,3.8c0,30,0,60.1,0,90.1c0,2,0.5,4.1-1.2,5.8
		c-1.4,0-2.7-0.5-4-1c-0.4-0.1-0.7-0.5-0.8-1c-0.1-0.3-0.1-0.7-0.1-1c0-0.9,0-1.8,0-2.7c0-45.3,0-90.6,0-135.9
		C434.5,477.6,434.6,476.1,434.7,474.7z"/>
	<path class="st7" d="M727.1,472.7c-1.4,0-2.7-0.1-4.1-0.1c-22.4,0-44.8,0-67.2,0c-1.2,0-2.5-0.1-3.7-0.2c-1.2-1.7-1-3.1,0.6-4.4
		c1.6-0.8,3.3-0.6,5-0.6c11.9,0,23.9,0,35.8,0c5.3,0,5.4,0,5.4-5.2c0-13.4,0-26.8,0-40.2c0-2.4-0.1-4.8,1.8-6.7
		c1.1-1.1,0.8-2.4-0.5-3.2c-1.5-1-1.9-2.5-2.2-4c-4.8-20.3-28.2-25.4-41.6-14.4c-1.3,1.1-2.3,3.4-4.8,2.1
		c-0.9-6.6-1.5-13.1,0.4-19.6c1.1-0.4,2.3-0.2,3.4-0.2c26.6,0,53.3,0,79.9,0c3.8,0,3.8,0,3.8,3.9c0,15.5,0,31,0,46.5
		c0,2.6,0.4,5.2,0,7.8c-1,3.2-1.3,6.6-2.4,9.8l0,0c-0.8,0.8,0,2-0.7,2.8c-0.2,0.4-0.4,0.8-0.5,1.2c-1.5,6.4-3.7,12.5-5.8,18.7
		C729,468.6,728,470.6,727.1,472.7z"/>
	<path class="st5" d="M473.7,556.5c0-0.1,0-0.2,0-0.3c2.8-5.4,6.7-9.7,12-12.7c4.6-2.5,9.5-3.7,14.8-3.2c5.6,0.6,10.5,2.7,14.8,6.3
		c5.5,4.8,8.9,10.8,10.4,17.9c0.6,2.6,0.7,5.2,0.7,7.8c0,6.5,0,13,0,19.4c0,11.7,0,23.4,0,35.1c-1.4,0.1-2.7,0.1-4.1,0.5
		c-1,0.3-2,0.2-3.1,0.2c-2,0.1-4.1-0.1-6.1,0.5c-0.7,0.2-1.6,0.1-2.4,0.1c-7.2,0-14.3,0-21.5,0c-1.3,0-2.5,0-3.7-0.4
		c-0.7-0.2-1.6-0.2-2.4-0.2c-2.5-0.1-5,0-7.4-0.6c-0.4-0.1-0.9-0.1-1.4-0.1c-1.2-1.3-1.1-2.9-1.1-4.5c0-20.4,0-40.8,0-61.2
		C473.3,559.6,473.7,558.1,473.7,556.5z"/>
	<path class="st4" d="M275.6,477.7c1.5,0,3,0,4.4,0c36.3,0,72.6,0,108.8,0c5.1,0,4.6-0.6,4.6,4.5c0,8.2,0,16.4,0,24.6
		c0,0.9,0.2,1.8-0.3,2.7c-1.5,0-3-0.1-4.4-0.1c-30.9,0-61.9,0-92.8,0c-1.1,0-2.3,0-3.4-0.1c-0.5,0-0.9-0.3-1.1-0.7
		c-0.9-1.6-1.9-3.1-2.8-4.7c-1.8-3.4-3.9-6.7-5.5-10.2c-1.1-2.4-2.4-4.7-3.5-7C278.3,483.8,277,480.7,275.6,477.7z"/>
	<path class="st5" d="M532.6,626.2c0-0.9,0-1.8,0-2.7c0-34.1,0-68.3,0-102.4c0-1,0-2,0.1-3.1c0-0.6,0.5-1,1.1-1.1c0.6,0,1.1,0,1.7,0
		c6.3,0,12.5,0,18.8,0c0.6,0,1.1,0,1.7,0.1c0.5,0,0.9,0.4,0.9,0.8c0,0.3,0.1,0.7,0.1,1c0,0.9,0,1.8,0,2.7c0,32.1,0,64.2,0,96.3
		c0,1.3,0,2.5-0.1,3.8c-0.3,0.1-0.6,0.3-0.9,0.4c-3.2,0.5-6.4,1.4-9.6,2.1c-1.3,0.3-2.7,0.1-4,0.7
		C539.1,625.2,535.8,625.7,532.6,626.2z"/>
	<path class="st6" d="M439.4,620.7c0-1.5,0.1-3,0.1-4.4c0-31.6,0-63.3,0-94.9c0-1.1,0-2.3,0.1-3.4c0-0.6,0.4-1,1.1-1
		c0.3,0,0.7,0,1,0c6.4,0,12.7,0,19.1,0c0.5,0,0.9,0,1.4,0.1c0.3,0.1,0.5,0.4,0.7,0.6c0.1,0.2,0.1,0.4,0.1,0.7c0,0.8,0,1.6,0,2.4
		c0,34.3,0,68.5,0,102.8c0,0.7,0,1.4,0,2c-1.4,0.1-2.7,0.1-4-0.5c-4-0.6-8-1.5-12-2.3C444.4,622.3,441.8,621.8,439.4,620.7z"/>
	<path class="st7" d="M652.1,477.9c0.8-0.1,1.6-0.2,2.4-0.2c23.2,0,46.3,0,69.5,0c0.3,0,0.7,0,1,0c-0.9,2.4-1.9,4.8-3,7.1
		c-1,1.9-2,3.8-2.7,5.8c-0.3,0.8-0.7,1.7-1.2,2.4c-1.5,2.2-2.5,4.6-3.7,6.8c-1.6,3-3.3,5.9-5.1,8.8c-0.3,0.5-0.7,0.8-1.1,1.2
		c-2,0-4.1,0-6.1,0c-15.4,0-30.9,0-46.3,0c-1.2,0-2.5-0.1-3.7-0.2c-1.1-1-1.1-2.4-1.1-3.8c-0.1-8.1-0.1-16.3,0-24.4
		C650.9,480.3,651,479,652.1,477.9z"/>
	<path class="st8" d="M314.5,147.1c0.1,0.4,0.1,0.9,0.2,1.3c0.1,0.5,0.5,0.8,0.9,0.8c0.9,0,1.8,0.1,2.7,0.1c1,0,2,0,3.1,0.1
		c0.8,0,1.2,0.5,1.2,1.3c0,0.3,0,0.7,0,1c0,6.1,0,12.3,0,18.4c0,0.5,0,0.9-0.1,1.4c-0.1,0.3-0.2,0.6-0.6,0.7c-1.3,0.2-2.7,0.5-4,0.7
		c-11.9,1.9-22.3,6.8-31.4,14.7c-6.1,5.3-10.9,11.5-14.5,18.8c-2.5,5.1-4.3,10.5-5.3,16.2c-0.1,0.3-0.1,0.7-0.2,1
		c-0.1,0.3-0.3,0.6-0.7,0.7c-0.3,0.1-0.7,0.1-1,0.2c-0.5,0.1-0.8,0.5-0.8,1c0,0.3-0.1,0.7-0.1,1c0,0.9,0,1.8,0,2.7
		c0,21.5,0,43,0,64.6c0,1.2-0.1,2.5-0.1,3.7c-2.2,3.2-4.5,6.2-8.2,7.8c0-1.2-0.1-2.5-0.1-3.7c0-31.2,0-62.3,0-93.5
		c0-1.1,0.1-2.3,0.1-3.4c0.7-0.6,1.4-1.2,2-1.9c2.2-2.7,4.4-5.5,6.5-8.3c0.4-0.4,0.7-0.9,1.1-1.3c1.2-1.2,2.3-2.5,3.3-3.9
		c1-1.3,2.3-2.5,3.5-3.7c1.1-1.2,2.2-2.2,3.1-3.6c0.5-0.7,1.2-1.4,1.8-2c3.3-3.3,6.6-6.6,9.9-9.9c1.4-1.4,2.7-2.7,4.3-3.9
		c1.3-0.9,2.3-2.2,3.5-3.3c1-0.9,1.9-1.9,3.1-2.6c0.4-0.2,0.7-0.6,1-0.9c2.1-1.9,4.2-3.8,6.4-5.6
		C308.3,151.8,311.2,149.2,314.5,147.1z"/>
	<path class="st9" d="M745,367.8c-2.4,0-4.8,0-7.2,0c-0.6,0-1-0.4-1.1-1.1c0-0.9,0-1.8,0-2.7c0-38.6,0-77.1,0-115.7
		c0-1.1,0.1-2.3,0.1-3.4c0.9-0.9,2.1-0.8,3.2-0.7c2.9,0.5,3.8-0.9,3.8-3.6c0-8.9-0.1-17.9,0-26.8c0.1-3.1-0.9-6.3,1-9.2
		c0-1.3,0.1-2.5,0.1-3.8c0-53.5,0-107,0-160.6c0-1.5-0.1-3-0.2-4.4c0.2,0.2,0.6,0.4,0.7,0.7c0.1,0.3,0.1,0.7,0.1,1c0,1,0,2,0,3.1
		c0,53.6,0,107.3,0,160.9c0,13.8,0,27.6,0,41.3c0,40.1,0,80.2-0.1,120.3c0,0.8,0,1.6,0,2.4C745.6,366.4,745.3,367.1,745,367.8z"/>
	<path class="st4" d="M255.7,305.4c1.3-1.2,2.5-2.5,3.8-3.7c1.4-1.4,2.7-2.9,4.4-4.1c0,1.1,0.1,2.3,0.1,3.4c0,20.9,0,41.9,0,62.8
		c0,1.1-0.1,2.3-0.2,3.4c-1.9,0-3.9,0-5.8,0c-0.4,0-0.9,0-1.3-0.2c-0.3-0.1-0.6-0.4-0.7-0.6c-0.2-0.3-0.2-0.7-0.2-1c0-1,0-2,0-3.1
		c0-17.7,0-35.5,0-53.2C255.7,307.9,255.7,306.7,255.7,305.4z"/>
	<path class="st10" d="M473.7,556.5c0.3,0.3,0.6,0.7,0.6,1.2c0,1,0,2,0,3.1c0,20.7,0,41.4,0,62.1c0,1.4,0,2.7,0.1,4.1
		c-1,0-1.9,0-2.9,0c-0.6,0-1-0.3-1.4-0.7c0-1.1-0.1-2.3-0.1-3.4c0-16.3,0-32.7,0-49c0-1.6,0-3.2,0.1-4.8c0.1-4.3,1.3-8.3,3.1-12.1
		C473.3,556.8,473.5,556.7,473.7,556.5z"/>
	<path class="st11" d="M634.7,587.5c-2.2,0-4.3-0.1-6.5-0.1c-0.3,0-0.7,0-1,0c-0.4,0-0.9-0.5-0.9-0.8c0-4,0-7.9,0-11.9
		c0-0.4,0.4-0.8,0.9-0.9c0.5,0,0.9-0.1,1.4-0.1c7.5,0,15,0,22.4,0c0.6,0,1.1,0.1,1.7,0.1c-0.6,1.1-1.5,2-2.5,2.7
		c-3.1,2.3-6,4.8-9.2,6.9c-1.2,0.8-2.4,1.7-3.6,2.6C636.5,586.5,635.6,586.9,634.7,587.5z"/>
	<path class="st12" d="M348,573.7c0.7,0,1.4-0.1,2-0.1c5.9,0,11.8,0,17.8,0c0.6,0,1.1,0.1,1.7,0.1c0.4,0,0.6,0.3,0.7,0.6
		c0.1,0.3,0.1,0.7,0.1,1c0,3.4,0,6.8,0,10.2c0,0.3,0,0.7-0.1,1c-0.1,0.3-0.5,0.6-0.7,0.6c-1,0.1-2,0.1-3.1,0.1
		c-1-0.1-1.9-0.6-2.8-1.2c-2.1-1.5-4.2-3.1-6.3-4.7c-2.2-1.6-4.4-3.2-6.6-4.8C349.7,575.8,348.7,574.9,348,573.7z"/>
	<path class="st13" d="M652.8,568.4c-0.3-0.2-0.6-0.3-0.7-0.7c0-0.3-0.1-0.7-0.1-1c0-3.2,0-6.4,0-9.5c0-0.4,0.1-0.9,0.2-1.3
		c5.7,0,11.3,0,17,0c0.8,0,1.6,0,2.4,0.1c0.3,0,0.4,0.2,0.4,0.4c0,0.1,0,0.2-0.1,0.3c-0.1,0.2-0.2,0.4-0.4,0.6
		c-3.1,3-6.1,6.1-9.2,9.1c-0.3,0.3-0.7,0.6-1,0.9c-0.9,0.7-1.9,1.1-3.2,1.1C656.4,568.2,654.6,568.3,652.8,568.4z"/>
	<path class="st12" d="M347.3,555.8c0.1,0.3,0.2,0.7,0.2,1c0,3.4,0,6.8,0,10.1c0,0.4-0.2,0.9-0.3,1.3c-1.7,0-3.4-0.1-5.1-0.1
		c-0.7,0-1.4-0.1-1.9-0.7c-1.7-1.8-3.9-3-5.6-4.9c-1.7-1.8-3.5-3.5-5.3-5.3c-0.2-0.2-0.4-0.5-0.6-0.8c-0.1-0.1,0.1-0.5,0.2-0.5
		c0.6-0.1,1.1-0.1,1.7-0.1C336.2,555.8,341.7,555.8,347.3,555.8z"/>
	<path class="st14" d="M606.3,603.8c0-3.4-0.1-6.8-0.1-10.2c0-1,0.4-1.3,1.5-1.4c0.2,0,0.5,0,0.7,0c5.6,0,11.1,0,16.7,0
		c0.6,0,1.1,0.1,1.7,0.1c-0.6,0.5-1.1,1.2-1.7,1.6c-3.9,2.2-7.7,4.7-11.7,6.6c-1.3,0.6-2.5,1.4-3.8,2.1
		C608.5,603.3,607.5,603.8,606.3,603.8z"/>
	<path class="st15" d="M677.9,550.5c-0.8-0.1-1.6-0.1-2.4-0.2c-0.5,0-0.9-0.4-0.9-0.8c0-0.3-0.1-0.7-0.1-1c0-3.4,0-6.8,0-10.2
		c0-0.6,0-1.1,0.3-1.6c4.1,0,8.2,0,12.3,0.1c0.6,0,1.1,0.1,1.7,0.2c0.1,0,0.3,0.4,0.3,0.5c-0.2,0.5-0.4,1.1-0.8,1.5
		c-2,2.2-3.6,4.7-5.8,6.7c-0.5,0.5-0.8,1.1-1.3,1.6C680.3,548.4,679.3,549.7,677.9,550.5z"/>
	<path class="st16" d="M738.6,434.9c0.1-2.5,0.2-5,0.2-7.5c0-15.5,0-30.9,0-46.4c0-0.8,0-1.6,0-2.4c0-2.3-0.2-2.5-2.5-2.5
		c-0.8,0-1.6,0-2.4,0c-25.9,0-51.8,0-77.7,0c-1.4,0-2.7,0.1-4.1,0.1c-1.5,1.1-3.2,1-4.9,1c-12,0-24.1,0-36.1,0
		c-1.7,0-3.4,0.2-4.8-1.1c0.3-0.2,0.5-0.6,0.8-0.6c1.1-0.1,2.3-0.1,3.4-0.1c18.2,0,36.4,0,54.6,0c23.3,0,46.6,0,70,0
		c1.1,0,2.3,0.1,3.4,0.1c0.4,0,0.9,0.5,0.9,0.9c0.1,1,0.1,2,0.1,3.1c0,9.8,0,19.6,0,29.4c0,5.6,0,11.2,0,16.7c0,1.3,0.1,2.5,0.1,3.8
		c0.2,0.4,0,1,0.4,1.4c0,0.3,0,0.7-0.1,1c-0.5,1-0.5,2.1-0.6,3.2C739.1,435.1,738.9,435.2,738.6,434.9z"/>
	<path class="st17" d="M324.6,536.7c0.1,0.4,0.3,0.9,0.3,1.3c0,3.6,0,7.2,0,10.8c0,0.3-0.1,0.7-0.2,1c-0.7,0-1.4,0-2-0.1
		c-0.5,0-0.8-0.2-1.2-0.6c-1.1-1.2-2.1-2.4-3.2-3.5c-0.9-1-1.9-1.9-2.6-3.1c-0.5-0.8-1.2-1.4-1.8-2c-0.9-0.9-1.5-2-2.1-3.1
		c-0.1-0.1,0.2-0.5,0.3-0.5c0.6-0.1,1.1-0.1,1.7-0.1C317.3,536.7,320.9,536.7,324.6,536.7z"/>
	<path class="st18" d="M393.2,592.8c0,2.5-0.1,5-0.1,7.5c0,0.7-0.1,1.3-0.1,2c0,0.3-0.5,0.6-0.8,0.5c-0.1,0-0.2,0-0.3-0.1
		c-2.9-1.5-6-2.8-8.8-4.5c-0.8-0.5-1.6-0.9-2.4-1.3c-1.8-1-3.5-2.1-5.3-3.1c-0.1-0.1-0.2-0.4-0.2-0.6c0.1-0.2,0.3-0.3,0.5-0.3
		c2.8,0,5.7,0,8.5,0C387.2,592.8,390.2,592.7,393.2,592.8C393.1,592.7,393.2,592.8,393.2,592.8z"/>
	<path class="st19" d="M697.3,526.5c0-3.5-0.1-7-0.1-10.5c0-0.6,0.5-1.1,1.1-1c2.1,0,4.3,0.1,6.4,0.1c0.1,0.4,0.4,0.8,0.1,1.3
		c-1.7,2.6-3.4,5.2-5.2,7.8C699,525.1,698.2,525.9,697.3,526.5z"/>
	<path class="st20" d="M261.9,376.1c0,1.4,0.1,2.7,0.1,4.1c0,16.3,0,32.6,0,48.8c0,1.8,0.1,3.6,0.5,5.4c0.6,2.2,0.8,4.4,1.4,6.7
		c0.2,0.7,0.2,1.4,0.2,2c-0.2-0.2-0.6-0.4-0.7-0.7c-0.5-1.5-0.9-3-1.3-4.5c-0.6-2.3-1-4.6-1.5-6.9c-0.1-0.3,0-0.7,0-1
		c0.2-0.3,0.5-0.5,0.5-0.8c0.1-1.2,0.1-2.5,0.1-3.7c0-15.1,0-30.3,0-45.4c0-1,0-2,0.1-3.1C261.4,376.6,261.7,376.4,261.9,376.1z"/>
	<path class="st21" d="M302.1,515.5c0.1,0.7,0.2,1.3,0.2,2c0,2.3-0.1,4.7-0.1,7c-0.7-0.4-1.3-0.9-1.7-1.6c-1.3-2-2.6-4-3.9-6
		c-0.4-0.7-0.1-1.3,0.8-1.3C298.9,515.5,300.5,515.5,302.1,515.5z"/>
	<path class="st22" d="M738.6,434.9c0.2,0,0.5,0,0.7-0.1c-0.4,1.9-0.8,3.7-1.3,5.6c-0.2,1-0.6,1.9-0.9,2.9c-0.1,0.2-0.3,0.3-0.5,0.5
		c0-0.5,0-1.1,0.1-1.6c0.5-2.3,1-4.5,1.5-6.7C738.3,435.2,738.5,435.1,738.6,434.9z"/>
	<path class="st22" d="M736,446.6c0-0.4,0-0.9,0-1.3c0-0.6,0.2-1.1,0.7-1.5c0,0.5,0,0.9,0,1.4C736.7,445.7,736.5,446.2,736,446.6z"
		/>
	<path class="st23" d="M740,430.7c-0.5-0.3-0.5-0.8-0.4-1.4c0.1,0,0.3,0,0.4,0.1C740.1,429.9,740.1,430.3,740,430.7z"/>
	<path class="st8" d="M667,133.5c0.1,0.3,0.2,0.7,0.2,1c0,4.6,0.5,4.3-4.1,4.3c-1,0-2,0.1-3.1,0.2c-0.2,0-0.4,0.3-0.5,0.5
		c-0.1,0.3-0.2,0.7-0.2,1c0,2.5,0,5,0,7.5c0,1.1,0.4,1.5,1.4,1.5c1.5,0,3,0,4.4,0c0.4,0,0.9,0.1,1.3,0.2c0.2,0,0.4,0.3,0.5,0.4
		c0.1,0.4,0.2,0.9,0.2,1.3c0,3.5,0,7,0,10.6c0,2.8,0,5.7,0,8.5c0,0.3-0.1,0.7-0.1,1c0,0.4-0.4,0.8-0.9,0.9c-2.5,0.4-4.9,0.8-7.4,1.3
		c-13.2,2.9-24.3,9.4-33.3,19.4c-5.8,6.4-10,13.8-12.5,22c-0.3,1.1-0.7,2.2-1,3.2c-1.4,0.5-2.1-0.5-2.9-1.3
		c-10.1-9.4-21.6-16.6-34.2-22.2c-1.2-0.5-2.7-0.7-3.1-2.4c0.5-1.2,1.6-1.1,2.7-1.2c2.4,0,4.7,0,7.3,0.4c-1.8-4-4.5-7.3-6.6-10.9
		c-1.4-2.4-1.8-4.4-0.6-7c1.7-3.7,3.3-7.4,5-11.6c-4,0.7-7.5,1.5-10.9,2.6c-4,1.3-7.1,0.2-9.8-2.7c-2.3-2.4-5-4.2-7.4-6.6
		c-1.4,2.9-1.3,5.7-1.2,8.4c0.2,5.1-1.1,9-6.3,11.3c-2.8,1.2-5.3,3-8,4.8c1.6,2.1,4.9,1.5,6.1,4c-0.1,0.9-0.8,1.1-1.5,1.3
		c-3.5,0.5-7-0.4-10.5-0.5c-22.6-0.3-44,4.5-63.8,15.7c-23.5,13.3-40.9,32.3-52.6,56.6c-2.6,5.3-4.6,10.9-6.4,16.5
		c-0.4,1.4-0.7,2.9-1.8,4c-1.3,0.7-2.4,0.1-3.5-0.5c-3.2-1.8-7-2.3-9.7-5c0-1.2-0.1-2.5-0.1-3.7c0-13.2,0-26.4,0-39.6c0-1,0-2,0-3.1
		c0-0.8-0.3-1.1-1.2-1.4c-0.1,0-0.2,0-0.3-0.1c-0.5-0.1-0.8-0.3-0.9-0.8c-0.4-1.9-0.8-3.8-1.3-5.7c-2.5-9.8-7.2-18.4-14.1-25.8
		c-9.3-10-20.7-16.2-34.1-18.9c-1.8-0.4-3.6-0.6-5.4-0.8c-1-0.2-1.3-0.5-1.3-1.6c0-0.5,0-0.9,0-1.4c0-5.8,0-11.6,0-17.4
		c0-0.7,0.1-1.4,0.2-2c0-0.2,0.3-0.4,0.4-0.5c0.4-0.1,0.9-0.2,1.3-0.2c1.4,0,2.7,0,4.1,0c0.3,0,0.7,0,1-0.1c0.4,0,0.9-0.6,0.9-0.9
		c0-1.3,0.1-2.5,0.1-3.8c0-1.6,0-3.2-0.1-4.8c0-0.6-0.5-1.1-1.1-1.1c-1.6,0-3.2,0-4.8-0.1c-0.5,0-0.9,0-1.3-0.2
		c-0.3-0.1-0.6-0.4-0.6-0.7c-0.2-1.5-0.2-2.9,0-4.4c3.1-1.9,6.2-3.8,9.3-5.7c3.8-2.3,7.7-4.4,11.6-6.6c4.2-2.3,8.4-4.5,12.7-6.5
		c3.5-1.6,7-3.3,10.5-4.8c4.3-1.8,8.6-3.5,12.9-5.3c0.2-0.1,0.4-0.2,0.6-0.3c5.1-1.6,10-3.7,15.1-5.3c8.6-2.6,17.2-5,25.9-7
		c2.8-0.7,5.6-1.1,8.3-1.6c1.3-0.3,2.7-0.4,4-0.8c1.3-0.4,2.7-0.4,4-0.7c1.3-0.3,2.7-0.6,4-0.6c2.1-0.9,4.5-0.3,6.7-1.1
		c0.5-0.2,1.1-0.1,1.7-0.1c2.9-0.3,5.8-0.9,8.8-0.8c2-0.7,4-0.5,6.1-0.6c1.1,0,2.3-0.1,3.4-0.4c0.9-0.2,1.8-0.2,2.7-0.2
		c3.2-0.1,6.4-0.1,9.6-0.1c1.1,0,2.3,0,3.4-0.3c0.8-0.2,1.6-0.2,2.4-0.2c1.9,0,3.9,0,5.8,0c0.6,0,1.2-0.1,1.7,0.1
		c2,0.6,4.1,0.4,6.1,0.5c3.5,0.1,7,0.1,10.6,0.2c-0.4,2.3-2.9,2.3-4.4,4.2c4.8,0.9,7.2,3.7,7.6,8.7c2.7-3.7,5.8-6,10.4-4.2
		c0-2.2-1.4-3.2-1.8-4.5c-0.4-1.3-1.4-2.8,0.9-3.5c1.1,0.8,2.5,1.1,3.8,1.2c1.6,0.1,3.1,0.2,4.7,0.6c1.5,0.3,3.2,0.1,4.7,0.7
		c3.4,0.2,6.7,1.2,10.1,1.6c1.3,0.1,2.7,0.4,4,0.8c7.7,1.9,15.5,3.5,23.1,5.7c5.8,1.7,11.5,3.4,17.2,5.4c3,1,5.9,2.3,8.9,3.3
		c4,1.4,7.7,3.2,11.7,4.7c0.3,0.1,0.6,0.3,0.9,0.4c7.1,3.2,14,6.5,20.9,10.1c2.9,1.5,5.7,3.3,8.6,4.8c3,1.6,5.9,3.4,8.8,5.2
		C663.6,131.3,665.3,132.4,667,133.5z"/>
	<path class="st8" d="M744.9,204.6c0,1.1,0.1,2.3,0.1,3.4c0,11.3,0,22.7,0,34c0,0.9-0.1,1.8-0.1,2.7c0,0.4-0.5,0.8-0.9,0.8
		c-1.5,0.1-2.9,0-4.4-0.3c-0.9-0.2-1.8-0.2-2.7-0.3c0-1.1-0.1-2.3-0.1-3.4c0-4.8,0-9.6,0-14.3c0-0.5,0-0.9,0-1.4
		c0-0.8-0.2-1.1-1.2-1.3c-0.8-0.2-1.2-0.6-1.4-1.3c-0.3-2.1-0.8-4.2-1.4-6.3c-2.3-8.4-6.3-15.8-11.9-22.4
		c-9.5-11.3-21.7-18.2-36.1-21.1c-1.9-0.4-3.8-0.6-5.7-0.9c-0.6-0.1-0.9-0.5-1-1.2c0-0.6,0-1.1,0-1.7c0-5.7,0-11.4,0-17.1
		c0-0.7,0.1-1.4,0.1-2c0-0.4,0.5-0.9,0.9-0.9c0.5,0,0.9-0.1,1.4-0.1c1.1,0,2.3,0,3.4,0c0.5,0,0.9,0,1.4-0.1c0.5,0,0.8-0.3,0.9-0.9
		c0.1-0.4,0.1-0.9,0.2-1.3c0.7,0.4,1.4,0.8,2,1.3c2.8,2.3,5.6,4.6,8.4,6.9c3.6,2.9,7,6.1,10.6,9.1c6.6,5.7,12.6,12.2,18.8,18.3
		c0.6,0.6,1.2,1.4,1.8,2.1c0.3,0.3,0.5,0.8,0.8,1.1c2.7,2.5,4.8,5.4,7.3,8.1c1.5,1.6,2.8,3.3,4.1,5c1.3,1.6,2.5,3.2,3.8,4.8
		C744.1,204.1,744.6,204.3,744.9,204.6z"/>
	<path class="st24" d="M534.4,85.8c-0.9,1.1-0.9,2.2-0.2,3.4c0.9,1.3,1.7,2.7,2.5,4c0.2,0.3,0.4,0.6,0.2,0.9
		c-0.2,0.5-0.7,0.4-1.2,0.4c-0.6,0-1.1,0-1.7-0.1c-0.9-0.1-1.8-0.2-2.7-0.4c-1.1-0.2-2,0.1-2.7,1c-1,1.2-2,2.4-3,3.6
		c-0.3,0.3-0.6,0.8-1,0.8c-0.7-0.1-0.5-0.9-0.7-1.3c-0.1-0.2-0.1-0.4-0.2-0.6c-0.4-1.7-0.5-3.6-1.5-5.2c-1.4-0.9-3.1-1.4-4.6-2
		c-0.5-0.2-1-0.5-1.6-0.7c-0.3-0.1-0.4-0.7-0.1-0.8c0.8-0.6,1.7-1.1,2.5-1.7c1-0.7,2.3-1,3.1-2c0.2-0.3,0.4-0.5,0.5-0.8
		c0.1-1.7,0.2-3.4,0.3-5.1c0-0.4,0.2-0.9,0.3-1.3c0.1-0.3,0.3-0.4,0.6-0.2c0.9,0.7,1.8,1.4,2.6,2.1c0.7,0.6,1.4,1.2,2,1.8
		c0.6,0.5,1.2,0.6,1.9,0.4c1.7-0.5,3.5-0.9,5.3-1.3c0.3-0.1,0.7-0.2,0.9,0.1c0.3,0.3,0.1,0.6,0,0.9c-0.4,0.9-0.8,1.9-1.2,2.8
		C534.7,84.9,534.6,85.3,534.4,85.8z"/>
	<path class="st5" d="M572.1,192.9c2.8,1.2,5.7,2.4,8.4,3.7c2.7,1.3,5.3,2.7,7.8,4.2c4.7,2.8,9.3,5.7,13.6,9.1
		c2.6,2,5.2,4.1,7.6,6.3c0.8,0.8,1.6,1.6,2.6,2.2c-0.3,1.6-0.6,3.1-0.9,4.7c-0.2,1-0.7,1.3-1.6,1.4c-0.5,0.1-0.8,0.4-0.9,0.9
		c-0.1,0.3-0.1,0.7-0.1,1c0,0.9,0,1.8,0,2.7c0,30.7,0,61.4,0,92.2c0,1.7,0.1,3.4,0.2,5.1c0,0.8,0.1,1.6,0.1,2.4
		c0,11.9,0,23.9,0,35.8c0,0.9,0.2,1.8-0.4,2.6c-0.7-0.7-1-1.5-1-2.5c-0.1-11.3-0.1-22.5,0-32.5c-2.1,6.3-4,13.9-5.1,21.7
		c-0.4,2.9-0.6,5.9-1,8.8c-0.3,2.3,0.6,3.4,3,3.4c1.5,0,3-0.1,4.2,1.1c-0.2,0.2-0.3,0.4-0.5,0.5c-0.4,0.1-0.9,0.1-1.4,0.1
		c-2,0-4.1,0-6.1,0c-0.3,0-0.7,0-1,0c-0.6,0-1.1,0.5-1.1,1c0,1.1-0.1,2.3-0.1,3.4c0,29,0,58.1,0,87.1c0,1.1,0,2.3-0.1,3.4
		c0,0.5-0.6,0.7-1,0.5c-0.6-0.4-1.2-0.7-1.7-1.1c-13.2-9.1-26.4-18.3-39.6-27.4c-7.6-5.2-15.2-10.5-22.7-15.7
		c-8.7-6-17.4-12.1-26.1-18.1c-0.4-0.3-0.7-0.5-1.1-0.8c-0.6-0.4-0.9-1-0.9-1.7c0-0.7,0-1.4,0-2c0-3.9,0-7.7,0-11.6
		c-0.2-27.8-0.3-55.5-0.3-83.3c0-0.8-0.1-1.6-0.1-2.4c0-0.4-0.5-0.9-0.9-0.9c-2.8,0-5.7,0-8.5,0c-0.6,0-1.1,0.5-1.1,1.1
		c0,1.1-0.1,2.3-0.1,3.4c0,30.7,0,61.5,0,92.2c0,1,0,2,0,3.1c0,1-0.5,1.7-1.3,2.3c-4.2,2.9-8.4,5.8-12.6,8.7
		c-1.8,1.2-3.5,2.5-5.3,3.7c-0.3,0.2-0.6,0.3-0.9,0.4c-0.9-1-0.4-2.2-0.4-3.3c0.2-15.1,0-30.3-3.3-45.1c-4.8-21.5-14.4-40.6-29-57.2
		c-3.1-3.5-6.3-6.9-9.7-10.1c-0.9-1.3-0.1-2.4,0.6-3.4c7.6-11.1,15.8-21.8,24.8-31.8c13.3-14.8,27.5-28.5,43.3-40.6
		c11.4-8.7,23.4-16.5,36.1-23.3c1-0.5,2-1,3-1.6c1.5-0.8,1.7-2,0.8-3.4c-0.9-1.6-1.9-0.6-2.9-0.2c-9.5,4.8-18.5,10.4-27.2,16.3
		c-18.7,12.6-35.3,27.6-50.8,43.9c-10.9,11.5-20.6,24-29.7,37c-0.8,1.1-1.3,2.5-2.9,2.6c-6.8-5.2-14-9.8-21.2-14.3
		c-0.2-0.3-0.2-0.6,0-0.9c0.9-3.9,2.2-7.6,3.7-11.3c1.7-4.6,3.7-9.1,5.9-13.4c3.6-6.9,7.7-13.4,12.4-19.6c5-6.7,10.8-12.6,17-18.2
		c2.9-2.7,6.1-5.1,9.3-7.4c6.3-4.5,12.9-8.5,19.9-11.8c7-3.4,14.3-5.9,21.7-7.9c3.8-1,7.8-1.7,11.6-2.5c0.6-0.1,1.1-0.2,1.7-0.2
		c1.2-0.1,2.5-0.1,3.7-0.5c0.4-0.1,0.9-0.1,1.3-0.2c2.4-0.1,4.8-0.1,7.1-0.6c1.3-0.2,2.7-0.1,4.1-0.1c1.7,0,3.4,0,5.1,0
		c0.6,0,1.2-0.1,1.7,0.1c2.9,0.6,5.9,0.5,8.8,0.7c1.4,0.6,2.7-0.7,4.1-0.2c4.4,0.5,6.8,2.8,7.5,7.4c0.5,3.4,1.2,6.9,2.6,10.6
		c3.1-3,5.4-6.2,8-9.3c1.7-2,3.5-3.7,6.4-2.3C570.3,191.5,571.3,191.9,572.1,192.9z"/>
	<path class="st6" d="M405.4,278.4c0.7,0,1.3,0.3,1.9,0.6c3.4,2.1,7,4,10.3,6.4c2.4,1.7,4.8,3.4,7.1,5.2c0.8,0.6,1.6,1.3,2,2.2
		c0.6,1.9-0.8,3-1.7,4.2c-5.8,9-11.4,18.1-16,27.8c-0.1,0.2-0.2,0.4-0.3,0.6c-0.5,1.5-2.4,3.1,0,4.4c2.3,1.2,2.9-1,3.6-2.4
		c2.8-5.8,5.9-11.5,9.3-17.1c2.2-3.7,4.5-7.4,6.9-11c0.7-1.1,1.1-2.6,2.9-2.5c0.6,0.1,1.1,0.3,1.5,0.7c2.6,2.7,5.6,5,7.7,8.1
		c0.3,0.4,0.6,0.7,0.9,1c1.7,1.7,3.3,3.5,4.7,5.4c2.3,3.1,4.7,6.1,6.8,9.4c3.8,5.8,7.1,11.9,10,18.2c2.2,5,4.1,10.1,5.7,15.3
		c0.8,2.6,1.6,5.2,2.1,7.9c0.6,3.1,1.5,6.2,1.7,9.3c0.9,2.5,0.3,5.2,1.2,7.7c0,1.5,0.1,3,0.1,4.4c0,1.6,0,3.2,0.4,4.7
		c0.2,0.7,0.1,1.6,0.1,2.4c0,6,0,12.1,0,18.1c0,1.3-0.1,2.5-0.5,3.7c-0.5,0.4-1,0.9-1.6,1.3c-22.1,15.3-44.1,30.5-66.2,45.8
		c-0.8,0.6-1.7,1.1-2.6,1.7c-0.3,0.2-0.8,0-0.8-0.4c0-1.1-0.1-2.3-0.1-3.4c0-28.6,0-57.1,0-85.7c0-1.5,0-3,0-4.4
		c-2-0.4-3.1-1.6-3-3.7c0.5-23.6-1.4-47.3,1.4-70.9c0.4-3.7,1.3-7.4,2.1-11.1C403.4,280.8,403.6,279.1,405.4,278.4z"/>
	<path class="st25" d="M606.3,376.1c13.9,0,27.8,0,41.8,0c1.4,0,2.7,0.1,4.1,0.1c0,0.8-0.1,1.6-0.1,2.4c0,5.8,0,11.6,0.1,17.4
		c0.1,0.2,0.2,0.5,0.1,0.7c-3,4.8-3.8,10.6-7,15.3c-0.8,1.2-1.1,2.3-0.1,3.4c1.8,1.7,1.8,3.8,1.8,6c0,13.4,0,26.8,0,40.2
		c0,4.9,0,4.9,4.6,6.2c0.4,0.1,0.8,0.4,1.1,0.7c-0.7,1.3-0.6,2.7-0.6,4c-0.9,0-1.8,0.1-2.7,0.1c-13.3,0-26.6,0-39.9,0
		c-0.8,0-1.6,0-2.4-0.1c-0.4,0-0.8-0.5-0.8-0.9c0-0.3-0.1-0.7-0.1-1c0-0.9,0-1.8,0-2.7c0-29.2,0-58.4,0-87.6
		C606.2,378.9,606.3,377.5,606.3,376.1z"/>
	<path class="st4" d="M365,265.3c0,1.1,0.1,2.3,0.1,3.4c0,22.7,0,45.3,0,68c0,1,0,2-0.1,3.1c0,0.4-0.4,0.8-0.9,0.8
		c-0.1,0-0.2,0-0.3,0c-5.1,0-10.2,0-15.4,0c-0.2,0-0.5,0-0.6-0.2c-0.2-0.1-0.4-0.3-0.4-0.5c-0.1-1-0.1-2-0.1-3.1
		c0-10.2,0-20.5,0-30.7c0-2.7-0.3-5.2-1.3-7.7c-2.5-6.1-6.9-10.2-13.3-11.7c-11.5-2.7-21.4,4.7-23.4,15.4c-0.2,1.3-0.2,2.7-0.2,4.1
		c0,5.6,0,11.2,0,16.7c0,5,0,10,0,15c0,0.7,0,1.4-0.1,2c0,0.2-0.3,0.4-0.5,0.5c-0.2,0.1-0.4,0.1-0.7,0.1c-5.1,0-10.2,0-15.4,0
		c-0.2,0-0.5,0-0.7-0.1c-0.2-0.1-0.4-0.3-0.4-0.5c-0.1-0.9-0.1-1.8-0.1-2.7c0-18.8,0-37.6,0-56.4c0-1,0.1-2,0.1-3.1
		c1.5-2.1,3.8-2.8,6-3.7c3.7-1.4,7.1-3.6,11.1-3.9c1.6,0.4,2.3,1.8,3.3,2.9c11.1,12,30.6,8.5,36.9-6.5c0.6-1.3,0.9-2.9,2.6-3.3
		C355.8,263.9,360.6,262.7,365,265.3z"/>
	<path class="st8" d="M327.8,227.4c-10.8,0-21.6,0-32.4,0c-1,0-2,0-3.1-0.1c-0.6,0-1-0.5-1-1.1c-0.1-2.2,0.4-4.3,0.8-6.4
		c1.5-8,4.6-15.2,9.6-21.6c3.6-4.6,7.9-8.5,12.8-11.6c3.5-2.2,7.1-4.1,10.9-5.5c1.6-0.6,3-0.7,4.6-0.1c3.2,1.2,6.3,2.6,9.2,4.4
		c5.6,3.3,10.6,7.4,14.7,12.5c4.8,6,7.9,12.7,9.6,20.1c0.6,2.7,0.8,5.4,1.2,8.1c0.1,0.7-0.4,1.3-1.2,1.3c-1,0-2,0-3.1,0
		C349.7,227.4,338.8,227.4,327.8,227.4z"/>
	<path class="st8" d="M672.5,227.4c-10.8,0-21.6,0-32.4,0c-1,0-2,0-3.1-0.1c-0.6,0-1-0.5-1-1.1c0.6-11,4.3-20.9,11.4-29.4
		c3.8-4.6,8.4-8.3,13.5-11.4c2.2-1.3,4.6-2.6,7-3.5c4.9-2,4.3-2,9,0c5.3,2.2,10.1,5.2,14.5,8.8c5.4,4.5,9.8,9.9,12.9,16.2
		c2.2,4.5,3.8,9.3,4.5,14.3c0.2,1.7,0.6,3.4,0.5,5.1c0,0.6-0.4,1.1-1.1,1.1c-1,0-2,0.1-3.1,0.1C694.3,227.4,683.4,227.4,672.5,227.4
		z"/>
	<path class="st7" d="M709.5,245.6c0.1,1,0.2,2,0.2,3.1c0,29.5,0,58.9,0,88.4c0,1-0.1,2-0.2,3.1c0,0.2-0.3,0.4-0.5,0.5
		c-0.3,0.1-0.7,0.2-1,0.2c-4.9,0-9.8,0-14.7,0c-0.3,0-0.7-0.1-1-0.2c-0.2-0.1-0.4-0.3-0.4-0.5c-0.1-0.9-0.1-1.8-0.1-2.7
		c0-9.8,0-19.6,0-29.4c0-1.1,0-2.3,0-3.4c-0.3-8.5-6.2-15.9-14.4-17.7c-11.5-2.5-20.3,4.3-23,13.3c-0.5,1.7-0.8,3.5-0.8,5.4
		c0,0.8,0,1.6,0,2.4c0,9.7,0,19.3,0,29c0,1-0.1,2-0.1,3.1c0,0.4-0.3,0.6-1,0.6c-0.1,0-0.2,0-0.3,0c-1.2-1.3-1.1-2.9-1.1-4.5
		c0-7-0.2-14.1,0-21.1c0.4-13.8-1.6-27.2-5.5-40.4c-0.1-0.4-0.1-0.8-0.1-1.1c1.7-2.3,3.8-4.2,6.8-4.9c1.3,0.5,1.8,1.7,2.5,2.7
		c5.9,7.7,13.8,10.7,23.2,8.5c9.6-2.2,14.9-8.9,16.7-18.5c0.6-3.1,0.1-6.1-0.7-9.1c-0.4-1.3-1.3-2.8,0-4.2c4.2-1.8,8.7-2.3,13.1-3
		C707.9,244.8,708.7,245,709.5,245.6z"/>
	<path class="st25" d="M652.1,477.9c0,1.2-0.1,2.5-0.1,3.7c0,9.4,0,18.8,0,28.2c-0.8,0.1-1.6,0.1-2.4,0.1c-13.5,0-27,0-40.6,0
		c-0.7,0-1.4,0-2-0.1c-0.4,0-0.8-0.5-0.8-0.9c0-0.2-0.1-0.5-0.1-0.7c0-9.7,0-19.3,0-29c0-0.3,0.1-0.7,0.2-1c0.1-0.2,0.3-0.4,0.5-0.4
		c0.4-0.1,0.9-0.2,1.3-0.2c1.9,0,3.9,0,5.8,0c11.5,0,23,0,34.4,0C649.6,477.8,650.9,477.9,652.1,477.9z"/>
	<path class="st8" d="M365,265.3c-4.8-0.7-9.6-0.9-14.4-1.2c-1.1-1.3-0.6-2.8-0.6-4.3c0.6-12.3-7.7-22.1-20.4-23.4
		c-9.9-1-20.9,6.4-23.1,17.7c-0.9,4.5-0.3,8.6,1.2,12.7c0.5,1.2,1.5,2.4,0.7,3.8c-5.4,1.9-10.8,4.1-15.9,6.7
		c-0.4,0.2-0.8,0.3-1.3,0.5c0-1-0.1-2-0.1-3.1c0-12.9,0-25.7,0-38.6c0-1,0.1-2,0.2-3.1c0-0.2,0.3-0.4,0.5-0.5
		c0.2-0.1,0.4-0.1,0.7-0.1c1,0,2,0,3.1,0c21.7,0,43.5,0,65.2,0c1,0,2,0,3.1,0c0.7,0,1.2,0.5,1.2,1.3c0,0.6,0,1.1,0,1.7
		c0,9.1,0,18.2,0,27.3C365.1,263.7,365,264.5,365,265.3z"/>
	<path class="st7" d="M728.7,244.7c0.4,1.2,0.2,2.5,0.2,3.7c0,11.2,0,22.3,0,33.5c0,18.1,0,36.2,0,54.3c0,1.1,0,2.3-0.1,3.4
		c0,0.6-0.5,1.1-1.1,1.1c-4,0-8,0-12,0c-0.6,0-1-0.4-1-1.1c0-0.9,0-1.8,0-2.7c0-29.5,0-59,0-88.5c0-1.1,0.1-2.3,0.1-3.4
		c4-1.7,8.1-1.8,12.3-1.4C727.9,243.5,728.5,243.9,728.7,244.7z"/>
	<path class="st4" d="M328.2,369.8c-7.3,0-14.6,0-21.9,0c-1,0-2,0-3.1-0.1c-0.6,0-1-0.5-1-1.1c0-7.2,0-14.3,0-21.5
		c0-0.2,0-0.5,0.1-0.7c0.1-0.2,0.3-0.4,0.5-0.4c0.8-0.1,1.6-0.2,2.4-0.2c15.3,0,30.5,0,45.8,0c0.6,0,1.1,0,1.7,0
		c1,0,1.4,0.4,1.4,1.5c0,0.2,0,0.5,0,0.7c0,6.5,0,13,0,19.5c0,0.6-0.1,1.1-0.2,1.7c0,0.2-0.3,0.4-0.5,0.5c-0.8,0.1-1.6,0.2-2.4,0.2
		C343.4,369.8,335.8,369.8,328.2,369.8z"/>
	<path class="st7" d="M652.1,346c0.8-0.1,1.6-0.1,2.4-0.1c13.6,0,27.3,0,40.9,0c3.3,0,3.2-0.1,3.2,3.1c0,5.9,0,11.8,0,17.7
		c0,0.6,0,1.1,0,1.7c0,0.9-0.4,1.3-1.2,1.3c-0.5,0-0.9,0-1.4,0c-14,0-28,0-41.9,0c-0.7,0-1.4-0.1-2-0.2c-1-0.8-1.1-2-1.1-3.1
		c-0.1-5.8-0.1-11.6,0-17.4C651,348,651.2,346.9,652.1,346z"/>
	<path class="st4" d="M384.1,269.4c0,0.9,0.1,1.8,0.1,2.7c0,21.7,0,43.4,0,65.2c0,0.7,0,1.4,0,2c0,0.9-0.4,1.3-1.2,1.3
		c-0.3,0-0.7,0-1,0c-3.3,0-6.6,0-9.9,0c-0.3,0-0.7,0-1,0c-0.6,0-1-0.5-1-1.2c0-1,0-2,0-3.1c0-9.6,0-19.1,0-28.7
		c0-12.6,0-25.2,0-37.9c0-1.2,0.1-2.5,0.2-3.7C375.3,265.3,379.8,266.8,384.1,269.4z"/>
	<path class="st8" d="M652,268.8c-1.5,1.2-3,2.3-4.5,3.5c-0.4,0.4-0.9,0.6-1.5,0.7c-1-0.5-1.3-1.6-1.6-2.5
		c-2.4-6.3-4.8-12.5-7.9-18.5c-0.4-0.7-0.5-1.5-0.7-2.3c-0.1-0.7-0.1-1.4-0.1-2c0-4.2,0-8.4,0-12.6c0-0.6,0-1.1,0.1-1.7
		c0.1-0.3,0.4-0.6,0.7-0.7c0.5-0.1,1.1-0.2,1.7-0.2c3.3,0,6.6,0,9.9,0c19.1,0,38.2,0,57.3,0c4.7,0,4.2-0.4,4.2,4.2
		c0,3-0.1,5.9-0.1,8.9c-2.4,0.1-4.6,0.7-6.9,1.1c-3,0.6-5.9,1.3-8.8,1.9c-1.7-0.2-2.2-1.8-3.1-2.9c-10.2-12.8-27.3-12.5-36.4,0.9
		c-3.9,5.6-4,11.9-2.5,18.4C651.9,266.2,653,267.4,652,268.8z"/>
	<path class="st5" d="M617.1,340.6c-0.2-0.1-0.5-0.2-0.5-0.4c-0.1-0.4-0.2-0.9-0.2-1.3c0-10.4,0-20.7,0.1-31.1c0-1.3,0-2.5,0-3.8
		c0-22.3,0-44.7,0-67c0-1.1,0-2.3,0.1-3.4c0-0.6,0.5-1.1,1.1-1.1c2.5,0,5,0.1,7.5,0.1c2.4,2.1,4.3,4.6,5.4,7.6
		c0,1.1,0.1,2.3,0.1,3.4c0,30.9,0.1,61.8,0.1,92.8c0,1.1,0,2.3-0.1,3.4c0,0.4-0.3,0.6-0.6,0.7c-1.3-1.4-1-3.2-1-4.9
		c0-13,0-25.9,0-38.9c0-1.1,0.2-2.3-0.4-4.2c-4.4,7.1-11,12.2-10.6,21.3c0.3,7.4,0.1,14.8,0.1,22.2
		C618.2,337.6,618.4,339.3,617.1,340.6z"/>
	<path class="st25" d="M646,273.6c1,1.4,1.3,3.1,1.8,4.7c1.2,4.1,1.9,8.4,2.8,12.6c0,2.5,1,4.9,0.8,7.4c0,0.3,0,0.7,0.1,1
		c0.7,2.1,0.6,4.3,0.6,6.4c0,11.6,0,23.2,0,34.8c-0.7,0-1.3,0.1-2,0.1c-3.9,0-7.9,0-11.8,0c-0.7,0-1.3-0.1-2-0.2
		c-0.6-1.2-0.3-2.5-0.3-3.7c0-16.8,0.1-33.6-0.1-50.5c0-3.4,0.8-6,3.4-8C641.5,276.7,642.6,273.5,646,273.6z"/>
	<path class="st4" d="M405.4,278.4c-0.7,1.5-1.2,3.2-1.4,4.9c-0.4,2.8-1.1,5.5-1.7,8.3c-0.1,0.7-0.2,1.3-0.3,2c0,1-0.1,2-0.5,3
		c-0.2,0.7-0.2,1.6-0.2,2.4c-0.1,1.6,0.1,3.2-0.5,4.7c-0.2,0.6-0.1,1.3-0.2,2c0,1.5,0,3,0,4.4c0,17.7,0,35.4,0,53.1
		c0,0.6,0,1.1,0,1.7c-0.1,1.3,0.3,2.2,1.6,2.6c0.2,0.1,0.3,0.3,0.4,0.5c-2.3-0.1-4.5-0.1-6.8-0.2c-0.9,0-1.8,0-2.7-0.1
		c-0.3,0-0.5-0.4-0.7-0.6c-0.1-0.3-0.1-0.7-0.1-1c0-0.8,0-1.6,0-2.4c0-29.2,0-58.4,0-87.6c0-1.2,0.1-2.5,0.1-3.7
		c3.6,1.2,7.1,2.8,10.5,4.5c0.8,0.4,1.6,0.9,2.5,0.9C405.4,278,405.4,278.2,405.4,278.4z"/>
	<path class="st4" d="M285.9,281.2c0,0.9,0.1,1.8,0.1,2.7c0,17.8,0,35.7,0,53.5c0,0.8,0,1.6-0.1,2.4c0,0.4-0.5,0.8-0.9,0.8
		c-4,0-7.9,0-11.9,0c-0.6,0-1-0.4-1-1.1c0-0.8,0-1.6,0-2.4c0-14.7,0-29.3,0-44c0-1,0.1-2,0.1-3.1c3.3-4.2,8.1-6.4,12.5-9.1
		C285,280.8,285.5,280.9,285.9,281.2z"/>
	<path class="st8" d="M285.9,281.2c-0.8,0.4-1.6,0.8-2.3,1.3c-3.1,2-6.1,4.1-9.1,6.2c-0.7,0.5-1.5,1-2.2,1.4c0-1.1-0.1-2.3-0.1-3.4
		c0-16.7,0-33.5,0-50.2c0-1,0.1-2,0.1-3.1c0-0.4,0.5-0.8,0.9-0.9c0.1,0,0.2-0.1,0.3-0.1c3.8,0,7.5,0,11.3,0c0.8,0,1.3,0.5,1.3,1.2
		c0,0.5,0,0.9,0,1.4c0,14.8,0,29.6,0,44.4C286,280.1,285.9,280.6,285.9,281.2z"/>
	<path class="st25" d="M626.4,531.3c-5.8,0-11.6,0-17.4,0c-0.7,0-1.4,0-2-0.1c-0.3,0-0.5-0.4-0.6-0.7c-0.1-0.2-0.1-0.4-0.1-0.7
		c0-4.4,0-8.9,0-13.3c0-0.3,0.1-0.7,0.2-1c0.1-0.2,0.3-0.4,0.5-0.4c0.8-0.1,1.6-0.1,2.4-0.1c11.5,0,23,0,34.5,0c0.8,0,1.6,0,2.4,0.1
		c0.4,0,0.8,0.5,0.9,0.9c0,0.2,0.1,0.5,0.1,0.7c0,4.4,0,8.9,0,13.3c0,0.1,0,0.2,0,0.3c0,0.4-0.4,0.9-0.8,0.9c-0.8,0-1.6,0.1-2.4,0.1
		C638,531.3,632.2,531.3,626.4,531.3z"/>
	<path class="st4" d="M373,531.3c-5.7,0-11.4,0-17.1,0c-0.8,0-1.6,0-2.4-0.1c-0.4,0-0.8-0.4-0.8-0.9c0-0.2-0.1-0.5-0.1-0.7
		c0-4.3,0-8.6,0-13c0-0.3,0-0.7,0.2-1c0.1-0.3,0.4-0.6,0.7-0.6c0.4-0.1,0.9-0.1,1.4-0.1c12.2,0,24.3,0,36.5,0c0.5,0,0.9,0.1,1.4,0.1
		c0.4,0.1,0.5,0.4,0.6,0.7c0.1,0.3,0.1,0.7,0.1,1c0,4.2,0,8.4,0,12.6c0,0.3-0.1,0.7-0.1,1c0,0.3-0.6,0.8-1,0.8c-0.7,0-1.4,0-2,0
		C384.6,531.3,378.8,531.3,373,531.3z"/>
	<path class="st7" d="M672.1,515c5.8,0,11.6,0,17.4,0c0.7,0,1.4,0.1,2,0.2c0.2,0,0.4,0.3,0.5,0.4c0.1,0.2,0.1,0.4,0.1,0.7
		c0,4.7,0,9.3,0,14c0,0.6-0.5,1-1.1,1.1c-0.7,0-1.4,0-2,0c-11.3,0-22.5,0-33.8,0c-0.8,0-1.6,0-2.4-0.1c-0.3,0-0.5-0.4-0.7-0.6
		c-0.1-0.2-0.1-0.4-0.1-0.7c0-4.4,0-8.9,0-13.3c0-0.3,0-0.7,0.2-1c0.1-0.2,0.3-0.4,0.5-0.5c0.7-0.1,1.4-0.1,2-0.1
		C660.5,515,666.3,515,672.1,515z"/>
	<path class="st4" d="M327.4,531.3c-5.7,0-11.4,0-17.1,0c-0.7,0-1.4,0-2-0.1c-0.3,0-0.6-0.4-0.7-0.6c-0.1-0.3-0.1-0.7-0.1-1
		c0-4.3,0-8.7,0-13c0-0.2,0-0.5,0.1-0.7c0-0.4,0.5-0.9,0.9-0.9c0.6,0,1.1-0.1,1.7-0.1c11.6,0,23.2,0,34.8,0c0.6,0,1.2,0,1.7,0.1
		c0.3,0.1,0.5,0.4,0.7,0.6c0.1,0.2,0.1,0.4,0.1,0.7c0,4.6,0,9.1,0,13.7c0,0.2,0,0.5-0.1,0.7c-0.1,0.2-0.3,0.4-0.5,0.5
		c-0.7,0.1-1.4,0.2-2,0.2C339,531.3,333.2,531.3,327.4,531.3z"/>
	<path class="st4" d="M371.6,369.8c-3.4,0-6.8,0-10.2,0c-0.5,0-0.9,0-1.4-0.1c-0.4,0-0.9-0.4-0.9-0.8c0-0.5-0.1-0.9-0.1-1.4
		c0-6.5,0-13,0-19.5c0-0.3,0-0.7,0-1c0-0.7,0.4-1.1,1-1.2c0.3,0,0.7-0.1,1-0.1c7,0,14.1,0,21.1,0c0.3,0,0.7,0,1,0.1
		c0.5,0,0.9,0.4,0.9,0.8c0,0.5,0.1,0.9,0.1,1.4c0,6.5,0,13,0,19.5c0,0.6-0.1,1.1-0.2,1.7c0,0.2-0.3,0.4-0.5,0.4
		c-0.6,0.1-1.1,0.1-1.7,0.1C378.4,369.8,375,369.8,371.6,369.8z"/>
	<path class="st25" d="M629.1,369.8c-3.5,0-7.1,0-10.6,0c-0.3,0-0.7,0-1-0.1c-0.4,0-0.9-0.4-0.9-0.9c0-0.5-0.1-0.9-0.1-1.4
		c0-6.5,0-13,0-19.5c0-0.5,0-0.9,0.1-1.4c0.1-0.3,0.4-0.6,0.6-0.7c0.4-0.1,0.9-0.2,1.3-0.2c7.1,0,14.1,0,21.2,0c0.3,0,0.7,0,1,0.1
		c0.5,0,0.9,0.4,0.9,0.8c0,0.5,0.1,0.9,0.1,1.4c0,6.5,0,13,0,19.5c0,0.5-0.1,0.9-0.1,1.4c0,0.4-0.3,0.7-0.6,0.7
		c-0.5,0.1-1.1,0.1-1.7,0.1C635.9,369.8,632.5,369.8,629.1,369.8C629.1,369.8,629.1,369.8,629.1,369.8z"/>
	<path class="st7" d="M716.1,369.8c-3.4,0-6.8,0-10.2,0c-0.5,0-0.9,0-1.4-0.1c-0.3-0.1-0.6-0.3-0.6-0.7c0-0.3-0.1-0.7-0.1-1
		c0-6.8,0-13.6,0-20.4c0-0.2,0-0.5,0.1-0.7c0-0.4,0.4-0.9,0.8-0.9c0.6,0,1.1-0.1,1.7-0.1c6.7,0,13.4,0,20.1,0c0.6,0,1.1,0,1.7,0.1
		c0.3,0.1,0.6,0.4,0.7,0.7c0.1,0.3,0.1,0.7,0.1,1c0,6.7,0,13.4,0,20.1c0,0.2,0,0.5,0,0.7c0,0.8-0.5,1.3-1.2,1.3c-0.8,0-1.6,0-2.4,0
		C722.2,369.8,719.2,369.8,716.1,369.8C716.1,369.8,716.1,369.8,716.1,369.8z"/>
	<path class="st4" d="M284.8,345.9c3.3,0,6.6,0,9.9,0c0.6,0,1.1,0,1.7,0.1c0.3,0.1,0.5,0.4,0.7,0.6c0.1,0.2,0.1,0.4,0.1,0.7
		c0,6.9,0,13.9,0,20.8c0,0.3,0,0.7-0.2,1c-0.1,0.3-0.3,0.6-0.7,0.6c-0.5,0-0.9,0.1-1.4,0.1c-6.9,0-13.9,0-20.8,0
		c-0.5,0-0.9,0-1.4-0.1c-0.3-0.1-0.6-0.3-0.7-0.7c0-0.3-0.1-0.7-0.1-1c0-6.8,0-13.6,0-20.4c0-0.2,0-0.5,0-0.7c0-0.5,0.4-0.9,0.8-0.9
		c0.7,0,1.4-0.1,2-0.1C278.2,345.9,281.5,345.9,284.8,345.9z"/>
	<path class="st12" d="M350.3,536.3c5.7,0,11.4,0,17.1,0c0.7,0,1.4,0,2,0.1c0.3,0.1,0.6,0.4,0.7,0.6c0.1,0.3,0.2,0.7,0.2,1
		c0,3.5,0,7.1,0,10.6c0,0.2,0,0.5-0.1,0.7c0,0.4-0.5,0.9-0.8,0.9c-0.7,0-1.4,0.1-2,0.1c-11.5,0-23,0-34.5,0c-0.7,0-1.4,0-2-0.1
		c-0.3,0-0.6-0.3-0.7-0.7c-0.1-0.3-0.1-0.7-0.2-1c0-3.5,0-7.1,0-10.6c0-0.2,0-0.5,0-0.7c0-0.5,0.6-1,1.2-1c0.8,0,1.6,0,2.4,0
		C339.2,536.3,344.7,536.3,350.3,536.3z"/>
	<path class="st12" d="M373.2,555.3c5.8,0,11.6,0,17.4,0c0.7,0,1.4,0.1,2,0.1c0.4,0,0.6,0.3,0.7,0.6c0.1,0.2,0.1,0.4,0.1,0.7
		c0,3.5,0,7.1,0,10.6c0,0.1,0,0.2-0.1,0.3c0,0.4-0.5,0.9-0.9,0.9c-0.6,0-1.1,0.1-1.7,0.1c-11.8,0-23.6,0-35.5,0
		c-0.6,0-1.1,0-1.7-0.1c-0.4,0-0.9-0.4-0.9-0.8c0-0.1-0.1-0.2-0.1-0.3c0-3.6,0-7.3,0-10.9c0-0.6,0.5-1.1,1.1-1.1c0.9,0,1.8,0,2.7,0
		C362,555.3,367.6,555.3,373.2,555.3z"/>
	<path class="st26" d="M626.4,555.3c5.9,0,11.8,0,17.7,0c0.7,0,1.4,0.1,2,0.1c0.4,0,0.6,0.3,0.7,0.6c0.1,0.2,0.1,0.4,0.1,0.7
		c0,3.5,0,7,0,10.6c0,0.2-0.1,0.5-0.2,0.7c-0.1,0.2-0.3,0.4-0.5,0.5c-0.7,0.1-1.3,0.2-2,0.2c-11.8,0-23.6,0-35.5,0
		c-0.6,0-1.1,0-1.7-0.1c-0.6,0-1-0.5-1-1.2c0-3.6,0-7.3,0-10.9c0-0.6,0.5-1.1,1.1-1.1c0.9,0,1.8,0,2.7,0
		C615.5,555.3,620.9,555.3,626.4,555.3z"/>
	<path class="st25" d="M617.1,340.6c0-9.4,0-18.9,0-28.3c0-0.8,0-1.6,0-2.4c0-1.3,0.3-2.4,1-3.5c2.6-4.4,5.5-8.6,8.6-12.6
		c0.8-1,1.3-2.1,2.3-2.9c0.2-0.1,0.4-0.2,0.6-0.2c0.3,0,0.4,0.2,0.4,0.4c0,0.6,0,1.1,0,1.7c0,4.8,0,9.6,0,14.3c0,11.2,0,22.3,0,33.5
		c-0.4,0.1-0.9,0.2-1.3,0.2c-3.5,0-6.9,0-10.4,0C618,340.7,617.6,340.6,617.1,340.6z"/>
	<path class="st8" d="M384.1,269.4c-4.6-1.3-9.2-2.5-13.9-3.3c-0.1-0.9-0.2-1.8-0.2-2.7c0-9.3,0-18.7,0-28c0-0.5,0-0.9,0-1.4
		c0-1.1,0.4-1.5,1.4-1.5c3.9,0,7.7,0,11.6,0c0.6,0,1.1,0.4,1.1,1c0,0.7,0.1,1.4,0.1,2c0,10.5,0,20.9,0,31.4
		C384.2,267.8,384.1,268.6,384.1,269.4z"/>
	<path class="st8" d="M693.1,184c4,1.3,7.7,3.4,11.1,5.8c8.2,5.7,14.5,13.1,18.5,22.2c1.7,3.9,2.9,7.9,3.6,12
		c0.1,0.8,0.1,1.6,0.1,2.4c0,0.4-0.4,0.8-0.9,0.9c-0.1,0-0.2,0.1-0.3,0.1c-3.2,0-6.4,0-9.5,0c-0.8,0-1.2-0.5-1.3-1.3
		c-0.1-0.6-0.1-1.1-0.2-1.7c-1.2-12.9-6.1-24.1-15.2-33.4c-2.1-2.2-4.5-4.2-6.8-6.1C692.1,184.1,692.3,183.8,693.1,184z"/>
	<path class="st8" d="M350.1,184.7c2.3,0.7,4.4,1.9,6.4,3.1c8.5,5.1,15.2,11.9,19.9,20.7c2.5,4.6,4.3,9.5,5.2,14.8
		c0.2,1,0.3,2,0.5,3c0.1,0.4-0.3,1-0.7,1c-3.5,0.2-7,0.2-10.6,0c-0.4,0-0.7-0.3-0.7-0.6c-0.1-0.5-0.2-1.1-0.2-1.7
		c-0.5-4.8-1.4-9.5-2.9-14c-3.3-9.5-8.9-17.4-16.5-23.9c-0.6-0.5-1.2-1-1.8-1.6C348.6,184.2,349.3,184.3,350.1,184.7z"/>
	<path class="st8" d="M308.4,184.8c-2.5,2.1-5,4.3-7.3,6.7c-7.5,7.9-12.1,17.2-14,28c-0.4,2.2-0.6,4.5-0.8,6.8
		c-0.1,0.6-0.6,1.1-1.1,1.1c-0.1,0-0.2,0-0.3,0c-3.1,0-6.1,0-9.2,0c-1.2,0-1.6-0.5-1.4-1.7c0.4-2.7,0.9-5.4,1.7-8
		c4.4-13.7,13-23.8,25.4-30.8c2-1.1,4-2.2,6.2-2.8C308.4,183.8,308.6,184.1,308.4,184.8z"/>
	<path class="st8" d="M652.1,185.5c-0.5,0.5-1,0.9-1.5,1.4c-9.2,7.7-15.3,17.3-18.1,29c-0.8,3.1-1.1,6.3-1.5,9.4
		c-0.1,0.4-0.1,0.9-0.2,1.3c-0.1,0.3-0.4,0.4-0.7,0.6c-0.1,0.1-0.2,0.1-0.3,0.1c-3.1,0-6.1,0-9.2,0c-0.3,0-0.7-0.1-1-0.2
		c-0.3-0.1-0.6-0.4-0.5-0.8c0-2.6,0.6-5.2,1.4-7.7c3.3-11.4,9.8-20.6,19.3-27.7c3-2.3,6.2-4.2,9.7-5.7c0.4-0.2,0.9-0.3,1.3-0.4
		C651.4,184.3,652.1,184.2,652.1,185.5z"/>
	<path class="st27" d="M675.2,323.2c0-4.5,0-9.1,0-13.6c0-0.6,0-1.1,0.1-1.7c0-0.4,0.5-0.8,0.9-0.8c0.1,0,0.2,0,0.3,0
		c3,0,5.9,0,8.9,0c0.1,0,0.2,0,0.3,0.1c0.4,0,0.9,0.5,0.9,0.9c0,0.5,0.1,0.9,0.1,1.4c0,9.3,0,18.6,0,27.9c0,0.5,0,0.9-0.1,1.4
		c-0.1,0.3-0.3,0.6-0.7,0.6c-0.7,0-1.4,0.1-2,0.1c-2.5,0-5,0-7.5,0c-0.6,0-1-0.4-1.1-1.1c0-1.4,0-2.7,0-4.1
		C675.2,330.4,675.2,326.8,675.2,323.2z"/>
	<path class="st27" d="M670.2,323.3c0,4,0,7.9,0,11.9c0,0.9,0,1.8,0,2.7c0,0.8-0.5,1.3-1.2,1.3c-0.1,0-0.2,0-0.3,0
		c-2.8,0-5.7,0-8.5,0c-1,0-1.3-0.4-1.4-1.5c0-0.6,0-1.1,0-1.7c0-8.6,0-17.3,0-25.9c0-0.7,0-1.4,0-2c0-0.8,0.4-1.2,1.3-1.2
		c3,0,5.9,0,8.9,0c0.2,0,0.5,0.1,0.6,0.2c0.2,0.1,0.4,0.3,0.4,0.5c0.1,0.6,0.2,1.1,0.2,1.7C670.3,314,670.2,318.6,670.2,323.3
		C670.2,323.3,670.2,323.3,670.2,323.3z"/>
	<path class="st12" d="M325.5,323.2c0,4.4,0,8.9,0,13.3c0,0.7,0,1.4-0.1,2c0,0.3-0.4,0.5-0.6,0.7c-0.1,0.1-0.2,0.1-0.3,0.1
		c-3.1,0-6.1,0-9.2,0c-0.6,0-1.1-0.5-1.1-1.1c0-0.6-0.1-1.1-0.1-1.7c0-8.9,0-17.7,0-26.6c0-0.7,0-1.4,0.1-2c0-0.4,0.5-0.9,0.9-0.9
		c3.2,0,6.4,0,9.5,0c0.4,0,0.9,0.4,0.9,0.8c0,0.8,0.1,1.6,0.1,2.4C325.5,314.5,325.5,318.9,325.5,323.2z"/>
	<path class="st26" d="M652,550.2c-0.7,0.1-1.4,0.1-2,0.1c-7,0-14.1,0-21.1,0c-0.7,0-1.4-0.1-2-0.2c-0.2,0-0.3-0.3-0.5-0.5
		c-0.1-0.1-0.1-0.2-0.1-0.3c0-4,0-8,0-11.9c0-0.6,0.5-1.1,1.1-1.1c0.5,0,0.9-0.1,1.4-0.1c7.3,0,14.6,0,21.8,0c0.7,0,1.3,0.2,2,0.3
		C653.1,541.1,653.8,545.7,652,550.2z"/>
	<path class="st4" d="M342,323.4c0,4.6,0,9.1,0,13.7c0,0.6-0.1,1.1-0.2,1.7c0,0.2-0.3,0.4-0.5,0.4c-3.3,0-6.6,0-9.9,0
		c-0.3,0-0.6-0.3-0.7-0.7c-0.1-0.4-0.1-0.9-0.1-1.4c0-9.4,0-18.9,0-28.3c0-0.3,0.1-0.7,0.1-1c0-0.4,0.5-0.8,0.9-0.8
		c3.2,0,6.4,0,9.5,0.1c0.2,0,0.6,0.4,0.7,0.6c0.1,0.7,0.1,1.4,0.1,2C342,314.3,342,318.8,342,323.4C342,323.4,342,323.4,342,323.4z"
		/>
	<path class="st12" d="M384.5,536.3c2.3,0,4.5,0,6.8,0c0.4,0,0.9,0,1.3,0.2c0.3,0.1,0.5,0.4,0.7,0.7c0.1,0.2,0.1,0.4,0.1,0.7
		c0,3.6,0,7.3,0,10.9c0,0.2-0.1,0.4-0.1,0.7c-0.1,0.4-0.5,0.9-0.9,0.9c-0.3,0-0.7,0.1-1,0.1c-4.8,0-9.5,0-14.3,0
		c-0.4,0-0.9-0.1-1.3-0.2c-0.2,0-0.4-0.3-0.4-0.5c-0.1-0.3-0.1-0.7-0.1-1c0-3.6,0-7.3,0-10.9c0-0.9,0.2-1.5,1.4-1.5
		C379.3,536.3,381.9,536.3,384.5,536.3C384.5,536.3,384.5,536.3,384.5,536.3z"/>
	<path class="st13" d="M652,550.2c0-3.8,0-7.6,0-11.4c0-0.8,0-1.6,0.5-2.2c0.6-0.1,1.1-0.2,1.7-0.2c4.4,0,8.9,0,13.3,0
		c0.4,0,0.9,0.1,1.3,0.2c0.2,0.1,0.3,0.3,0.5,0.5c0.1,0.1,0.1,0.2,0.1,0.3c0,4,0,8,0,11.9c0,0.6-0.5,1.1-1.1,1.1c-0.5,0-0.9,0-1.4,0
		c-4.3,0-8.6,0-13,0C653.4,550.4,652.7,550.3,652,550.2z"/>
	<path class="st12" d="M384.2,587.3c-2.6,0-5.2,0-7.8,0c-0.6,0-1-0.4-1-1.1c0-3.9,0-7.7,0-11.6c0-0.4,0.4-0.9,0.8-0.9
		c0.5,0,0.9-0.1,1.4-0.1c4.5,0,9.1,0,13.6,0c0.6,0,1.1,0.1,1.7,0.2c0.2,0,0.3,0.3,0.5,0.4c0.1,0.1,0.1,0.2,0.1,0.3
		c0,3.9,0,7.7,0,11.6c0,0.8-0.5,1.2-1.4,1.2C389.4,587.3,386.8,587.3,384.2,587.3C384.2,587.3,384.2,587.3,384.2,587.3z"/>
	<path class="st28" d="M646,273.6c-0.4,0.2-0.8,0.4-1.1,0.7c-2.5,2.5-5,5-7.5,7.4c-0.7,0.7-1.1,1.4-1,2.4c0,0.9,0,1.8,0,2.7
		c0,17.9,0,35.7,0,53.6c-0.2-0.1-0.5-0.2-0.5-0.4c-0.1-1.1-0.1-2.3-0.1-3.4c0-14.2,0-28.4,0-42.7c0-13.8,0-27.5,0.1-41.3
		c0-1,0.1-2,0.1-3.1c1.7,2.3,2.9,4.9,4.1,7.4c2.2,4.6,3.9,9.4,5.7,14.2c0.2,0.5,0.3,1.1,0.4,1.7C646,273.2,646,273.4,646,273.6z"/>
	<path class="st26" d="M613.7,550.3c-2.2,0-4.3,0-6.5,0c-0.6,0-1-0.5-1-1.1c0-4,0-7.9,0-11.9c0-0.4,0.5-0.9,0.8-0.9
		c0.2,0,0.5-0.1,0.7-0.1c4,0,7.9,0,11.9,0c0.2,0,0.4,0,0.7,0.1c0.4,0,0.8,0.5,0.9,0.9c0,0.6,0.1,1.1,0.1,1.7c0,3.3,0,6.6,0,9.9
		c0,1.1-0.4,1.5-1.4,1.5C617.8,550.4,615.8,550.3,613.7,550.3C613.7,550.3,613.7,550.3,613.7,550.3z"/>
	<path class="st4" d="M327.9,301.7c-3.9,0-7.7,0-11.6,0c-0.4,0-0.9-0.1-1.3-0.2c-0.1,0-0.1-0.2-0.1-0.3c0-0.2,0-0.5,0.1-0.7
		c1.8-4.9,5.3-8,10.3-9c8.2-1.7,14.3,3.6,16,9c0.2,0.7-0.1,1.1-0.8,1.1c-0.3,0-0.7,0-1,0C335.6,301.7,331.8,301.7,327.9,301.7
		C327.9,301.7,327.9,301.7,327.9,301.7z"/>
	<path class="st7" d="M672.5,301.8c-3.6,0-7.3,0-10.9,0c-0.6,0-1.1-0.1-1.7-0.2c-0.1,0-0.3-0.3-0.4-0.5c-0.1-0.2-0.1-0.5,0-0.7
		c1.9-4.8,5.4-7.9,10.4-8.9c6.5-1.3,11.9,1.7,14.8,6.7c0.5,0.8,0.8,1.6,1.1,2.5c0.2,0.5-0.1,1-0.5,1c-0.7,0-1.4,0.1-2,0.1
		C679.7,301.8,676.1,301.8,672.5,301.8z"/>
	<path class="st26" d="M613.9,587.3c-1.9,0-3.9,0-5.8,0c-0.3,0-0.7,0-1-0.1c-0.4,0-0.8-0.5-0.8-0.9c0-1.4-0.1-2.7-0.1-4.1
		c0-2.5,0-5,0-7.5c0-0.7,0.4-1.1,1-1.1c1.9,0,3.9,0,5.8-0.1c2.3,0,4.5,0,6.8,0c0.9,0,1.4,0.4,1.4,1.1c0,3.9,0,7.7,0,11.6
		c0,0.4-0.4,0.9-0.9,0.9C618.2,587.2,616,587.2,613.9,587.3C613.9,587.3,613.9,587.3,613.9,587.3z"/>
	<path class="st29" d="M728.7,244.7c-0.4-0.1-0.9-0.3-1.3-0.3c-2.4,0-4.7-0.1-7.1,0.3c-1.8,0.3-3.6,0.2-5.4,0.3
		c0-3.7-0.1-7.5-0.1-11.2c0-0.7,0.5-1.2,1.3-1.2c3.8,0,7.7,0,11.5,0c0.2,0,0.5,0.1,0.6,0.2c0.2,0.1,0.4,0.3,0.4,0.5
		c0.1,0.4,0.2,0.9,0.2,1.3c0,2.9,0,5.9,0,8.8C728.9,243.8,728.8,244.2,728.7,244.7z"/>
	<path class="st30" d="M652.1,346c0,1.9-0.1,3.8-0.1,5.7c0,6,0,11.9,0,17.9c-1.5,0.3-2.9,0.2-4.4,0.1c-0.4,0-0.8-0.5-0.9-0.9
		c0-0.5-0.1-0.9-0.1-1.4c0-6.5,0-12.9,0-19.4c0-0.5,0-0.9,0.1-1.4c0-0.3,0.6-0.8,1-0.8C649.2,345.9,650.7,345.7,652.1,346z"/>
	<path class="st31" d="M630.6,240.2c-2.1-2.1-3.6-4.6-5.2-7c-0.1-0.2-0.1-0.4-0.2-0.6c1.5,0,2.9-0.1,4.4-0.1c0.7,0,1.2,0.5,1.2,1.3
		C630.7,236,630.7,238.1,630.6,240.2z"/>
	<path class="st32" d="M652.1,185.5c-0.3-0.6-0.9-0.7-1.5-0.8c1.2-1,2.7-1.4,4.2-1.8c0.1,0,0.2,0.1,0.3,0.1c0,0.1,0,0.2-0.1,0.3
		C654.2,184.4,653.2,185,652.1,185.5z"/>
	<path class="st33" d="M350.1,184.7c-0.6,0.1-1.2,0.2-1.5,0.8c-1.1-0.5-2.2-1.1-2.9-2.1c-0.1-0.1-0.1-0.2-0.1-0.3
		c0-0.1,0.2-0.2,0.3-0.1C347.4,183.3,348.9,183.7,350.1,184.7z"/>
	<path class="st34" d="M308.4,184.8c-0.3-0.3-0.5-0.5-0.8-0.8c0.7-0.8,1.8-0.8,2.7-1.1c0.1,0,0.2,0.1,0.3,0.2c0,0,0,0.2-0.1,0.3
		C310,184,309.3,184.5,308.4,184.8z"/>
	<path class="st35" d="M693.1,184c-0.3,0.3-0.5,0.5-0.8,0.8c-0.4-0.2-0.9-0.5-1.3-0.7c-0.1-0.6,0-1,0.8-0.8
		C692.2,183.4,692.7,183.5,693.1,184z"/>
	<path class="st36" d="M691.7,183.3c-0.3,0.3-0.5,0.5-0.8,0.8c-0.5-0.1-0.8-0.4-1-0.8c0-0.1-0.1-0.2,0-0.3c0-0.1,0.2-0.2,0.3-0.2
		C690.8,182.6,691.3,182.9,691.7,183.3z"/>
	<path class="st0" d="M328,468.2c-7.8,0-15.7,0-23.5,0c-0.8,0-1.6,0-2.4-0.1c-0.4,0-0.9-0.5-0.9-0.9c-0.1-0.9-0.1-1.8-0.1-2.7
		c0-14.1,0-28.2,0-42.3c0-1.4,0-2.7,0-4.1c0-0.6,0.1-1.2-0.4-1.6c-0.3-0.3-0.9-0.2-1.3-0.3c-0.7-0.2-1-0.5-1.1-1.1
		c0-0.6,0-1.1,0-1.7c0-1.8,0-1.8,2.1-2.3c0.6-0.1,1-0.4,1.1-1.1c0.3-2.6,1.1-5.1,2.2-7.5c3.9-8.1,10.3-13.2,19-15.2
		c16.1-2.9,28.1,7.2,31.5,19.3c0.3,1.2,0.5,2.4,0.8,3.7c0.1,0.5,0.4,0.8,0.9,0.9c0.3,0.1,0.7,0.1,1,0.1c0.5,0.1,0.9,0.5,0.9,0.9
		c0,0.9,0.1,1.8,0.1,2.7c0,1.1-0.1,1.2-1.4,1.5c-0.1,0-0.2,0-0.3,0c-0.5,0.1-0.9,0.5-0.9,0.9c0,1-0.1,2-0.1,3.1
		c0,14.6,0,29.1,0,43.7c0,4.7,0.4,4.2-4.2,4.2C343.2,468.3,335.6,468.2,328,468.2z"/>
	<path class="st5" d="M473.1,458.8c0.3-0.1,0.6-0.4,0.9-0.4c4.1,0.1,4-0.4,3.9,3.8c0,5.8,0,11.6,0,17.4c0,0.9,0,1.8,0.1,2.7
		c0,0.6,0.5,1,1.1,1c0.7,0,1.4,0,2,0c12.1,0,24.1,0,36.2,0c0.8,0,1.6-0.1,2.4-0.1c0.4,0,0.8-0.5,0.8-0.9c0-0.8,0.1-1.6,0.1-2.4
		c0-6.2,0-12.3,0-18.5c0-0.8,0.1-1.6,0.1-2.4c0-0.3,0.6-0.7,1-0.7c0.8,0,1.6,0.3,2.3,0.7c2,1.1,4,2.2,5.9,3.4
		c7.7,4.4,15.4,8.8,23.1,13.2c4.5,2.6,3.7,1.4,3.8,6.6c0,1.9,0,3.9,0,5.8c0,0.5,0,0.9-0.1,1.4c0,0.4-0.5,0.9-0.9,0.9
		c-1.1,0-2.3,0.1-3.4,0.1c-18.4,0-36.9,0-55.3,0c-6.6,0-13.2,0-19.8,0c-1,0-2-0.1-3.1-0.2c-1.2-1.4-1-3.2-1-4.9
		C473.2,476.5,473.5,467.6,473.1,458.8z"/>
	<path class="st5" d="M473.7,517c0.8,0,1.6-0.1,2.4-0.1c15.9,0,31.9,0,47.8,0c1,0,2,0.1,3.1,0.2c0.2,0,0.3,0.3,0.5,0.5
		c0.1,0.1,0.1,0.2,0.1,0.3c0,0.2,0.1,0.5,0.1,0.7c0,11.4,0,22.8,0,34.2c0,0.3-0.1,0.4-0.4,0.4c-0.1,0-0.2-0.1-0.3-0.2
		c-0.3-0.5-0.7-0.9-1-1.4c-0.6-0.8-1.1-1.7-1.7-2.6c-4.1-5.5-9.2-9.8-15.8-12c-9.4-3.2-18.4-2.2-26.8,3.1c-2,1.3-3.9,2.8-5.6,4.4
		c-0.5,0.5-1,0.9-1.6,1.3c-1-0.8-1.1-2-1.1-3.1c-0.1-8.1-0.1-16.3,0-24.4C473.3,517.9,473.5,517.4,473.7,517z"/>
	<path class="st5" d="M484,461c0-4.3,0-8.6,0-13c0-0.7,0-1.4,0.1-2c0-0.3,0.4-0.6,0.6-0.7c0.3-0.1,0.7-0.1,1-0.1
		c9.1,0,18.2,0,27.3,0c0.3,0,0.7,0.1,1,0.2c0.2,0.1,0.4,0.3,0.4,0.5c0.1,0.3,0.1,0.7,0.1,1c0,9.6,0,19.1,0,28.7c0,0.3,0,0.7-0.1,1
		c-0.1,0.3-0.4,0.6-0.6,0.7c-0.3,0.1-0.7,0.2-1,0.2c-9.1,0-18.2,0-27.3,0c-0.3,0-0.7-0.1-1-0.2c-0.2-0.1-0.4-0.3-0.4-0.5
		c-0.1-0.7-0.1-1.4-0.1-2C484,470.1,484,465.5,484,461z"/>
	<path class="st5" d="M473.8,496.5c0.7,0,1.4-0.1,2-0.1c16,0,32.1,0,48.1,0c0.9,0,1.8,0,2.7,0.1c0.4,0,0.9,0.4,0.9,0.8
		c0,0.3,0.1,0.7,0.1,1c0,3.9,0,7.7,0,11.6c0,0.1,0,0.2,0,0.3c0,1.3-0.4,1.7-1.6,1.7c-1,0-2,0-3.1,0c-13.5,0-27.1,0-40.6,0
		c-3.5,0-7,0.1-10.6,0.1c-1,0-2,0-3.1-0.1c-0.2,0-0.3-0.3-0.5-0.4c0.2-0.2,0.3-0.3,0.5-0.4c4.6-1.8,4.5-1.8,4.6-7
		C473.5,501.6,472.9,499,473.8,496.5z"/>
	<path class="st6" d="M473.1,458.8c0.7,0.2,1.2,0.6,1.2,1.4c0,0.9,0,1.8,0,2.7c0,9.1,0,18.2,0,27.3c-0.8,0.1-1.6,0.2-2.4,0.2
		c-10,0-20,0-30,0c-0.6,0-1.1-0.1-1.7-0.1c-0.4,0-0.6-0.3-0.7-0.6c-0.1-0.2-0.1-0.4-0.1-0.7c0-3.4,0-6.8,0-10.2c0-0.8,0.4-1.3,1-1.6
		c3-1.7,5.9-3.4,8.9-5.1c6.8-3.9,13.6-7.8,20.4-11.6C470.9,459.9,472,459.4,473.1,458.8z"/>
	<path class="st28" d="M545,496.4c3.2,0,6.4,0,9.5,0c0.6,0,1.1,0,1.7,0.2c0.3,0.1,0.5,0.4,0.6,0.7c0.1,0.3,0.1,0.7,0.1,1
		c0,3.9,0,7.7,0,11.6c0,0.4,0,0.9-0.2,1.3c-0.1,0.3-0.4,0.6-0.7,0.7c-0.4,0.1-0.9,0.2-1.3,0.2c-6.7,0-13.4,0-20.1,0
		c-0.4,0-0.9,0-1.3-0.2c-0.3-0.1-0.5-0.4-0.6-0.7c-0.1-0.3-0.1-0.7-0.1-1c0-4,0-7.9,0-11.9c0-0.3,0-0.7,0.1-1
		c0.1-0.3,0.3-0.6,0.7-0.6c0.7,0,1.4-0.1,2-0.1C538.6,496.4,541.8,496.4,545,496.4z"/>
	<path class="st6" d="M451.4,496.4c3.2,0,6.4,0,9.6,0c0.3,0,0.7,0,1,0c0.4,0,0.9,0.4,0.9,0.8c0,0.6,0.1,1.1,0.1,1.7
		c0,3.5,0,7.1,0,10.6c0,0.6-0.1,1.1-0.1,1.7c0,0.4-0.4,0.6-0.7,0.7c-0.3,0.1-0.7,0.1-1,0.1c-6.6,0-13.2,0-19.8,0c-0.3,0-0.7,0-1-0.1
		c-0.3-0.1-0.6-0.3-0.7-0.7c0-0.2-0.1-0.4-0.1-0.7c0-4.3,0-8.6,0-13c0-0.1,0-0.2,0.1-0.3c0-0.4,0.5-0.8,0.9-0.8c2.5,0,5,0,7.5-0.1
		C449.1,496.4,450.2,496.4,451.4,496.4C451.4,496.4,451.4,496.4,451.4,496.4z"/>
	<path class="st37" d="M473.7,517c0.3,0.7,0.6,1.4,0.6,2.3c0,0.8,0,1.6,0,2.4c0,6.8,0,13.6,0,20.4c0,1.2,0.1,2.5,0.1,3.7
		c-0.2,0.3-0.3,0.6-0.5,0.9c-2,2.4-3.6,4.9-5.1,7.7c-0.1,0.2-0.3,0.3-0.5,0.2c-0.1,0-0.2-0.1-0.2-0.2c-0.1-0.6-0.1-1.1-0.1-1.7
		c0-11,0-22,0-33.1c0-0.6,0-1.1,0.1-1.7c0-0.4,0.4-0.9,0.8-0.9c0.5,0,0.9-0.1,1.4-0.1C471.5,516.9,472.6,517,473.7,517z"/>
	<path class="st38" d="M473.8,496.5c0.2,0.7,0.5,1.3,0.5,2c0,3.9,0,7.7,0,11.6c0,0.9-0.5,1.4-1.6,1.4c-0.9,0-1.8,0-2.7,0
		c-0.6,0-1.1,0-1.7,0.1c-0.1-0.4-0.2-0.9-0.2-1.3c0-4.1,0-8.2,0-12.2c0-0.2,0-0.4,0.1-0.7c0-0.4,0.4-0.9,0.9-0.9
		C470.6,496.4,472.2,496.5,473.8,496.5z"/>
	<path class="st0" d="M652.6,468.4c-1.4-0.1-2.7-0.1-4.1-0.2c-0.7,0-1.4,0-2-0.1c-0.3,0-0.6-0.3-0.6-0.7c0-1-0.1-2-0.1-3.1
		c0-14.6,0-29.1,0-43.7c0-1,0-2,0-3.1c0-0.9-0.2-1-1.2-1.3c-0.2-0.1-0.5,0-0.7-0.1c-0.3-0.1-0.6-0.3-0.7-0.7c0-1.1-0.1-2.3,0-3.4
		c0-0.4,0.4-0.8,0.9-0.9c0.2,0,0.5-0.1,0.7-0.1c0.6-0.1,1.1-0.2,1.2-0.9c0.1-0.7,0.3-1.3,0.4-2c0.7-3.8,2.3-7.1,4.5-10.2
		c0.5-0.6,0.9-1.3,1.3-2c0.8-0.7,1.5-1.4,2.3-2c3.8-3.5,8.2-5.8,13.2-6.7c16.2-2.8,27.7,7.6,30.9,18.7c0.3,1,0.6,2,0.7,3
		c0.1,1.5,0.7,2.3,2.3,2.3c0.6,0,1,0.5,1,1.1c0,0.7,0,1.4,0,2c0,1.5,0,1.5-1.8,1.9c-0.7,0.2-0.9,0.4-1,1.2c0,1,0,2,0,3.1
		c0,14.3,0,28.7,0,43c0,1,0,2,0,3.1c0,1.2-0.4,1.5-1.7,1.6c-0.9,0-1.8,0-2.7,0c-13,0-25.9,0-38.9,0
		C655.1,468.3,653.9,468.4,652.6,468.4z"/>
	<path class="st0" d="M569.3,191.6c-0.7-0.1-1.4-0.2-2-0.4c-1-0.3-1.7,0.1-2.4,0.9c-2,2.4-3.9,4.7-5.9,7c-1.4,1.6-2.8,3.3-4.2,4.9
		c-0.2,0.2-0.7,0-0.8-0.3c-0.1-0.2-0.2-0.4-0.2-0.6c-1-4.3-1.9-8.6-2.9-12.9c-0.1-0.7-0.3-1.3-0.5-2c-0.2-0.6-0.5-1-1-1.3
		c-1.5-0.6-2.9-1.3-4.5-1.6c-0.9-0.6-2.2,0-2.9-1.2c-2.1-0.9-4.2-1.8-6.3-2.6c-0.4-0.2-0.8-0.4-1.2-0.6c-0.3-0.1-0.3-0.7-0.1-0.8
		c2.5-1.5,5.1-3,7.6-4.6c1.9-1.2,3.9-2.3,5.9-3.5c0.6-0.4,1-0.8,1.1-1.6c0.2-2.3,0.4-4.5,0.5-6.8c0.2-2.9,0.4-5.9,0.7-8.8
		c0-0.2,0.2-0.4,0.3-0.6c0.1-0.2,0.6-0.1,0.9,0.2c0.3,0.2,0.5,0.4,0.8,0.7c2.6,2.3,5.1,4.5,7.7,6.8c1,0.9,2.1,1.8,3.1,2.7
		c0.6,0.5,1.2,0.6,1.9,0.5c0.7-0.1,1.3-0.3,2-0.5c4.2-1,8.4-2.1,12.6-3.1c0.3-0.1,0.7-0.2,1-0.2c0.1,0,0.4,0.3,0.4,0.5
		c-0.1,0.4-0.2,0.9-0.4,1.3c-1.7,4.1-3.5,8.1-5.3,12.2c-0.2,0.5-0.4,1-0.7,1.6c-0.2,0.5-0.2,0.9,0.1,1.3c0.9,1.6,1.9,3.1,2.9,4.6
		c1.7,2.7,3.4,5.4,5.1,8.1c0.2,0.4,0.4,0.8,0.6,1.2c0.2,0.3-0.1,0.8-0.4,0.7c-1.7-0.2-3.4-0.3-5.1-0.5c-0.9-0.1-1.8-0.1-2.7-0.1
		C573.1,191.4,571.1,192.7,569.3,191.6z"/>
	<path class="st24" d="M420.5,160.7c0,0.7,0.1,1.4,0,2c-0.1,1.2,0.3,2.1,1.3,2.9c1.5,1,2.9,2.2,4.3,3.4c0.1,0.1,0.1,0.5,0,0.5
		c-0.5,0.3-1,0.5-1.6,0.7c-1.3,0.4-2.6,0.7-3.9,1c-1,0.2-1.6,0.8-1.9,1.7c-0.6,1.7-1.2,3.4-1.8,5.1c-0.2,0.4-0.8,0.5-1.1,0.1
		c-0.2-0.3-0.4-0.5-0.6-0.8c-0.6-0.9-1.2-1.9-1.9-2.8c-0.3-0.5-0.6-0.9-1-1.4c-0.3-0.4-0.7-0.6-1.1-0.6c-2-0.1-4.1-0.1-6.1-0.2
		c-0.3,0-0.6-0.5-0.4-0.7c0.2-0.3,0.3-0.6,0.5-0.9c0.6-0.8,1.3-1.6,1.9-2.4c0.5-0.6,1-1.3,1.4-1.9c0.3-0.4,0.3-0.8,0.2-1.3
		c-0.5-1.6-1-3.3-1.5-4.9c-0.2-0.5-0.6-1.1,0-1.6c0.5-0.4,1.1,0.1,1.6,0.2c1.5,0.5,3,1.1,4.5,1.7c0.7,0.3,1.3,0.1,1.9-0.3
		c1.7-1.1,3.4-2.3,5.1-3.4c0.1,0,0.5,0.2,0.5,0.3c0,1.1,0,2.3,0,3.4C420.6,160.7,420.5,160.7,420.5,160.7z"/>
	<path class="st39" d="M569.3,191.6c1.5,0,2.9,0.1,4.4,0.2c0.4,0,0.8,0.3,1.2,0.4c-0.6,0-1.1,0.1-1.7,0.1c-0.5,0-0.9,0.2-1.2,0.6
		C571,192.9,570,192.4,569.3,191.6z"/>
	<path class="st40" d="M542,184.2c1,0.2,2.1,0.4,2.9,1.2c-0.9,0-1.8,0-2.7,0c-0.6,0-1.1-0.1-1.5-0.5
		C541.1,184.7,541.6,184.7,542,184.2z"/>
	<path class="st0" d="M431.4,296.8c-0.4,0.5-0.9,1-1.2,1.6c-6.7,10.2-13,20.7-18.3,31.9c-0.1,0.3-0.2,0.7-0.5,0.9
		c-0.2,0.2-0.6,0.5-0.9,0.4c-1.2-0.4-2.3-0.9-3.4-1.4c-1.2-0.5-1.1-1-0.7-1.9c1.9-4.1,4-8.1,6.2-12.1c3.9-7.1,8.1-13.9,12.5-20.6
		c0.6-0.8,1.1-1.7,1.6-2.6c1.7-1.9,2.9-4,4.4-6.1c7.3-10.3,15.2-20.2,23.6-29.6c6.9-7.7,14.2-15.1,21.8-22.1
		c9.4-8.6,19.3-16.7,29.7-24c9.7-6.8,19.8-13,30.3-18.5c0.9-0.5,1.8-0.9,2.8-1.3c0.1-0.1,0.5,0,0.6,0.2c0.5,0.7,0.9,1.3,1.3,2
		c1.2,2.4,1.4,2.5-1.2,3.8c-9.8,5-19.2,10.8-28.3,17.1c-7.7,5.3-15.1,11-22.2,17c-10.1,8.5-19.5,17.8-28.5,27.5
		c-7.9,8.6-15.2,17.6-22,26.9c-2.2,3-4.4,6.1-6.5,9.2C432,295.6,431.7,296.2,431.4,296.8z"/>
	<path class="st41" d="M559.9,293c1.2,0.6,2.8,1.6,4.5,2.6c0.7,0.4,1.2,0.4,1.9,0.1c1.8-0.9,3.7-1.7,5.6-2.5
		c0.3-0.1,0.6,0.2,0.6,0.6c-0.2,1.2-0.5,2.5-0.7,3.7c-0.8,3.4-0.6,3.2,1.4,5.5c0.8,0.8,1.6,1.6,2.3,2.5c0.5,0.6,0.4,1.1-0.3,1.2
		c-1.3,0.2-2.7,0.5-4,0.6c-2.6,0.2-2.5,0.1-3.9,2.6c-0.7,1.3-1.5,2.6-2.2,3.8c-0.2,0.3-0.7,0.2-0.8-0.1c-0.2-0.3-0.3-0.6-0.5-0.9
		c-0.6-1.3-1.3-2.7-1.8-4c-0.4-1-1-1.4-2-1.6c-0.8-0.1-1.6-0.3-2.3-0.4c-1-0.2-2-0.4-3-0.6c-0.6-0.1-0.7-0.6-0.3-1
		c1-0.9,1.9-1.9,3-2.8c2.1-1.8,2-1.7,1.8-4.4c-0.1-1.5-0.4-2.9-0.6-4.4C558.4,292.8,558.9,292.4,559.9,293z"/>
	<path class="st42" d="M608.4,367.3c-1.9,0-3.9,0-5.8-0.1c-0.6,0-1.1,0-1.7-0.2c-0.3-0.1-0.6-0.4-0.6-0.7c-0.3-1.9-0.3-3.8,0.1-5.8
		c0.1-0.6,0.4-1.1,0.3-1.7c-0.2-2.5,0.6-4.9,0.8-7.4c0.1-1.1,0.4-2.2,0.6-3.3c1.2-6.7,3.1-13.2,5.5-19.6c0-0.1,0.1-0.1,0.2-0.2
		c0.3-0.1,0.3,0,0.3,0.4c0,0.6,0,1.1,0,1.7c0,11,0,22.1,0,33.1C608.2,364.8,608.3,366.1,608.4,367.3
		C608.4,367.3,608.4,367.3,608.4,367.3z"/>
	<path class="st0" d="M308.4,270.7c-0.2-0.5-0.4-1.1-0.7-1.5c-1.4-2.6-2.2-5.5-2.6-8.4c-0.4-2.8,0-5.5,0.7-8.1
		c2.4-9.2,10-15.4,18-16.7c9.5-2.3,23.4,3.3,26.7,17.7c0.5,2.2,0.7,4.5,0.4,6.8c-0.2,1.2-0.2,2.5-0.4,3.7c-0.3,0.8-0.7,1.7-1,2.5
		c-3.1,7.7-8.8,12.4-16.9,14.4c-8.8,1.4-16.4-1-22.3-7.9C309.7,272.3,309.1,271.5,308.4,270.7z"/>
	<path class="st0" d="M652,268.8c-0.5-1.5-1.1-3-1.5-4.5c-2.7-10.5,1.9-20,9.5-25c4.3-2.8,9.1-4.2,14.2-3.8
		c7.5,0.6,13.3,4.1,17.6,10.3c0.6,0.9,1.2,1.9,1.9,2.8c0.5,1.7,1.1,3.5,1.5,5.2c1.5,6.7-0.1,12.9-4.1,18.4
		c-3.4,4.7-8.1,7.7-13.8,8.7c-9.8,1.8-18.1-1.9-23.6-9.6C653.1,270.5,652.6,269.7,652,268.8z"/>
	<path class="st4" d="M330.5,439.7c0-6.7,0-13.4,0-20.2c0-0.8,0-1.6,0.1-2.4c0-0.3,0.2-0.6,0.6-0.7c0.3-0.1,0.7-0.1,1-0.1
		c5.3,0,10.7,0,16,0c0.3,0,0.7,0,1,0.2c0.3,0.1,0.6,0.4,0.6,0.7c0.1,0.7,0.1,1.4,0.1,2c0,13.7,0,27.3,0,41c0,0.7,0,1.4-0.1,2
		c0,0.3-0.4,0.5-0.6,0.7c-0.2,0.1-0.4,0.1-0.7,0.1c-5.6,0-11.2,0-16.7,0c-0.2,0-0.4-0.1-0.7-0.1c-0.4-0.1-0.6-0.4-0.6-0.7
		c-0.1-0.9-0.1-1.8-0.1-2.7C330.5,452.9,330.5,446.3,330.5,439.7z"/>
	<path class="st4" d="M306.2,439.7c0-6.7,0-13.4,0-20.1c0-0.8,0-1.6,0.1-2.4c0-0.4,0.5-0.8,0.9-0.8c0.2,0,0.5-0.1,0.7-0.1
		c5.3,0,10.7,0,16,0c0.3,0,0.7,0,1,0.1c0.2,0.1,0.4,0.3,0.5,0.5c0.1,0.8,0.2,1.6,0.2,2.4c0,13.6,0,27.3,0,40.9c0,0.7,0,1.4-0.1,2
		c0,0.4-0.5,0.8-0.9,0.8c-0.1,0-0.2,0-0.3,0c-5.6,0-11.1,0-16.7,0c-0.2,0-0.5,0-0.7-0.1c-0.2-0.1-0.4-0.3-0.5-0.5
		c-0.1-0.8-0.1-1.6-0.1-2.4C306.2,453.3,306.2,446.5,306.2,439.7z"/>
	<path class="st4" d="M327.8,411.2c-6.1,0-12.3,0-18.4,0c-0.8,0-1.6-0.1-2.4-0.1c-0.3,0-0.6-0.5-0.5-0.8c1.3-8.3,7.5-16.6,18.2-18.2
		c11.6-1.8,20.8,5.4,23.9,14.4c0.4,1.3,0.9,2.6,0.9,4c0,0.3-0.3,0.7-0.6,0.7c-0.9,0-1.8,0.1-2.7,0.1
		C340.1,411.2,334,411.2,327.8,411.2z"/>
	<path class="st7" d="M694.6,440.1c0,6.6,0,13.2,0,19.8c0,0.8-0.1,1.6-0.1,2.4c0,0.4-0.5,0.8-0.9,0.8c-0.2,0-0.5,0.1-0.7,0.1
		c-5.3,0-10.7,0-16,0c-0.2,0-0.5,0-0.7-0.1c-0.5,0-0.9-0.4-0.9-0.8c0-0.7-0.1-1.4-0.1-2c0-13.6,0-27.3,0-40.9c0-0.7,0-1.4,0.1-2
		c0-0.4,0.5-0.8,0.9-0.8c0.1,0,0.2,0,0.3,0c5.6,0,11.1,0,16.7,0c0.1,0,0.2,0,0.3,0c0.4,0,0.9,0.4,0.9,0.8c0,1,0.1,2,0.1,3.1
		C694.6,426.9,694.6,433.5,694.6,440.1z"/>
	<path class="st7" d="M652.1,416.5c0.3,0,0.7-0.1,1-0.1c5.1,0,10.2,0,15.3,0c0.3,0,0.7,0.1,1,0.1c0.4,0.1,0.6,0.4,0.7,0.7
		c0.1,0.6,0.1,1.1,0.1,1.7c0,14,0,27.9,0,41.9c0,0.5,0,0.9-0.1,1.4c0,0.5-0.5,1-1.1,1c-0.3,0-0.7,0-1,0c-4.8,0-9.5,0-14.3,0
		c-0.6,0-1.1-0.1-1.7-0.2c-0.9-1.1-0.7-2.3-0.7-3.6c0-13.1,0-26.3,0-39.4C651.3,418.8,651.1,417.5,652.1,416.5z"/>
	<path class="st7" d="M672.7,411.2c-6.4,0-12.7,0-19.1,0c-2.4,0-2.6-0.4-2.1-2.6c1.8-7.9,8.2-15.1,17.9-16.6
		c9.8-1.5,18,3.5,22.2,10.8c1.3,2.3,2.2,4.7,2.6,7.3c0.1,0.4-0.4,0.9-0.8,0.9c-0.9,0-1.8,0.1-2.7,0.1
		C684.7,411.2,678.7,411.2,672.7,411.2C672.7,411.2,672.7,411.2,672.7,411.2z"/>
	<path class="st25" d="M652.1,416.5c0,1.4-0.1,2.7-0.1,4.1c0,14.1,0,28.3,0,42.4c-1-0.1-1.2-0.3-1.3-0.8c0-0.7-0.1-1.4-0.1-2
		c0-13.7,0-27.3,0-41c0-0.7,0-1.4,0.1-2c0-0.4,0.3-0.6,1-0.7C651.9,416.4,652,416.4,652.1,416.5z"/>
	<path class="st8" d="M313.8,269.1c-1.8-1.7-2.7-4-3.1-6.3c-0.8-3.8-0.7-7.7,0.9-11.4c2.4-5.3,6.3-8.9,11.9-10.3
		c9.8-2.4,17.8,2.7,21.1,10.2c1.9,4.3,2.1,8.8,0.3,13.2c-3.4,1.1-6.9,0.9-10.4,1.3c-5.6,0.6-11.2,1.6-16.7,3.1
		C316.5,269.4,315.2,269.6,313.8,269.1z"/>
	<path class="st43" d="M313.8,269.1c5-1.5,10.1-2.6,15.2-3.4c2.9-0.4,5.8-0.9,8.8-1c1.5,0,2.9-0.3,4.4-0.4c0.9-0.1,1.8-0.2,2.6,0.3
		c-2.4,6.4-7,10.1-13.6,11.5C324.3,277.5,316.9,274.1,313.8,269.1z"/>
	<path class="st7" d="M688.5,250.2c2,3.4,2.5,7,1.9,10.8c-0.7,4.9-3,8.8-6.9,11.7c-8,6.1-19.6,4.4-25.6-4.1c-0.6-0.8-1-1.8-1.4-2.7
		c0.3-1.8,1.8-2.6,3.1-3.4c7.9-4.9,16.3-8.9,25-12C685.8,250.1,687.1,249.5,688.5,250.2z"/>
	<path class="st8" d="M688.5,250.2c-10.4,3.3-20.2,7.8-29.4,13.7c-0.9,0.6-1.8,1.4-2.7,2c-4.7-9,0.1-22.1,12-24.9
		C677.6,238.8,685.5,243.7,688.5,250.2z"/>
</g>
</svg>
