<svg width="240" height="261" viewBox="0 0 240 261" fill="none" xmlns="http://www.w3.org/2000/svg">
<path d="M81.8682 25C66.2348 31.5333 54.1015 41.3333 45.4682 54.4C37.0682 67.4667 32.8682 83.2167 32.8682 101.65C32.8682 110.283 33.6848 116.35 35.3182 119.85C36.9515 123.117 37.7682 124.983 37.7682 125.45C25.1682 125.45 15.7182 122.883 9.41816 117.75C3.3515 112.383 0.318164 103.633 0.318164 91.5C0.318164 76.5667 6.38483 62.1 18.5182 48.1C30.8848 33.8667 46.6348 22.4333 65.7682 13.8C84.9015 4.93332 104.035 0.499979 123.168 0.499979C126.435 0.499979 131.102 0.733316 137.168 1.19999L114.768 105.5H166.218L188.618 1.19999H239.018L183.368 263H132.968L160.968 131.4H109.518L81.5182 263H31.1182L81.8682 25Z" fill="white" fill-opacity="0.2"/>
</svg>
