<svg width="183" height="272" viewBox="0 0 183 272" fill="none" xmlns="http://www.w3.org/2000/svg">
<path d="M74.4453 271.3C59.7453 271.3 46.7953 268.733 35.5953 263.6C24.3953 258.467 15.762 251.35 9.69531 242.25C3.62865 232.917 0.595313 222.183 0.595313 210.05C0.595313 199.783 2.69531 190.45 6.89531 182.05C11.3286 173.65 17.162 167 24.3953 162.1C31.862 157.2 40.0286 154.75 48.8953 154.75C57.062 154.75 63.9453 156.85 69.5453 161.05C75.1453 165.017 78.6453 170.617 80.0453 177.85C67.912 177.85 58.2286 181.117 50.9953 187.65C43.762 193.95 40.1453 202.583 40.1453 213.55C40.1453 223.583 43.1786 231.633 49.2453 237.7C55.312 243.767 63.362 246.8 73.3953 246.8C85.762 246.8 95.912 242.717 103.845 234.55C112.012 226.15 116.095 215.65 116.095 203.05C116.095 192.083 113.062 181.7 106.995 171.9C100.929 162.1 91.8286 150.2 79.6953 136.2C67.0953 121.733 57.5286 109.367 50.9953 99.1C44.6953 88.6 41.5453 77.1667 41.5453 64.8C41.5453 52.6667 44.9286 41.8167 51.6953 32.25C58.462 22.45 67.7953 14.75 79.6953 9.15C91.5953 3.54999 105.012 0.749981 119.945 0.749981C138.845 0.749981 153.895 5.18332 165.095 14.05C176.529 22.9167 182.245 34.8167 182.245 49.75C182.245 59.55 179.795 67.4833 174.895 73.55C169.995 79.6167 163.579 82.65 155.645 82.65C146.779 82.65 139.662 79.0333 134.295 71.8C138.729 68.5333 142.229 64.2167 144.795 58.85C147.362 53.4833 148.645 47.8833 148.645 42.05C148.645 34.5833 146.429 28.6333 141.995 24.2C137.562 19.7667 131.495 17.55 123.795 17.55C114.462 17.55 106.762 20.9333 100.695 27.7C94.862 34.2333 91.9453 42.6333 91.9453 52.9C91.9453 62.2333 94.6287 70.9833 99.9953 79.15C105.362 87.0833 113.762 97.35 125.195 109.95C134.529 119.983 141.995 128.617 147.595 135.85C153.429 143.083 158.329 151.483 162.295 161.05C166.495 170.383 168.595 180.533 168.595 191.5C168.595 206.433 164.395 219.967 155.995 232.1C147.829 244.233 136.512 253.8 122.045 260.8C107.812 267.8 91.9453 271.3 74.4453 271.3Z" fill="white" fill-opacity="0.2"/>
</svg>
