<?xml version="1.0" encoding="utf-8"?>
<!-- Generator: Adobe Illustrator 25.2.1, SVG Export Plug-In . SVG Version: 6.00 Build 0)  -->
<svg version="1.1" id="Capa_1" xmlns="http://www.w3.org/2000/svg" xmlns:xlink="http://www.w3.org/1999/xlink" x="0px" y="0px"
	 viewBox="0 0 1000 1000" style="enable-background:new 0 0 1000 1000;" xml:space="preserve">
<style type="text/css">
	.st0{fill:#E96B0C;}
	.st1{fill:#7C7B7F;}
	.st2{fill:#FDFDFD;}
</style>
<g>
	<path d="M503.7,17.4c5.1,2.6,10.8,1.7,16.1,2.2c55,5.7,107.3,21.2,156.8,45.7c34.9,17.2,67,38.5,96.4,64
		c53.1,46,94.2,100.8,122.6,165c14.6,33,25,67.3,31.6,103c6.1,33,7.8,66.2,7.8,99.7c-0.1,70.1-0.1,140.3,0.1,210.3
		c0,5.5-1.4,6.8-6.8,6.8c-26.6-0.2-53.2-0.3-79.8,0.1c-5.8,0.1-7.2-1.8-7.2-7.3c0.1-77.6,0.6-155-0.1-232.6
		c-0.4-54.9-13.5-107-38-156.4c-19.7-39.8-45.7-74.9-77.8-105.4c-49.2-46.8-106.9-77.6-173-92.9c-30.7-7-61.7-10.3-93.1-9.2
		c-48.6,1.7-95.4,11.9-139.9,31.7c-45.3,20.1-85,48.3-119.3,84c-28.8,30-51.6,64.2-68.9,102.1c-13.5,29.5-22.9,60.4-28.3,92.3
		c-3,17.6-4.8,35.5-4.7,53.5c0,5.9-0.9,8-7.8,7.9c-28.4-0.7-56.9-0.3-85.4-0.4c0-11.6,0-23.1,0-34.7c1.2-0.4,1.3-1.4,1.3-2.5
		c2.1-31.6,8.1-62.4,16.8-92.7c19.5-67.9,53.1-127.9,100.2-180.2C174.1,115.1,235,73.3,306.2,46.6c21.9-8.3,44.4-14.2,67.2-19.3
		c20.6-4.5,41.4-7.2,62.4-8.7c1.5-0.1,3.4,0.4,4.6-1.1C461.7,17.4,482.7,17.4,503.7,17.4z M758,171.4c0.6,0.3,1,0.7,1.5,1.1
		c-4.1,10.1-7.8,20.2-12.2,30.3c-2,4.4,0.7,6.6,3.3,8.8c3.1,2.8,4-1.1,5.8-2.1c2.5-1.3,3.9-4,5.9-5.8c7.8-6.7,15.1-14.1,22.6-21.2
		c1.8-1.7,2.9-3.4,0.2-5.5c-2.2-1.9-3.6-1-5.3,0.7c-2.8,2.8-5.4,5.6-8.4,8.1c-4.6,4-8.3,9.1-14.7,13c0.9-2.6,1.2-4,1.7-5.3
		c3.6-9,6.9-18.2,11-26.8c2.5-5.2-1.1-7.4-3.7-9.8c-2.9-2.8-4.3,1.1-5.8,2.4c-9.2,8.5-18.3,17.3-27.3,26c-1.7,1.5-4.3,3-1.7,6.1
		c3,3.5,4.5,0.6,6.4-1.1C744.4,184,751.2,177.7,758,171.4z M338.7,98.5c-1.7-0.1-2-1.1-2.6-2c-5.8-8.3-11.8-16.3-17.4-24.8
		c-2.8-4.3-6.1-2.3-9.2-1.5c-3.7,0.9-3.1,4-2.3,6.5c4.2,12.7,8.5,25.2,12.7,37.8c0.9,2.8,2.3,3.2,5.1,2.2c2.9-1.1,2.4-2.3,1.7-4.6
		c-3.2-9.1-6.2-18.5-9.2-27.7c2.2-0.6,2.6,1.1,3.4,2.2c5.2,7.2,10.3,14.3,15.4,21.6c1.7,2.4,3.2,4.2,6.5,2.9c3-1.1,3.5-3.5,3.1-6.1
		c-1.4-7.8-0.1-15.6-0.8-23.4c-0.1-1.3-0.8-3.2,1.2-3.6c2-0.4,2.1,1.8,2.4,2.9c2.4,7,4.8,14,6.9,21.1c0.9,3.2,2.4,3.7,5.4,3
		c3.2-0.9,2.9-2.6,1.9-5.2c-4.3-12.2-8.5-24.4-12.5-36.7c-1-3-1.8-5.8-5.6-4.7c-3.4,1-6.6,2.2-6.3,7.3
		C339,76.5,338.7,87.4,338.7,98.5z M466.4,43.3c-9.8,0.2-9.8,0.2-9.8,9.9c0,0.8,0,1.7,0,2.4c-0.2,10.5-0.4,21-0.7,31.5
		c0,2.3-0.2,4.4,3.3,4.5c3.5,0.1,4.2-1.5,4.2-4.5c0-4.3,0.1-8.7,0.2-13c0-1.4-0.2-2.9,1.4-3.7c4.3-2.3,10.7,0.9,11.2,5.7
		c0.4,4.1,0.3,8.3,0.8,12.3c0.2,2.8,2.3,3.7,4.8,3.7c1.4,0,3.4,0.1,3.2-1.9c-0.8-7,0.4-14.6-3.2-21c-1.7-2.9-1.4-3.7,0.7-5.8
		c3.7-3.9,3.2-8.8,1.8-13.4c-1.4-4.5-5.3-6.7-10-6.8C471.8,43.2,469,43.3,466.4,43.3z M703.9,160.4c-0.2,7.6,2.9,12.1,9.6,15.6
		c5.2,2.8,10.1,2,14.3-1.7c7.2-6.2,13.1-13.6,18.2-21.6c3.5-5.5,2.1-12.8-2.3-16.9c-6.6-6.3-13.4-8-19.3-3.2
		c-8,6.7-14.7,14.7-19.7,24.1C704,158.4,704,160.1,703.9,160.4z M181,212.4c6.6,1.3,10.1-3,13.4-7c3.6-4.4,5.3-9.5,2-14.9
		c-3.3-5.3-7.9-8.5-14.4-7.3c-2.6,0.4-5.2,1.2-7.8,1.9c-2.2,0.6-4.3,1.4-6.5,1.9c-3.4,0.7-6.2-0.8-7.7-3.9c-1.2-2.4-0.3-4.7,1.7-6.7
		c2.3-2.5,5.1-3.2,7.7-1.2c3.2,2.4,5,0.6,6.6-1.7c2.2-2.9-1-3.9-2.3-5.3c-1.9-2-4.4-3-7.2-2.4c-6.3,1.3-10.8,5.1-13,10.9
		c-1.7,4.3-2.2,9.4,1,12.9c4.1,4.5,9.7,6.1,15.8,4.2c3.7-1.1,7.5-2,11.3-2.8c3.6-0.8,6.3,0.8,7.9,2.9c1.9,2.4,0.4,5.4-1.4,7.7
		c-3.1,3.7-6.8,3.9-10.3,1.2c-3.1-2.3-4.4,0-6.1,1.7c-2.3,2.2,0.4,3.2,1.3,4.3C175,211.6,177.5,213.5,181,212.4z M661.6,87.3
		c1-3-2.4-3.3-4.5-4.6c-2.9-1.9-4.5,0.1-6.3,1.9c-9.4,10.3-18.8,20.7-28.1,31c-1,1.1-4,2.2-1.5,4.3c1.8,1.4,4.4,2.9,6.7,0.8
		c1.7-1.4,3.2-3.2,4.5-5c1.2-1.5,2.3-2.2,4.2-1.2c4.2,2.2,8.9,3.6,12.4,6.5c2.3,2-0.4,5.8-0.6,8.8c0,0.4,0,0.9,0,1.2
		c0.7,3.2,3.6,3.3,5.7,3.6c2.5,0.4,1.7-2.3,1.8-3.6C658,116.8,659.7,102.5,661.6,87.3z M226.3,137.3c-3.9,0.3-7.5,0.2-9.4-4.1
		c-1.3-3.1,0.2-5.3,2.3-7c3.3-2.8,6.4-1.8,9.2,1.2c2.5,2.6,4.1-0.2,5.6-1.4c2.3-1.7,0.6-3.3-0.6-4.6c-3.7-4.5-8.5-5.4-13.9-3.2
		c-6.9,2.9-11.3,9.7-10.3,15.8c0.9,5.3,6.1,10.6,11.1,10.7c5,0.1,9.8-0.6,14.7-0.8c4.2-0.2,8,0.9,8.9,5.6c0.9,4.8-2.4,7-6.3,8.5
		c-3.3,1.2-5.4-0.8-7.3-3.2c-2.1-2.8-3.5-0.4-5.1,0.7c-2,1.3-1.9,2.8-0.4,4.6c3.9,5,10.5,6.8,16,4.3c7.2-3.2,11.9-10.3,10.8-16.3
		c-1.2-6.7-6.9-11.6-13.9-11.7C234.2,136.5,230.3,137.1,226.3,137.3z M291.5,78.3c-5.1,2.4-10.9,5.4-16.9,8c-3,1.3-3.3,2.9-1.9,5.7
		c5.8,12,11.6,24.1,17.2,36.2c1.3,2.9,2.5,3.6,5.6,2.1c5.5-2.9,11.1-5.3,16.7-7.8c1.9-0.9,3.5-1.5,2.2-4c-1.1-2.3-2.4-3.6-5.3-2
		c-3.4,1.9-7,3.4-10.6,5.1c-2,0.9-3.2,1.3-4.5-1.7c-4.4-10.1-4.6-10,5.5-15.2c0.8-0.3,1.3-1,2.1-1.2c2.5-0.8,2.3-2.3,1.4-4.3
		c-1.1-2.4-2.4-3-4.8-1.5c-2.9,1.7-5.9,2.8-8.9,4.3c-2.4,1.2-3.7,0.6-4.7-1.9c-0.7-1.8-1.5-3.3-2.4-5c-1.4-2.6-1.8-4.7,2-5.9
		c3.3-1.1,6.4-3,9.6-4.3c2.3-1,2.1-2.6,1.7-4.6C295.2,78.2,293.9,77.9,291.5,78.3z M399,97.7c9.1,0,14.6-4.2,15.2-11.9
		c0.2-2.3,1.8-5.9-2.5-6.4c-3.3-0.3-5.7,0.9-5.5,5.3c0.2,3.4-2,5.7-5.6,6.3c-3.5,0.4-5.9-0.9-7.2-4.4c-3-8.3-3.7-16.8-4.7-25.4
		c-0.4-3.7,2.3-6.2,5.7-7c3.6-0.9,6.7,0.2,7.5,4.3c0.6,3.1,2.6,2.8,4.7,2.4c3.6-0.6,4.2-4.1,1.3-8.3c-4-5.7-10.8-7-19.5-3.9
		c-4.8,1.8-7.9,7.7-7.2,14.9c0.8,6.7,1.7,13.4,3.1,20C386.6,93.7,391.1,97.7,399,97.7z M592.7,99.5c-0.1,9.2,2.9,12.9,10.9,15.2
		c7.4,2.1,12.4,0.8,15.4-5c1-1.9,4.3-4.3,0.7-6.7c-3.2-2.1-5.5-1.5-7.2,2.3c-1.4,3.3-4.6,4-7.8,2.9c-2.9-1-5.3-2.8-4.7-6.3
		c1.4-9.4,4.6-18.3,8.9-26.7c1.5-3,4.6-4.2,7.9-2.6c2.8,1.3,5.8,3,4.2,6.9c-1.4,3.6,0.9,4.2,3.4,5c3.3,1,3.7-1.3,4.4-3.6
		c1.5-5.7-1-10.7-6.9-13.4c-7.9-3.6-15.5-2.8-18.8,3C597.4,80,594.4,90.5,592.7,99.5z M433.6,92.9c4.1-0.3,8.3-0.8,12.3-1
		c2.2-0.1,3.6-0.9,3.5-3.3c-0.1-2.6-1.5-3.5-4.1-3.3c-3.7,0.3-7.4,0.4-11.1,1c-3,0.4-3.7-0.4-4.2-3.4c-1.7-11.9-1.8-11.9,10.2-12.3
		c0.7,0,1.2,0,1.9-0.1c2.1-0.1,4.3,0.2,4-3.1c-0.3-2.6-1.2-4.1-4.3-3.5c-3,0.6-6.2,0.4-9.2,0.8c-2.8,0.2-4.3-0.6-4.2-3.7
		c0.1-2.2-0.1-4.5-0.3-6.8c-0.1-2.8,1.3-4.2,3.7-3.2c4.1,1.5,7.5,0.1,11.2-0.9c2.5-0.7,2.8-1.9,2.8-3.9c0-2.6-1.5-2.9-3.6-2.6
		c-5.7,0.4-11.4,1.1-17.3,1.1c-3.6,0-4.6,1.4-4.4,4.8c0.9,11.2,1.3,22.6,2.4,33.9C423.7,93.1,423.9,93,433.6,92.9z M543.3,95.2
		c-0.6,2.8,0.9,3.6,3.4,3.9c2.3,0.1,3.9-0.1,4.2-3.1c0.2-3.1,1.2-6.1,1.8-9c1.5-8.4,1.5-8.4,9.6-6.8c2,0.4,4,0.9,6.1,1.2
		c1.7,0.3,2.9-0.3,3-2.2c0.1-1.5,1-3.4-1.3-4.1c-1.5-0.4-3.2-0.8-4.8-1.1c-9.5-1.9-9.4-1.9-7.9-11.2c0.6-3.5,1.9-4.6,5.4-3.4
		c3.1,1,6.5,1.3,9.7,2c2,0.4,3.6,0.4,4.1-2.3c0.3-2.4,0-3.6-2.9-4.1c-5.7-0.9-11.3-2.1-16.9-3.4c-3.2-0.8-4.6,0.4-5.2,3.4
		c-0.3,1.9-0.7,3.6-1,5.5C547.9,71.8,545.6,83.4,543.3,95.2z M198.1,134.9c-5.2,3-5.8,6.4-4,10.8c1.4,3.4,2.4,6.9,3.6,10.5
		c0.4,1.1,1.2,2.4,0.2,3.4c-1.3,1.4-2.6,0-3.7-0.7c-4.4-2.1-8.8-4.4-13.2-6.5c-3.6-1.8-5.7,1.3-6.9,3.4c-1.2,2.1,1.7,2.6,3.5,3.5
		c12.1,6.2,26.1,9.5,33.9,22.2c1.4,2.4,3.3,3.5,5.9,1c2.5-2.4,1.7-4.1-0.4-6.1c-6.8-6.3-11-14-13.1-23.1
		C202.5,147.5,200.2,141.5,198.1,134.9z M271.3,143.4c1.1-0.7,2.6-1.3,3.9-2.4c1.7-1.5,0.1-3-0.7-4.4c-5-8.6-9.5-17.4-15.1-25.5
		c-4-5.7-3.5-8.9,3.2-11.1c2.8-0.9,3.2-2.9,1.7-5.3c-1.5-2.5-3.1-1.8-5.1-0.6c-7,4.1-14.3,7.9-21.3,12c-1.3,0.8-3.9,0.9-3.3,3
		c0.4,1.5,2.1,3.1,3.5,4.1c2.1,1.5,3.4-0.9,4.7-1.8c4.3-3,7-3.2,9.9,2.3c4.4,8.8,9.7,17.2,14.7,25.7
		C268.1,141,268.7,143,271.3,143.4z M496.8,43.8c-2.1,0.2-5.9-1.9-5.4,4c0.4,4.6,4,2.6,5.4,2.6c6.3-0.4,7.6,2.3,6.9,8
		c-1.2,9.8-1.9,19.6-2.8,29.5c-0.2,2.9-0.4,5.3,3.5,5.6c4.6,0.4,3.6-2.9,4-5.3c0.9-9.2,1.4-18.4,2.4-27.6c0.9-8.5,1.1-8.6,9.7-7.9
		c2.4,0.2,3.5-0.3,3.6-2.8c0.1-2.2,0.1-4-3-4.2C513.1,45.3,505.2,44.5,496.8,43.8z M667.8,142.6c2.1-0.1,2.5-2,3.3-3.3
		c4.4-7.4,8.8-14.9,13.2-22.3c1.7-2.9,2.6-6.6,5.2-8.1c3.2-2.1,5.6,2.1,8.4,3.3c1.9,0.8,3.1,0.8,4.1-1.1c0.9-1.8,2-3.2-0.6-4.6
		c-7.7-4.4-15.3-8.9-22.9-13.3c-2-1.1-3.4-0.4-4.5,1.7c-1.2,2.2-0.4,3.4,1.5,4.4c0.9,0.4,1.8,1.1,2.8,1.4c3.9,1.5,5.3,3.1,2.4,7.5
		c-5.8,9.1-11,18.8-16.3,28.3C662.7,139.7,664.5,142.8,667.8,142.6z M684.8,152.5c0.4,2.5,2.5,3.1,4,4.1c1.8,1.2,2.6-0.4,3.4-1.5
		c7.8-11.3,15.5-22.8,23.3-34c1.8-2.5,1.8-4.3-1-6.1s-3.9-0.4-5.3,1.8c-7.4,10.9-14.9,21.7-22.2,32.6
		C686,150.3,685.3,151.5,684.8,152.5z M526.6,92.3c-1,2.5,0.3,3.5,2.9,3.7c2.1,0.2,3.9,0.6,4.3-2.6c1.9-13.9,4-27.6,5.9-41.5
		c0.3-2.5-0.6-3.7-3.3-4c-2.6-0.2-3.7,0.7-4.1,3.2C530.4,65,528.5,78.6,526.6,92.3z M591,62.3c0.8-2.2,0.1-3.6-2.4-3.7
		c-1.9-0.1-3.9-1.4-4.7,1.9c-3.4,13.8-7.3,27.4-10.8,41c-0.6,2-0.4,3.7,2.4,3.9c2,0,4.2,1.1,5-2C584,89.6,587.5,76,591,62.3z"/>
	<path class="st0" d="M499.7,942.5c1.1,0,2.2-0.1,3.4-0.1c0.8,0.6,1.5,0.6,2.3,0c38,0,75.9,0,113.9,0c20.5,1,41,0.4,61.5,0.3
		c2.3-0.1,4.6-0.1,6.8-0.2c0.7,0,1.4,0,2.1,0c2.1,0,4.2-0.1,6.3-0.1c0.4,0,0.9,0,1.4,0c9.5,0,19,0,28.5,0c0.8,0.6,1.7,0.6,2.4,0
		c2.5,0.1,5.2,0.2,7.7,0.2c8.6,0.1,17.2,0.2,25.9,0.2c18-0.1,36.1-0.2,54.1-0.4c9.9,0,19.9,0,29.8,0c19.5,0.9,38.9,0.3,58.4,0.2
		c6.4-0.1,12.8-0.1,19.1-0.2c2.2,0,4.5-0.2,4.4-3c-0.3-7.3,1.7-14.6-0.8-21.9c0-11.6-0.1-23.1-0.1-34.5c0.3-0.6,1-1,1-1.5
		c0-17.3,0-34.5,0-51.9c0-0.6-0.7-1-1-1.5c0.1-6.8,0.2-13.8,0.3-20.6c1.5-7.9,0.2-16,0.4-24c0.3-9.2,0.1-18.6,0.1-27.8
		c0-2.4-0.3-5.2,3.5-5.1c3.7,0,3.6,2.5,3.6,5.1c0,24.8,0,49.5,0,74.3c0,35.1,0.1,70.1-0.1,105.2c0,5.4,1.2,7.6,7.2,7.4
		c17.7-0.7,35.4,0.4,53-0.7c0,2.4,0,5,0,7.4c-18.5,0.1-37,0.1-55.3,0.2c-2,0-5.3-1-5.1,2.6c0.6,10.2-0.8,20.5,1,30.6
		c-2.4,0-5,0-7.4,0c-0.1-9.5-0.2-18.9-0.2-28.4c0-2.6,0.1-5.1-3.5-5.1c-1.2-0.1-2.4-0.2-3.6-0.2c-137.4,0-274.7,0-412.1,0
		c-3.5,0-6.9-0.4-10.5-0.7c0-1.4-0.1-3-0.1-4.4C499.1,944,499.6,943.5,499.7,942.5z"/>
	<path class="st0" d="M699.8,368.9c9.4,18.5,15.2,36.6,19.4,55.3c6.9,30.9,7.9,62,3.3,93.4c-3.1,20.7-8.7,40.6-16.8,59.8
		c-22,51.9-57.2,92.4-105.5,121.3c-43.8,26.2-91.5,37.5-142.5,35.2c-42.8-1.9-82.5-13.9-119.1-36.1
		c-58.7-35.6-97.3-86.9-115.3-152.9c-12.5-46.1-11.8-92.5,2.2-138.4c20.1-65.9,60.3-116.1,120-149.9c45.3-25.7,94.6-35.8,146.4-31.4
		c58.2,5,108.7,28.1,151.9,67.3c7,6.4,7,6.4,0.3,13.1C588.1,361.9,532,417.9,475.9,474c-5.7,5.7-5.7,5.7-11.7-0.1
		c-22.4-22.4-44.9-44.9-67.4-67.2c-1.3-1.3-2.4-4.1-4.8-2.9c-1.9,1-0.9,3.4-0.9,5.2c0,35.2,0,70.5,0,105.7c0,3.7,0.9,6.5,3.6,9.2
		c23.7,23.5,47.3,47.1,70.7,70.8c3.6,3.7,6.1,3.4,9.6-0.1c49.2-49.3,98.4-98.5,147.5-147.7C648.1,421.3,673.5,395.4,699.8,368.9z"/>
	<path d="M815.9,942.3c-18,0.1-36.1,0.3-54.1,0.4c-8.6,0-17.2-0.1-25.9-0.2c0.9-1.8-0.2-2.6-1.7-3.3c-14.9-6.7-20-19.8-22.8-34.4
		c-1.5-8.1-2.2-16.4-2.3-24.5c0-18.5-1.1-37.1,1.9-55.4c5-29.6,21.5-44.2,51.6-45c9.6-0.2,18.9,0.8,27.8,4.5
		c17.7,7.5,28.5,25,27.2,43.9c-0.2,3.2-1.3,4.3-4.5,4.3c-8.5-0.1-16.9-0.2-25.3-0.1c-3.3,0.1-4.4-1.2-4.4-4.4c0-2.6-0.1-5.4-0.6-8
		c-2-10-7.5-15-17.1-15.6c-8.9-0.6-15.3,4-18.6,13.1c-3,8.3-3.6,16.9-3.9,25.5c-0.6,20.1-1.2,40.4,2.3,60.4
		c2.5,14.3,10.3,20,24.8,18.3c12.9-1.5,12.9-1.5,12.8-14.2c0-6.2-0.2-12.3,0-18.6c0.1-3.9-1-5.5-5.2-5.5c-13.2,0-13.3-0.2-13.2-13.6
		c0.1-12.4-1.5-10.8,10.8-10.9c12.2-0.1,24.3,0.1,36.5-0.1c4,0,5.4,1.2,5.4,5.4c-0.2,23.5-0.1,47-0.1,70.5
		C817.8,937.5,817.6,940.1,815.9,942.3z"/>
	<path d="M680.8,942.6c-20.5,0.1-41,0.7-61.5-0.3c-0.2-1.9-1.8-2.5-3.2-3.4c-16.2-10-17.9-25.9-17.5-42.8c0.1-2.6,1.8-2.9,3.7-2.9
		c8.9,0,17.7,0.1,26.6-0.1c3.1-0.1,4,1.3,3.7,4.1c-0.1,2.1-0.1,4.2,0.1,6.2c1.4,14.2,9.9,20.4,24,17.2c9.9-2.2,14.7-16.1,8.9-25.9
		c-4.4-7.4-11.4-11.8-18.6-16c-10.1-5.9-20.2-11.7-29.6-18.8c-23.7-18.5-20.1-55.1-4.1-68.4c6.3-5.2,13.3-8.4,21-9.8
		c14.2-2.6,28.5-3.3,42.6,1.7c14.7,5.3,22.7,16.5,23.5,33.4c0.6,11.3,0.6,11.3-10.5,11.3c-6.2,0-12.3-0.1-18.6,0.1
		c-3.2,0.1-4.5-0.9-4.3-4.2c0.2-2.2-0.3-4.4-0.8-6.7c-1.3-6.9-4.6-11.9-12-12.9c-6.5-0.9-12.5,0.4-16.4,6.3
		c-4.3,6.4-4.2,13.1-0.3,19.8c4.1,6.8,10.8,10.7,17.4,14.4c11.2,6.5,22.7,12.3,32.9,20.6c19.8,16.1,17.7,55.3,2.1,68
		c-2.8,2.2-5.5,4.2-8.7,5.8C680,940.1,678.2,940.9,680.8,942.6z"/>
	<path d="M904.1,942.6c-19.5,0.1-38.9,0.7-58.4-0.2c-0.1-2.3-2-2.9-3.5-4c-12.7-9-20-27.8-16.7-42.7c0.4-2.2,1.7-2.6,3.4-2.6
		c9,0,18.2,0.1,27.2,0c3,0,3.4,1.5,3.5,3.9c0.1,3.7,0.1,7.4,1,11c1.5,6.7,5,11.4,11.9,12.5c7.2,1.1,14.7,1.8,19.5-5.6
		c4-6.3,4.8-13.2,1-19.9c-2.8-5-6.9-8.7-11.7-11.6c-9.5-5.8-19-11.4-28.4-17.4c-21.5-13.8-28.6-30.4-23.5-55.1
		c2.4-11.8,9.4-20.1,20.1-24.9c16-7,32.7-7.5,49.5-4.1c14.3,3,23.7,11.7,28.2,25.5c-0.1,6.8-0.2,13.8-0.3,20.6
		c-8,0.1-16.1,0-24.1,0.3c-4.7,0.2-7.8-0.2-7.6-6.2c0.1-3-1.2-6.1-2.3-8.9c-3.1-7.4-9.4-10.1-18.4-8.5c-7.4,1.4-11.7,6.5-12.2,14.1
		c-0.7,8.6,3.4,14.6,9.7,19.6c6.8,5.4,14.7,8.9,22.3,13.2c13.5,7.6,26.6,15.7,32.6,31.4c0,11.6,0.1,23.1,0.1,34.5
		c-2.6,8.3-7.3,15-14.7,19.7C909.4,938.9,906.2,939.8,904.1,942.6z"/>
	<path class="st0" d="M77.1,574.8c14.6,0.2,22.7,7.8,25.6,21.7c2.4,11.4-2.3,22.2-12.9,26.4c-12.5,5-25.4,9.6-38.9,11.3
		c-12.3,1.7-21-3.5-25.3-14.6c-5-13-2.6-24.1,8-30.4C47.8,580.8,63.9,577.7,77.1,574.8z M79.3,590.5c-8.1,1.2-15.8,4.2-23.7,6.6
		c-4.7,1.4-9.6,2.4-13.8,5.2c-4,2.5-4.4,6.2-3.1,10.3c1.3,4.2,3.7,7,8.5,6.3c12.9-2.1,25.1-6.2,37.1-11c4.4-1.8,5.3-6.2,4.1-10.5
		C87.1,593,84.2,590.3,79.3,590.5z"/>
	<path class="st0" d="M10.6,551.4c-0.2-13.6,8.6-22.4,22.1-22.4c2.2,0,3.5,0.2,3.6,2.9c0,1.7,0.2,3.3,0.8,4.8
		c1.2,4.3,1.2,7.3-4.6,7.9c-4.8,0.6-7.6,3.9-7.4,9c0.2,4.4,2.1,7.7,6.5,8.7c4.3,1,7.4-1.2,8.9-4.8c2.9-6.4,4.8-13.2,7.8-19.5
		c5.5-11.7,17.2-16.1,28.9-11.4c4.7,1.8,7.9,5.3,10.1,9.5c6.9,13.6,5.4,32-14.4,35.5c-4.3,0.8-6.3-0.2-6.5-4.6
		c-0.1-1.7-0.3-3.3-0.8-4.8c-0.9-3.5-0.6-5.8,4-6.4c4-0.4,7.2-2.5,6.8-7.3c-0.2-3.3-1-6.9-5.1-7.5c-5-0.8-8.4,1.4-10,6.2
		c-1.7,4.8-3.5,9.7-5.3,14.5c-5.1,13.4-15.6,17.7-26.6,16.4c-11.1-1.3-18.4-11.3-18.9-24.8C10.6,552.6,10.6,552.1,10.6,551.4z"/>
	<path class="st0" d="M108.7,766.8c-0.4-5,2-9.2,5.2-13.1c9.4-11,20.5-20.4,32.8-27.6c10.6-6.3,19.3-4.3,26.7,4.7
		c6.8,8.1,7.3,17.8-0.4,26.3c-10.5,11.6-21.8,22.6-36.3,28.9C123.5,792,108.7,781.8,108.7,766.8z M163.2,742.9
		c0-3.9-3.7-5.8-7.7-3.5c-11,6.3-20.4,14.5-29,23.7c-2.2,2.3-4.2,5.3-1.3,8.1c2.6,2.6,5.8,1.3,8.5-0.4c9.6-6.7,18.7-14,26.7-22.7
		C161.8,746.5,163,744.8,163.2,742.9z"/>
	<path class="st0" d="M129.3,684.8c10.2,0.4,15.3,5.7,18.8,13c3.7,7.7,2.6,15.4-3.3,21.1c-12.1,11.7-25.6,21.3-41.7,26.6
		c-8.7,2.9-15.2-0.1-21.2-8.4c-5.1-7-5.5-15-1-21.9c0.9-1.4,1.9-2.8,3.1-3.9c11.7-10.6,24.4-19.5,39.2-25.3
		C125.5,685.1,128.2,685,129.3,684.8z M98,730.9c0.7-0.1,1.8-0.1,2.6-0.6c11.8-5.6,22.2-13.1,32.2-21.3c2-1.7,2.9-4.2,1.2-6.7
		c-1.9-2.9-4.6-2.2-7.2-1.1c-7.7,3.4-14.5,8.5-21.6,13c-4,2.5-7.7,5.4-10.9,8.9c-1.5,1.8-1.9,3.7-1,5.7
		C94.1,730.4,95.9,730.9,98,730.9z"/>
	<path class="st0" d="M71.9,701c-9.9,0.2-17.7-6.6-19.7-16.9c-1.8-8.9,3.3-18.3,11.4-21.8c2.3-1,3.9-0.9,5,1.5
		c1.3,2.8,2.5,5.6,4.1,8.3c1.7,3-0.9,3.5-2.4,4.6c-2.2,1.5-4.7,3.2-3.3,6.4c1.4,3.2,4.4,2.5,6.9,2.2c1.8-0.2,3.5-1.1,5.3-1.8
		c3.1-1.1,3.4-2.3,1.3-5.3c-6.8-9.6-5.1-19.8,4.3-27.1c4.7-3.7,10-6.5,16-7.5c9.6-1.7,18,2.4,22.7,11.2c4.7,8.9,3.4,16.6-4.1,24
		C110.9,687.3,81.7,700.8,71.9,701z M105.7,658.4c-4.2,0.8-9.1,2.8-12.9,6.8c-1.5,1.5-1.7,3.7-0.3,5.7c1.2,1.9,3,3.1,5.2,2.5
		c4.8-1.2,9.4-3.1,12.9-6.8c1.5-1.7,1.9-3.6,0.9-5.7C110.5,659.1,108.9,658.4,105.7,658.4z"/>
	<path class="st0" d="M208.2,769c0.1,2.1-1.3,3-2.2,4c-14.9,15.6-29.8,31.2-44.6,47c-2.9,3.1-5.2,3.5-7.9,0.1
		c-1.2-1.4-2.5-2.8-4-3.9c-3.1-2.4-2.4-4.3,0.1-6.9c10.3-10.6,20.4-21.5,30.6-32.1c3.2-3.3,3.2-5-1.8-5.3c-1.5-0.1-3.6,0.3-4.2-1.8
		c-0.4-2,1.5-2.8,2.5-3.9c8.3-8.6,21.1-8.5,29.3,0.2C207,767.3,207.6,768.3,208.2,769z"/>
	<path class="st0" d="M84.9,511.1c1.5,4.8-0.9,5.9-5.9,6.3c-21.1,1.3-42.2,3.1-63.5,4.5c-2.4,0.2-6.2,1.9-7.3-1.3
		c-1.3-4-1.9-8.5-0.8-12.8c0.6-2.1,3.2-1.4,5-1.5c21.3-1.5,42.7-3.1,64-4.6C84.2,501,84.2,501,84.9,511.1z"/>
	<path class="st1" d="M498.2,948.2c3.5,0.2,6.9,0.7,10.5,0.7c137.4,0,274.7,0,412.1,0c1.2,0,2.4,0.1,3.6,0.2
		c-5.6,0.1-11.1,0.3-16.7,0.3c-134.4,0-268.8,0-403.2-0.1C502.4,949.5,499.8,950.7,498.2,948.2z"/>
	<path class="st1" d="M505.4,942.3c-0.8,0.6-1.5,0.6-2.3,0C503.9,940.9,504.7,940.8,505.4,942.3z"/>
	<path class="st1" d="M728.2,942.3c-0.8,0.6-1.7,0.6-2.4,0C726.7,940.9,727.5,941,728.2,942.3z"/>
	<path class="st1" d="M689.7,942.4c-0.7,0-1.4,0-2.1,0c-0.2-1.3,0.8-0.9,1.3-0.9C689.4,941.4,690,941.5,689.7,942.4z"/>
	<path class="st1" d="M697.3,942.3c-0.4,0-0.9,0-1.4,0c0.3-0.2,0.7-0.4,1-0.7C697.1,941.8,697.2,942.1,697.3,942.3z"/>
	<path class="st1" d="M499.7,942.5c0,1.1-0.7,1.5-1.7,1.3C497.7,942.4,498.3,941.9,499.7,942.5z"/>
	<path class="st2" d="M338.7,98.5c0-11.1,0.3-21.9-0.1-32.8c-0.2-5.2,2.9-6.3,6.3-7.3c3.9-1.1,4.6,1.8,5.6,4.7
		c4.1,12.3,8.3,24.5,12.5,36.7c0.9,2.5,1.3,4.3-1.9,5.2c-3,0.8-4.4,0.2-5.4-3c-2.1-7.2-4.5-14.1-6.9-21.1c-0.4-1.1-0.4-3.3-2.4-2.9
		c-2,0.4-1.3,2.3-1.2,3.6c0.7,7.8-0.7,15.6,0.8,23.4c0.4,2.5,0,4.8-3.1,6.1c-3.3,1.2-4.8-0.4-6.5-2.9c-5.1-7.3-10.2-14.3-15.4-21.6
		c-0.8-1.1-1.2-2.8-3.4-2.2c3.1,9.2,6.1,18.5,9.2,27.7c0.8,2.3,1.2,3.6-1.7,4.6c-2.8,1-4.2,0.7-5.1-2.2
		c-4.2-12.7-8.6-25.2-12.7-37.8c-0.9-2.5-1.4-5.6,2.3-6.5c3.2-0.8,6.4-2.8,9.2,1.5c5.5,8.4,11.6,16.5,17.4,24.8
		C336.7,97.3,337,98.4,338.7,98.5z"/>
	<path class="st2" d="M758,171.4c-6.8,6.3-13.6,12.4-20.5,18.7c-1.9,1.7-3.3,4.6-6.4,1.1c-2.6-3.1,0-4.4,1.7-6.1
		c9-8.7,18-17.4,27.3-26c1.4-1.3,3-5.2,5.8-2.4c2.6,2.4,6.2,4.6,3.7,9.8c-4.2,8.7-7.4,17.8-11,26.8c-0.6,1.3-0.9,2.6-1.7,5.3
		c6.5-3.7,10.1-9,14.7-13c3-2.5,5.6-5.4,8.4-8.1c1.7-1.7,3.1-2.5,5.3-0.7c2.5,2.1,1.4,3.9-0.2,5.5c-7.5,7.2-14.7,14.4-22.6,21.2
		c-2.1,1.9-3.4,4.5-5.9,5.8c-1.9,1-2.9,4.8-5.8,2.1c-2.5-2.3-5.2-4.4-3.3-8.8c4.3-10,8.1-20.1,12.2-30.3c0.3-0.7,0.9-1.3,0-1.9
		C758.7,170.1,758.5,171,758,171.4z"/>
	<path class="st2" d="M466.4,43.3c2.6,0,5.3,0,8,0c4.8,0.1,8.6,2.3,10,6.8c1.4,4.5,2,9.6-1.8,13.4c-2.1,2.1-2.2,3-0.7,5.8
		c3.5,6.4,2.4,14,3.2,21c0.2,2-1.8,1.9-3.2,1.9c-2.5,0-4.5-1-4.8-3.7c-0.3-4.1-0.3-8.3-0.8-12.3c-0.4-4.8-6.9-8-11.2-5.7
		c-1.7,0.9-1.4,2.3-1.4,3.7c-0.1,4.3-0.3,8.7-0.2,13c0,3-0.7,4.5-4.2,4.5c-3.6-0.1-3.4-2.2-3.3-4.5c0.2-10.5,0.4-21,0.7-31.5
		c0-0.8,0-1.7,0-2.4C456.6,43.5,456.6,43.5,466.4,43.3z M463.9,55.9c-0.2,4.2-0.9,7.8,5.2,7.6c5.1-0.2,8.6-1.4,8.8-7
		c0.1-4.8-2.4-6.8-7.3-7.2C465.2,49.1,462.9,51,463.9,55.9z"/>
	<path class="st2" d="M703.9,160.4c0.1-0.3,0.1-2.1,0.9-3.5c4.8-9.4,11.7-17.5,19.7-24.1c5.8-4.8,12.7-3.1,19.3,3.2
		c4.4,4.2,5.8,11.4,2.3,16.9c-5.1,7.9-11,15.4-18.2,21.6c-4.2,3.6-9.1,4.4-14.3,1.7C706.8,172.5,703.7,168,703.9,160.4z
		 M710.8,163.5c-0.1,2.3,1.8,4.4,4.5,6.2c4,2.5,7,0.2,9.2-2.2c5-5.3,9.2-11,13.8-16.6c3.5-4.4,2.9-8.3-1.4-11.6
		c-4.2-3.3-7.9-1.8-10.9,1.5c-4.4,5-8.4,10.1-12.4,15.3C712.3,157.9,711.4,160,710.8,163.5z"/>
	<path class="st2" d="M181,212.4c-3.4,1.1-6.1-0.8-8.3-3.4c-0.9-1.1-3.6-2.1-1.3-4.3c1.8-1.7,3-4,6.1-1.7c3.5,2.5,7.3,2.5,10.3-1.2
		c1.9-2.3,3.4-5.3,1.4-7.7c-1.7-2.1-4.3-3.6-7.9-2.9c-3.9,0.8-7.6,1.7-11.3,2.8c-6.2,1.8-11.7,0.2-15.8-4.2c-3.3-3.5-2.6-8.6-1-12.9
		c2.3-5.9,6.8-9.6,13-10.9c2.8-0.6,5.3,0.4,7.2,2.4c1.3,1.4,4.6,2.4,2.3,5.3c-1.7,2.2-3.4,4.1-6.6,1.7c-2.6-2-5.3-1.3-7.7,1.2
		c-1.9,2-2.9,4.3-1.7,6.7c1.5,3.1,4.3,4.4,7.7,3.9c2.2-0.4,4.3-1.3,6.5-1.9c2.5-0.7,5.2-1.4,7.8-1.9c6.6-1.1,11.2,2.1,14.4,7.3
		c3.3,5.4,1.5,10.5-2,14.9C191,209.3,187.6,213.6,181,212.4z"/>
	<path class="st2" d="M661.6,87.3c-1.9,15.3-3.6,29.5-5.4,43.8c-0.2,1.4,0.8,4.1-1.8,3.6c-2.1-0.3-5.2-0.4-5.7-3.6
		c-0.1-0.4,0-0.8,0-1.2c0-3.1,2.9-6.8,0.6-8.8c-3.5-3-8.3-4.4-12.4-6.5c-1.9-1-3-0.3-4.2,1.2c-1.4,1.8-2.9,3.5-4.5,5
		c-2.4,2.1-5,0.7-6.7-0.8c-2.4-2,0.6-3.2,1.5-4.3c9.2-10.5,18.7-20.7,28.1-31c1.7-1.9,3.4-3.9,6.3-1.9
		C659.1,84,662.5,84.3,661.6,87.3z M653.2,91.9c-4,4.5-7.3,8-10.2,11.8c-1.1,1.4-4.5,2.8-2.8,4.6c2.2,2.4,5.7,4,9.2,4.3
		c1.2,0.1,2-0.9,2-2C651.5,104.9,653.9,99.2,653.2,91.9z"/>
	<path class="st2" d="M226.3,137.3c3.9-0.3,7.8-0.9,11.7-0.9c6.9,0,12.7,5,13.9,11.7c1.1,5.9-3.6,13.1-10.8,16.3
		c-5.6,2.5-12.1,0.7-16-4.3c-1.4-1.9-1.5-3.2,0.4-4.6c1.5-1.1,3-3.4,5.1-0.7c1.9,2.3,4,4.3,7.3,3.2c4-1.4,7.3-3.6,6.3-8.5
		c-0.9-4.7-4.6-5.8-8.9-5.6c-5,0.2-9.8,0.9-14.7,0.8c-5.1-0.1-10.2-5.4-11.1-10.7c-1-6.2,3.4-13.1,10.3-15.8
		c5.4-2.2,10.1-1.3,13.9,3.2c1.1,1.3,2.9,3,0.6,4.6c-1.7,1.2-3.2,4.1-5.6,1.4c-2.9-3-5.8-3.9-9.2-1.2c-2.2,1.8-3.6,4-2.3,7
		C218.9,137.6,222.6,137.7,226.3,137.3z"/>
	<path class="st2" d="M291.5,78.3c2.5-0.2,3.7-0.1,4.2,1.9c0.4,2,0.7,3.6-1.7,4.6c-3.2,1.4-6.3,3.3-9.6,4.3c-3.7,1.2-3.4,3.2-2,5.9
		c0.9,1.7,1.8,3.3,2.4,5c0.9,2.4,2.3,3.2,4.7,1.9c3-1.5,6.1-2.6,8.9-4.3c2.4-1.4,3.7-0.8,4.8,1.5c0.9,2,1.1,3.5-1.4,4.3
		c-0.8,0.2-1.4,0.9-2.1,1.2c-10.1,5.3-9.9,5.2-5.5,15.2c1.3,3,2.5,2.5,4.5,1.7c3.5-1.7,7.2-3.1,10.6-5.1c2.9-1.5,4.1-0.3,5.3,2
		c1.2,2.5-0.3,3.2-2.2,4c-5.6,2.5-11.3,5-16.7,7.8c-3,1.5-4.3,0.8-5.6-2.1c-5.6-12.1-11.3-24.2-17.2-36.2c-1.4-2.9-1.1-4.4,1.9-5.7
		C280.5,83.7,286.3,80.7,291.5,78.3z"/>
	<path class="st2" d="M399,97.7c-7.8,0-12.3-4.1-14.5-14.1c-1.4-6.6-2.4-13.3-3.1-20c-0.8-7.2,2.3-13.1,7.2-14.9
		c8.7-3.2,15.5-1.8,19.5,3.9c2.9,4.2,2.3,7.7-1.3,8.3c-2,0.3-4.1,0.7-4.7-2.4c-0.8-4.1-3.9-5.2-7.5-4.3c-3.5,0.9-6.2,3.2-5.7,7
		c1,8.6,1.9,17.2,4.7,25.4c1.2,3.4,3.5,4.8,7.2,4.4c3.6-0.4,5.8-2.9,5.6-6.3c-0.3-4.4,2.2-5.6,5.5-5.3c4.2,0.4,2.6,4.1,2.5,6.4
		C413.7,93.6,408.1,97.6,399,97.7z"/>
	<path class="st2" d="M592.7,99.5c1.7-9,4.7-19.5,10.2-28.9c3.4-5.8,11-6.6,18.8-3c5.9,2.8,8.5,7.7,6.9,13.4c-0.7,2.2-1,4.6-4.4,3.6
		c-2.5-0.8-4.8-1.3-3.4-5c1.7-4-1.4-5.6-4.2-6.9c-3.3-1.5-6.5-0.4-7.9,2.6c-4.2,8.5-7.4,17.3-8.9,26.7c-0.6,3.5,1.8,5.3,4.7,6.3
		c3.3,1.1,6.4,0.6,7.8-2.9c1.7-3.9,4-4.5,7.2-2.3c3.6,2.4,0.3,5-0.7,6.7c-3,5.7-8,7-15.4,5C595.5,112.4,592.6,108.7,592.7,99.5z"/>
	<path class="st2" d="M433.6,92.9c-9.6,0.2-9.8,0.2-10.7-9.7c-1-11.2-1.5-22.6-2.4-33.9c-0.2-3.4,0.8-4.7,4.4-4.8
		c5.7-0.1,11.6-0.7,17.3-1.1c2.2-0.2,3.6,0,3.6,2.6c0,2-0.2,3.2-2.8,3.9c-3.7,1-7.2,2.4-11.2,0.9c-2.4-0.9-3.9,0.4-3.7,3.2
		c0.1,2.3,0.4,4.5,0.3,6.8c-0.2,3.2,1.4,4,4.2,3.7c3.1-0.2,6.2-0.2,9.2-0.8s4.1,0.9,4.3,3.5c0.3,3.3-1.9,3.1-4,3.1
		c-0.7,0-1.2,0-1.9,0.1c-12,0.3-11.9,0.3-10.2,12.3c0.4,3,1.2,3.9,4.2,3.4c3.6-0.6,7.4-0.6,11.1-1c2.5-0.2,4,0.7,4.1,3.3
		c0.1,2.4-1.3,3.2-3.5,3.3C441.7,92.1,437.7,92.6,433.6,92.9z"/>
	<path class="st2" d="M543.3,95.2c2.3-11.7,4.6-23.3,6.9-35.1c0.3-1.9,0.7-3.6,1-5.5c0.4-3.1,1.9-4.2,5.2-3.4
		c5.6,1.3,11.2,2.6,16.9,3.4c3,0.4,3.2,1.7,2.9,4.1c-0.3,2.8-2,2.6-4.1,2.3c-3.2-0.7-6.6-1-9.7-2c-3.5-1.1-4.8,0-5.4,3.4
		c-1.5,9.4-1.5,9.4,7.9,11.2c1.7,0.3,3.2,0.7,4.8,1.1c2.4,0.7,1.4,2.5,1.3,4.1c-0.1,1.9-1.3,2.5-3,2.2c-2-0.3-4.1-0.9-6.1-1.2
		c-8-1.5-8-1.5-9.6,6.8c-0.6,3.1-1.5,6.1-1.8,9c-0.2,3-1.8,3.2-4.2,3.1C544.1,98.8,542.7,98,543.3,95.2z"/>
	<path class="st2" d="M198.1,134.9c2.1,6.5,4.4,12.4,5.7,18.6c2,9.1,6.3,16.7,13.1,23.1c2.1,2,3.1,3.6,0.4,6.1
		c-2.6,2.5-4.5,1.4-5.9-1c-7.8-12.8-21.8-16.1-33.9-22.2c-1.9-0.9-4.6-1.4-3.5-3.5c1.2-2.1,3.2-5.2,6.9-3.4
		c4.4,2.1,8.8,4.4,13.2,6.5c1.2,0.6,2.4,2.1,3.7,0.7c1-1,0.1-2.3-0.2-3.4c-1.2-3.5-2.2-7-3.6-10.5
		C192.2,141.3,192.9,137.9,198.1,134.9z"/>
	<path class="st2" d="M271.3,143.4c-2.8-0.4-3.2-2.5-4.1-4c-5.1-8.5-10.3-16.9-14.7-25.7c-2.8-5.5-5.5-5.3-9.9-2.3
		c-1.3,0.9-2.5,3.4-4.7,1.8c-1.4-1.1-3.1-2.5-3.5-4.1c-0.6-2.1,2-2.2,3.3-3c7.2-4.1,14.3-7.9,21.3-12c2.1-1.2,3.5-2,5.1,0.6
		c1.5,2.5,1.1,4.4-1.7,5.3c-6.7,2.2-7,5.4-3.2,11.1c5.5,8.1,10.1,16.9,15.1,25.5c0.8,1.3,2.3,2.8,0.7,4.4
		C274.1,142.2,272.4,142.7,271.3,143.4z"/>
	<path class="st2" d="M496.8,43.8c8.5,0.7,16.5,1.4,24.4,2c3.1,0.2,3.1,2,3,4.2c-0.1,2.4-1.2,3-3.6,2.8c-8.6-0.7-8.8-0.6-9.7,7.9
		c-1,9.1-1.5,18.4-2.4,27.6c-0.2,2.4,0.7,5.7-4,5.3c-4-0.4-3.7-2.9-3.5-5.6c0.9-9.8,1.5-19.7,2.8-29.5c0.7-5.7-0.7-8.5-6.9-8
		c-1.4,0.1-5,2-5.4-2.6C490.8,42,494.7,44.1,496.8,43.8z"/>
	<path class="st2" d="M667.8,142.6c-3.3,0.2-5.2-3-3.4-6.2c5.3-9.5,10.5-19.1,16.3-28.3c2.9-4.4,1.4-5.9-2.4-7.5
		c-1-0.3-1.9-1-2.8-1.4c-2-1-2.6-2.2-1.5-4.4c1.1-2.1,2.5-2.8,4.5-1.7c7.7,4.4,15.3,8.9,22.9,13.3c2.4,1.4,1.4,2.9,0.6,4.6
		c-1,1.9-2.2,2-4.1,1.1c-2.9-1.2-5.3-5.4-8.4-3.3c-2.4,1.7-3.5,5.4-5.2,8.1c-4.4,7.5-8.7,14.9-13.2,22.3
		C670.4,140.8,669.8,142.5,667.8,142.6z"/>
	<path class="st2" d="M684.8,152.5c0.6-1,1.3-2.2,2.1-3.3c7.4-10.9,15-21.7,22.2-32.6c1.4-2.2,2.5-3.5,5.3-1.8
		c2.8,1.8,2.8,3.6,1,6.1c-7.8,11.3-15.5,22.7-23.3,34c-0.8,1.1-1.7,2.9-3.4,1.5C687.2,155.5,685.1,155.1,684.8,152.5z"/>
	<path class="st2" d="M526.6,92.3c2-13.8,3.9-27.4,5.7-41c0.3-2.5,1.4-3.4,4.1-3.2c2.8,0.2,3.6,1.4,3.3,4c-2,13.9-4.1,27.6-5.9,41.5
		c-0.4,3.2-2.2,2.8-4.3,2.6C526.9,95.9,525.6,95,526.6,92.3z"/>
	<path class="st2" d="M591,62.3c-3.5,13.6-7.2,27.3-10.7,41c-0.8,3.1-3,2.1-5,2c-2.8,0-2.9-1.9-2.4-3.9c3.6-13.6,7.4-27.3,10.8-41
		c0.9-3.4,2.9-2,4.7-1.9C591.1,58.7,591.8,60,591,62.3z"/>
	<path class="st2" d="M926.8,882.9c-5.9-15.5-19-23.7-32.6-31.4c-7.5-4.3-15.5-7.8-22.3-13.2c-6.3-5-10.3-11-9.7-19.6
		c0.6-7.6,4.8-12.8,12.2-14.1c8.9-1.7,15.3,1.1,18.4,8.5c1.2,2.9,2.4,5.9,2.3,8.9c-0.2,5.9,2.9,6.4,7.6,6.2c8-0.3,16.1-0.2,24.1-0.3
		c0.3,0.6,1,1,1,1.5c0.1,17.3,0.1,34.5,0,51.9C927.8,881.9,927.1,882.5,926.8,882.9z"/>
	<path class="st1" d="M758,171.4c0.4-0.6,0.8-1.4,1.7-0.8c0.9,0.6,0.2,1.2,0,1.9C759,172.2,758.6,171.9,758,171.4z"/>
	<path d="M463.9,55.9c-1-5,1.3-6.9,6.7-6.5c4.8,0.3,7.4,2.3,7.3,7.2c-0.2,5.6-3.7,6.8-8.8,7C463,63.9,463.6,60.1,463.9,55.9z"/>
	<path d="M710.8,163.5c0.6-3.5,1.4-5.6,2.9-7.4c4.1-5.2,8.1-10.3,12.4-15.3c3-3.4,6.7-4.8,10.9-1.5c4.3,3.4,5.1,7.3,1.4,11.6
		c-4.5,5.6-8.9,11.3-13.8,16.6c-2.2,2.4-5.3,4.7-9.2,2.2C712.5,167.9,710.7,165.8,710.8,163.5z"/>
	<path d="M653.2,91.9c0.7,7.4-1.5,13-1.8,18.8c0,1-0.8,2.1-2,2c-3.5-0.4-7-1.9-9.2-4.3c-1.8-1.9,1.7-3.2,2.8-4.6
		C645.9,99.9,649.2,96.4,653.2,91.9z"/>
	<path class="st2" d="M469.9,223.6c-141.3,0-255.8,114.5-255.8,255.8s114.5,255.8,255.8,255.8s255.8-114.5,255.8-255.8
		S611.2,223.6,469.9,223.6z M705.8,577.5c-22,51.9-57.2,92.4-105.5,121.3c-43.8,26.2-91.5,37.5-142.5,35.2
		c-42.8-1.9-82.5-13.9-119.1-36.1c-58.7-35.6-97.3-86.9-115.3-152.9c-12.5-46.1-11.8-92.5,2.2-138.4c20.1-65.9,60.3-116.1,120-149.9
		C390.9,231,440.2,221,492,225.4c58.2,5,108.7,28.1,151.9,67.3c7,6.4,7,6.4,0.3,13.1C588.2,361.9,532.1,417.9,476,474
		c-5.7,5.7-5.7,5.7-11.7-0.1c-22.4-22.4-44.9-44.9-67.4-67.2c-1.3-1.3-2.4-4.1-4.8-2.9c-1.9,1-0.9,3.4-0.9,5.2
		c0,35.2,0,70.5,0,105.7c0,3.7,0.9,6.5,3.6,9.2c23.7,23.5,47.3,47.1,70.7,70.8c3.6,3.7,6.1,3.4,9.6-0.1
		c49.2-49.3,98.4-98.5,147.5-147.7c25.6-25.6,51-51.5,77.3-78c9.4,18.5,15.2,36.6,19.4,55.3c6.9,30.9,7.9,62,3.3,93.4
		C719.5,538.3,713.9,558.3,705.8,577.5z"/>
</g>
</svg>
