<?xml version="1.0" encoding="utf-8"?>
<!-- Generator: Adobe Illustrator 25.2.1, SVG Export Plug-In . SVG Version: 6.00 Build 0)  -->
<svg version="1.1" id="Capa_1" xmlns="http://www.w3.org/2000/svg" xmlns:xlink="http://www.w3.org/1999/xlink" x="0px" y="0px"
	 viewBox="0 0 1000 1000" style="enable-background:new 0 0 1000 1000;" xml:space="preserve">
<style type="text/css">
	.st0{fill:#4D8B34;}
	.st1{fill:#FDFDFD;}
	.st2{display:none;}
	.st3{display:inline;}
	.st4{font-family:'MyriadPro-Bold';}
	.st5{font-size:60.6151px;}
	.st6{font-family:'MyriadPro-Light';}
	.st7{font-size:112.571px;}
</style>
<g>
	<path class="st0" d="M841.6,373.4c0,108.1-0.7,216.2,0.5,324.2c0.3,26-8.7,42.9-28.6,58.5c-96,75.1-191.5,150.9-286.4,227.4
		c-19.6,15.8-34.8,14.7-53.7-0.5C376.9,905.6,280,828.6,182.8,752c-17.6-13.9-24.8-30.2-24.7-52.4c0.4-219.8,0.6-439.7-0.2-659.6
		c-0.1-26.4,8.3-35.2,35.3-35.1c205.1,1,410.2,0.9,615.3,0.1c25.2-0.1,33.9,7.1,33.6,33C840.9,149.9,841.6,261.7,841.6,373.4z
		 M572.6,463.3c-2.2-32.7-13.3-52.9-43-72.4c-23.9-15.7-49.7-28.2-74.2-42.9c-21.2-12.7-41-27.7-35.1-56.7c5.8-28.8,28.6-39,54-44.8
		c8-1.8,16.5-1.9,24.8-2.2c56.4-2.1,103.5,19.5,144.4,60.1c5-59,4.2-62.9-15.1-79.7c-66.8-58.4-187.2-57.4-253.4,2.1
		c-53.9,48.6-47.9,122.6,13.4,162.1c24.3,15.6,51.3,25,78.6,33.9C501.8,434.2,538.6,440.7,572.6,463.3z M567.4,393.1
		c7.2,10,12.4,15.4,15.6,21.8c19.1,38.2,26.4,77.7,2.9,116.2c-21.9,36-58.4,43.1-97,40c-49.3-3.9-89-28.1-123.2-62.6
		c-5.3-5.4-8-14.6-19.5-15.1c0,14.3,1.9,28.2-0.4,41.5c-5.4,31.7,11.1,50.4,35.2,65.6c57.4,36.1,118.4,44,183,23
		c32.2-10.4,61.3-26.4,82.1-53.9c25.4-33.5,32.6-71.3,13.4-109.3C641.5,424.9,611.7,402,567.4,393.1z"/>
	<path class="st1" d="M572.6,463.3c-34-22.6-70.8-29.1-105.8-40.5c-27.3-8.9-54.3-18.3-78.6-33.9c-61.3-39.5-67.3-113.5-13.4-162.1
		c66.1-59.5,186.6-60.5,253.4-2.1c19.2,16.8,20,20.7,15.1,79.7c-40.8-40.6-88-62.2-144.4-60.1c-8.3,0.3-16.8,0.3-24.8,2.2
		c-25.4,5.8-48.2,16-54,44.8c-5.9,29.1,13.9,44,35.1,56.7c24.5,14.7,50.4,27.3,74.2,42.9C559.3,410.4,570.4,430.6,572.6,463.3z"/>
	<path class="st1" d="M567.4,393.1c44.2,8.9,74,31.9,92.1,67.4c19.3,38,12,75.7-13.4,109.3c-20.8,27.4-49.9,43.4-82.1,53.9
		c-64.5,20.9-125.6,13.1-183-23c-24.1-15.2-40.6-33.9-35.2-65.6c2.3-13.3,0.4-27.3,0.4-41.5c11.5,0.5,14.2,9.7,19.5,15.1
		c34.2,34.5,73.9,58.7,123.2,62.6c38.6,3.1,75-4,97-40c23.5-38.5,16.2-78-2.9-116.2C579.8,408.5,574.6,403,567.4,393.1z"/>
</g>
<g class="st2">
	<text transform="matrix(1 0 0 1 448.7256 400.0332)" class="st3 st4 st5">DISTINCIÓN</text>
	<text transform="matrix(1 0 0 1 440.9326 506.7793)" class="st3 st6 st7">Turismo</text>
	<text transform="matrix(1 0 0 1 441.0439 622.5605)" class="st3 st6 st7">Sustentable</text>
</g>
</svg>
