<?xml version="1.0" encoding="utf-8"?>
<!-- Generator: Adobe Illustrator 23.0.3, SVG Export Plug-In . SVG Version: 6.00 Build 0)  -->
<svg version="1.1" id="Capa_1" xmlns="http://www.w3.org/2000/svg" xmlns:xlink="http://www.w3.org/1999/xlink" x="0px" y="0px"
	 viewBox="0 0 1920 221" style="enable-background:new 0 0 1920 221;" xml:space="preserve">
<style type="text/css">
	.st0{fill:#F4CE00;}
	.st1{fill:#222C3E;}
</style>
<g>
	<circle class="st0" cx="960" cy="149.5" r="35"/>
	<g>
		<path class="st1" d="M854.5,111c0,0.1,0.1,0.1,0.1,0.2C854.6,111.1,854.6,111.1,854.5,111C854.6,111.1,854.6,111,854.5,111z"/>
		<polygon class="st1" points="768.4,194.7 768.4,194.9 768.6,194.8 		"/>
		<polygon class="st1" points="786.1,169.8 785.9,169.7 785.9,169.9 		"/>
		<polygon class="st1" points="1730.3,13.5 1734,13.5 1734,11 1730.3,11 1730.3,8.5 1727.8,8.5 1727.8,11 1724,11 1724,13.5 
			1727.8,13.5 1727.8,21 1728,21 1730.3,21 		"/>
	</g>
	<g>
		<path class="st1" d="M1873,40c-15.7-2.6-43.1,40.6-57,33c-23.3-12.8-46.7-36.2-67.9-46.7V11.6c0.4-0.5,0.7-1.4,0.8-2.6h0.1V6h-1v3
			h-1V6h-1v3h0.1c0.1,1.2,0.4,2.2,0.8,2.6v14.1c-1.6-0.8-3.3-1.5-4.9-2.1V0h-1.1v23.3c-4.4-1.5-8.8-2.4-12.9-2.3
			c-3.9,0.1-7.9,1.1-11.9,2.5V6h-1.1v18c-1.6,0.6-3.2,1.4-4.9,2.1V2h-1.1v24.6c-8.8,4.3-17.5,10.3-24.9,14.4
			c-11.7,6.5-21.6,9.5-31.9,11.2V29.6c0.4-0.5,0.7-1.5,0.8-2.6h0.1v-3h-1v3h-1v-3h-1v3h0.1c0.1,1.2,0.4,2.2,0.8,2.6v22.7
			c-13.1,2.1-27.2,2.3-46.9,5.7c-55.6,9.3-142.5,86.8-155.4,98.5l0,0l-0.4-7.4l3.7-2.1l-8.3-6.6l-33.8,0.8v-11.6l0.4-14.4
			c0,0-1.5-4.7-5.8-8.7c-4.5-4.1-11.6-4.1-11.6-4.1V88.8l2.1-2.1l-7-4.1V66.5l1.7-2.5l-3.3-2.5l-2.9-3.3v-5l1.2-1.2l-1.7-1.7V46
			l0.4-1c0,0-0.6-1.5-2.4-2v-8.8h3.1V33h-3.1v-2.1h-1.2V33h-3.1v1.2h3.1v8.7c-2.2,0.2-2.6,2.5-2.6,2.5l0.4,0.6v4.4l-1.2,1.2l0.8,1.7
			v5l-2.5,3.3l-3.7,2.5l2.5,3.3v15.3l-7.8,3.7l2.1,2.5v27.6l-11.2,0.8v-4.9l1.7-1.2l-13.2-5.4l-12,7.4l2.1,1.2v4.1l-4.5,0.4V96.6
			l1.7-2.1l-6.6-2.9v-16l1.2-2.9l-5.4-4.9v-4.6l1.2-1.7l-2.1-1.7v-3.7l0.4-0.8c0,0-0.7-2-2.4-2.4v-6.7h3.1V45h-3.1v-2.1h-1.2V45
			h-3.1v1.2h3.1v6.7c-1.5,0.4-2.2,2-2.2,2l0.4,1.2v3.7L1314,61l0.8,2.1v4.5l-5.4,4.1l1.2,4.1v15.7l-7,2.1l2.9,3.7v28.2l-5.8,2.1
			l2.1,5.4v23.5l-14.9,1.2l3.3,7.4v20.1c-1.7,0-3.4,0.1-5.1,0c-2-0.1-3.8-0.6-5.4-2c-2.1-1.8-4.3-3.6-6.6-5.3
			c-1.8-1.4-2.8-1.4-4.7-0.3c-1.7,1-2.9,2.4-3.8,4.1c-1.8,3.7-4.3,7-6.2,10.5c-0.2,0.4-0.5,0.8-0.9,1c-4.8,2.6-9.4,5.6-15.2,5.3
			c-1.1,0.1-2.3,0.1-3.4,0.3c-3.9,0.9-7.8,0.2-11.5-1.1c-2.7-0.7-5.3-1.4-8-2.2c-0.4-0.1-0.9-0.2-1.3-0.3c-0.9-0.3-1.9-0.5-2.8-0.8
			c-3.3-1-6.7-1.9-10.2-2.8c0.7-0.9,1.4-1.4,2.1-1.9c0.5-0.5,1.2-1,0.9-1.9c-0.1-0.2-0.2-0.3-0.3-0.4c-0.9-1.5-2.3-2.5-3.8-3.4
			c-2.1-1.5-4.5-1.7-6.9-1.5c-4.5,0.5-8.8,1.7-13.3,2.2c-0.5,0.1-1,0.2-1,0.9c0.2,0.4,0.7,0.5,0.9,0.9c-0.6-0.2-1.2-0.3-1.7-0.6
			c-0.8-0.4-1.6-0.9-2.5-1c-0.8,0-1.6-0.3-1.8,0.9c0.1,0.9,0.9,1.1,1.6,1.4c1,0.2,2,0.5,2.9,0.8c0.2,0.1,0.3,0.1,0.4,0.2
			c0.8,0.5,1.7,0.4,2.5,0.9c0.5,0.3,0.9,0.7,1.4,1c0.8,0.8,1.3,1.6-0.1,2.1c-3.4,1.2-6.9,1.7-10.5,1.1c-0.8-0.1-1.3-0.5-1.1-1.4
			c0.4-1.4-0.1-3.1,1.3-4.3c0.5-0.4,0.4-1.3,0.4-2c-0.1-0.7-0.1-1.5-0.2-2.2c-0.2-1-0.2-1.9-0.3-2.9c-0.1-1.7,0.2-3.7-0.8-4.7
			c1.1,0.5,2.5,0.8,4.2,0.1c1.1-0.8,1.2-1.9,1.1-3.1c-0.1-0.7-0.2-1.4,0.3-2c1.8-2.3,1.8-2.4-0.2-4.2c-1.6-1.6-3.3-3.2-5.5-4
			c-1.3-0.5-2.6-0.7-3.5-1.9c-0.3-0.3-0.9-0.6-0.5-1.1c1.3-1.8,0.9-3.8,0.8-5.7c0-0.2-0.1-0.3-0.2-0.5c-0.9-0.9-0.9-2.4-2-3.1
			c-1.1-0.4-2.1-0.2-2.9,0.6c-0.3,0.3-0.7,0.5-0.9,0.9c-0.1,0.1-0.3,0.2-0.4,0.3c0.3-0.5,0.3-0.9-0.5-1.2c-0.2,0-0.3,0-0.5,0
			c-1.6,0.5-2.6,1.8-3.8,2.8c-0.5,0.4-1.1,0.7-1.3,1.3c-0.5,1.8-1.3,3.6-1.5,5.5c0,0.4-0.3,1,0.3,1.2c0.2,0.1,0.3,0.1,0.4,0
			c-2.7,2.3-5,4.9-6.5,8c-1.6,3.2-0.6,5.1,2.4,5.5c1.1,0.2,1.3,0.7,0.9,1.6c-0.4,1.1-0.8,2.3-0.3,3.4c0.8,1.7,0.5,3.2-0.5,4.7
			c-0.5,0.9-0.6,1.8-0.5,2.8s0.1,2.1-0.4,3c-0.6,0.7-1.4,0.4-2.1,0.3c-3.1-0.3-6.2-0.6-9.3-0.8c-1.5-0.1-3-0.1-4.6-0.1l0,0
			c0-0.1,0-0.2,0-0.3c-0.7-0.4-1.2,0-1.7,0.2c-0.1,0-0.2,0-0.3,0c-0.2-0.2-0.3-0.4-0.5-0.5c-1.1-0.9-2.4-0.9-3.7-0.6
			c-0.3,0-0.6,0-0.9,0c-0.2-0.1-0.4-0.2-0.6-0.3c-1.3-1.4-2.7-0.8-4.1-0.3c-0.5-0.1-1.1,0.2-1.6-0.3c-0.2-0.3-0.5-0.4-0.7-0.7
			c0.4,0,0.8,0,1.2,0c0.3,0,0.6,0.1,0.8,0.3c0.2,0.1,0.4,0.2,0.7,0.3c0.2,0,0.5,0.1,0.7,0.1l0.1-0.1c-0.1-0.2-0.2-0.3-0.3-0.5
			c-0.1-0.5-0.3-0.6-1.3-0.5c0-0.1-0.1-0.2-0.1-0.3c0-0.3-0.2-0.5-0.5-0.5c-0.7-0.1-1.4-0.3-2.1-0.4c-0.8-0.1-1.6-0.1-2.4,0
			c-0.5,0-0.8,0.5-0.7,0.9c0.1,0.3,0.4,0.5,0.7,0.6c0.4,0.1,0.9,0.2,1.3,0.2c0.5,0,1,0,1.4,0v0.1c-1.3,0.5-2.5,0.1-3.7-0.2
			c-0.6-0.1-1.3-0.3-1.8,0.1l-0.1-0.1c-0.5-0.2-0.9,0-1.3,0.2h-0.1c0,0,0,0-0.1,0.1c-0.3,0.2-0.7,0.3-1,0.4
			c-1.4,0.2-2.8,0.2-4.1-0.1c-0.4-0.2-0.8-0.3-1.2-0.1c-0.2,0-0.4,0-0.6,0c0-0.1,0-0.1-0.1-0.1c-0.3-0.2-0.6-0.4-0.9-0.5
			c0.1,0,0.1,0,0.2,0c1.1-0.2,2.1-0.5,3.2-0.6c0.8-0.1,1.6,0,2.4,0c0.4,0,0.9,0.2,1.3,0.3c0.7,0.1,1.4,0.1,2.1,0.1
			c0-0.1,0-0.1,0-0.2c-0.3-0.1-0.5-0.2-0.7-0.3c-0.9-0.1-1.4-0.6-1.7-1.4c-0.2-0.5-0.2-1-0.3-1.4c0-0.1,0.1-0.3,0.2-0.4
			c0.2-0.2,0.4-0.3,0.6-0.4v-0.1c-0.3,0.1-0.5,0.1-0.9,0.2c0.1-0.5,0.1-1,0.3-1.3c0.3-0.5,0.7-1.1,1.4-0.9c0,0,0,0,0-0.1
			c-0.3-0.1-0.5-0.1-0.7-0.1c-0.1-0.6-0.2-1.1-0.3-1.6c1.4,0.3,2.3-0.6,3.2-1.5c0.2,0.2,0.4,0.3,0.7,0.4c0,0,0,0,0-0.1
			c-0.2-0.2-0.3-0.4-0.5-0.6c0.4-0.3,0.3-0.9,1-0.8c-0.1-0.1-0.2-0.1-0.3-0.1c0.1-0.4,0.3-0.6,0.7-0.6c0.3,0,0.5-0.1,0.7-0.2v-0.1
			c-0.3,0-0.6,0-0.9,0c0.1-0.7,0.2-1.4,0.3-2.1c0.4,0.2,0.8,0.4,1.3,0.6c0.6,0.3,1.2,0.4,1.8,0.2c0.4-0.1,0.7-0.1,0.9,0.2
			c0,0,0,0,0.1,0c-0.1-0.2-0.2-0.3-0.2-0.4c0.6-0.9,1.6-0.8,2.5-0.9c-0.9,0-1.6-0.5-2.3-1.1c0.2-0.1,0.4-0.3,0.6-0.4
			c0-0.1,0-0.1,0-0.2c-0.8,0.7-1.5,0.2-2.1-0.2c0.7-0.4,1.4-0.8,2.1-1.2c0.1-0.1,0.3-0.1,0.4,0c0.4,0.2,0.7,0.5,1.1,0.7
			c0,0,0-0.1,0.1-0.1c-0.3-0.4-0.7-0.7-1-1.1c0.2-0.3,0.4-0.5,0.6-0.8c0.3-0.4,0.4-1,1-1.1c-0.1,0-0.3,0-0.4,0
			c0.1-0.6,0.2-1.1,0.3-1.6c1.3-0.2,2.5-0.4,3.8-0.6c0,0,0.1,0.1,0.1,0.3c-0.1-0.4,0.1-0.5,0.4-0.6c1.1-0.5,2-1.4,2.5-2.5
			c0.4-0.9,0.4-0.9,1.3-1.4l0,0c0.2,0,0.4-0.1,0.6-0.1c0.4,0.1,0.8,0.2,1.3,0.3v-0.1c-0.4-0.2-0.9-0.4-1.3-0.6
			c0.4-1.1,1.4-1.3,2.2-1.9c-0.5,0.3-1.1,0.5-1.7,0.8c0-0.3,0.1-0.5,0.1-0.6c-0.1-0.1-0.3-0.2-0.4-0.4c0.1-0.2,0.3-0.4,0.3-0.5
			c0,0,0,0-0.1,0c-0.1,0.1-0.3,0.3-0.4,0.4c-0.4-0.1-0.7-0.2-1.1-0.3c0,0.1-0.1,0.2-0.2,0.3c-0.4,0.4-0.6,0.8-0.6,1.4
			c-0.1,0.4-0.1,0.7-0.1,1.1c-0.2-0.1-0.4-0.3-0.6-0.4c0.6-1.1,1.2-2.2,0-3.2c0.2-0.3,0.4-0.6,0.4-0.9c0.1-0.5,0.2-1.1,0.3-1.6
			c-0.4,0.1-0.6,0.4-0.6,0.9c0,0.2,0,0.4,0,0.6h-0.1c-0.1-0.5-0.2-1-0.3-1.5c-0.1,0.2-0.3,0.4-0.4,0.6c-0.3-0.4-0.7-0.6-1.1-0.4
			c-0.2,0.1-0.2,0.4-0.3,0.6c-0.2,0-0.4-0.1-0.7-0.1c0.2,0.3,0.4,0.6,0.5,0.9c0.2,0.5,0.4,0.9,1,1c-1.1,1.3-0.3,2.3,0.6,3.1
			c-0.7,0.2-1.4,0.4-2.1,0.6c-0.1-0.1-0.1-0.2-0.2-0.3c0.1,0.7-0.5,0.6-0.8,1c-0.2-0.4-0.4-0.7-0.5-1c0,0.2,0,0.4,0.1,0.6
			c0.2,0.4,0.1,0.7-0.3,0.9c-0.1,0-0.1,0.1-0.2,0.2c-0.4,0.5-0.8,1-1.2,1.5c-0.5-0.4-1.1-0.7-1.5-1c-0.4,0.1-0.7,0.1-0.9,0.1
			c-0.4,0.1-0.6,0.2-0.8,0.6c-0.2,0.5-0.6,1-1,1.4c-0.3,0.3-0.7,0.6-1.1,0.8c0.2,1.7,0.1,3.4-0.3,3.9c-0.2-1.6,0.4-3.2-0.4-4.7
			c2-1,3.4-2.7,3.7-4.8c0-0.1,0.2-0.2,0.3-0.3c-0.4-0.4-0.1-1-0.2-1.5c-0.2-0.8,0.7-0.8,0.9-1.4c-0.4,0.2-0.7,0.4-1,0.6
			c-0.2-0.5-0.4-0.9-0.7-1.4c-0.1-0.1-0.1-0.3-0.1-0.4c0-0.3,0.1-0.6,0.2-0.9h-0.1c-0.1,0.3-0.3,0.5-0.4,0.8
			c-0.1,0.1-0.2,0.2-0.2,0.2c-0.8,0-1.4,0.2-2.1,0.6c-0.1-0.2-0.2-0.3-0.3-0.4c0,0.3,0.1,0.6-0.1,0.7c-0.9,1-1.3,2.1-1.4,3.4
			c-0.1,0.5-0.1,1-0.1,1.6c-0.2-0.2-0.2-0.5-0.4-0.6c-0.7-0.5-0.7-1.2-0.4-1.9c0-0.1,0.1-0.2,0.1-0.3c0.4-1.6,0.6-3.1,0.4-4.7
			c0-0.4,0-0.6,0.3-0.7c0.4-0.3,0.8-0.6,1.3-0.9c0,0,0-0.1-0.1-0.1c-0.5,0.3-1.1,0.6-1.6,0.8c-0.2-0.5-0.3-1.1-0.6-1.6
			c-0.2-0.4-0.3-0.7,0-1c0,0,0,0,0-0.1c-0.1,0.1-0.3,0.2-0.4,0.3c-0.4-0.4-0.8-0.9-1.1-1.2c0.2-0.6,0.5-1.2,0.5-1.8
			c0.1-0.5,0.1-1,0.5-1.3c-0.2,0.1-0.4,0.2-0.6,0.3c-0.1-0.2-0.3-0.4-0.4-0.5c0.1-0.2,0.1-0.4,0.2-0.6c0,0,0,0-0.1,0
			c-0.1,0.2-0.2,0.4-0.3,0.4c-0.4,0-0.7,0.1-1.1,0.1c-0.1-0.2-0.3-0.5-0.4-0.7c0,0.2,0.1,0.5,0.2,0.7c0,0.1,0.1,0.3,0,0.3
			c-0.4,0.5-0.5,1.1-0.5,1.8c-0.8-0.4-1.6-0.8-2.4-1.1c0.5,0.4,1.1,0.8,1.6,1.1c0.9,0.5,1.1,0.8,1.2,1.8c-1-0.7-1.6-0.7-2.5,0
			c-0.2-0.1-0.3-0.3-0.5-0.5c0,0.1,0,0.1,0.1,0.2c0.3,0.2,0.3,0.5,0.2,0.9c-0.2,0.7,0.3,1.3,1,1.3c0.6,0.1,1.1-0.2,1.5-0.6
			c-0.1,0.8-0.2,1.6-0.3,2.4c-0.3-0.1-0.5-0.1-0.8-0.2c0.2,0.2,0.4,0.2,0.7,0.3c0.1,0,0.2,0.1,0.2,0.2c0.1,1.3,0.4,2.6,0.9,3.9
			c0.3,0.8,0.6,1.6,1.1,2.3c0.1,0.1,0.1,0.3,0,0.4c-0.9,1.5-1,3.2-0.7,4.9c0.3,1.2,0.7,2.3,1.1,3.5c-0.9,0.4-1.5,1.2-2.1,2
			c-0.1-0.2-0.1-0.4-0.2-0.5c-0.6-0.5-0.5-1.1-0.3-1.8s0.3-1.4,0.2-2.1c-0.1-0.3,0-0.6,0-0.9c0.1-0.4,0.2-0.8,0.2-1.2
			c0.1-1-0.2-1.9-0.7-2.7c0.2-0.2,0.4-0.3,0.5-0.5c0.2-0.4,0.5-0.7,0.6-1.1c0.1-0.5-0.3-0.8-0.8-0.6c-0.3,0.1-0.4,0.4-0.7,0.5
			c-0.1-0.3-0.1-0.6-0.2-1s-0.3-0.8,0.1-1.2c-0.1,0.1-0.2,0.2-0.3,0.2c-0.4-0.4-0.7-0.8-1.1-1.1c0-0.4,0-1,0-1.5
			c-0.4,0.4-0.7-0.3-1.1-0.1c0-0.5-0.1-0.9-0.1-1.4c-0.1,0.3-0.2,0.6-0.2,1c0,0.6-0.4,0.8-0.9,0.6c-0.3-0.1-0.7-0.3-1-0.4
			c0.1,0.1,0.2,0.2,0.3,0.2c0.5,0.3,1.1,0.5,1.2,1.2c0.1,0.4,0.6,0.7,1,1.1c0,0.5-0.1,1-0.1,1.6c-0.1,0.1-0.3,0.1-0.5,0.2
			c0,0,0,0,0,0.1c0.2,0,0.3-0.1,0.5-0.1c0.1,0.3,0.2,0.6,0.3,0.9c-0.5,0.4-1,0.9-1.4,1.3l0.1,0.1c0.5-0.4,1-0.7,1.6-1.1
			c0.3,0.5,0.7,0.9,0.7,1.4c0.1,0.8-0.1,1.6-0.2,2.3c-0.2,0-0.4,0-0.7,0.1v0.1c0.2,0,0.4,0,0.6,0c0.1,0,0.2,0.1,0.3,0.1
			c0.2,0.4,0.3,0.8,0.4,1.2c0,0.1,0,0.1,0,0.2c-0.3,0.5-0.6,0.9-0.9,1.4c-0.3-0.4-0.6-0.7-0.9-1.1c0.2,0.4,0.4,0.8,0.6,1.2
			c0.1,0.1,0.1,0.3,0,0.5c-0.2,0.7-0.4,1.3-0.6,2c-0.1,0.5-0.1,1-0.2,1.4c-0.3-0.4-0.6-0.9-1-1.2c-0.3-0.3-0.4-0.5-0.3-0.9
			c0,0,0,0-0.1-0.1c-0.1,0.2-0.2,0.3-0.3,0.5c-0.4-0.1-0.7-0.3-1.1-0.4c0-0.1,0-0.2,0-0.4c-0.3,0.4-0.4,0.4-1.1,0.3
			c-0.2-0.9,0.1-1.7,1.1-1.9l-0.1-0.1c-0.3,0.1-0.7,0.3-1.1,0.4c-0.1-0.9-0.5-1.7-1.1-2.4c0.2-0.4,0.4-0.7,0.5-1h-0.1
			c-0.2,0.3-0.4,0.6-0.6,0.8c-0.4-0.2-0.8-0.4-1.2-0.6c0.1-0.6,0.2-1.1,0.3-1.7c-0.1,0.2-0.2,0.5-0.3,0.7c-0.1,0.2-0.1,0.5-0.2,0.7
			c-0.3-0.2-0.6-0.5-0.8-0.6c-0.5-0.1-0.7-0.3-0.7-0.7c0,0,0,0-0.1-0.1c0.1,0.4,0.1,0.8-0.3,1c-0.1,0.1-0.2,0.2-0.2,0.3
			c-0.2,0.6-0.1,1,0.5,1.5c-0.2,2.2,0.8,3.9,2.2,5.3c-1.5-0.4-3-2.3-3.2-4.1c0-0.2-0.1-0.4-0.3-0.5c-0.2-0.2-0.4-0.4-0.3-0.8
			c-0.1,0.1-0.2,0.2-0.2,0.3c-0.3-0.1-0.6-0.2-0.9-0.3c-0.2,0-0.3-0.1-0.3-0.4c0-0.3,0-0.7,0-1l0,0c0,0.4,0,0.7-0.1,1.1
			c-0.2,0.5-0.7,0.2-1.1,0.4c0,0-0.2-0.1-0.3-0.1c0,0,0,0-0.1-0.1c0,0.1-0.1,0.3-0.1,0.4c-0.2-0.1-0.3-0.2-0.4-0.2
			c-0.3-0.1-0.7-0.1-0.9,0.2c-0.2,0.3-0.1,0.6,0.1,0.9c0.1,0.1,0.1,0.3,0.1,0.5c0,0.6-0.1,1.3,0,2c0.1,0.5,0.1,0.7-0.4,0.9
			c0,0,0,0,0,0.1c0.2-0.1,0.4-0.1,0.6-0.2c0.2,0.3,0.3,0.5,0.4,0.8c-0.3,0.2-0.6,0.4-0.9,0.6c0.3-0.1,0.6-0.2,0.8-0.3
			c0.2-0.1,0.3,0,0.4,0.1c0.2,0.2,0.3,0.5,0.6,0.7c0.5,0.3,0.9,0.8,1.3,1.2c-0.2,0.3-0.3,0.6-0.5,0.9c0,0,0,0,0.1,0
			c0.2-0.3,0.5-0.6,0.6-0.8c0.8,0.2,1.5,0.3,2.2,0.4c0,0.4,0,0.8-0.1,1.3h0.1c0.1-0.4,0.1-0.8,0.2-1.1c0-0.1,0.2-0.3,0.2-0.3
			c0.7-0.1,1.4-0.2,2-0.5c0.2,0.6,0.4,1.3,0.7,1.9c0.2,0.3,0.1,0.4-0.1,0.7c-0.4,0.4-0.7,0.9-1.1,1.4c0.1,0,0.1,0.1,0.1,0.1
			c0.5-0.5,1-1,1.5-1.5c0.3,0.3,0.7,0.6,1,0.9c-0.1,0.2-0.2,0.3-0.3,0.4l0.1,0.1c0.1-0.1,0.2-0.3,0.3-0.4c0.8,0.5,1.5,0.9,2.2,1.3
			c0.1,0.1,0.2,0.3,0.2,0.4c0,0.5,0,1,0,1.5c0,0.1-0.1,0.3-0.2,0.3c-0.2,0.1-0.5,0.2-0.7,0.3c0,0,0,0,0,0.1c0.3-0.1,0.6-0.1,0.8-0.1
			c0.3,1.1,0.7,2.3,1,3.4c0,0.1,0,0.3-0.1,0.4c-0.4,0.5-0.9,1-1.4,1.5c-0.1,0.1-0.3,0.2-0.4,0.2c-0.9,0-1.9,0-2.8,0.6
			c0-0.1-0.1-0.2-0.1-0.3c-0.2-0.4-0.5-0.6-0.9-0.6c-0.2,0-0.5,0.2-0.7,0.4c-0.1,0.2-0.2,0.6-0.1,0.8s0.5,0.3,0.7,0.4
			c0.2,0.1,0.4-0.1,0.6,0h0.1c-0.1,0-0.1,0-0.1,0c-0.1,0-0.1,0.1-0.1,0.2c-0.5-0.3-1-0.4-1.5-0.4c-0.3-0.5-0.8-0.9-1.4-1
			c-0.5-0.1-1-0.1-1.5-0.3c-0.8-0.2-1.5,0.1-1.9,0.6c-0.4,0.1-0.7,0.3-1.1,0.4l0,0c-0.9-1-1.2-1-1.9-0.3c0-0.1-0.1-0.2-0.1-0.2
			c-2.2-0.4-2.1-2.2-2.4-3.7c0-0.2-0.1-0.4-0.2-0.6c-1.2-1.9-1.8-4.2-3.7-5.7c0.2-0.6-0.1-1.1-0.5-1.5c-1.3-1.6-2.1-3.4-3.1-5.1
			c-1.1-1.9-2.4-3.7-3.5-5.7c-0.9-1.6-2.2-2.8-4-3.5h-0.1c-0.3-1-1.1-1.4-2.1-1.7c-0.1,0-0.2,0-0.3,0c-0.5-0.3-1-0.4-1.6-0.4l0,0
			c0.3-0.9-0.4-0.8-0.8-0.9c0-0.1,0-0.1,0-0.2c-0.1-0.2-0.2-0.4-0.4-0.5c-0.7-0.4-1.3-1-2.2-0.8c-0.1,0-0.1,0.1-0.1,0.1
			c-0.1,0-0.1-0.1-0.1-0.1c0.1-0.1,0.1-0.3,0-0.4c-0.2-0.3-0.5-0.4-0.9-0.5c-0.1,0-0.3-0.1-0.4-0.1c-0.4-0.4-0.9-0.8-1.4-1.1
			c-0.1-0.1-0.2-0.1-0.3-0.2c-0.1-0.1-0.2-0.1-0.4-0.2l0,0c-0.3-0.5-0.8-0.8-1.3-1v-0.1c-0.1-0.5-0.5-0.7-0.9-0.9
			c-0.2-0.1-0.3-0.1-0.5-0.2c-1.3-1.8-2.8-3.4-4.8-4.6c0-0.1-0.1-0.1-0.1-0.1c-0.1-0.1-0.2-0.2-0.3-0.3c-0.1-0.1-0.2-0.1-0.4-0.2
			c-0.1-0.1-0.3-0.2-0.5-0.2c-0.1-0.1-0.1-0.2-0.1-0.3c-0.4-0.6-0.9-0.8-1.6-0.9c0-0.1,0-0.1-0.1-0.1c-1.8-1.4-3.2-3.2-5.1-4.5
			c-2.6-1.8-5.6-2.9-8-5.1c-1.3-1-2.6-2-3.5-3.4c-1.8-1.6-3.5-3.4-5.8-4.3c-0.1,0-0.2,0-0.2,0.1c-0.1-0.1-0.2-0.2-0.3-0.3v-0.1
			c-0.2-0.6-0.5-1.1-1.1-1.4c-0.1,0-0.2,0-0.3,0l0,0c-0.4-1.3-1.6-1.4-2.6-1.8c-1-0.1-1.8-0.7-2.8-0.8c-1.9-0.5-3.9-1.1-5.9-1.2
			c-0.3,0-0.7,0-1,0c-1-0.1-1.9-0.1-2.9,0c-0.4,0.1-0.8,0.1-1.1,0.4c0,0.1-0.1,0.1-0.1,0.1c-0.1-0.2-0.3-0.4-0.5-0.4
			c-1.8-0.1-2-1.2-1.7-2.6c-0.1-1.1-0.3-2.2-0.7-3.2c0-0.2-0.1-0.3-0.1-0.4c-0.5-1-1-1.9-1.6-2.8c-0.1-0.1-0.1-0.3-0.1-0.4
			c0.1-2.9-1-3.2-3.5-3.4c-0.2,0-0.3,0.1-0.5,0.1c-0.5,0.5-1.8,0.9-0.4,1.8c-0.6,1.3-1.7,1.9-3,2.2c-1.5,0.6-3,1.3-4.4,2.1
			c-0.3,0.2-0.5,0.3-0.8,0.4c-0.8,0.6-1.5,1.3-2,2.3c-0.2,0.6-0.1,1.1-0.1,1.7c0,0.2,0.1,0.3,0.2,0.4c0.4,0.4,0.8,0.6,1.1-0.1
			c0-0.5,0.3-0.8,0.8-0.8c0.4-0.4,0.8-0.7,1.3-0.8c0.3-0.1,0.5,0,0.3,0.4c-0.2,0.7-0.6,1.3-0.9,2c-0.3,0.8-0.4,1.5,0.3,2.1
			c0.8,1.1,0,1.5-0.7,2c-0.6,0.5-0.6,1.3-0.8,2v0.1c-0.2,0-0.5,0-0.7,0c-0.8,0.7-0.9,1.2,0.3,1.6c0.4,0.3,0.8,0.3,1.2-0.1
			c0,0,0,0,0-0.1l0,0h0.1c-0.1,0.1-0.2,0.2-0.4,0.4c-1.6,2-3.5,3.8-5.5,5.4c-0.6,0.5-1.2,0.1-1.8,0c-0.9,0-6.4,8.2-7.1,10
			c-0.3,1.2-0.9,2.2-1.2,3.4c0,0.2,0,0.5,0,0.7c0.1,0.3,0.2,0.7,0.2,1.1c-0.2,0.7-0.5,1.4-0.5,2.1c-0.6,0.3-0.6,0.7-0.3,1.2
			c-0.2,0.4-0.4,0.9-0.6,1.3c-0.1,0.3,0.1,0.4,0.3,0.5l0,0c0,0.1,0,0.3,0,0.4H983c-0.6,1.1-0.7,2.3-0.3,3.6c0,0.4,0.1,0.7,0.3,1
			c-0.1,0-0.3,0.1-0.4,0.1c-0.1,0-0.3,0.1-0.4,0.1c-0.4,0.2-0.8,0.4-1.3,0.6c-0.5,0.4-1.3,0.4-1.5,1.1c0,0,0,0-0.1,0
			c-1.1,0.5-2,1.4-3,1.9c-1.6,1.2-3.4,2.1-5.2,3c-0.7,0.3-1.5,0.6-1.9,1.3c0,0,0,0,0,0.1c-2.1-0.9-4-2.4-6.2-3.1
			c-0.3-0.1-0.6-0.2-0.8-0.3c-1.1-0.2-2-0.7-3-1.3c-1.4-0.8-2.7-1.7-4.1-2.5c-1-0.3-1.7-1.1-2.7-1.4c-2.1-0.7-3.9-1.9-5.8-2.7
			c-2-0.3-3.9-1.3-5.9-1.7c-2.4-0.6-4.9-0.6-7.3-0.8c-0.9-0.1-1.8-0.3-2.7-0.5c-4-0.8-7.9-2.1-11.8-3c-1.4-0.5-2.9-0.1-4.4-0.3
			c-0.3,0-0.6,0-0.9,0.1c-0.3,0.2-0.7,0.1-1,0c-0.8,0-1.5-0.2-2.3-0.4c-0.4,0-0.8-0.1-1.2-0.2c-0.2,0-0.5-0.1-0.7-0.1
			c0-0.1,0-0.1,0-0.2c-0.2-0.3-0.4-0.5-0.8-0.6c-0.3-0.1-0.5-0.1-0.8-0.1c-0.4,0.1-0.6-0.1-0.6-0.5c-0.2-0.5-0.6-0.8-1-1.1
			c-0.9-0.5-1.7-1.2-2.8-1.3c-0.1,0-0.3,0-0.4,0c-0.1-0.1-0.1-0.1-0.2-0.2c-0.2-0.1-0.5-0.2-0.7-0.3c-0.1-0.1-0.2-0.1-0.4-0.1
			c-0.4-0.1-0.8-0.3-1.2-0.1c0,0-0.1,0-0.1,0.1c0-0.1-0.1-0.1-0.2-0.1c-0.4-0.1-0.8-0.2-1.3-0.3l0,0c-0.2-0.3-0.6-0.3-0.9-0.3
			c-0.4-0.3-0.7-0.9-1.3-0.9l0,0c-1.4,0.3-3-0.1-4.3,0.6c-0.4-0.3-0.8-0.3-1.2-0.3c-0.2-0.1-0.5-0.2-0.8-0.3
			c-0.4-0.2-0.9-0.2-1.3-0.1c-0.1,0.1-0.2,0.1-0.4,0.1c-0.1-0.1-0.3-0.1-0.4-0.2c-1.4-0.2-2.7,0.3-4.1,0.6c-1.4,0.5-2.9,0.3-4.3,0.9
			c-0.1,0.2-0.3,0.4-0.5,0.5c-0.4,0.1-0.8,0.2-1.1,0.4c-0.1,0-0.2,0-0.3,0c-0.1,0.1-0.2,0.1-0.3,0.3c0-0.1-0.1-0.1-0.1-0.2
			c-1.7-0.3-3.3,0.9-5,0.7c-0.3,0-0.5,0-0.7,0s-0.3,0-0.5,0.1c-0.4,0.1-0.8,0.2-1.2,0.3c0.2-0.4,0.5-0.7,0.7-1.1
			c-0.1,0-0.3,0.1-0.5,0.2c0.1-1.4,0.2-2.7,0.3-4h-0.1c-0.1,0.3-0.2,0.5-0.3,0.8c-0.1-0.1-0.2-0.2-0.3-0.3c-0.4-0.5-0.8-0.9-1.6-0.9
			c-0.5,0-1-0.1-1.5-0.2c-0.2,0.4-0.5,1-0.8,1.6c-0.1,0-0.2,0-0.3,0.1c-1.1,0.2-1.3,0.8-0.9,1.8c0.1,0.2,0.2,0.5,0.2,0.8
			c-0.1,1.3-0.4,2.5-1.4,3.4c-0.2,0.1-0.4,0.1-0.6,0.2c-0.7,0.4-1.4,0.7-2.1,1.1c-0.1-0.3-0.3-0.7-0.3-1c0.1-2.1,0.2-4.3,0.4-6.4
			c0-0.2,0.2-0.4,0.3-0.6c0.4-0.6,0.9-1.1,1.3-1.6l-0.1-0.1c-0.5,0.4-0.9,0.8-1.4,1.2c-0.1-2.9-0.2-5.7-0.3-8.6
			c0.3,0.1,0.6,0.2,0.9,0.3c1.2,0.5,2.3,0.3,3.3-0.6c1-1,1.9-2.1,2.5-3.4c0.3-0.7,0.7-1.3,1-1.9c0.4-0.8,0.9-1.5,1.3-2.3
			c0.3-0.7,0.5-1.5,1.3-1.8c0.2-0.1,0.4-0.2,0.6-0.4c0-0.1-0.1-0.1-0.2-0.2c-0.3,0.1-0.6,0.2-1,0.3c0.2-1,0.3-1.9,0.6-2.8
			c0.1-0.3,0.4-0.6,0.6-0.9c0.5-0.5,1-0.9,1.4-1.3l-0.1-0.1c-0.5,0.3-1.1,0.7-1.7,1c0.2-1,0.3-1.9,0.4-2.7c0.1-0.6,0.2-1.2,0.7-1.5
			c0.1,0,0.1-0.1,0.1-0.3c-0.2,0-0.4,0.1-0.7,0.1c0.2-1.2,0.4-2.3,0.7-3.4c0.3-1.4,0.5-2.8,0.2-4.3c-0.1-0.3-0.1-0.7-0.2-1
			c-0.1,0-0.4,0.1-0.4,0.1c-0.6-0.8-2.2-0.5-2.4-1.9c0.2,1.3,0.1,2.4-0.9,3.4c-0.2-0.2-0.4-0.3-0.7-0.5c0.2,0.4,0.5,0.8,0.5,1.2
			c0,1-0.1,2-0.1,3c0,1.4,0,2.8,0,4.2c-0.2,0-0.3,0-0.3,0c0.1,0.4,0.3,0.7,0.3,1.1c-0.2,1.3-0.3,2.6-0.7,3.9c-0.3,1.4-0.8,2.7-1.3,4
			c-0.1,0-0.2,0-0.2,0c-0.2-0.2-0.3-0.5-0.5-0.8c-0.1,0.2-0.1,0.2-0.1,0.3c0.1,0.2,0.2,0.4,0.3,0.6s0.2,0.4,0.1,0.5
			c-0.8,1.4-1.9,2.7-3.3,3.9c0-0.3,0-0.4,0.1-0.6c0.3-1.3,0.8-2.7,1-4.1c0.2-1.1,0.3-2.1,1.1-2.8c0,0,0-0.1,0-0.2
			c-0.3,0.2-0.7,0.4-1.2,0.8c-0.3-0.9-0.5-1.7-0.7-2.6c-1.1-0.3-1.6,0.7-2.4,1.5c0-1.9,0-3.6,0-5.3c0-0.3,0.3-0.6,0.5-0.9
			s0.5-0.6,0.8-0.8l-0.1-0.1c-0.3,0.1-0.6,0.3-1,0.5c0.3-1.4-0.4-2.8,0-3.9c-0.1-0.3-0.2-0.4-0.2-0.5c-0.1-1.9-0.2-3.8-0.3-5.7
			c0-0.3,0.2-0.7,0.2-1.1c0-0.6-0.1-1.3,0-1.9c0-0.4,0.2-0.9,0.3-1.3c0-0.1-0.1-0.3-0.1-0.5c0-0.8,0-1.5,0-2.3
			c0-0.7-0.2-1.5-0.2-2.2c-0.2-1.6-0.4-3.2-0.4-4.8c0-1.6,0.4-3.2,0-4.7c-0.4-1.3-0.9-2.5-2.4-2.8c-0.2,0-0.3-0.1-0.5-0.2
			c-0.9,1-1.2,2.6-1.6,4.2c-0.3-0.2-0.5-0.4-0.8-0.6c-0.1,0.1-0.2,0.2-0.3,0.3c0.4,0.3,0.9,0.4,1.1,0.8c0.2,0.4,0.2,0.9,0.3,1.3
			c0.2,0.7,0.3,1.4,0.5,2.1c0.1,0.7,0.3,1.5,0.2,2.2c-0.1,0.6,0,1.3-0.2,1.9c0,0.1,0,0.2,0,0.3c-0.1,0.1-0.3,0.2-0.4,0.3
			c0.7,0.5,0.1,1.2,0.3,2c-0.4-0.2-0.7-0.3-1-0.4c0,0.2,0.1,0.2,0.2,0.3c0.2,0.1,0.5,0.3,0.8,0.4c0.1,2.1,0.2,4.2,0.3,6.2
			c0,2.1-0.1,4.1-0.1,6.2c0,0.9,0,1.8,0,2.7c-0.7-0.1-1.3-0.2-2-0.2c0-0.1-0.1-0.1-0.1-0.2c-0.2,0.6-0.3,1.1-0.5,1.7
			c-0.1,0-0.1,0-0.2,0c-0.2-0.3-0.5-0.7-0.7-1c0.2,0.6,0.5,1.1,0.6,1.7c0,0.6-0.2,1.2-0.3,1.8c-0.2,0-0.3,0-0.3,0
			c0.2,0.3,0.4,0.6,0.5,1c0.3,1,0.5,2,0.8,3c0.4,1.1,0.5,2.1,0.6,3.3c0,0.9,0.2,1.9,0.5,2.8c0.2,0.7,0.3,1.3,0.2,2
			c-0.2,1.1-0.3,2.1-0.5,3.2c-0.1,0-0.1,0.1-0.2,0.1c-0.4-0.4-0.8-0.8-1.1-1.3c-0.5-1-1.1-2-1.3-3.1c-0.8-3.3-1.5-6.6-2.1-9.9
			c-0.2-1.2-1-2.4-0.3-3.4c-0.1-0.3-0.3-0.4-0.3-0.6c-0.1-1-0.1-1.9-0.1-2.9c0-1.2-0.7-2.4-0.4-3.6c0-0.1-0.1-0.1-0.1-0.2
			c-0.1,0.3-0.2,0.6-0.3,0.9c-0.4-0.5-0.8-0.9-1-1.4c-0.3-1.1-0.9-2-1.7-2.8c0,0.2,0,0.4-0.1,0.6c-1.3,0.4-1.8,0.9-1.8,2.2
			c0,0.4,0.1,0.9,0.1,1.3c0.1,0.8,0.1,1.5,0.2,2.3c0,0.3,0,0.7,0,1c0.1,0.9,0.2,1.9,0.3,2.9c-0.1,0-0.2,0-0.2,0.1
			c-0.4-1.2-0.8-2.4-1.3-3.8c0,2,0.7,3.7,1.4,5.3c0.2,0.5,0.5,1,0.6,1.6c0.3,1.2,0.7,2.4,1,3.6c0.3,1.5,0.6,3.1,0.9,4.8
			c-0.5-0.3-0.8-0.5-1.2-0.7c0,0.1-0.1,0.1-0.2,0.1c1.5,0.7,1.6,2.1,2,3.4c1,3.6,2.7,6.7,6.8,7.7c-0.2,1.2-0.3,2.5-0.5,3.8
			c-0.2-0.1-0.3-0.2-0.5-0.2c-0.1-0.1-0.2-0.1-0.2-0.1c0.2,0.4,0.5,0.8,0.5,1.3c0,2.4-0.1,4.7-0.1,7.1c0,1,0.2,2.1,0.2,3.3
			c2.2-2.4,2.9-2.7,5-1c-1.9-0.3-2.8,0.1-3.5,1.6c1.2,0.4,2.5,0.4,3.7,0.4c-0.1,0.1-0.1,0.1-0.2,0.1h-0.1c-0.2,0.2-0.6,0-0.8,0.2
			c-0.2,0-0.3-0.1-0.5-0.1s-0.4,0.1-0.6,0.2c-0.3,0-0.6,0-1,0l0,0c-2.2-0.8-4.5-0.7-6.8-0.9c-0.5-0.2-0.9-0.5-1.1-1
			c0.6-0.1,1.1,0.1,1.6,0.3c0.3,0.1,0.5,0.3,0.8,0.4c0.9,0.6,1.7,0.4,2.6,0c-0.6-0.2-0.3-0.6-0.3-0.9c0.2-2.1,0.4-4.3-0.3-6.3
			c-0.4-1.3-1-2.4-2.1-3.1c0.1,0.6,0.2,1.1,0.4,1.9c-0.9-0.5-1.6-0.5-2-1.4c-0.2-0.5-0.6-0.8-1-1.2l-0.1,0.1
			c0.4,0.9,0.8,1.8,1.2,2.8c-1-0.1-1.4-0.6-1.8-1.2c0,0.3,0.1,0.6,0.2,1c-0.8-0.5-1.4-1-2.1-1.4c-0.1,0.1-0.1,0.1-0.2,0.2
			c0.3,0.4,0.5,0.7,0.8,1c-0.4,0.5-0.8,0.9-1,1.4c-0.3,0.5-0.4,1.1-0.6,1.6c-0.2-0.1-0.4-0.3-0.6-0.4c0.9,0.9,0.6,2,0.8,3
			c0.1,0.3,0.2,0.6,0.3,0.9l0,0c-0.1,0-0.3,0-0.4,0.1c-0.1-0.1-0.2-0.1-0.3-0.2c-0.2-0.1-0.4-0.1-0.6-0.1c-1.2-0.1-0.4-1.2-0.8-1.7
			c-0.6-0.4-0.2-1.3-0.9-1.6c-0.3-0.1-0.6-0.1-0.9-0.1c-1,0.4-2.2,0.5-2.5,1.9c0,0.2,0,0.4,0,0.6c-2.5-0.6-4.8,0.9-7.2,1.1
			c-0.9,0.1-1,1.1-1.2,1.9l0,0c-0.2,1.3-0.7,2.2-2.3,1.5c-0.7-0.3-1.1,0.2-1.5,0.7c-1.9,1-3.9,1.9-4.4,4.4c-0.2,0-0.4,0-0.5,0
			c-0.5-0.6-1.1-0.6-1.6,0c-0.5,0-1.1,0-1.6,0c-0.5-0.6-1-0.9-1.8-0.8c-0.3,0-0.7,0.1-1,0.3c-0.5,0.2-0.7,0.9-1.4,1.1
			c-2.2,0.6-2.4,2.1-1.7,4c0.4,0.4,0.8,0.5,1.2,0.6c-0.2,1.1,0,2.3,0.3,3.5c-1.2,0.6-2.4,1-3.8,1.1c-2.9-1.8-6.1-1-9.3-1.1
			c-0.5,0-1.1,0-1.7,0c-0.7,0-1.5,0-2.2,0c-0.7,0.6-1,1.3-1.1,2.2c0,0.7,0,1.4,0,2.2l0,0c-0.5,0.6-1,1.2-1.5,1.9
			c-0.6,0-1.2-0.1-1.8,0.2c-0.2,0.3-0.3,0.5-0.5,0.7c-0.2-0.4-0.5-0.7-0.8-1c-1.7-1.8-2.8-1.8-3.8,0.1c-0.3,0-0.6,0.1-0.9,0.1
			c-0.2,0.2-0.5,0.4-0.7,0.6c-1.7-0.6-3.5-1.3-5.3-0.3l0,0c-0.4,0.2-0.7,0.4-1.1,0.6c-0.1,0.2-0.2,0.4-0.3,0.5
			c-0.3-0.1-0.7-0.3-1-0.5c-0.9,0.7-1.6,1.6-1.2,2.7c-0.3,0.1-0.5,0.4-0.6,0.6c0,0.3-0.1,0.7-0.1,1c0,0.1,0,0.2,0,0.3
			c-0.1,0-0.2,0-0.3,0.1c-1.4,2.2-0.4,4.8-1.3,7.1c0,0.3-0.1,0.6-0.3,0.8c-5.4-2.7-10.2-5.1-13.9-7.1c-0.2-0.5-0.5-1-1-1.3
			c-0.1,0-0.1,0-0.2-0.1c-0.1,0-0.1,0-0.2,0c0.1-0.2,0.1-0.4-0.1-0.6c-0.3-0.2-0.3-0.5-0.4-0.8h-0.1l0,0c-0.2-0.7-0.2-1.6-1.1-2
			c-0.2-0.2-0.3-0.4-0.5-0.6c-0.3-0.8-0.5-1.5-1.2-2.1l0,0c0-0.2,0-0.4,0-0.5c-0.7-1-1.3-2-1.7-3.2c-0.4-0.6-1.2-1.1-1.2-2l0,0l0,0
			c-0.1-0.3-0.3-0.3-0.5-0.3l0,0c0-0.2,0-0.4,0-0.6c-0.4-0.2-0.6-0.4-0.6-0.9c0.7-0.2,0.7-0.7,0.3-1.2c-0.2-0.3-0.4-0.6-0.6-0.9
			c0-0.1,0-0.2-0.1-0.3c-0.2-0.2-0.3-0.4-0.5-0.6c0,0-0.1,0-0.2,0c0.2-0.8-0.3-1.4-0.7-2c-0.2,0-0.4,0-0.6,0c0,0.1,0,0.2,0,0.3
			c-0.2,0-0.4,0-0.6,0c-0.3-0.8-0.6-1.7-0.9-2.5c0.3-0.1,0.5-0.3,0.6-0.6c0.3-0.6,0.6-1.2,0.9-1.7l0,0c0-0.2,0-0.4,0-0.6
			c-0.2,0-0.3,0-0.5,0c0,0-0.1-0.1-0.2-0.1c-0.1,0-0.2-0.1-0.3-0.1c-0.1-0.1-0.1-0.3-0.2-0.4l0,0c0.2-0.1,0.4-0.2,0.6-0.3
			c0-0.1-0.1-0.1-0.1-0.2c0.8,0,1.5-0.1,1.8-1c0-0.1,0-0.2,0-0.3c0.4-0.1,0.8,0.1,1.2-0.3l0,0c0.3-0.1,0.6-0.2,0.9-0.3
			c0.3-0.3,0.8-0.2,1-0.6c0.5,0,0.9,0,1.4,0c0.2-0.1,0.4-0.2,0.6-0.3c0-0.1,0-0.2,0-0.2l0,0c0.1,0,0.2,0,0.3,0l0,0
			c0.5,0,1,0.2,1.2-0.5c0.3-0.3,0.7-0.4,1.2-0.3c0.3-0.1,0.6-0.1,0.8-0.1l0,0c0.2,0.1,0.5,0.1,0.6-0.1c0.3,0,0.6-0.1,0.9-0.1
			c0.6,0,1-0.2,1.5-0.5l0,0c0.2,0,0.4,0,0.5,0c1.2,0.3,1.6-0.4,1.7-1.4c0.1-1-0.1-2-0.3-2.9c-0.1-0.2-0.2-0.4-0.3-0.6l0,0
			c-0.1-0.8-0.6-1.4-1.1-2l0,0c0-0.1,0-0.2,0-0.3c-0.6-0.8-1.1-1.8-2-2.3l0,0c0-0.1,0-0.2,0-0.3s0-0.2,0-0.3c-0.7-0.1-1-0.8-1.6-0.9
			v-0.1c-0.2-0.4-0.4-0.7-0.8-0.8c-0.1,0-0.3,0-0.4,0c-0.6-0.1-1.2,0-1.7,0c0,0.1,0,0.2,0,0.3l0,0c-0.8,0.6-0.5,1.6-0.9,2.3
			c-0.1,0-0.2,0-0.3,0l0,0c-0.5,0.4-0.7,0.9-0.9,1.4c-0.2,0.2-0.4,0.4-0.5,0.6c-0.3,0.6-0.6,1.3-0.9,2c-0.3,0.2-0.4,0.6-0.8,0.6
			c-0.1,0.1-0.1,0.2-0.1,0.3c-0.1,0.1-0.2,0.2-0.2,0.3l0,0l0,0l0,0l0,0l0,0l0,0l0,0c-0.2,0.1-0.4,0.2-0.6,0.3
			c-0.4,0.1-0.6,0.4-0.6,0.9c0,0.2,0,0.4,0,0.6c-0.4,0.7-1.4,1.1-1.4,2.1c0,0.1-0.1,0.1-0.2,0.1c-0.1,0.1-0.1,0.2-0.2,0.3
			c0-0.1-0.1-0.2-0.3-0.3c-0.1-0.1-0.3-0.1-0.4,0c-0.2,0.1-0.3,0.3-0.3,0.6c-0.2-0.1-0.4-0.1-0.6,0.1c-0.2,0.2-0.4,0.5-0.5,0.8l0,0
			c-0.2,0-0.3,0.1-0.5,0.3v0.1c-0.4,0.2-0.8,0.3-1.1,0.5l-0.1,0.1c-0.1,0.1-0.1,0.3,0,0.4c-0.2,0.1-0.5,0.2-0.7,0.3
			c-0.6,0-0.9,0.4-1.1,0.9c-0.3,0-0.4,0.3-0.6,0.5c-0.1-0.1-0.2-0.1-0.4-0.2l0,0l0,0c-0.2-0.1-0.4-0.2-0.5-0.3l0,0
			c-0.3-0.2-0.6-0.5-0.6-0.9c-0.2,0-0.4,0-0.5-0.1l0,0c-0.2-0.3-0.2-0.6,0-0.8l0,0c0.1-0.2,0.2-0.4,0.3-0.6l0,0c0-0.1,0-0.2,0-0.4
			c0.5-0.3,0.7-0.7,0.8-1.2c0.1-0.2,0.2-0.3,0.4-0.5h0.1c0,0.1,0,0.1,0.1,0.2c0.8,0.7,1.7,0.7,2.4,0.1c0.6-0.5,0.5-1.2,0-1.8l0,0
			l0,0c0-0.1,0-0.1,0-0.2c-0.1-0.2-0.2-0.3-0.2-0.5c0-0.3,0-0.6-0.2-0.8c0-0.1-0.1-0.2-0.1-0.3c-0.1-0.2-0.1-0.4-0.3-0.5l0,0l0,0
			c-0.2-0.6-0.4-1.1-0.6-1.7c-0.2-0.1-0.4-0.2-0.6-0.3l0,0c-0.1-0.1-0.2-0.2-0.3-0.3c0-0.6-0.4-0.9-0.8-1.2
			c-0.2-0.4-0.5-0.7-0.9-0.9l0,0c-0.7-0.9-1.6-1.2-2.6-1.4c-1.1,0-2.2,0.1-2.9,1.2l0,0c-0.5,0-1,0-1.4,0h-0.1c-1.3-0.3-2.1,0.3-3,2
			l0,0c-0.9,0.8-0.9,2.1-1.7,2.9c0,0.3,0,0.6,0,0.9c0.1,0.1,0.2,0.1,0.3,0.1c0,0.1,0,0.1,0,0.2l0,0l0,0c0,0.3,0,0.6,0,0.9l0,0
			c-0.1,0-0.2,0-0.3,0l0,0c-0.1,0-0.2,0-0.3,0c-0.4,0.3-0.3,0.8-0.3,1.1l0,0c0.1,0.3,0.2,0.6,0.3,0.8c-0.1,0-0.2,0.1-0.3,0.1l0,0
			l0,0c-0.4,0.1-0.6,0.4-0.6,0.8c-0.1,0-0.2,0.1-0.2,0.1c-0.2,0.2-0.3,0.4-0.5,0.6c0,0.2-0.1,0.3-0.1,0.5c-0.2,0-0.4,0-0.6,0.2l0,0
			l0,0c-0.2-0.1-0.4-0.1-0.5,0.1c-0.8,0.5-1.5,1-2.3,1.5c-0.9,0.2-1.7,0.4-1.5,1.5c-0.4,0.1-0.6,0.5-0.8,0.8c0,0.1-0.1,0.1-0.2,0.1
			c-0.5,0.1-0.6,0.4-0.4,0.8l0.1,0.1c0,0,0,0.1-0.1,0.1c0,0-0.1-0.1-0.2-0.1c-0.2,0-0.4,0-0.5,0.1c-0.7,0.8-1.7,1.4-1.8,2.6v0.1
			c0,0,0,0-0.1,0c0,0.2-0.1,0.4-0.1,0.6c-0.1,0.1-0.1,0.1-0.2,0.1c-0.3,0.3-0.4,0.6-0.4,0.9c0,0.4,0,0.9,0,1.3
			c0,0.1,0.1,0.3,0.2,0.4c0,0.1,0.1,0.1,0.1,0.1c-0.2,0.2-0.3,0.5-0.5,0.7l0,0c-0.4,0.5-0.3,1.1-0.3,1.7c-0.2,0.6-0.2,1.2,0,1.7
			c0.2,0.4,0.4,0.8,0.6,1.2l0,0c0,0.5,0.2,0.9,0.6,1.2l0,0c0.1,0.6,0.2,1.1,0.2,1.7c-0.1,1-0.2,1.9,0.1,2.9l0,0
			c0.3,0.7-0.1,1.6,0.3,2.3c0,0.7,0,1.4,0,2.2l0,0c-0.2-0.1-0.4,0-0.5,0.1c0,0,0,0,0,0.1c-0.5-0.3-1.1-0.1-1.6,0
			c-0.4,0-0.8,0.1-1.2,0.1c0,0.2,0,0.4,0,0.5c0.9,0,1.7,0,2.6,0l0,0c0.1,0.2,0.2,0.4,0.3,0.6l0,0c-9.6,3-19.4,6.2-27.3,7.6
			c0.4-1.1,0.8-2.2,1-3.3c0.1-0.4,0-0.8,0.3-1.1c0,0-0.1,0.1-0.2,0.1c0-0.2,0-0.4,0-0.6c-0.1-0.4-0.1-0.8,0.2-1.1l0,0
			c-0.1,0.1-0.2,0.2-0.3,0.4c0,0,0,0-0.1,0c0-0.2,0-0.3,0-0.5c0.1-1.3,0.1-2.5,0.2-3.8c0-0.2,0-0.4,0.2-0.6c0.2-0.1,0.3-0.3,0.5-0.5
			s0.3-0.4,0.4-0.6l0,0c-0.3,0.3-0.7,0.6-1,1c0,0,0,0-0.1,0c0.1-0.3-0.1-0.7,0.2-1c-0.1,0-0.1,0-0.2,0c0-0.7,0.1-1.4,0.1-2
			c0-0.1,0-0.2,0.1-0.3c-0.1-0.1-0.2-0.3-0.3-0.4c0.2-0.3,0.4-0.6,0.6-0.9c0,0,0,0-0.1-0.1c-0.2,0.2-0.5,0.5-0.8,0.8
			c0.1-0.4,0.2-0.8,0.2-1.2s-0.1-0.8-0.2-1.1l-0.1,0.1c-0.2-0.2-0.4-0.3-0.4-0.5c0-0.1-0.1-0.1-0.1-0.2c0-0.1-0.1-0.1-0.1-0.2
			c0,0.4,0.1,0.9-0.3,1.1c0,0-0.1,0.1-0.1,0.2c-0.1,0.3-0.1,0.6-0.2,0.9c0-0.3,0-0.6,0-0.9c-0.1-1-0.1-2.1,0-3.1c0-0.1,0-0.2,0-0.4
			c0-0.4-0.2-0.8,0-1.3c0.2-0.7,0.3-1.4,0.5-2.1c0,0,0,0-0.1,0c-0.2,0.6-0.4,1.2-0.5,1.9c0-0.5,0-0.9,0-1.4c0-0.1,0-0.2-0.1-0.3
			v-0.1c0-0.3-0.1-0.6-0.1-0.9c0-0.1,0-0.2-0.1-0.3l0,0c0,0.1,0,0.3,0,0.4c-0.1-0.1-0.1-0.2-0.2-0.2c-0.1-0.2-0.2-0.4-0.4-0.5
			c-0.4-0.3-0.5-0.2-0.6,0.1s-0.2,0.6-0.3,1c0-0.1-0.1-0.1-0.1-0.2c0,0.3,0.1,0.6,0.1,1c0,0.2,0.1,0.5,0,0.8
			c-0.1,0.1,0.1,0.3,0.2,0.5c0,0.4,0,0.8,0,1.2h-0.1c-0.1-0.2-0.3-0.4-0.4-0.6c0,0,0,0-0.1,0c0.5,0.7,0.7,1.5,0.6,2.3
			c-0.1,0-0.1,0-0.2,0c0.3,0.1,0.4,0.3,0.4,0.8c-0.1,0-0.3,0-0.4,0c0.1,0.1,0.1,0.1,0.2,0.1c0.2,0,0.3,0.1,0.3,0.3
			c0.2,0.5-0.1,0.9,0,1.4c0,0,0,0-0.1,0c-0.2-0.2-0.3-0.4-0.5-0.5c0.1,0.3,0.3,0.5,0.4,0.7c0,0.1,0.1,0.2,0.1,0.3
			c0,0.6,0.1,1.1,0.1,1.7c0,0.4,0,0.8,0.1,1.2c-0.2-0.1-0.3-0.1-0.4-0.2c0.1,0.2,0.3,0.4,0.4,0.6c0.1,0.5,0.1,1.1,0.1,1.6l-0.1,0.1
			c0,0.2,0.1,0.3,0.1,0.5c0,0.6,0,1.1,0,1.7c0,0.3,0,0.7,0,1c-0.2,0-0.3,0-0.4,0c0,0.1,0.1,0.1,0.1,0.1c0.2,0,0.3,0.2,0.3,0.4
			c0,0.6,0,1.2,0,1.8c0,0.7-0.1,1.3-0.1,2c0,0.4-0.1,0.7-0.2,1.1c-0.1-0.2-0.2-0.3-0.3-0.4c-0.2-0.2-0.2-0.3-0.2-0.6
			c0-1.1,0-2.1,0-3.2c0-0.7,0-1.4-0.1-2.1c0-0.1,0-0.3,0-0.4c0-0.6,0-1.3,0-1.9c0-0.2,0-0.3,0.2-0.5c0.1-0.1,0.2-0.2,0.3-0.3
			c-0.1,0-0.2,0-0.2,0.1c-0.1,0-0.1,0.1-0.2,0.1c0-0.9,0-1.8,0.3-2.7c0,0,0,0-0.1,0c-0.1,0.2-0.2,0.3-0.3,0.5c0,0,0,0-0.1,0
			c0-0.2,0-0.4-0.1-0.6c0-0.3,0-0.6-0.1-0.9c-0.1-0.5-0.3-0.7-0.9-0.6l0,0c0-0.1,0-0.1,0-0.2c0,0.1,0,0.3-0.1,0.3
			c-0.3,0.2-0.3,0.6-0.3,0.9c0,0.1,0,0.1-0.1,0.2c-0.2,0.2-0.4,0.3-0.6,0.5c0,0,0,0,0,0.1c-0.1,0-0.2-0.1-0.4-0.1l0,0
			c0.1,0.1,0.2,0.1,0.3,0.1c0,0.8-0.1,1.5-0.1,2.3c-0.1,0-0.1-0.1-0.2-0.1c0.1,0.1,0.2,0.3,0.3,0.4c0,0.1,0,0.2,0,0.2
			c0,0.5,0,1,0,1.5c-0.1-0.1-0.3-0.1-0.4-0.2c0.1,0.1,0.2,0.2,0.3,0.3c0.2,0.1,0.2,0.3,0.2,0.4c0,0.4,0.1,0.9,0.1,1.3
			c0.2,1.8,0.3,3.5,0.5,5.3c0,0.3,0,0.6,0.1,0.9c-0.1-0.5-0.2-1.1-0.3-1.6c-0.1-0.9-0.3-1.9-0.4-2.9c-0.1-0.4-0.1-0.8-0.2-1.2
			c-0.1-0.4-0.3-0.7-0.5-1.1c0,0.1,0,0.2,0,0.3c-0.4,0-0.4,0.4-0.6,0.6c-0.1-0.1-0.1-0.2-0.2-0.2c0,0.2,0.2,0.3,0.2,0.5
			c0,0.4,0,0.7-0.1,1.1c-0.1,0-0.1,0-0.2,0c0.1,0.1,0.2,0.2,0.2,0.3c0.2,1.1,0.4,2.1,0.6,3.2c0,0.2,0.1,0.4,0.1,0.6
			c-0.1-0.3-0.2-0.7-0.3-1c-0.2-0.5-0.4-1.1-0.7-1.6c-0.2-0.4-0.5-0.4-0.8,0c0,0,0,0.1-0.1,0.1c0-0.1-0.1-0.2-0.1-0.2
			c0,0.2,0,0.4,0,0.6c0,0.2,0,0.5,0,0.7s0.2,0.4,0,0.6c0,0.1,0.1,0.2,0.2,0.3c0,0.1,0,0.2,0.1,0.3c0.2,1,0.6,2,1.2,2.9
			c-2.4,0.1-4.5-0.1-6-0.8c-10.7-4.4-49.7-28.9-58-37c-13.2-12.7-14.9-26.4-33-29c-4.7-0.7-10.8-0.1-17.4,1.2
			c-0.1-0.1-0.2-0.2-0.3-0.2s-0.1,0-0.2,0c-0.2,0-0.3,0-0.4,0.1c-0.1,0.1-0.3,0.2-0.5,0.3c-0.3,0.1-0.6,0.1-1,0.2l0,0
			c-0.1,0-0.2,0-0.3,0.1c0,0-0.1,0-0.1-0.1s-0.1-0.2-0.2-0.3c-0.2-0.2-0.4-0.1-0.5,0.2c0,0.1,0,0.2,0,0.3c0,0.1,0,0.1,0,0.2h-0.1
			c0-0.1,0-0.2,0-0.2c0.1-0.4-0.1-0.6-0.5-0.6c-0.1,0-0.2,0-0.3,0s-0.1,0-0.1,0.1c0,0.2-0.1,0.4-0.2,0.5c-0.1,0.1-0.2,0.2-0.3,0.3
			c-0.1,0.1-0.1,0.2-0.2,0.2c-0.1,0-0.2,0.1-0.4,0.1c0,0,0.1,0,0.1-0.1c0.2-0.2,0.5-0.4,0.7-0.7c0.3-0.3,0.2-0.6-0.2-0.8
			c-0.1-0.1-0.2-0.1-0.3,0.1c0,0.1-0.1,0.1-0.1,0.2c0,0-0.1,0-0.1-0.1s-0.1-0.2-0.1-0.2c0-0.1-0.1-0.2-0.3-0.2c-0.3,0-0.6,0-1,0
			c-0.1,0-0.2,0-0.2,0.1c-0.1,0.2-0.2,0.2-0.3,0.3c-0.1,0-0.2,0.1-0.2,0.1c-0.2,0.4-0.2,0.8,0,1.2c0,0.1,0.1,0.1,0.2,0.1
			c0.4,0,0.8,0.1,1.2,0.1c-2.3,0.6-4.7,1.2-7.1,1.9c0,0,0,0,0-0.1l0,0c0,0,0,0.1-0.1,0.1c-0.2,0.1-0.5,0.1-0.7,0.2
			c-0.1-0.2-0.2-0.4-0.2-0.6c0-0.6,0-1.1,0.1-1.7c-0.3,0.2-0.5-0.4-0.8-0.3c0-0.2,0.1-0.4,0.1-0.4c0.2-0.2,0.3-0.4,0.5-0.7
			c0.3-0.3,0.5-0.7,0.4-1.3c0.4-0.3,0.5-0.6,0.2-1.3c0.3-0.6,0.3-0.7,0-1.5h0.1c1.1-0.2,2-1.7,2-3.3c0-0.1,0-0.1,0-0.2
			c0.2-0.5,0.3-1,0.5-1.4c0,0-0.1,0-0.2,0.1c0-0.4,0-0.9,0-1.3c0-0.1,0-0.1,0-0.2c0-0.7,0-1.3,0.3-1.8c0.1-0.2,0.1-0.4,0.1-0.6
			c0-0.8,0.1-1.6,0.1-2.4l0,0c0,0.2-0.1,0.3-0.1,0.5c-0.1-0.4-0.2-0.7-0.3-1s-0.2-0.6-0.4-0.8c-0.1-0.3-0.5-0.3-0.4-0.8
			c-0.1,0.4-0.1,0.4-0.2,0.4c-0.1-0.4-0.2-0.7-0.3-1.1l0,0c0,0.3,0.1,0.6,0.1,0.9c-0.6,0-0.7,0.1-1,0.8c-0.3,0.7-0.4,1.5-0.4,2.3
			c-0.2,0.5,0,0.8,0.2,1.2c-0.2,0.5-0.2,1,0,1.3c-0.2,0.6-0.4,1.1-0.5,1.6c-0.1,0.3,0,0.7,0,1.1c0,0.1,0,0.3,0,0.4
			c-0.1,0.4-0.2,0.8-0.2,1.3c0,0.3,0,0.7,0,1.1c-0.2-0.9-0.2-1.8,0-2.6c-0.1-0.1-0.1-0.2-0.2-0.2c0,0,0,0,0.1,0
			c0-0.3-0.1-0.6-0.1-0.9c0.1-0.6,0-1.1,0-1.7c0-0.3,0-0.5-0.1-0.6c0-0.5,0.1-1,0.1-1.4c-0.1-1.4-0.2-2.8-0.3-4.2
			c0-0.2,0-0.3,0.1-0.5c0.1-0.3,0.2-0.5,0.3-0.8l0,0c-0.1,0.2-0.2,0.4-0.3,0.6c0,0,0,0-0.1-0.1c0-0.5,0.1-1,0.1-1.4
			c0-0.2,0.1-0.4,0.2-0.5c-0.1,0-0.1-0.2-0.1-0.4c0.1-0.7,0.1-1.4,0.2-2.1c0-0.3,0.1-0.6,0.1-0.8c0,0,0,0,0-0.1l-0.1,0.1
			c0-0.2-0.1-0.3-0.1-0.4c-0.2-0.4-0.2-0.8,0-1.2c0.1-0.2,0.1-0.5,0.1-0.8c0-0.4-0.2-0.8,0.1-1c-0.1,0.1-0.2,0.2-0.3,0.2
			c-0.2-0.3-0.4-0.5-0.4-1c0-0.3-0.2-0.5-0.3-0.7c-0.1-0.1-0.2-0.1-0.3-0.1s-0.1,0.3-0.1,0.4s0,0.2,0,0.3v-0.1
			c-0.4,0.3-0.8,0.6-1.3,0.9c0,0,0,0-0.1-0.1c0,0.2,0,0.4,0,0.6s0.1,0.3,0.1,0.5c-0.5,0.6-0.5,0.9-0.2,1.6c-0.1,0.2-0.3,0.4-0.4,0.7
			s-0.2,0.5-0.2,0.8c-0.1-0.1-0.3-0.3-0.4-0.4c0,0,0,0.1-0.1,0.1c0.5,0.4,0.5,1.1,0.7,1.7c0,0,0,0,0,0.1c0.1,0.3,0.2,0.5,0.3,0.7
			c-0.4,0.4-0.4,0.8-0.2,1.7c-0.2,0.3-0.4,0.8-0.4,1.2c0.1,0.5,0,0.8-0.1,1.3c0,0.3-0.1,0.7-0.1,1.1c-0.1,0.8,0.1,1.6-0.2,2.4
			c-0.1,0.2,0,0.4,0,0.7c0,0.3,0.1,0.5,0.1,0.8c-0.4,0-0.6,0.2-0.7,0.7c0,0.2-0.1,0.5-0.1,0.7c0,0.4,0,0.8,0,1.3
			c-0.1-0.1-0.3-0.3-0.4-0.4c0-0.1,0-0.2,0-0.3c0-0.5,0.1-0.9,0-1.4c0-0.5,0-1-0.4-1.3v-0.1c0.1-0.5-0.1-0.9-0.3-1.3
			c-0.1-0.5-0.1-0.9,0.1-1.3c0.1-0.3,0.2-0.7,0.2-1c0-0.4,0-0.7,0.3-0.9c-0.1,0-0.2,0.1-0.3,0.1c-0.5-1.1-0.5-2.2-0.5-3.4
			c-0.1,0.1-0.1,0.3-0.2,0.4c-0.2-0.3-0.5,0.1-0.6-0.5c0,0.4-0.1,0.3-0.3,0.3c0-0.3,0-0.6,0-0.8c-0.1,0.2-0.1,0.5-0.2,0.7
			c0,0.1-0.1,0.2-0.1,0.3c-0.1,0.2-0.2,0.4-0.3,0.6c-0.1,0.3-0.1,0.6-0.1,0.9s-0.1,0.7-0.1,1c0.1,1.2,0.2,2.4,0.3,3.7
			c0,0.6,0.1,1.2,0.2,1.8c0,0,0,0-0.1,0c-0.2-0.5-0.4-1-0.6-1.5c0.1,0.6,0.3,1.5,0.7,2.1c0.1,0.1,0.1,0.3,0.2,0.5
			c0.2,1.5,0.5,2.9,0.9,4.3c0,0.1,0,0.2,0.1,0.3c-0.3-0.2-0.5-0.4-0.8-0.6c0.2,0.5,0.5,0.8,0.8,1c0.1,0.1,0.2,0.1,0.2,0.2
			c0.3,0.5,0.6,0.9,1,0.9c0.1,0.3,0.2,0.6,0.2,0.8c0,0.8-0.1,1.5-0.1,2.3c-0.2,0-0.5-0.1-0.8-0.1c0.1,0.1,0.2,0.2,0.3,0.2
			c0.4,0.1,0.7,0.4,0.9,1.1c0,0.1,0.1,0.2,0.2,0.3c0.2,0.3,0.4,0.6,0.6,0.8c-0.1,0.5-0.2,1-0.3,1.5c-0.1-0.1-0.3-0.1-0.4-0.2
			c0.3,0.3,0.5,0.5,0.6,1.1c0.1,0.5,0.2,0.9-0.2,1.3c0,0-0.1,0-0.3-0.1c0.1,0.1,0.2,0.2,0.3,0.2c0,0.2,0,0.5-0.1,0.7
			c-0.2,0.1-0.4,0.1-0.6,0.2c-1.3-0.1-2.6,0.3-3.8,1.2c-5.2,1.6-10.4,3.4-15.3,5c0-0.1,0-0.2,0-0.3c-0.1-0.6-0.7-1.8-1.1-2.2
			c-0.2-0.3-0.9-0.5-1.1-0.8c-0.4-0.4-1.2-1.2-1.5-1.7c-0.2-0.2-0.3-0.6-0.5-0.9l0,0c0.1-0.1,0.2-0.4,0.2-0.6c0-0.3-0.5-1-0.7-1.2
			c-0.6-0.5-2.7-0.4-3.1-1.2c-0.8-1.5,1.5-4.8,1.8-6.5c0.2-1.3,0.1-4.8,0-6.3c0.6-0.2,1.2-0.5,1.4-0.8c0,0,0,0,0-0.1
			c0.1,0.1,0.2,0.2,0.3,0.2c0.5,0,0.9-1,1-1.5c0.1-0.3-0.3-1-0.3-1.3c0-0.2,0.3-0.4,0.3-0.6c0.4-1.5,0.2-4.7,0-6.2
			c-0.1-0.5-0.5-1.5-0.6-2.1c-0.3-1.4,0-4.3-0.6-5.6c-0.3-0.6-1.2-1.5-1.8-1.8s-2.3,0.4-2.7-0.2c-0.3-0.4,0.4-1.3,0.4-1.8
			c0-0.6,0.1-1.8-0.2-2.4s-1.2-1.2-2.4-1.6c-0.7-0.3-2.2,0.8-2.5,1.5c-0.3,0.6,0.2,2.1,0.2,2.8c-0.1,0.5-0.9,1.5-0.6,1.9
			c0.1,0.2,0.8-0.2,0.9,0c0.4,1-3,1.8-3.2,2.8c-0.6,2.5-1.6,6-1.8,8.4c-0.1,1.2,2.7,4.9,2.8,6c0,0.5-0.5,1.3-0.4,1.8
			c0.1,0.3,0.3,0.7,0.6,1.1c-0.5,0.2-1,0.4-1.3,0.5c-2.1,0.7-6.3,1.8-8.4,2.4c-1.5,0.4-4.5,1.3-6,1.9c-1.3,0.5-3.6,1.8-4.9,2.4
			c-1,0.5-2.9,1.4-3.9,1.9c-2.5,1.2-10.7,2-10.1,4.7c0.1,0.5,1.4,0.1,1.9,0c6.5-1.3,18.4-7.8,24.7-9.9c2.4-0.8,6.4-1.7,10-2.6
			c0.3,3,0.8,7.2,1.3,9.4c0.1,0.3,0.2,0.7,0.3,1l0,0c-1-0.1-3.1-0.7-4.1-0.8c-0.6-0.1-1.9,0.3-2.4,0c-0.5-0.2-1.1-1-1.3-1.5
			c-0.2-0.4,0.2-1.5,0-1.9c-0.2-0.3-1.1-0.4-1.3-0.8c-0.3-0.4,0.4-1.7,0-2.1c-0.6-0.6-2.4-0.2-3.2,0c-0.4,0.1-1.3,0.4-1.5,0.8
			c-0.2,0.3,0.2,1.1,0,1.3c-0.3,0.3-1.1,0-1.5,0c-0.6,0-1.7-0.1-2.2,0s-1.6,0.6-2.1,0.9c-0.4,0.4-0.6,1.8-1.1,1.9
			c-0.3,0-0.5-0.7-0.8-0.8c-0.4-0.1-1.2-0.2-1.5,0c-0.4,0.2-0.8,1.2-0.9,1.7s-0.6,1.4-0.4,1.9c0.3,0.5,2,0.5,2.1,1.1
			c0,1.1-2.8,1.7-3.7,2.2c-0.8,0.5-2.8,1.1-3.4,1.9c-0.5,0.7-0.5,2.4-0.6,3.2c0,0.3-0.1,0.8-0.1,1.3c-14.5-7.9-30.9-21.8-45.7-22.8
			c-12.3-0.8-32,18.4-44,20.3c-3.8,0.6-11.1-3.2-14.6-4.9c-12.1-5.9-32.8-23.9-44.9-29.9c-13.8-6.8-40.9-16.6-59.5-21.5V65.5
			c0,0-3.1-5.1-13.8-13.7C255.9,43.3,247,40,247,40v-5.5l-14-0.7c0,0,0.2-14.1-14.3-16c-17-2.3-18.7,9.8-18.7,9.8l-17.8,5.6v7.7
			h-24.6v5l-6.5,3.4v21c-0.6,0.1-1.2,0.2-1.8,0.2c-5.8,0.8-17.1,4.5-22.8,5.6c-4.3,0.8-12.9,1.8-17.2,2.6
			C97.2,81,74.6,86.1,53.1,91.1c0-0.1,0.1-0.1,0.1-0.2c-0.1,0-0.2,0.1-0.3,0.1c-0.1-0.6-0.2-1.2-0.2-1.7c1.7-0.4,2.5-1.7,3-3.2
			c0-0.1,0.1-0.2,0.1-0.3c0.1-0.3,0.1-0.7,0.3-1c0.1-0.3,0.4-0.5,0.6-0.8c-0.2,0.1-0.3,0.2-0.5,0.3h-0.1c0.2-0.9,0.4-1.7,0.5-2.6
			c0.2-1.2,0.8-2.2,1.1-3.3c0.1-0.3,0.1-0.7,0.1-1.1c-0.2,0.6-0.4,1.1-0.6,1.7h-0.1c0-0.4,0.1-0.9,0.1-1.3c0-0.2,0-0.3,0-0.5
			c0-0.3,0.1-0.7,0.1-1.1c0-0.2,0-0.4,0-0.6c0-0.6-0.2-0.8-0.8-1c0-0.1,0-0.2,0-0.3c-0.1,0.1-0.3,0.2-0.4,0.4
			c-0.1,0.2-0.2,0.3-0.3,0.5c-0.2,0.3-0.3,0.7-0.5,1h-0.1c0-0.1-0.1-0.2-0.1-0.4c0,0.1-0.1,0.1-0.1,0.2c0.1,1-0.3,2-0.2,3
			c0,0-0.1,0.1-0.1,0.2c0.3,0.4,0.1,0.8,0,1.2c-0.3,1.7-0.7,3.3-1.1,5c-0.1,0.5-0.4,1-0.6,1.4c-0.1,0.2-0.3,0.4-0.5,0.6h-0.1
			c-0.1-0.7-0.2-1.3-0.2-1.9c0-0.5,0.3-1,0.3-1.5c0-1.2,0.6-2.2,0.7-3.4c0-0.1,0.2-0.2,0.2-0.3c0,0-0.1,0-0.2,0
			c-0.1-0.6-0.3-1.1,0.1-1.6c-0.1,0.2-0.2,0.3-0.3,0.5h-0.1c-0.1-0.3-0.1-0.5-0.2-0.8v0.1c-0.3,0-0.6,0.1-0.9,0.1c0-0.4,0-0.8,0-1.3
			c0-1-0.1-1.9,0-2.9c0-1,0.1-1.9,0.1-2.9c0.2-0.1,0.3-0.2,0.5-0.3l0,0c-0.1,0.4-0.2,0.4-0.4,0.5c0.1-0.3-0.2-0.7,0.2-0.9
			c0,0-0.1-0.1-0.2-0.1c0,0,0-0.1,0-0.2c-0.1-0.3,0-0.6-0.1-0.9s0-0.7,0.1-1c0-0.3,0.2-0.7,0.2-1c0.1-0.4,0.2-0.8,0.5-1.2
			c-0.1,0.1-0.2,0.2-0.3,0.3c-0.2-0.8-0.3-1.5-0.8-2c0,0.1-0.1,0.1-0.2,0.2c-0.7,0.2-0.9,0.7-1.1,1.3c-0.2,0.7,0,1.5,0,2.3
			s-0.2,1.5-0.3,2.3c0,0.3-0.1,0.7-0.1,1c0,0.4,0,0.7,0,1.1c0,0.1,0,0.2-0.1,0.3c0,0.1,0.1,0.2,0.1,0.4c0,0.4,0,0.7,0,1.1
			c0,0.5,0,1,0,1.5s0,1.1-0.1,1.6c0,0.1-0.1,0.1-0.1,0.2c0.2,0.5-0.1,1.1,0,1.8c-0.2-0.1-0.3-0.2-0.5-0.2l0,0
			c0.1,0.1,0.2,0.3,0.4,0.4c0.2,0.1,0.3,0.3,0.3,0.5c0,0.8,0,1.6,0,2.4c-0.2-0.2-0.3-0.4-0.5-0.5c-0.2-0.1-0.4-0.1-0.6-0.2
			c-0.1,0.3-0.2,0.6-0.3,0.9c0.1-0.4,0-0.9,0-1.4c0-0.1,0-0.3,0.1-0.4c0.2-0.2,0.3-0.5,0.1-0.7c-0.2-0.3-0.5-0.2-0.7-0.1
			c-0.1,0-0.2,0.1-0.3,0.2c0-0.1,0-0.2-0.1-0.3c0,0,0,0,0,0.1c-0.1,0-0.2,0.1-0.2,0.1c-0.3-0.2-0.7,0.1-0.8-0.3
			c-0.1-0.3-0.1-0.6-0.1-0.8l0,0c0,0.3,0,0.5,0,0.8c0,0.1,0,0.2-0.1,0.2v-0.1c0,0,0,0-0.1,0c0-0.6,0-1.3,0-1.9c0-0.5-0.1-1-0.1-1.4
			c0-0.2,0.2-0.4,0.3-0.6c-0.1,0.1-0.2,0.2-0.3,0.3c-0.5-0.4-0.5-1-0.4-1.6c-0.1,0.3-0.3,0.6-0.6,0.6c-0.3,0-0.4,0.4-0.7,0.3
			c0,0.1,0,0.3-0.1,0.4c-0.2,0.7-0.1,1.3,0.1,2c0.1,0.5,0.2,1,0.3,1.6c-0.1,0-0.1,0-0.2,0c0.1-0.2,0.1-0.4,0-0.7
			c0-0.1-0.1-0.2-0.2-0.3c-0.3-0.2-0.4-0.5-0.3-0.8c0,0-0.1,0-0.1,0.1c0,0.3-0.2,0.5-0.6,0.6c-0.2,0-0.4,0.3-0.7,0.4
			c0-0.2-0.1-0.3-0.2-0.5s-0.1-0.4-0.2-0.6c0.1,0.4,0.2,0.9,0.2,1.3c-0.3,0.2-0.6,0.3-0.9,0.5c-0.2-0.2-0.3-0.4-0.5-0.6
			c0,0,0,0-0.1,0c0.1,0.3,0.3,0.5,0.4,0.8c-0.5,0.5-0.8,1.1-0.9,1.8c-0.3-0.1-0.6-0.2-0.8-0.3c0,0,0,0.1-0.1,0.1
			c0.8,0.2,1,0.8,0.9,1.5c-0.5,0.1-0.7,0.1-0.9-0.2c0,0.1,0,0.2,0,0.3c-0.3,0.1-0.5,0.2-0.8,0.3c-0.1-0.1-0.1-0.3-0.2-0.4v0.1
			c0.1,0.3,0,0.5-0.2,0.7c-0.3,0.3-0.5,0.6-0.8,0.9c0-0.4-0.1-0.8-0.2-1.1c-0.1-0.5-0.3-1-0.5-1.5c0-0.1,0-0.3,0-0.4
			c0.2-0.3,0.3-0.6,0.5-0.9c-0.2,0.3-0.5,0.5-0.7,0.8c-0.3-0.4-0.5-0.7-0.7-1.1c0,0,0-0.1,0-0.2c0.1-0.3,0.2-0.6,0.3-0.9
			c0-0.1,0.1-0.1,0.2-0.1c0.1,0,0.3,0,0.4,0v-0.1c-0.2,0-0.4,0-0.5,0c-0.1-0.6-0.2-1.2-0.2-1.8c0-0.3,0.3-0.7,0.5-1.1
			c0.5,0.3,0.9,0.6,1.3,0.9c0,0,0-0.1,0.1-0.1c-0.4-0.3-0.8-0.7-1.1-1.1c0.1-0.2,0.2-0.4,0.3-0.7c0.1,0,0.3,0.1,0.4,0.1
			c0,0,0,0,0-0.1c-0.1-0.1-0.3-0.1-0.4-0.2c0-0.4,0-0.9-0.1-1.2c0.3-0.3,0.7-0.5,0.8-0.8c0.1-0.6,0.5-0.8,1-1c0.1,0,0.2-0.1,0.2-0.2
			c-0.3,0.1-0.5,0.2-0.8,0.3c-0.4,0.2-0.7,0-0.7-0.4c0-0.3-0.1-0.5-0.2-0.8c0,0.3,0,0.7,0,1c-0.2,0.1-0.3,0.2-0.5,0.2
			c-0.1,0-0.3,0-0.3,0c0,0.4,0,0.8,0,1.1c-0.3,0.3-0.5,0.6-0.8,0.9c0,0-0.1-0.1-0.2-0.2c0.3,0.3,0.2,0.6,0.1,0.9
			c-0.1,0.3-0.1,0.5-0.2,0.8c-0.2-0.1-0.3-0.3-0.5-0.4c-0.3-0.2-0.7,0.1-0.6,0.5c0.1,0.3,0.3,0.6,0.5,0.9c0.1,0.2,0.3,0.3,0.4,0.4
			c-0.4,0.7-0.6,1.4-0.5,2.1c0,0.3,0.1,0.6,0.2,0.9c0,0.3,0.1,0.5,0,0.8c-0.1,0.6-0.1,1.1,0.1,1.7c0.2,0.5,0.2,1-0.2,1.4
			c-0.1,0.1-0.1,0.2-0.2,0.4c-0.4-0.7-0.9-1.3-1.6-1.6c0.3-0.9,0.6-1.8,0.8-2.7c0.3-1.3,0.2-2.6-0.5-3.8c0-0.1,0-0.3,0-0.3
			c0.4-0.5,0.7-1.2,0.9-1.8c0.3-1,0.6-2,0.7-3c0-0.1,0.1-0.2,0.2-0.2c0.2-0.1,0.4-0.1,0.5-0.3c-0.2,0-0.4,0.1-0.6,0.1
			c-0.1-0.6-0.2-1.2-0.2-1.9c0.3,0.3,0.7,0.5,1.2,0.4s0.9-0.5,0.8-1c-0.1-0.3,0-0.5,0.2-0.7c0,0,0.1-0.1,0-0.2
			c-0.1,0.1-0.3,0.2-0.4,0.4c-0.6-0.6-1.2-0.6-1.9,0c0.1-0.8,0.2-1,0.9-1.4c0.5-0.3,0.9-0.5,1.3-0.8c-0.6,0.3-1.2,0.6-1.9,0.9
			c0-0.6,0-1-0.4-1.4v-0.2c0-0.2,0.1-0.3,0.1-0.5c-0.1,0.2-0.2,0.4-0.3,0.6c-0.3,0-0.6,0-0.9-0.1c0-0.1-0.1-0.2-0.2-0.4l0,0
			c0,0.2,0.1,0.3,0.2,0.5c-0.1,0.1-0.2,0.3-0.3,0.4c-0.2-0.1-0.3-0.2-0.5-0.3c0.4,0.3,0.4,0.6,0.4,1.1s0.3,0.9,0.4,1.4
			c-0.3,0.3-0.6,0.6-0.9,1c-0.1-0.1-0.2-0.2-0.3-0.3v0.1c0.3,0.3,0.2,0.5,0,0.8c-0.2,0.4-0.3,0.8-0.5,1.2c-0.4-0.2-0.8-0.4-1.3-0.6
			v0.1c0.3,0.2,0.6,0.5,1,0.7c0.2,0.1,0.3,0.3,0.3,0.6c-0.1,1.3,0,2.5,0.3,3.7c0,0.1,0,0.2,0.1,0.3c0.2,0.6,0.3,1.1-0.3,1.5
			c-0.1,0.1-0.2,0.3-0.3,0.5c0-0.4,0-0.8-0.1-1.2c-0.1-1-0.4-1.9-1.1-2.6c-0.1-0.1,0-0.4-0.1-0.6c-0.1,0.1-0.1,0.2-0.2,0.3
			c-0.5-0.3-1-0.5-1.6-0.5c-0.1,0-0.1-0.1-0.2-0.2c-0.1-0.2-0.2-0.4-0.3-0.6h-0.1c0,0.2,0.1,0.5,0.1,0.7c0,0.1,0,0.2-0.1,0.3
			c-0.2,0.4-0.3,0.7-0.5,1.1c-0.2-0.1-0.5-0.3-0.8-0.4c0.2,0.5,0.9,0.5,0.7,1.1c-0.1,0.4,0.1,0.8-0.2,1.2c0,0.1,0.2,0.1,0.2,0.2
			c0.3,1.6,1.4,2.9,2.9,3.7c-0.6,1.2-0.1,2.4-0.3,3.7c-0.3-0.4-0.4-1.7-0.3-3c-0.3-0.2-0.6-0.4-0.9-0.7c-0.3-0.3-0.6-0.7-0.8-1.1
			c-0.1-0.3-0.3-0.4-0.6-0.5c-0.2,0-0.4-0.1-0.7-0.1c-0.3,0.2-0.8,0.5-1.2,0.8c-0.3-0.3-0.6-0.7-0.9-1.2c0-0.1-0.1-0.1-0.1-0.1
			c-0.3-0.2-0.4-0.4-0.2-0.7c0.1-0.1,0.1-0.3,0.1-0.5c-0.1,0.2-0.3,0.5-0.4,0.8c-0.2-0.3-0.7-0.2-0.6-0.8c0,0.1-0.1,0.2-0.1,0.2
			c-0.6-0.2-1.1-0.3-1.6-0.5c0.7-0.7,1.3-1.4,0.5-2.4c0.4-0.1,0.6-0.4,0.8-0.8c0.1-0.3,0.3-0.5,0.4-0.7c-0.2,0-0.4,0.1-0.5,0.1
			c-0.1-0.2-0.1-0.4-0.2-0.5c-0.4-0.2-0.6,0-0.9,0.3c-0.1-0.2-0.2-0.3-0.3-0.4c-0.1,0.4-0.2,0.8-0.2,1.2c0,0,0,0-0.1,0
			c0-0.2,0-0.3,0-0.5c0-0.4-0.1-0.6-0.4-0.7c0.1,0.4,0.1,0.8,0.2,1.3c0.1,0.2,0.2,0.4,0.4,0.7c-0.9,0.8-0.5,1.7,0,2.5
			c-0.1,0.1-0.3,0.2-0.5,0.3c0-0.3,0-0.6-0.1-0.9c0-0.4-0.2-0.8-0.5-1.1c-0.1-0.1-0.1-0.2-0.1-0.3c-0.3,0.1-0.6,0.2-0.9,0.2
			c-0.1-0.1-0.2-0.2-0.3-0.3l0,0c0.1,0.1,0.2,0.3,0.3,0.4c-0.1,0.1-0.2,0.2-0.3,0.3c0,0.1,0,0.3,0.1,0.5c-0.5-0.2-0.9-0.4-1.3-0.6
			c0.5,0.5,1.4,0.7,1.7,1.5c-0.3,0.1-0.7,0.3-1,0.4v0.1c0.3-0.1,0.7-0.2,1-0.2c0.1,0,0.3,0,0.5,0l0,0c0.7,0.4,0.7,0.4,1,1.1
			c0.4,0.9,1.1,1.5,1.9,2c0.2,0.1,0.4,0.2,0.3,0.5c0-0.1,0.1-0.2,0.1-0.2c1,0.2,2,0.3,3,0.4c0.1,0.4,0.1,0.8,0.2,1.3
			c-0.1,0-0.2,0-0.3,0c0.5,0.1,0.6,0.5,0.8,0.8c0.1,0.2,0.3,0.4,0.4,0.6c-0.3,0.3-0.5,0.6-0.8,0.8c0,0,0,0,0,0.1
			c0.3-0.2,0.6-0.4,0.9-0.5c0.1,0,0.2,0,0.3,0c0.5,0.3,1.1,0.7,1.6,1c-0.5,0.3-1,0.6-1.6,0.1v0.1c0.2,0.1,0.3,0.2,0.5,0.3
			c-0.5,0.4-1.1,0.8-1.8,0.8c0.7,0.1,1.5,0,1.9,0.7c0,0.1-0.1,0.2-0.2,0.3h0.1c0.2-0.3,0.4-0.3,0.7-0.2c0.5,0.2,1,0,1.4-0.2
			c0.3-0.2,0.7-0.3,1-0.5c0.1,0.5,0.1,1.1,0.2,1.7c-0.2,0-0.5,0-0.7,0v0.1c0.2,0.1,0.4,0.1,0.6,0.2c0.3,0,0.5,0.2,0.5,0.5
			c-0.1,0-0.1,0.1-0.2,0.1c0.5-0.1,0.5,0.4,0.8,0.6c-0.2,0.2-0.3,0.3-0.4,0.5c0,0,0,0,0,0.1c0.2-0.1,0.3-0.2,0.5-0.3
			c0.7,0.7,1.4,1.4,2.5,1.2c-0.1,0.4-0.1,0.8-0.2,1.2c-0.1,0-0.3,0.1-0.5,0.1v0.1c0.6-0.1,0.9,0.4,1.1,0.7c0.2,0.3,0.2,0.7,0.3,1
			c-0.3-0.1-0.5-0.1-0.7-0.2c0,0,0,0,0,0.1c0.2,0.1,0.3,0.2,0.5,0.3c0.1,0.1,0.2,0.2,0.2,0.3c-0.1,0.4-0.1,0.8-0.3,1.1
			c0,0.1,0,0.1-0.1,0.1c-0.4,0.1-0.7,0.2-1.1,0.3c0-0.1,0-0.2-0.1-0.3c-0.2-0.8-0.8-1.3-1.7-1c-0.4,0.1-0.8,0.1-1.1,0.2
			c-0.6,0.1-1.1,0.5-1.3,1.2l0,0c-0.1,0-0.2,0-0.3,0c-0.5,0-1.1,0.2-1.6,0.3c-0.3,0-0.4,0.1-0.4,0.4c0,0.1-0.1,0.2-0.1,0.3
			c-0.8-0.1-0.9,0-1,0.4c0.1,0.1,0.3,0.3,0.4,0.4C11.3,101,0,103.8,0,103.8V211v10h400h450h448.6H1920v-10V60
			C1920,60,1909,46,1873,40z M761.5,142.4L761.5,142.4L761.5,142.4L761.5,142.4z M525.2,98.7c0,0,1.5,5.8,1.5,7.4
			c0,0.3-0.1,0.8-0.2,1.2c-0.3-0.1-0.8,0.2-1.3,0.4l-0.1-2.5L525.2,98.7z M517.6,110.1c0-0.1,0-0.2,0.1-0.3c0.2-1.5-1.6-6.6-1.6-8.1
			c0-1.6,1.2-5.6,1.2-5.6s0.7,6.4,0.7,8.1c0.1,1.4-0.1,4.2,0,5.6c0,0.1,0,0.1,0,0.2C517.9,110,517.7,110,517.6,110.1z M27.1,97.3
			c0.1-0.1,0.3-0.1,0.4-0.2c0.2-0.2,0.4-0.2,0.6-0.2s0.4,0,0.6,0C28.2,97,27.7,97.2,27.1,97.3z M48.4,83.7c0,0.2,0.1,0.3,0.1,0.5
			c0,0.1,0,0.2,0,0.3c-0.2-0.1-0.3-0.2-0.5-0.3C48.2,84,48.3,83.8,48.4,83.7z M47.8,84.5c0.1-0.1,0.2-0.2,0.3-0.1s0.3,0.1,0.4,0.2
			c0.1,0.5,0.3,1,0.4,1.5c0,0.1,0,0.1,0,0.3c-0.6-0.5-1-1-1.4-1.6C47.7,84.7,47.8,84.6,47.8,84.5z M44.2,80.2
			c0.2-0.1,0.3-0.2,0.3-0.3c0.2,0.2,0.3,0.4,0.3,0.6c0,0.3,0.1,0.6,0.1,0.9c0,0.1,0,0.2-0.1,0.3c-0.2-0.2-0.5-0.3-0.7-0.4
			c0,0,0,0,0,0.1C44.3,81,44.3,80.7,44.2,80.2z M44.2,81.4c0.2,0.2,0.4,0.4,0.6,0.6c-0.4,1.1-1.3,2.1-2.3,2.4
			C43.4,83.5,44,82.6,44.2,81.4z M49.8,91.9c-0.1,0-0.3,0.1-0.4,0.1c-0.1-0.1-0.2-0.2-0.3-0.2c0,0,0,0-0.1,0.1
			c0.1,0.1,0.1,0.2,0.2,0.2c-0.6,0.2-1.3,0.3-1.9,0.4c0-0.1-0.1-0.2-0.1-0.3c-0.2,0-0.5,0.1-0.7,0.1c-0.3,0-0.5,0.2-0.7,0.4
			l-0.1,0.1c-0.1-0.1-0.1-0.3-0.2-0.4l0,0c0,0.1,0,0.3,0,0.4c-2.4,0.6-4.9,1.1-7.2,1.7c0,0,0,0,0-0.1c-0.1-0.1-0.1-0.2-0.1-0.3
			c0.3-0.9,0.5-1.7,0.8-2.7c0.2,0,0.4,0.1,0.7,0.1c0,0,0,0,0-0.1c-0.2-0.1-0.4-0.1-0.6-0.2c-0.1,0-0.2-0.2-0.2-0.2
			c0-0.4,0-0.8,0-1.2c0-0.1,0.1-0.3,0.2-0.3c0.5-0.3,1.1-0.7,1.7-1c0.1,0.1,0.2,0.2,0.2,0.3c0,0,0.1,0,0.1-0.1
			c-0.1-0.1-0.1-0.2-0.2-0.3c0.3-0.2,0.5-0.5,0.8-0.7c0.4,0.4,0.8,0.8,1.2,1.2l0.1-0.1c-0.3-0.4-0.6-0.7-0.9-1.1
			c-0.2-0.2-0.2-0.3-0.1-0.5c0.2-0.4,0.4-0.9,0.5-1.4c0.4,0.3,1,0.4,1.6,0.4c0.1,0,0.2,0.1,0.2,0.2c0.1,0.3,0.1,0.6,0.2,0.9h0.1
			c0-0.3,0-0.7,0-1c0.5-0.1,1.1-0.2,1.7-0.3c0.1,0.2,0.3,0.4,0.5,0.6l0,0c-0.1-0.2-0.3-0.5-0.4-0.7l0.1-0.1c0.2,0.3,0.3,0.5,0.4,0.8
			c0.3,0.7,0.7,1.2,1.2,1.6c0.4,0.4,0.9,0.4,1.4,0.3c0.2-0.1,0.3-0.1,0.5-0.2C49.9,89.6,49.8,90.7,49.8,91.9z M153.8,63.5h-1.7V53.2
			h1.7V63.5z M185.3,59h-8.5v-7.7l8.5,1V59z M246.6,69.9h-5.3c-1-0.1-1.9-0.1-2.8-0.2c-4-0.3-11.5-1.4-16.4-1.8V48.3
			c0,0,7.7-1.3,13.8,1.2c6.7,2.7,10.6,8.2,10.6,8.2L246.6,69.9L246.6,69.9z M685.4,185.7c0.2-0.1,0.3-0.1,0.5,0
			C685.7,185.6,685.5,185.7,685.4,185.7z M747.9,157.9C747.9,157.9,747.8,157.9,747.9,157.9C747.8,157.9,747.8,157.9,747.9,157.9
			C747.8,157.9,747.9,157.9,747.9,157.9z M747.3,155.3L747.3,155.3L747.3,155.3L747.3,155.3z M747,148.5L747,148.5L747,148.5
			L747,148.5z M746.7,157.6L746.7,157.6L746.7,157.6L746.7,157.6z M743.7,155.5v0.1C743.6,155.6,743.6,155.6,743.7,155.5
			C743.6,155.6,743.6,155.6,743.7,155.5z M742.1,155.4L742.1,155.4L742.1,155.4L742.1,155.4z M736.6,144.7L736.6,144.7L736.6,144.7
			L736.6,144.7L736.6,144.7L736.6,144.7L736.6,144.7z M735.5,138.1L735.5,138.1C735.4,138.1,735.4,138.1,735.5,138.1
			C735.4,138.1,735.5,138.1,735.5,138.1z M734,154.8c0.3-0.3,0.8-0.2,1-0.7l0,0l0.1,0.1c0.1,0,0.1,0,0.2,0c0.1-0.1,0.2-0.2,0.3-0.4
			c0.1,0,0.1-0.1,0.2-0.1c0,0,0,0,0-0.1s0-0.1,0-0.1l0,0c0.2-0.1,0.3-0.2,0.3-0.4l0,0c0.2,0,0.3-0.1,0.3-0.2l0,0l0,0
			c0,0.1,0,0.1,0.1,0.2c0.1,0,0.2,0,0.2,0c0.3-0.2,0.5-0.4,0.7-0.7c0,0,0.1,0,0.2,0c0.1,0,0.3-0.1,0.4-0.1c0.1-0.1,0.2-0.2,0.2-0.3
			l0,0c0.3,0,0.5-0.1,0.6-0.6l0,0c0.2-0.2,0.3-0.4,0.2-0.7l0,0c0-0.2,0-0.3,0.1-0.4h0.1c0.1,0,0.2,0,0.3-0.1c0,0.1,0,0.2,0,0.3
			c0.1,0.2,0.3,0.4,0.4,0.5c0,0.5,0.4,0.8,0.5,1.2c0,0.1,0,0.3,0.1,0.3c-0.2,0.3-0.3,0.6-0.2,0.9l0,0c-0.2,0.1-0.5,0.3-0.7,0.5l0,0
			c-0.2-0.1-0.4-0.2-0.6-0.1c-0.1,0-0.2,0.1-0.3,0.2c0,0.4-0.2,0.7-0.6,0.9c-0.1,0-0.2,0-0.3,0c-0.1,0.2,0,0.5-0.3,0.6l0,0l0,0
			c-0.2,0.2-0.4,0.4-0.6,0.6l0,0c-0.2,0.2-0.3,0.3-0.5,0.5l0,0c-0.2-0.2-0.4-0.4-0.7-0.4c-0.2,0-0.4,0-0.6,0.2c0,0,0,0,0,0.1
			c0,0-0.1,0-0.1-0.1c-0.1-0.1-0.3-0.1-0.4-0.1c-0.2-0.6-0.6-0.9-1-1.3C733.9,154.8,733.9,154.8,734,154.8z M732.5,152.9
			c0,0.1-0.1,0.2,0,0.4c0.1,0.1,0.2,0.2,0.3,0.3c0,0.1,0,0.2,0,0.3c-0.1-0.2-0.3-0.4-0.4-0.5c-0.1-0.1-0.2-0.2-0.3-0.2
			C732.3,153,732.4,153,732.5,152.9z M731,157.7v-0.1c0.2-0.1,0.2-0.4,0.3-0.6c0.2,0.2,0.5,0.3,0.7,0.5c0,0.1,0,0.2,0,0.3
			c1.4,0.5,2.7,1.5,4.3,0.8c0.3,0.8,0.8,1.2,1.6,0.8c0,0.1,0,0.2,0.1,0.2c0,0,0,0.1,0.1,0.1l-0.1,0.1l0,0c-0.2,0.1-0.4,0.2-0.5,0.4
			v0.1c-0.3,0.1-0.6,0.3-0.7,0.6l0,0c-0.1,0.1-0.2,0.1-0.3,0.2c-0.4,0.1-0.9-0.1-1.2,0.4c-0.6,0.1-1-0.6-1.6-0.6l0,0
			c0-0.3-0.1-0.5-0.3-0.7c-0.8-0.5-1.4-1.2-2-1.8c-0.1,0-0.2-0.1-0.3,0C731,158,731,157.9,731,157.7z M730.2,145L730.2,145
			L730.2,145L730.2,145z M727.7,151.9L727.7,151.9L727.7,151.9C727.6,151.9,727.6,151.9,727.7,151.9
			C727.6,151.9,727.6,151.9,727.7,151.9z M726.3,163.2c1-0.9,1.6-2,2.3-3.1c0.2,0.2,0.3,0.4,0.5,0.5l0,0c0,0.1,0,0.1,0,0.2
			c-0.1,0.1-0.1,0.3,0,0.4c0.2,0.3,0.5,0.4,0.9,0.3c0.2,0.2,0.4,0.5,0.6,0.7c0.2,0.4,0.5,0.5,0.9,0.4l0,0v0.1
			c0.2,0.3,0.5,0.4,0.8,0.4v0.1c0,0.6,0.4,0.4,0.8,0.4c0.1,0,0.2-0.1,0.3-0.1c0.1,0.2,0.3,0.1,0.5-0.1c0.4,0,0.8,0,1.1,0
			s0.6,0,0.8,0c0.3-0.7,0.9-0.9,1.5-1.1c0-0.1,0.1-0.1,0.2-0.1c0-0.1,0.1-0.2,0.1-0.2c0.2-0.2,0.3-0.3,0.5-0.5l0,0
			c0.1,0,0.2,0,0.3-0.1s0.2-0.2,0.3-0.3c0-0.1,0-0.2,0-0.3l0,0c0.1-0.2,0.2-0.4,0.3-0.6c0.3-0.3,0.8-0.3,0.9-0.9l0,0
			c0.4-0.2,1-0.3,1.2-0.9l0,0c0.1,0,0.2-0.1,0.3-0.1l0,0c0.4-0.4,1.2-0.1,1.5-0.8l0,0c0.3-0.1,0.5-0.3,0.8-0.4
			c0.3-0.2,0.3-0.5,0.2-0.8c0-0.1-0.1-0.1-0.1-0.2c0-0.1,0.1-0.2,0.1-0.2c0,0.2,0,0.4,0,0.6c0.7-0.4,1.8-0.4,1.8-1.4
			c-0.1,0-0.3,0-0.4-0.1c0,0-0.1-0.1-0.2-0.1c0.1-0.4,0.7,0,1-0.1c0.1,0.2,0.1,0.5,0.1,0.7c0.2,0.4,0.2,0.9,0.5,1.3l0,0
			c-0.2,0-0.3,0.1-0.4,0.2c-0.6,0.5-0.8,1.1-0.5,1.8c0.2,0.2,0.4,0.3,0.6,0.3v0.1c0,0.1,0,0.1,0,0.1c-1.1,0.1-0.8,1.3-1.3,1.9
			c-0.3,0.5-0.5,0.9,0.4,0.9c0,0.1,0,0.1,0,0.1l0,0c-0.4,0.5-0.8,0.9-1.1,1.4c-0.9,1.7-1.8,3.4-2.7,5.2c-0.1,0-0.2,0-0.2,0
			c-0.1,1.1-0.8,1.8-1.3,2.6c-4,0.6-8.7,1.7-13.5,3.1c0-1,0.1-1.9-0.2-2.9c0-0.1,0-0.2-0.1-0.3l0,0l0,0l0,0l0,0
			c0.1-0.1,0.2-0.1,0.3-0.3c0.4-2.3-0.3-4.5-0.6-6.7c-0.1-0.4-0.2-0.7-0.5-0.9C725.7,163.7,726,163.5,726.3,163.2z M724.9,163.5
			C725,163.5,725,163.6,724.9,163.5C725,163.6,724.9,163.6,724.9,163.5C724.9,163.6,724.9,163.6,724.9,163.5z M722,175.9
			c-0.7-0.3-1.3-0.3-1.8,0.1c0,0,0,0,0-0.1c0-0.3,0-0.6-0.3-0.9c-0.3-3.4,0.6-6.8-0.5-10.2c0,0,0,0,0.1-0.1c0.3-0.2,0.6-0.4,0.9-0.6
			c0.6,0.6,0.9,1.4,1.6,1.9l0,0c0.1,0.3,0.1,0.5,0.2,0.8c-0.1,0.9,0.5,1.6,0.9,2.3c0.3,0.2,0.3,0.8,0.8,0.6l0,0
			c-0.2,0.1-0.2,0.3-0.2,0.5c0,0.1,0,0.2,0.1,0.4c0.3,0.4,0.3,0.8,0.3,1.2c0,1,0.3,1.9,0.4,2.9c0,0.1,0.1,0.1,0.1,0.2v0.1
			c-0.1,0.1-0.1,0.1-0.2,0.2C723.6,175.5,722.8,175.7,722,175.9C722,176,722,175.9,722,175.9z M741.5,171.4c0.2-0.3,0.3-0.6,0.5-1
			c0-0.2,0-0.4-0.1-0.5c0.3,0.1,0.6-0.1,0.8-0.4c0.4-0.9,0.9-1.7,1.5-2.5c0.1-0.1,0.1-0.2,0.2-0.4c0.3-0.7,0.7-1.4,1.2-2.1
			c0.2-0.7,1.2-1.2,0.4-2c0.3,0,0.5-0.1,0.7-0.4c0.3,0.2,0.5,0.2,0.7,0c-0.3,0.4-0.6,0.8,0.2,1.1c0-0.2,0.1-0.3,0.2-0.4
			c0.2,0.2,0.3,0.3,0.6,0.3c-0.2,0.4,0,0.9,0.3,1.3c0.1,0,0.1,0.1,0.2,0.1c0,0.4,0,0.7,0,1.1c-0.1,0.9-0.5,1.8,0.5,2.4
			c-0.4,0.7-0.6,1.4,0,2c0,0.1,0,0.1,0,0.2c0,0.4,0,0.7,0,1.1C747,171,744.4,171.1,741.5,171.4z M750.7,171.8
			c-0.1-1.1-0.2-2.1-0.5-3.2l0,0c0-0.6,0.1-1.2-0.3-1.7l0,0c-0.1-1,0.2-2-0.3-2.9l0,0c0.3-0.4,0.1-0.8,0-1.2c0.1,0,0.2,0,0.3-0.1
			c0,0.1,0.1,0.2,0.3,0.3l0,0c0.1,0.5,0.4,0.5,0.7,0.3c0,0.1,0,0.2,0.1,0.3c0.3,0.5,0.7,0.9,1.3,0.9c-0.2,0.4-0.1,0.8,0.3,0.9
			c0,0.6,0.3,1.1,0.6,1.5c0.2,0.4,0.4,0.8,0.7,1.2c0.5,0.5,0.8,1.1,1.2,1.6l0,0c0,0.7,0.4,1.2,0.7,1.7c0.1,0.2,0.3,0.4,0.5,0.6
			c0.1,0.1,0.2,0.1,0.3,0.1h0.1c0,0.3,0.1,0.7,0.2,1c0.1,0.3,0.2,0.5,0.3,0.8s0.2,0.5,0.4,0.7c0.3,0.4,0.6,0.9,1.1,0.9
			c0,0.1,0,0.1,0,0.2c0,0.1,0.1,0.3,0.2,0.4c0,0.1,0,0.1,0,0.2c-2.9-1.6-4.9-2.7-5.8-3.4C752.3,172.5,751.5,172.1,750.7,171.8z
			 M784.7,173.3c0,0-0.1,0-0.1-0.1C784.7,173.2,784.7,173.2,784.7,173.3L784.7,173.3z M909.4,149.5L909.4,149.5L909.4,149.5
			L909.4,149.5L909.4,149.5L909.4,149.5z M1001.5,127.8c0-0.1,0-0.1,0-0.2l0,0C1001.6,127.7,1001.6,127.7,1001.5,127.8z
			 M1005.2,125.1c-0.1-0.4-0.5-0.8-0.3-1.3c0.3-0.7,0.4-1.7,1.1-2c0.8-0.4,1.1,0.7,1.7,1c0.1,0.1,0.2,0.1,0.3,0.2
			C1007.1,123.7,1006.2,124.5,1005.2,125.1z M1058.4,156.3L1058.4,156.3C1058.4,156.3,1058.5,156.3,1058.4,156.3
			C1058.5,156.3,1058.5,156.3,1058.4,156.3C1058.5,156.3,1058.4,156.3,1058.4,156.3z M1103.9,192.4c0,0,0-0.1-0.1-0.1
			c0.1,0,0.1,0,0.2,0C1104,192.4,1104,192.4,1103.9,192.4z M1162.9,160.4c-0.9,0.1-1.9,0-2.6,0.6c-0.1,0.1-0.3,0.2-0.4,0.3
			c0.1-0.1,0.2-0.3,0.3-0.4c0.5-0.7,0.8-1.5,1.3-2.3c0.3-0.6,0.7-1.1,1.5-0.8c0.7,0.4,1.7,0.8,1.7,1.6
			C1164.6,160.5,1163.6,160.3,1162.9,160.4z M1164.5,155.1c0.2-1.1,0.9-1.8,1.6-2.5C1165.5,153.4,1165.3,154.4,1164.5,155.1z
			 M1316.9,119.3h-5.4v-13.2c0,0,1.2-2.1,2.9-2.1s2.5,1.7,2.5,1.7V119.3z M1328.1,119.8h-2.9v-12.4c0,0,0.7-2.1,1.6-2.1
			s1.3,1.7,1.3,1.7V119.8z M1345.2,117.3c-1.5,0-2.7-1.2-2.7-2.7s1.2-2.7,2.7-2.7s2.7,1.2,2.7,2.7
			C1347.9,116.1,1346.7,117.3,1345.2,117.3z M1380.5,112.7h-6.2V98.3c0,0,1.2-1.7,2.9-1.7c2.1,0,3.3,1.7,3.3,1.7L1380.5,112.7
			L1380.5,112.7z M1389.6,112.7h-2.9v-12.4c0,0,0.7-2.1,1.6-2.1s1.3,1.7,1.3,1.7V112.7z M1408.3,125.1h-2.3
			c-0.3-0.3-0.5-0.5-0.8-0.8h-3h-0.1h-3h-0.1h-2.2c-0.4-0.4-0.6-0.6-0.9-0.9l0,0c0-2.2,0.7-4,1.7-4c0.7,0,1.3,1.1,1.6,2.6
			c0.2-1.5,0.8-2.6,1.6-2.6s1.3,1.1,1.6,2.6c0.2-1.5,0.8-2.6,1.6-2.6c0.8,0,1.4,1.3,1.6,3.1c0.3-1.3,0.8-2.3,1.5-2.3
			c0.9,0,1.7,1.8,1.7,4C1408.3,124.5,1408.3,124.8,1408.3,125.1z"/>
		<path class="st1" d="M53,78.5L53,78.5L53,78.5L53,78.5z"/>
		<path class="st1" d="M564.1,109.3c0.1,0.2,0.2,0.3,0.2,0.5c0,0.3,0,0.7,0.2,1c-0.1,0.1-0.2,0.2-0.2,0.2c0.1,0,0.1,0,0.2,0
			c0.1-0.1,0.2-0.1,0.3,0.1c0.1,0.1,0.3,0.2,0.5,0.3c0.2,0.1,0.3,0.1,0.5,0.1c-0.1,0.2,0,0.3,0.1,0.4c-0.1,0.1-0.1,0.2-0.2,0.3
			c-0.1,0.3,0,0.5,0.3,0.6c0.2,0.1,0.5,0.1,0.6,0.3c0,0,0,0,0.1,0c0.2,0,0.3,0.1,0.3,0.2c0,0.2,0.1,0.4,0.1,0.6
			c0,0.5-0.1,1.1-0.1,1.6c0,0.2,0,0.4,0,0.6c0.1,0,0.2,0,0.3,0c0-0.2,0-0.4,0-0.6c0-0.1,0.1-0.3,0.2-0.2c0,0,0,0,0.1-0.1
			s0.2-0.1,0.3-0.1s0.2,0.1,0.2,0.1c0-0.3,0-0.7,0-1c0-0.2,0-0.4,0.2-0.6c0.3-0.4,0.3-0.8,0.3-1.3c0-0.1,0-0.1,0-0.2
			c-0.2-0.2,0-0.3,0-0.5c0.1,0,0.2,0,0.3,0c0.3,0,0.6,0,0.9-0.3c0.1-0.1,0.2-0.2,0.4-0.1h0.1c-0.1,0-0.1-0.1-0.1-0.1
			c-0.2-0.1-0.2-0.3,0-0.5c0.3-0.2,0.4-0.3,0.5-0.6c0-0.1,0.1-0.1,0.1-0.1l-0.1-0.1c0-0.2-0.2-0.3-0.3-0.4c0-0.1,0-0.2-0.1-0.2
			c-0.1-0.1-0.3-0.2-0.4-0.2c-0.2,0-0.3,0-0.3-0.2c0,0.2-0.1,0.3-0.2,0.4c-0.1,0.1-0.1,0.2-0.1,0.3c-0.1,0.2-0.1,0.4-0.2,0.6
			c-0.1,0.2-0.2,0.4-0.3,0.7c0,0.1-0.1,0.1-0.1,0.2l0,0c0-0.9,0.1-1.7,0.2-2.6c0.1,0,0.2,0,0.2,0s0,0,0-0.1
			c-0.4-0.2-0.4-0.2-0.3-0.6c0-0.1,0-0.2-0.1-0.3v-0.1c0-0.1,0-0.2,0-0.3c0.1,0,0.1-0.1,0.3-0.1c-0.1,0-0.2,0-0.3,0
			s-0.2-0.1-0.1-0.2c0.1-0.2,0-0.4,0-0.6c0-0.1,0-0.1,0-0.2c-0.1,0-0.1-0.1-0.1-0.2s0.1-0.2,0.1-0.2c0.1-0.2,0.2-0.3,0.2-0.5
			c0-0.1,0-0.3,0.3-0.3c-0.4-0.1-0.5-0.1-0.4-0.5c0-0.2,0-0.4-0.1-0.6c0-0.1-0.1-0.1,0-0.2c0-0.4-0.2-0.8-0.6-0.8
			c-0.2,0-0.5,0-0.6-0.3l0,0c0.1,0.2,0.1,0.3,0,0.4c0,0,0,0.1,0,0.2v0.1c-0.1,0.1-0.2,0.2-0.3,0.4c-0.1,0-0.1-0.1-0.2-0.1
			c0.2,0.2,0.2,0.2,0.1,0.5c-0.1,0.4-0.1,0.7-0.2,1.1c-0.1,0-0.2,0-0.3,0c0.1,0,0.1,0,0.1,0c0.2,0,0.3,0.1,0.3,0.3
			c0,0.2,0.1,0.4,0.3,0.6c-0.2,0.6-0.4,1.3-0.5,1.9c-0.1,0-0.2,0-0.3,0l0,0c0.3,0.1,0.3,0.3,0.4,0.5c0,0.1,0,0.2,0.1,0.2
			c0,0.1,0,0.1,0,0.2c-0.2,0.2-0.3,0.5-0.2,0.9c0,0.2,0,0.3,0,0.5c-0.1,0.2-0.1,0.4-0.1,0.6c-0.1-0.1-0.2-0.1-0.3-0.2
			c0.1-0.2,0.1-0.4,0.2-0.6c0.1-0.3,0-0.6-0.2-0.9c-0.2-0.2-0.4-0.3-0.5-0.5c-0.1-0.1-0.2-0.2-0.2-0.3c0,0.1-0.1,0.2-0.1,0.2
			c-0.1,0.1-0.3,0.1-0.5,0.1c-0.1,0-0.2,0-0.3-0.1c0.1,0.1,0.2,0.2,0.3,0.3C564,109.1,564,109.2,564.1,109.3z"/>
		<path class="st1" d="M569.6,117L569.6,117L569.6,117L569.6,117L569.6,117z"/>
		<path class="st1" d="M562.8,117.9c0,0.2-0.1,0.3-0.1,0.4c0,0.4,0.2,0.8,0.5,1.1c0.1,0.1,0.2,0.1,0.3,0.2s0.3,0.1,0.5,0.2
			c0.3-0.1,0.6-0.1,0.8,0.3c0.5-0.2,0.7-0.1,1.1,0.2c0.2-0.1,0.4-0.1,0.6,0.1c0.1,0.1,0.1,0.1,0.2,0.2s0.1,0.1,0.2,0.1
			c0.2-0.1,0.4-0.1,0.6-0.1c0.7-0.1,1.3-0.9,1.5-1.5c0-0.1,0.1-0.2,0.1-0.2c0.1-0.2,0.3-0.3,0.4-0.5l0,0c-0.1,0-0.1,0-0.2,0.1
			c-0.1-0.2-0.1-0.4,0-0.6c0-0.1,0.1-0.3,0.1-0.4c0-0.2,0.1-0.3,0.2-0.3c-0.1,0-0.2,0-0.3-0.1c-0.2-0.2-0.4-0.3-0.6-0.3
			c-0.3,0-0.5,0.1-0.5,0.3c0,0.2-0.1,0.3-0.3,0.4s-0.3,0.3-0.2,0.5c0.1,0.3,0,0.5-0.1,0.7s-0.2,0.3-0.2,0.6c-0.1,0-0.2-0.1-0.2-0.3
			c0-0.5,0.1-0.9,0.1-1.4c0-0.2,0-0.4,0-0.6s-0.1-0.3,0.1-0.4c-0.1,0-0.2,0.1-0.3,0.1c-0.2,0-0.3-0.1-0.5-0.2c0,0,0-0.1,0-0.2
			c0.1-0.8,0.2-1.7,0.1-2.5c0-0.5-0.4-0.8-0.9-0.7h-0.1c0,0.1-0.1,0.1-0.2,0.1c0,0-0.1,0-0.2,0c0,0.1,0.1,0.1,0.1,0.1
			c0.2,0.2,0.2,0.4,0.1,0.6c-0.1,0.1-0.1,0.2-0.1,0.3c0,0.2,0,0.3,0,0.4c0.1,0.4,0.1,0.8,0,1.2c-0.2-0.3-0.2-0.7-0.2-1
			c0-0.6-0.1-1.1-0.4-1.6c-0.1-0.2-0.3-0.4-0.6-0.3c-0.2,0.1-0.4,0-0.5-0.1l0,0c0.1,0.1,0.2,0.3,0,0.4v0.1c0,0.1,0,0.2,0,0.3
			c-0.2,0.3-0.2,0.6,0,0.8c0,0,0,0.1-0.1,0.1c-0.1,0.1-0.2,0.1-0.3,0.2l0,0c0.2,0,0.3,0,0.4-0.1c0.2,0.4,0.3,0.8,0.5,1.2
			c-0.1,0-0.2-0.1-0.3-0.1s-0.2-0.1-0.3-0.1c-0.2,0.2-0.3,0.1-0.4-0.1c0,0-0.1,0-0.1-0.1c0.1,0.1,0.1,0.2,0.2,0.3c0,0.1,0,0.1,0,0.2
			c-0.1,0.3-0.1,0.7,0.2,0.9c0.1,0.1,0.1,0.2,0.1,0.3c0,0.3,0.1,0.5,0.2,0.7c0.2,0.3,0.4,0.7,0.6,1.1l0,0c0,0,0,0-0.1-0.1
			c-0.3-0.4-0.6-0.7-0.8-1.1c-0.1-0.2-0.2-0.4-0.2-0.6c0-0.1,0-0.1,0-0.2c-0.2-0.2-0.3-0.5-0.3-0.8c-0.1,0.1-0.2,0.2-0.3,0.3
			l-0.1-0.1c0.2,0.1,0.1,0.3,0.1,0.5s0,0.4,0.1,0.6c-0.1,0-0.1,0-0.2,0.1C562.8,117.7,562.9,117.7,562.8,117.9z"/>
		<path class="st1" d="M570.5,113.4C570.5,113.4,570.5,113.3,570.5,113.4c-0.2-0.1-0.2-0.3-0.3-0.5c0-0.1-0.1-0.2-0.1-0.3
			c-0.1-0.2-0.3-0.3-0.3-0.6l-0.1,0.1c0,0.1-0.1,0.2-0.3,0.1c-0.1-0.1-0.3-0.1-0.3,0.1c-0.1,0.1-0.1,0.2-0.1,0.3
			c-0.1,0.1-0.2,0.3-0.2,0.4c-0.1,0.1-0.1,0.3-0.1,0.4s0,0.1,0,0.2c0.1,0.1,0,0.2-0.1,0.3c-0.1,0.1-0.1,0.2,0,0.3
			c0,0.3-0.2,0.5-0.2,0.8c0.3-0.1,0.5,0,0.6,0.2l0.1,0.1c0.2,0,0.3,0.2,0.4,0.3c0.1,0.2,0.2,0.2,0.3,0c0-0.1,0-0.2,0-0.2
			c0-0.1,0-0.1,0-0.2c0-0.2,0.1-0.4,0.3-0.4c-0.2-0.1-0.2-0.1-0.1-0.3l0.1-0.1c-0.1-0.2,0-0.4,0.1-0.6
			C570.2,113.5,570.2,113.4,570.5,113.4z"/>
		<path class="st1" d="M567.5,117.3c0.4-0.1,0.4-0.2,0.5-0.5c0-0.1,0.1-0.1,0.1-0.1l0.1-0.1c0-0.2,0.2-0.2,0.3-0.2s0.2,0.1,0.4,0.1
			s0.4,0,0.6,0c0.2,0,0.2-0.2,0.2-0.3c0-0.2-0.1-0.2-0.3-0.2c0-0.3-0.2-0.4-0.4-0.5l-0.1-0.1c-0.2-0.3-0.6-0.3-0.8,0v0.1
			c0.1,0.1,0,0.2-0.1,0.2c-0.2,0.1-0.2,0.2-0.2,0.4c0,0.2,0,0.3-0.1,0.5c-0.1,0.1-0.1,0.2-0.1,0.3c0,0.1,0,0.2,0,0.2
			C567.5,117.2,567.5,117.3,567.5,117.3z"/>
	</g>
</g>
</svg>
