<svg width="171" height="271" viewBox="0 0 171 271" fill="none" xmlns="http://www.w3.org/2000/svg">
<path d="M65.0277 270.3C43.7944 270.3 27.6944 264.467 16.7277 252.8C5.9944 241.133 0.627734 226.433 0.627734 208.7C0.627734 196.1 3.1944 183.5 8.32773 170.9C13.6944 158.067 21.2777 146.867 31.0777 137.3C40.8777 127.733 52.3111 121.317 65.3777 118.05C58.1444 112.917 52.7777 106.733 49.2777 99.5C45.7777 92.0333 44.0277 84.2167 44.0277 76.05C44.0277 63.9167 47.2944 52.0166 53.8277 40.35C60.5944 28.6833 69.8111 19.2333 81.4777 12C93.3777 4.53332 106.444 0.799988 120.678 0.799988C135.378 0.799988 147.394 4.64999 156.728 12.35C166.061 20.05 170.728 30.7833 170.728 44.55C170.728 54.8167 168.161 63.45 163.028 70.45C157.894 77.45 151.828 80.95 144.828 80.95C138.528 80.95 133.044 77.8 128.378 71.5C132.578 70.1 136.194 66.25 139.228 59.95C142.261 53.65 143.778 47.35 143.778 41.05C143.778 34.2833 141.911 29.3833 138.178 26.35C134.444 23.0833 129.894 21.45 124.528 21.45C117.761 21.45 111.578 23.9 105.978 28.8C100.611 33.4667 96.4111 39.65 93.3777 47.35C90.3444 54.8167 88.8277 62.6333 88.8277 70.8C88.8277 82 91.7444 91.9167 97.5777 100.55C103.411 108.95 112.278 114.667 124.178 117.7C112.278 120.267 101.544 126.1 91.9777 135.2C82.4111 144.3 74.9444 154.917 69.5777 167.05C64.2111 178.95 61.5277 190.383 61.5277 201.35C61.5277 211.85 64.2111 220.367 69.5777 226.9C75.1777 233.433 83.5777 236.7 94.7777 236.7C106.444 236.7 118.578 233.55 131.178 227.25C144.011 220.717 153.461 211.967 159.528 201L167.578 204.5C158.478 224.567 144.478 240.55 125.578 252.45C106.678 264.35 86.4944 270.3 65.0277 270.3Z" fill="white" fill-opacity="0.2"/>
</svg>
