<svg width="206" height="261" viewBox="0 0 206 261" fill="none" xmlns="http://www.w3.org/2000/svg">
<path d="M78.6826 40.4L130.483 33.4L105.633 150.3C116.833 149.367 127.099 144.467 136.433 135.6C145.999 126.733 153.466 115.767 158.833 102.7C164.199 89.6333 166.883 76.8 166.883 64.2C166.883 50.2 163.266 38.7667 156.033 29.9C148.799 21.0333 137.949 16.6 123.483 16.6C95.016 16.6 72.7326 24.0666 56.6326 39C40.766 53.9333 32.8326 74.8167 32.8326 101.65C32.8326 110.283 33.6493 116.35 35.2826 119.85C36.916 123.117 37.7326 124.983 37.7326 125.45C25.1326 125.45 15.6826 122.883 9.38262 117.75C3.31595 112.383 0.282617 103.633 0.282617 91.5C0.282617 76.5667 6.34928 62.1 18.4826 48.1C30.8493 33.8667 46.5993 22.4333 65.7326 13.8C84.866 4.93332 103.999 0.499979 123.133 0.499979C141.566 0.499979 156.966 3.64998 169.333 9.94998C181.699 16.25 190.799 24.65 196.633 35.15C202.699 45.4167 205.733 56.85 205.733 69.45C205.733 84.6167 201.533 99.4333 193.133 113.9C184.966 128.367 173.183 140.267 157.783 149.6C142.383 158.7 124.649 163.25 104.583 163.25H102.833L81.4826 263H31.0826L78.6826 40.4Z" fill="white" fill-opacity="0.2"/>
</svg>
