<?xml version="1.0" encoding="utf-8"?>
<!-- Generator: Adobe Illustrator 23.0.3, SVG Export Plug-In . SVG Version: 6.00 Build 0)  -->
<svg version="1.1" id="Capa_1" focusable="false" xmlns="http://www.w3.org/2000/svg" xmlns:xlink="http://www.w3.org/1999/xlink"
	 x="0px" y="0px" viewBox="0 0 512 512" style="enable-background:new 0 0 512 512;" xml:space="preserve">
<style type="text/css">
	.st0{fill:#FFFFFF;stroke:#000000;stroke-miterlimit:10;}
</style>
<g>
	<path class="st0" d="M256,288c79.5,0,144-64.5,144-144S335.5,0,256,0S112,64.5,112,144S176.5,288,256,288z M384,320h-55.1
		c-22.2,10.2-46.9,16-72.9,16s-50.6-5.8-72.9-16H128C57.3,320,0,377.3,0,448v16c0,26.5,21.5,48,48,48h416c26.5,0,48-21.5,48-48v-16
		C512,377.3,454.7,320,384,320z"/>
</g>
</svg>
