<?xml version="1.0" encoding="utf-8"?>
<!-- Generator: Adobe Illustrator 25.2.1, SVG Export Plug-In . SVG Version: 6.00 Build 0)  -->
<svg version="1.1" id="Capa_1" xmlns="http://www.w3.org/2000/svg" xmlns:xlink="http://www.w3.org/1999/xlink" x="0px" y="0px"
	 viewBox="0 0 1000 1000" style="enable-background:new 0 0 1000 1000;" xml:space="preserve">
<style type="text/css">
	.st0{fill:#E2213C;}
	.st1{fill:#FFFFFF;}
	.st2{fill:none;}
</style>
<g>
	<circle class="st0" cx="500" cy="500" r="495"/>
	<circle class="st1" cx="500" cy="500" r="360"/>
	<g>
		<path class="st0" d="M375.5,682c12.6-0.1,22.6,2.8,30.4,11.5c3,3.4,3,4.1-0.9,6.2c-0.3,0.2-0.7,0.3-1,0.5c-7,3.7-7,3.7-13.1-1.4
			c-10.9-9.3-31.5-4.5-37.6,9.2c-5.3,11.8-5,23.9,0.3,35.6c7.6,16.7,31.3,15.6,39.8,7.1c4.4-4.4,3.6-4.9,10.1-1
			c6.3,3.7,6.5,4.5,0.7,9.4c-12.6,10.7-27.1,12.6-42.5,7.8c-14.7-4.7-22.6-15.8-25.6-30.5c-1.6-7.5-1.5-15.1,0.2-22.6
			C340.8,693.6,355.8,681.9,375.5,682z"/>
		<path class="st0" d="M419.3,726.7c0-12,0.1-24-0.1-36c0-3.3,0.9-5.3,4.1-6.4c2-0.7,3.8-1.7,5.7-2.5c3.6-1.6,4-1.3,4.1,2.5
			c0,6.9,0,13.7,0,20.6c0,1.3-0.5,3,0.7,3.8c1.4,0.9,2.4-0.8,3.4-1.5c16.6-11.2,38.1-1,40,18.9c1.2,12.6,0.3,25.2,0.6,37.8
			c0.1,2.8-1.2,4-4,4c-11.9,0-10.3,0.9-10.4-9.7c-0.1-9.4,0.1-18.9,0-28.3c-0.1-11.4-7.5-17.3-18.7-15.1c-6.3,1.3-10,5.1-10.9,11.7
			c-1.2,8.7-0.4,17.4-0.6,26.1c-0.1,3.9-0.1,7.8,0,11.8c0,2.3-1.1,3.4-3.3,3.4c-0.2,0-0.5,0-0.7,0c-11.1,0.1-9.7,0.7-9.8-9.2
			C419.3,748,419.3,737.3,419.3,726.7z"/>
		<path class="st0" d="M537.6,540.8c7.4,1.9,14.3,5.1,20.8,9.1c3.3,2.1,5.5,1.8,7.6-1.4c0.7-1.1,1.8-2,2.7-3
			c3.6-4.1,4.3-4.3,5.2,0.9c2.4,12.4,9.3,21,19.6,27.7c3.6,2.4,6.5,5.8,10.1,9.1c-3.2,1.4-6.1,0.7-8.9,0.6c-2.6-0.1-5.1-0.3-7.7-0.5
			c-2.8-0.3-4.1,0.8-3.9,3.7c0.4,6.3,0.7,12.7,1.1,19.1c0.2,3.1,0.5,6.3-0.5,9.6c-1.8-3.3-3.6-6.6-5.3-9.9
			c-3.2-6.2-6.4-12.4-9.4-18.7c-1.1-2.3-2.5-3.4-5.1-3.1c-6.8,0.7-13.6,1.4-20.5,2c-1.3,0.1-3,0.9-3.7-0.6c-0.6-1.2,0.9-2.1,1.6-3
			c3.7-4.7,7.4-9.5,11.2-14.1c2-2.4,2.2-4.5,0.5-7.2C548.5,553.9,543.2,547.3,537.6,540.8z"/>
		<path class="st0" d="M529.4,723.9c0,13,0,26,0,38.9c0,4.7-0.4,5-5,5.1c-8.9,0.1-8.9,0.1-8.9-8.6c0-22.4,0.1-44.8-0.1-67.2
			c0-4.3,1.2-6.7,5.3-8.4c8.8-3.7,8.7-3.9,8.7,5.7C529.4,700.8,529.4,712.3,529.4,723.9z"/>
		<path class="st0" d="M653.2,725.4c-1.2-5.6-2.2-10.2-3.3-14.8c-1-4.1-1.4-4.2-4.7-1.9c-2,1.4-4,2.9-6,4.3
			c-0.8,0.6-1.7,1.4-2.6,0.8c-1-0.8-0.1-1.8,0.3-2.6c2.4-5.1,4.2-10.4,5.9-15.8c0.7-2.2,0.6-4.2-0.3-6.4c-2.2-5.5-4.8-10.7-8.4-15.4
			c-0.6-0.7-1.7-1.5-0.9-2.5c0.7-0.9,1.8-0.4,2.7-0.1c2.8,0.8,5.7,1.5,8.4,2.6c2.4,1,3.5,0.7,3.9-2.1c1.1-7.3,1.9-14.5,2.2-22.8
			c2,3.9,2.5,7.4,3.1,10.7c0.8,4.8,1.6,9.7,1.9,14.5c0.3,3.7,2,6,5.2,7.7c5,2.7,5.2,3.2,1.6,7.5c-5,5.9-6.8,12.4-6.5,20
			C656,714,654.9,719.2,653.2,725.4z"/>
		<path class="st0" d="M503.7,738.7c0,8.2-0.1,16.4,0,24.6c0,3.3-1.1,4.6-4.5,4.6c-10.5-0.1-9.4,0.6-9.5-9.2c0-14.7,0-29.4,0-44.1
			c0-4.9,0.4-5.2,5.2-5.3c8.7-0.1,8.7-0.1,8.7,8.4C503.7,724.7,503.7,731.7,503.7,738.7C503.7,738.7,503.7,738.7,503.7,738.7z"/>
		<path class="st0" d="M602.6,638.2c2.5,2.1,3.6,5.1,5.1,7.8c4.7,8,3.6,6.9,11.6,5.1c1.5-0.3,3.5-1.6,4.5-0.4c1.1,1.3-0.7,3-1.5,4.1
			c-5.3,6.9-6.6,14.2-2.4,22.1c0.7,1.3,1,2.8,1.3,4.2c0.2,0.9,1,2-0.1,2.7c-1,0.6-1.8-0.5-2.5-1.1c-1.8-1.4-3.7-2.9-5.3-4.5
			c-1.9-1.9-3.3-1.5-4.7,0.5c-2.6,3.8-5.4,7.5-8.9,11.1c0.2-3.3,0.5-6.6,0.7-9.9c0-0.6,0.2-1.2,0.3-1.8c1.1-7.7,1.1-7.8-5.6-11.6
			c-1.8-1.1-3.6-2.1-5.4-3.2c-0.7-0.4-1.8-0.8-1.7-1.7c0.1-1.2,1.3-1.3,2.2-1.6c2.2-0.8,4.3-1.8,6.6-2.4c3.9-1,5.2-3.3,5-7.2
			c-0.2-3.8,0-7.6,0.1-11.4C602,638.8,602.3,638.6,602.6,638.2z"/>
		<path class="st0" d="M621.9,601.6c0.8,1.1,1.5,2.3,2.3,3.3c2.3,3.2,5.1,5.2,9.3,3.5c1.1-0.5,2.7,0,2.1,1.4
			c-3.1,7.2,1.2,12.9,3.6,19c-0.8,0.5-1.1,0-1.4-0.2c-4.7-3.6-4.7-3.6-7.3,2c-1.4-8.2-4.6-14.9-13.6-16c0.5-2,1.7-1.9,2.5-2.1
			c5-1.7,5-1.6,2.8-6.5c-0.5-1.1-1-2.2-1.4-3.3C621.1,602.3,621.5,601.9,621.9,601.6z"/>
		<path class="st0" d="M560.5,618.6c3.5,2.6,6.5,6.2,11.7,5.5c1.7-0.2,2.4,1.7,1.9,3.2c-0.9,2.9,0.3,5.2,1.9,7.4
			c0.3,0.8,1.1,1.3,1.4,2c0.8,2-0.3,1.6-1.5,1.1c-5.5-3.3-4.3,2.9-6.6,4.7c-1.7-2-2.3-4.6-3-6.9c-1.1-3.7-3.2-6.2-6.9-7.4
			c-1.1-0.4-2.2-1-3.3-1.6c-0.6-0.3-1.4-0.7-1.2-1.6c0.2-0.8,1.1-1,1.8-1c4.5,0.2,3.8-2,2.1-4.6
			C558.7,617.9,559.5,618.1,560.5,618.6z"/>
		<path class="st0" d="M634.7,758.4c-0.2-3.6-3.4-1.8-5.9-3.1c7.6-3.9,9-10.7,8.7-18.2c2.8,0.4,2.3,4.3,4.8,3.4
			c1.6-0.6,2.7-2.3,4.1-3.5c0.5,0.9-0.1,1.6-0.5,2.3c-2,3.8-3.2,7.6-1.5,11.9c0.7,1.8,0,3.4-1.9,3.6c-3.3,0.4-4.7,2.7-6.2,5.1
			c-0.5,0.4-0.9,1.3-1.6,0.7C634.1,760.1,634.3,759.1,634.7,758.4z"/>
		<path class="st0" d="M496.7,704.6c-1.1,0-2.2,0-3.3,0c-1.5,0-3-0.3-3.4-2.1c-0.4-1.9-0.3-3.8,1.6-4.8c3-1.6,6.1-3,9.2-4.4
			c1.5-0.7,2.7-0.3,2.8,1.6c0.1,2.3,0.1,4.6,0,6.9c-0.1,1.8-1.2,2.6-2.9,2.7C499.4,704.6,498,704.6,496.7,704.6
			C496.7,704.6,496.7,704.6,496.7,704.6z"/>
		<path class="st0" d="M575.9,637.8c1-1,0.2-2,0.1-3.1c2.7,2,4.3,5,6.1,7.9C580,641.1,577.9,639.5,575.9,637.8z"/>
		<path class="st0" d="M634.7,758.4c0.2,0.9,0.7,1.5,1.6,1.6c-0.7,1.8-1.4,3.7-3.4,6C633.2,762.7,633.8,760.5,634.7,758.4z"/>
		<path class="st0" d="M560.5,618.6c-0.6,0.3-1.1,0.5-1.7,0.8c-1.2-1.4-2.4-2.7-2.9-5.2C558.1,615.5,559.3,617.1,560.5,618.6z"/>
		<path class="st0" d="M577.5,703.8c-4.1-0.8-8.3-0.8-12.4-0.3c-11.5,1.5-19.9,7.3-24.1,18.4c-2.8,7.4-3.3,15.1-1.5,22.8
			c2.5,10.9,8.5,19,19.4,22.6c12,4,23.4,2.3,34-4.8c0.9-0.6,1.4-1.2,1-2.4c-1.7-4.1-7.3-6.4-11.3-4.6c-1.8,0.8-3.6,1.5-5.5,2
			c-11.3,2.8-20.9-2.2-23.7-12.3c-1-3.6-0.4-4.5,3.3-4.5c6.6-0.1,13.2,0,19.9,0c0,0,0,0,0,0c6.7,0,13.5,0,20.2,0
			c2.2,0,3.9-0.4,4.1-3.1C601.9,723,595.2,707.1,577.5,703.8z M582.5,730.7c-4.3,0.1-8.6,0-12.9,0c0,0,0,0,0,0c-4.5,0-9.1,0-13.6,0
			c-2.4,0-3.3-1-3-3.4c0.8-7.2,7.3-12.8,15.4-13.1c9.5-0.4,16.3,4.2,17.8,11.8C586.9,729.8,586.4,730.6,582.5,730.7z"/>
	</g>
	<path class="st0" d="M454,478.1c-10.9,0.3-19-4.7-24.3-13.8c-21.6-37.1-43.1-74.2-64.2-111.5c-7.4-13.1-3.7-28,7.8-35.9
		c11.9-8.1,26.2-6.3,36.2,5.3c13.8,16,27.3,32.2,40.5,48.6c5.1,6.5,8,7.8,14.4,0.7c46.1-50.5,94.6-98.7,145.3-144.7
		c10.9-9.8,21.4-10.7,30-2.4c8.3,8,8.3,18.3-0.2,29.4c-20,26-42.4,49.9-63.9,74.5c-36.2,41.6-65.9,87.8-96.2,133.6
		C471.6,473.4,464.7,478,454,478.1z"/>
	<path id="SVGID_x5F_1_x5F_" class="st2" d="M110.2,500c0-215.3,174.5-389.8,389.8-389.8S889.8,284.7,889.8,500
		S715.3,889.8,500,889.8S110.2,715.3,110.2,500z"/>
	<text>	<textPath  xlink:href="#SVGID_x5F_1_x5F_" startOffset="100.1648%">
<tspan  class="st1" style="font-family:'MyriadPro-Bold'; font-size:99px;">CONFIANZA   TURÍSTICA</tspan>	</textPath>
</text>
	<path id="SVGID_x5F_2_x5F_" class="st2" d="M500,951.7c249.5,0,451.7-202.2,451.7-451.7S749.5,48.3,500,48.3S48.3,250.5,48.3,500
		S250.5,951.7,500,951.7z"/>
	<text>	<textPath  xlink:href="#SVGID_x5F_2_x5F_" startOffset="337.4314%">
<tspan  class="st1" style="font-family:'MyriadPro-Semibold'; font-size:59.4px;">COMPROMISO PROTOCOLOS COVID - 19</tspan>	</textPath>
</text>
	<polygon class="st1" points="73.5,471.5 83,490.8 104.4,493.9 89,509 92.6,530.3 73.5,520.3 54.4,530.3 58,509 42.6,493.9 
		63.9,490.8 	"/>
	<polygon class="st1" points="924.8,471.5 934.4,490.8 955.7,493.9 940.3,509 943.9,530.3 924.8,520.3 905.7,530.3 909.3,509 
		893.9,493.9 915.2,490.8 	"/>
</g>
</svg>
