<svg width="240" height="261" viewBox="0 0 240 261" fill="none" xmlns="http://www.w3.org/2000/svg">
<path d="M73.9055 302.9C65.2721 302.9 57.6888 302.2 51.1555 300.8C44.6221 299.4 38.9055 296.017 34.0055 290.65C29.3388 285.283 27.0055 277 27.0055 265.8C27.0055 250.167 31.6721 229.167 41.0055 202.8C50.5721 176.433 63.0555 149.95 78.4555 123.35C66.7888 124.05 57.5721 125.8 50.8055 128.6C44.0388 131.4 39.6055 135.717 37.5055 141.55C38.4388 141.55 39.3721 142.717 40.3055 145.05C41.4721 147.383 42.0555 149.833 42.0555 152.4C42.0555 156.6 40.1888 159.983 36.4555 162.55C32.7221 164.883 28.0555 166.05 22.4555 166.05C15.9221 166.05 10.6721 164.3 6.70547 160.8C2.7388 157.3 0.755469 152.283 0.755469 145.75C0.755469 137.817 3.7888 130.583 9.85547 124.05C16.1555 117.517 24.7888 112.383 35.7555 108.65C46.7221 104.683 58.8555 102.7 72.1555 102.7C77.0555 102.7 83.1221 103.05 90.3555 103.75C109.489 73.4167 129.672 48.6833 150.905 29.55C172.372 10.1833 192.789 0.499979 212.155 0.499979C223.355 0.499979 232.572 2.13331 239.805 5.39998L184.855 263H134.455L161.405 135.95C152.772 131.983 144.839 129.067 137.605 127.2C130.372 125.333 122.672 124.05 114.505 123.35C101.205 152.05 90.2388 181.45 81.6055 211.55C73.2055 241.417 69.0055 265.333 69.0055 283.3C69.0055 292.167 70.6388 298.7 73.9055 302.9ZM184.855 25.35C174.822 30.7167 164.322 40.75 153.355 55.45C142.622 69.9167 132.122 87.5333 121.855 108.3C138.655 111.567 152.889 115.65 164.555 120.55L184.855 25.35Z" fill="white" fill-opacity="0.2"/>
</svg>
