<svg width="157" height="166" viewBox="0 0 157 166" fill="none" xmlns="http://www.w3.org/2000/svg">
<path d="M52.4834 15.3C42.5101 18.82 34.8834 24.3933 29.6034 32.02C24.4701 39.5 21.9034 48.5933 21.9034 59.3C21.9034 63.9933 22.4168 68.32 23.4434 72.28C24.4701 76.0933 25.9368 79.2467 27.8434 81.74C18.4568 81.74 11.4901 79.8333 6.94344 76.02C2.54344 72.06 0.343438 66.0467 0.343438 57.98C0.343438 47.7133 3.3501 38.18 9.36344 29.38C15.3768 20.4333 23.5168 13.32 33.7834 8.03999C44.0501 2.75999 55.1968 0.119998 67.2234 0.119998C70.5968 0.119998 73.5301 0.339995 76.0234 0.77999C78.5168 1.21999 81.3768 2.02666 84.6034 3.2L111.003 120.9L135.643 1.43999H156.983L121.123 166H90.7634L65.2434 56.88L40.1634 166H19.2634L52.4834 15.3Z" fill="white" fill-opacity="0.2"/>
</svg>
