<svg width="203" height="261" viewBox="0 0 203 261" fill="none" xmlns="http://www.w3.org/2000/svg">
<path d="M150.997 268.95C132.797 268.95 123.697 261.133 123.697 245.5C123.697 240.367 124.397 234.533 125.797 228C127.431 221.233 129.647 212.6 132.447 202.1C135.714 191.133 138.164 181.8 139.797 174.1C141.431 166.4 142.247 159.517 142.247 153.45C142.247 137.583 135.247 129.65 121.247 129.65C117.514 129.65 113.664 130.117 109.697 131.05L81.6975 263H31.2975L78.8975 40.4L130.697 33.4L113.547 114.25H116.347C125.447 114.25 133.847 111.1 141.547 104.8C149.247 98.5 155.197 90.6833 159.397 81.35C163.831 71.7833 166.047 62.45 166.047 53.35C166.047 42.6167 162.781 33.8667 156.247 27.1C149.947 20.1 140.381 16.6 127.547 16.6C108.647 16.6 92.0808 19.9833 77.8475 26.75C63.6141 33.5167 52.5308 43.3167 44.5975 56.15C36.8975 68.9833 33.0475 84.15 33.0475 101.65C33.0475 110.283 33.8641 116.35 35.4975 119.85C37.1308 123.117 37.9475 124.983 37.9475 125.45C25.3475 125.45 15.8975 122.883 9.59746 117.75C3.53079 112.383 0.497461 103.633 0.497461 91.5C0.497461 76.5667 6.56413 62.1 18.6975 48.1C31.0641 33.8667 46.8141 22.4333 65.9475 13.8C85.0808 4.93332 104.214 0.499979 123.347 0.499979C140.847 0.499979 155.547 3.06665 167.447 8.19998C179.347 13.3333 188.214 20.2167 194.047 28.85C199.881 37.25 202.797 46.4667 202.797 56.5C202.797 67.4667 199.414 78.4333 192.647 89.4C185.881 100.367 176.664 109.35 164.997 116.35C173.864 118.917 180.047 123.233 183.547 129.3C187.281 135.133 189.147 142.483 189.147 151.35C189.147 158.117 188.331 165.35 186.697 173.05C185.064 180.517 182.731 189.85 179.697 201.05C177.831 208.283 176.081 215.4 174.447 222.4C172.814 229.4 171.997 235.233 171.997 239.9C171.997 245.267 173.164 250.05 175.497 254.25C178.064 258.45 181.447 261.367 185.647 263C171.414 266.967 159.864 268.95 150.997 268.95Z" fill="white" fill-opacity="0.2"/>
</svg>
