<?xml version="1.0" encoding="utf-8"?>
<!-- Generator: Adobe Illustrator 25.2.1, SVG Export Plug-In . SVG Version: 6.00 Build 0)  -->
<svg version="1.1" id="Capa_1" xmlns="http://www.w3.org/2000/svg" xmlns:xlink="http://www.w3.org/1999/xlink" x="0px" y="0px"
	 viewBox="0 0 1000 1000" style="enable-background:new 0 0 1000 1000;" xml:space="preserve">
<style type="text/css">
	.st0{fill:#F0CD14;}
	.st1{fill:#D2B075;}
	.st2{fill:#D0AD70;}
	.st3{fill:#D8B170;}
	.st4{fill:#CFAC71;}
	.st5{fill:#D3AF73;}
	.st6{fill:#D6AE68;}
	.st7{fill:#D8B16F;}
	.st8{fill:#DBB068;}
	.st9{fill:#D6B172;}
	.st10{fill:#D0AB6E;}
	.st11{fill:#D2AD70;}
	.st12{fill:#D5AE6D;}
	.st13{fill:#D4AE6E;}
	.st14{fill:#D7B06E;}
	.st15{fill:#D6AF6E;}
	.st16{fill:#CEAC72;}
	.st17{fill:#D2AE70;}
	.st18{fill:#FFFFFF;}
	.st19{fill:#9F3E45;}
	.st20{fill:#4F8E3A;}
	.st21{fill:#A08B5C;}
	.st22{fill:#D0B64E;}
	.st23{fill:#C8A958;}
	.st24{fill:#8B8858;}
	.st25{fill:#D0B646;}
	.st26{fill:#C2B177;}
	.st27{fill:#CCAF6C;}
	.st28{fill:#C1B076;}
	.st29{fill:#C3B075;}
	.st30{fill:#DBBC7C;}
	.st31{fill:#C0AA7D;}
	.st32{fill:#C2AB7C;}
	.st33{fill:#C8AE7D;}
	.st34{fill:#D3B073;}
	.st35{fill:#DBC170;}
	.st36{fill:#C1A774;}
	.st37{fill:#B5A978;}
	.st38{fill:#CFB973;}
	.st39{fill:#CAB973;}
	.st40{fill:#BDA87C;}
	.st41{fill:#AAA172;}
	.st42{fill:#BDA676;}
	.st43{fill:#CFB479;}
	.st44{fill:#DDC071;}
	.st45{fill:#BAAA79;}
	.st46{fill:#C3AB7D;}
	.st47{fill:#D0AC6F;}
	.st48{fill:#C1A97A;}
	.st49{fill:#DABA77;}
	.st50{fill:#CAAE79;}
	.st51{fill:#D4B773;}
	.st52{fill:#DDC275;}
	.st53{fill:#B9A275;}
	.st54{fill:#BDA678;}
	.st55{fill:#C5AC7A;}
	.st56{fill:#DEC377;}
	.st57{fill:#DEC174;}
	.st58{fill:#D6BA78;}
	.st59{fill:#DAB66F;}
	.st60{fill:#CCB96C;}
	.st61{fill:#D7B977;}
	.st62{fill:#C3AE78;}
	.st63{fill:#CEB079;}
	.st64{fill:#D7B874;}
	.st65{fill:#C4AA79;}
	.st66{fill:#C2A97A;}
	.st67{fill:#D7B976;}
	.st68{fill:#C1AA7B;}
	.st69{fill:#BCAD7D;}
	.st70{fill:#DDBA77;}
	.st71{fill:#DCC171;}
	.st72{fill:#C2A979;}
	.st73{fill:#C3AB7B;}
	.st74{fill:#C6AB78;}
	.st75{fill:#D9B975;}
	.st76{fill:#5695CC;}
	.st77{fill:#D7A352;}
	.st78{fill:#D7A354;}
	.st79{fill:#D4A251;}
	.st80{fill:#D9A866;}
	.st81{fill:#D6A967;}
	.st82{fill:#D8B946;}
	.st83{fill:#C5B175;}
	.st84{fill:#CBB676;}
	.st85{fill:#D5BE6E;}
	.st86{fill:#D0BA70;}
	.st87{fill:#D1BB71;}
	.st88{fill:#D7AC5F;}
	.st89{fill:#BEAB78;}
	.st90{fill:#C1AF76;}
	.st91{fill:#C0B578;}
	.st92{fill:#B9B07A;}
	.st93{fill:#CABB73;}
	.st94{fill:#C5B875;}
	.st95{fill:#CFBC76;}
	.st96{fill:#3F3D39;}
	.st97{fill:#AEA998;}
	.st98{fill:#EACFC0;}
	.st99{fill:#C9393A;}
	.st100{fill:#3C3B39;}
	.st101{fill:#E9CBC0;}
	.st102{fill:#AC7A81;}
	.st103{fill:#AD7A81;}
	.st104{fill:#3C3C3C;}
	.st105{fill:#B0BDC8;}
	.st106{fill:#F3F0D0;}
	.st107{fill:#F2EFD0;}
	.st108{fill:#A5A398;}
	.st109{fill:#CDCAB7;}
	.st110{fill:#686667;}
	.st111{fill:#818080;}
	.st112{fill:#403E3A;}
	.st113{fill:#43413F;}
	.st114{fill:#403E3E;}
	.st115{fill:#54504C;}
	.st116{fill:#43413D;}
	.st117{fill:#413F3F;}
	.st118{fill:#444242;}
	.st119{fill:#454544;}
	.st120{fill:#424040;}
	.st121{fill:#454341;}
	.st122{fill:#464440;}
	.st123{fill:#474543;}
	.st124{fill:#3F3F3F;}
	.st125{fill:#45433F;}
	.st126{fill:#44423E;}
	.st127{fill:#484644;}
	.st128{fill:#4E4C4A;}
	.st129{fill:#52504C;}
	.st130{fill:#4D4B49;}
	.st131{fill:#211915;}
	.st132{font-family:'MyriadPro-Regular';}
	.st133{font-size:63.8975px;}
	.st134{letter-spacing:3;}
</style>
<g>
	<path class="st0" d="M483.4,232.3c77.3,0,154.5,0,231.8,0c3.6,0,3.3-0.6,3.4,3.3c0.8,45.1,0.6,90.2,0.3,135.3
		c-0.5,71.6-0.6,143.2,0,214.8c0.3,30.2-7,58.1-18.5,85.4c-9.6,22.8-23.5,43-39.1,62c-17.1,20.9-38.4,36.5-61.6,49.8
		c-23.3,13.4-48.5,21.2-74.8,25.7c-17.1,2.9-34.3,4-51.5,3.3c-34.5-1.4-67-10.4-97.4-26.9c-14.2-7.7-28-16-40.5-26.3
		c-14.3-11.8-26.7-25.4-38.1-40.1c-22.5-29.3-37.6-62-47-97.6c-2.5-9.3-2.7-18.8-2.7-28.4c-0.2-72.7-0.2-145.4-0.3-218.1
		c0-9.2-0.2-18.4-0.2-27.6c0.1-33.5,0.2-66.9,0.4-100.4c0-4.2,0.3-8.4,0.4-12.5c0-1.4,0.5-2,1.9-1.8c0.7,0.1,1.3,0,2,0
		C329,232.3,406.2,232.3,483.4,232.3z"/>
	<g>
		<path class="st0" d="M499.6,53.5c10.8,0.3,21.4,1.8,32,3.4c19.7,3,39,7.6,57.8,14.2c28,9.8,55.2,21.5,80.9,36.6
			c2.1,1.3,5.1,2.3,5.8,4.5c0.8,2.2-2,4.2-3,6.4c-0.6,1.3-1.4,2.5-2.1,3.7c-1.8,3.1-1.8,3.2-5.2,1.5c-6-3.1-12-6.3-18.1-9.5
			c-29-15.1-59.2-27.1-91-34.9c-12.8-3.1-25.8-5.4-39-6.9c-14.6-1.7-29.2-2.7-43.9-2.4c-47.1,1-92.3,11.2-135.8,29.3
			c-13.2,5.5-26.2,11.7-38.8,18.5c-2.1,1.1-4.4,1.9-6.5,3c-1.4,0.7-2,0.2-2.6-1.2c-1.6-4.1-3.2-8.2-5-12.2c-0.7-1.5-0.3-2.2,1-3
			c5.7-3.6,11.8-6.4,17.8-9.3C325.8,85,347.9,75.8,371,68.9c18-5.4,36.3-9.7,55-12.4c19.1-2.8,38.3-4.1,57.7-3.9
			c3.3,0,6.6,0.3,9.9,0.5C495.5,53.7,497.6,53,499.6,53.5z"/>
		<path class="st0" d="M365.1,110.9c1-0.2,1.2,0.5,1.5,1.2c3.7,10.4,7.4,20.8,11.2,31.2c0.6,1.7-0.2,2.1-1.5,2.7
			c-9.6,4.2-19.1,8.3-28.6,12.6c-8.7,4-16.9,8.8-25,13.8c-2.2,1.3-4.6,3.7-6.8,3.2c-2-0.5-2.5-4-3.6-6.2
			c-4.2-8.6-8.3-17.2-12.7-25.8c-1-2-0.6-2.9,1-4.1c7-5.4,14.8-9.5,22.7-13.3c12.5-6,25.3-11.3,38.9-14.7
			C363.1,111.3,364.1,111.1,365.1,110.9z"/>
		<path class="st0" d="M486.5,90.8c1.2,0,2.4,0,3.5,0c3,0.4,5.9,0.1,8.9,0.2c0.9,0,1.8-0.2,2.7,0.2c5.6-0.1,11.2,0.8,16.7,2
			c1.7,0.4,2.4,0.9,2.2,2.9c-1.3,10.1-2.4,20.3-3.5,30.5c-0.2,1.4-0.9,1.4-1.8,1.3c-3.7,0-7.4-0.1-11.2-0.2
			c-2.7-0.5-5.4,0.2-8.1-0.4c-1.5,0-2.9-0.1-4.4-0.1c-4.6-0.3-9.3-0.3-13.9,0c-9.6,0.7-19.1,1.7-28.7,1.7c-2.3,0-3-0.8-3.1-2.9
			c-0.6-9.1-1.4-18.3-2-27.4c0-0.2,0-0.3,0-0.5c-0.6-5.2-0.5-5,4.8-5.5c7.7-0.7,15.3-1.5,23-1.5c3.9-0.5,7.9-0.1,11.8-0.2
			C484.4,90.9,485.5,91.2,486.5,90.8z"/>
		<path class="st0" d="M441.3,127.4c1,2.6-1.3,2.7-3.2,2.9c-15,1.8-29.7,5.3-44,10.1c-2.7,0.9-5.3,1.8-7.9,2.9
			c-1.6,0.7-2.4,0.4-3.3-1.2c-3.2-6.2-5.7-12.8-8.2-19.2c-1.5-3.9-2.9-7.8-4.4-11.6c-0.5-1.3-0.3-1.8,1.1-2.1
			c15-3.9,29.6-9.3,44.9-12.1c7-1.3,14-2.2,21-3.1c1.1-0.1,1.5,0.3,1.6,1.3C439.6,105.8,440.4,116.3,441.3,127.4z"/>
		<path class="st0" d="M661.4,145.3c-0.3,0.6-0.6,1-0.8,1.4c-5.3,9.6-10.7,19.2-16,28.8c-1,1.9-1.9,1.8-3.4,0.7
			c-10.8-8.1-21.3-16.4-33.1-23c-6.4-3.7-13.1-6.7-20.2-8.6c-1.5-0.4-1.6-1-1.1-2.2c3.2-8.5,6.5-16.9,9.6-25.4
			c0.7-1.9,1.9-1.7,3.3-1.3c7.9,2,15.3,5.4,22.7,8.5c13.3,5.6,25.6,12.7,37.8,20.3C660.6,144.7,661,145,661.4,145.3z"/>
		<path class="st0" d="M580.3,141.6c-7.4-1.1-14.7-3.3-22-5.4c-11.2-3.1-22.4-5.4-34-6.4c-2-0.2-3.4-0.4-3-3.2
			c1.1-7.3,1.8-14.7,2.7-22c0.3-2.3,0.7-4.6,0.8-6.9c0.1-2.3,0.9-3.2,3.3-2.9c8.4,1,16.6,2.7,24.8,4.8c13,3.3,25.6,7.7,38.4,11.4
			c1.7,0.5,1.9,1.2,1.3,2.8c-3.6,8.8-7,17.6-10.5,26.4C581.8,140.8,581.8,142.1,580.3,141.6z"/>
		<path class="st0" d="M463.6,83.6c-42.9,2-84.1,11.6-123.5,28.9c-7.7,3.4-15.6,6.5-23.3,9.9c-1.7,0.7-2.3,0.3-3-1.2
			c-1.6-3.4-1.7-3.4,1.7-4.7c16.5-6.7,32.8-14.2,49.8-19.8c18.5-6.2,37.3-11.2,56.5-14.4c12.8-2.2,25.6-4,38.6-4.2
			c2.8-0.6,5.7,0.2,8.6-0.4c6.2-0.2,12.3-0.3,18.5,0c2.8,0.6,5.7-0.2,8.5,0.4c10.1,0.1,20.1,1.5,30.1,3c17.8,2.5,35.3,6.8,52.5,12.1
			c16.8,5.1,32.9,12.1,48.6,20c6.3,3.1,12.8,5.8,19.3,8.6c1.4,0.6,1.8,1.1,1.1,2.5c-2.8,5.5-1.1,5.5-6.9,2.8
			c-8.9-4.1-17.5-8.7-26.4-12.9c-21.3-10-43.5-17.2-66.3-22.5c-11.2-2.6-22.5-4.6-33.9-5.9c-8.5-1-17.1-1.5-25.7-2.2
			c-1.3-0.4-2.6-0.1-3.9-0.2C477.6,83.5,470.6,83.2,463.6,83.6z"/>
		<path class="st0" d="M393.9,191.4c0.2,1.5-0.9,1.4-1.6,1.6c-14.8,4.5-28.2,11.8-41.3,19.8c-2.8,1.7-5.4,3.6-8,5.5
			c-1.6,1.2-2.7,1-3.7-0.8c-4.8-8.1-8.7-16.7-12.3-25.4c-0.6-1.5,0-2.3,1.1-3.2c3.4-2.6,7-4.8,10.7-6.8c12.9-7,25.9-13.8,40.1-17.8
			c6.1-1.7,4.8-1.8,6.7,3.4c2.6,7.2,5.2,14.4,7.8,21.6C393.5,190.1,393.7,190.8,393.9,191.4z"/>
		<path class="st0" d="M634.1,195c-0.3,0.5-0.5,1-0.8,1.5c-4,7.5-8.6,14.6-12.9,21.9c-1.1,1.8-1.9,1.8-3.4,0.6
			c-8.9-7.3-18.6-13.4-29-18.1c-5.6-2.5-11.3-4.8-16.8-7.5c-2.4-1.2-3.3-2.4-2.5-5.2c1.8-6.8,3.4-13.5,6-20c0.9-2.2,2-2.7,4.3-2
			c13.1,4.1,25.3,10.2,37.3,16.9c5.7,3.2,11.4,6.5,16.6,10.5C633.3,194,634,194.2,634.1,195z"/>
		<path class="st0" d="M497.6,148.4c4.6,0.1,9.3-0.1,13.9,0.3c1.5,0.1,1.8,0.6,1.6,2.2c-0.5,6.1-0.8,12.3-1.2,18.5
			c-0.2,2.5-0.4,5-0.5,7.5c0,1.3-0.7,1.2-1.6,1.2c-5.9-0.2-11.8-0.3-17.6-0.7c-8.2-0.6-16.4-0.1-24.6,0.6c-4.2,0.4-8.4,0.9-12.5,1.6
			c-2.4,0.4-3.3-0.6-3.4-3c-0.6-7.8-1.2-15.6-1.9-23.4c0-0.2,0-0.3,0-0.5c-0.3-3.6-0.2-3.8,3.3-4c3.3-0.2,6.6-0.1,9.9-0.2
			c0.9-0.4,1.8-0.2,2.7-0.2c9.7,0,19.5,0,29.2,0C495.8,148.2,496.7,148,497.6,148.4z"/>
		<path class="st0" d="M446.7,177.6c0.3,1.7,0.2,3.1-2.5,3.3c-14.8,1.2-28.7,6.1-42.7,10.3c-3.3,1-3.3,0.9-4.3-2.4
			c-2.3-8.3-4.6-16.7-7-24.9c-0.6-1.9,0-2.7,1.6-3.4c7.7-3,15.8-4.8,23.9-6.5c8.8-1.9,17.7-3.3,26.6-4.4c1.2-0.2,2.3-0.3,2.4,1.5
			C445.3,159.8,446,168.6,446.7,177.6z"/>
		<path class="st0" d="M522.1,151c8,0.3,15.7,2.2,23.4,4.1c8.3,2,16.4,4.5,24.5,6.9c2,0.6,2.2,1.5,1.6,3.3
			c-2.4,7.2-5.3,14.2-7.2,21.5c-0.7,2.8-2.7,2.6-4.7,2.1c-3.6-0.8-7.2-1.9-10.8-2.8c-10.5-2.6-21.2-3.9-31.9-6
			c-1.4-0.3-1.8-0.7-1.7-2.1c0.6-8.1,1.3-16.1,1.8-24.2c0.1-2.5,1.2-3.2,3.5-2.9C521.1,151,521.6,151,522.1,151z"/>
		<path class="st0" d="M483.7,134.4c9.3,0.2,18.4,1.4,27.6,2.4c13.8,1.6,27.4,3.9,40.9,7.2c20.7,5,40.7,11.9,59.8,21.5
			c2.9,1.5,5.6,3.2,8.2,5.2c1.3,1,1.4,4.5,0.1,5.5c-0.8,0.6-1.4-0.2-2-0.5c-7.4-3.7-14.8-7.4-22.2-11.1c-14.2-7-29.3-11.7-44.6-15.6
			c-11.7-3-23.5-5.3-35.4-7c-9.7-1.4-19.4-2.2-29.1-2.7c-8.3-0.3-16.6-0.3-24.9,0c-32,1.8-62.8,9.4-92.4,21.7
			c-8.6,3.6-16.8,7.9-25.4,11.4c-2.3,0.9-3.4,0.4-4.3-1.8c-0.5-1.2-0.3-1.7,0.9-2.2c15.1-6.3,29.9-13.5,45.5-18.4
			c18.4-5.8,37-10.4,56-13.4c7.1-1.1,14.2-2.2,21.4-2.2C470.5,134,477.1,134,483.7,134.4z"/>
		<path class="st0" d="M324.7,39c1,0,1.3,0.6,1.6,1.2c2.1,4.6,4.2,9.3,6.4,13.8c0.7,1.5-0.3,1.7-1.1,2.1
			c-8.6,4.2-17.1,8.3-25.7,12.5c-9,4.3-17.7,9-26.3,14.1c-5.9,3.5-5.9,3.4-8.9-2.6c-1.5-3.1-3-6.3-4.6-9.4c-0.8-1.4-0.4-2.2,0.7-3.2
			c4.1-3.6,8.8-6.2,13.6-8.8c13.1-7.1,26.6-13.3,40.7-18.5C322.2,39.8,323.6,39.4,324.7,39z"/>
		<path class="st0" d="M638.1,45.5c6,1.4,11.4,3.4,16.7,5.8c11.5,5.3,22.2,12.2,33.1,18.7c2.6,1.6,5.3,3.1,8,4.6
			c0.9,0.5,1.4,0.9,1,2.1c-1.7,5.3-5,9.7-7.4,14.7c-0.6,1.3-1.6,0.1-2.3-0.2c-9.8-5-19.5-10.3-29.3-15.2c-8.1-4-16.5-7.2-24.6-11.3
			c-3.9-2-3.9-2.1-2.1-6.1c1.7-3.9,3.5-7.7,5.3-11.6C636.9,46.1,637.2,45.1,638.1,45.5z"/>
		<path class="st0" d="M415.9,14.4c1.2-0.2,1.8,0.1,2.1,1.4c1,4.9,2.1,9.7,3.3,14.6c0.5,2.3-1.2,2.2-2.4,2.4
			c-10.8,2.2-21.6,4.7-32.2,7.7c-9.1,2.5-17.8,6-27,8.2c-2.2,0.5-3.1,0-3.6-2.2c-1-4.7-2.3-9.4-3.4-14c-0.4-1.5-0.3-2.3,1.5-2.8
			c15.1-4.9,30-10.2,45.6-13.1C405.1,15.6,410.5,15,415.9,14.4z"/>
		<path class="st0" d="M553.1,16.5c5.8,0.4,13.4,2.4,20.9,4.6c12,3.4,23.8,7.4,35.4,11.9c1.8,0.7,2.2,1.4,1.6,3.3
			c-1.3,4.4-2.5,9-3.6,13.5c-0.4,1.6-1,1.9-2.7,1.5c-10-2.5-19.6-6.3-29.6-8.8c-9.7-2.4-19.5-4.1-29.1-6.8c-3.4-1-3.4-1-2.6-4.3
			c0.8-3.6,1.7-7.3,2.6-10.9C546.9,16.3,546.9,16.3,553.1,16.5z"/>
		<path class="st0" d="M515,26.6c0.6,2.5-0.5,3.2-2.8,3c-2-0.2-4.1-0.2-6.2-0.2c-2.7-0.5-5.4,0.2-8.1-0.4c-1.3,0-2.6-0.1-3.9-0.1
			c-7-0.3-13.9-0.3-20.9,0c-7.8,0.7-15.6,0.9-23.4,0.5c-0.8-0.2-1.3-0.6-1.2-1.5c0-5.4,0-10.8,0-16.2c0-0.5,0.2-1,0.7-1.2
			c4.5-1.1,9.1-1.7,13.8-1.6c6.4-0.5,12.8-0.1,19.3-0.2c1.5,0,3-0.2,4.4,0.2c9.1-0.1,18.1,1.3,27.1,2.1c0.4,0,0.8,0.3,1.2,0.4
			C515.3,16.5,515.3,21.5,515,26.6z"/>
		<path class="st0" d="M426.5,49.7c0.3,1.4-1,1.4-1.7,1.6c-4.4,1.4-8.9,2.6-13.4,3.4c-14.2,2.5-27.7,7.2-41.4,11.5
			c-7.1,2.2-7.2,2.2-9.3-4.9c-0.5-1.8-1.1-3.7-1.6-5.5c-0.3-0.9-0.2-1.5,1-1.8c16.1-4.3,31.7-10.2,48-13.7c4.6-1,9.2-1.8,13.9-2.4
			c1.6-0.2,2.3,0.3,2.6,2C425.1,43.3,425.9,46.5,426.5,49.7z"/>
		<path class="st0" d="M542.9,40.3c11.5,1.7,22.9,4.7,34.1,7.9c9,2.6,17.8,5.5,26.6,8.6c1.7,0.6,2.1,1.3,1.5,3.1
			c-1,2.9-1.9,5.9-2.5,8.9c-0.4,1.8-1.1,2-2.7,1.4c-13.3-4.4-26.6-8.5-40.1-11.9c-6.7-1.7-13.5-3-20.4-4.1c-1.2-0.2-1.9-0.5-1.6-1.8
			c0.7-3.7,1.4-7.4,3-10.8C541.2,40.8,541.6,39.8,542.9,40.3z"/>
		<path class="st0" d="M342,72.1c0.3,0.9-0.3,1-0.8,1.2c-19,6.6-35.7,17.8-53.3,27.2c-5.4,2.9-5.4,2.8-8-2.6c-1-2-1.9-4.1-2.9-6.1
			c-0.5-0.9-0.6-1.5,0.6-2.1c12.8-6.4,24.7-14.3,37.6-20.3c6.3-2.8,12.4-5.8,18.9-8.2c1.4-0.5,2.2-0.4,2.9,1.1c1.4,3,3,5.9,4.5,8.9
			C341.7,71.5,341.9,71.9,342,72.1z"/>
		<path class="st0" d="M627.8,68c1.6,0.6,3.3,1.1,4.9,1.8c17.6,7.6,34.5,16.3,51,26.1c2.2,1.3,2.8,2.5,1.4,4.9
			c-1.4,2.3-2.4,4.7-3.4,7.2c-0.7,1.6-1.4,1.7-2.8,0.9c-7-3.8-14-7.5-21-11.2c-11.5-6.1-23.1-12.2-35.5-16.5c-1.3-0.5-1.4-1-0.9-2.2
			c1.5-3.2,2.9-6.3,4.3-9.5C626.2,68.6,626.6,67.8,627.8,68z"/>
		<path class="st0" d="M512.3,49.1c-8.1,0.1-16.2-0.5-24.3-0.9c-8.1-0.4-16.2,0.3-24.3,0.6c-4.6,0.2-9.1,0.1-13.7,0.3
			c-1.1,0.1-1.4-0.5-1.4-1.5c0-3.7,0-7.4,0-11c0-1.1,0.3-1.7,1.5-1.7c1.2,0.1,2.3,0,3.5,0c2.8-0.6,5.7,0.2,8.6-0.4
			c13.4-1.1,26.8-0.4,40.2,0c3.9,0.1,7.7,0.7,11.6,0.9c1.4,0.1,1.7,0.7,1.6,1.8c-0.1,1.4-0.1,2.8-0.1,4.3c-0.5,2.5,0.2,5.1-0.4,7.5
			l0,0C514.1,49.4,513.2,49.4,512.3,49.1z"/>
	</g>
	<path class="st1" d="M497.6,148.4c-11.5,0-23.1,0-34.6,0c0.6-0.1,1.3-0.4,1.9-0.4c10.3,0,20.7,0,31,0
		C496.5,148.1,497.1,148.3,497.6,148.4z"/>
	<path class="st2" d="M462.2,139.3c0.4-0.5,1-0.4,1.6-0.4c7.2,0,14.4,0,21.6,0c0.6,0,1.2-0.1,1.6,0.4
		C478.7,139.3,470.4,139.3,462.2,139.3z"/>
	<path class="st3" d="M486.7,8.8c-7.9,0-15.8,0-23.7,0c1-0.6,2.1-0.4,3.1-0.4c5.9,0,11.8,0,17.6,0C484.7,8.4,485.8,8.3,486.7,8.8z"
		/>
	<path class="st4" d="M463.6,83.6c0.7-0.7,1.6-0.4,2.4-0.4c6.3,0,12.7,0,19,0c0.2,0.1,0.2,0.2,0.2,0.3c-0.1,0.1-0.1,0.1-0.2,0.1
		C477.9,83.6,470.8,83.6,463.6,83.6z"/>
	<path class="st5" d="M473.1,28.9c0.5-0.6,1.2-0.4,1.9-0.4c5.7,0,11.4,0,17.1,0c0.6,0,1.3-0.1,1.9,0.4
		C487,28.9,480.1,28.9,473.1,28.9z"/>
	<path class="st1" d="M449.2,10.5c-0.7,1.1-0.5,2.4-0.5,3.6c0,4.2,0,8.5,0,12.7c0,1,0,2,1,2.6c-1.1,0.2-1.5-0.2-1.5-1.3
		c0-5.5,0-11,0-16.5C448.2,10.9,448.4,10.4,449.2,10.5z"/>
	<path class="st6" d="M483.7,134.4c-6.6,0-13.2,0-19.7,0c1.7-0.8,3.4-0.5,5.1-0.4C474,134.1,478.9,133.4,483.7,134.4z"/>
	<path class="st7" d="M515,26.6c0-5.1,0-10.1,0-15.2c0.9,0.5,0.5,1.3,0.5,2C515.3,17.8,515.8,22.2,515,26.6z"/>
	<path class="st8" d="M486.5,90.8c-2.2,0.9-4.6,0.3-6.8,0.4c-2.7,0.1-5.5,0-8.2,0C476.5,90.3,481.5,90.8,486.5,90.8z"/>
	<path class="st9" d="M477.6,127.3c4.6-0.7,9.3-0.7,13.9,0C486.9,127.3,482.2,127.3,477.6,127.3z"/>
	<path class="st8" d="M501.6,91.2c-3.9-0.2-7.7,0.5-11.6-0.4C493.9,90.8,497.8,90.3,501.6,91.2z"/>
	<path class="st10" d="M462.1,34.6c-2.8,0.9-5.7,0.2-8.6,0.4C456.4,34.1,459.3,34.6,462.1,34.6z"/>
	<path class="st11" d="M469.1,77.7c-2.8,0.9-5.7,0.2-8.6,0.4C463.4,77.3,466.2,77.7,469.1,77.7z"/>
	<path class="st12" d="M496.1,78.1c-2.8-0.2-5.7,0.5-8.5-0.4C490.4,77.7,493.3,77.3,496.1,78.1z"/>
	<path class="st13" d="M497.9,29c2.7,0.1,5.4-0.5,8.1,0.4C503.2,29.4,500.5,29.8,497.9,29z"/>
	<path class="st14" d="M495.9,127.4c2.7,0.1,5.4-0.5,8.1,0.4C501.3,127.8,498.5,128.2,495.9,127.4z"/>
	<path class="st15" d="M515,49.1c0.2-2.5-0.5-5.1,0.4-7.5C515.2,44.1,516,46.6,515,49.1z"/>
	<path class="st16" d="M499.6,53.5c-2-0.1-4.1,0.5-6.1-0.4C495.6,53.1,497.6,52.8,499.6,53.5z"/>
	<path class="st17" d="M485.1,83.6c0-0.1,0-0.3,0-0.4c1.2,0.2,2.4-0.4,3.5,0.4C487.4,83.6,486.2,83.6,485.1,83.6z"/>
	<path class="st15" d="M512.3,49.1c0.9,0,1.8,0,2.6,0C514.1,49.7,513.2,49.5,512.3,49.1z"/>
	<g>
		<path class="st18" d="M228.6,847.7c1.2-0.1,2.6,0,2.8-2c-4.4,0-8.8,0.1-13.2-0.1c-1.7-0.1-2.4,0.5-3,2.1
			c-5.2,12.7-10.9,25.3-17.3,37.4c-0.6,1.2-1.1,2.5-2.4,3.4c-0.4-0.9-0.8-1.6-1.2-2.4c-5.8-12.3-12.1-24.3-17.5-36.8
			c-1.1-2.6-2.9-3.9-5.7-3.8c-2.5,0.1-5,0-7.5-0.2c-1.8-0.1-3.2,0.3-4.2,1.9c0,0.2,0,0.3,0,0.5c6.9-0.5,7.8,0.4,7.9,7.3
			c0,0.6,0,1.2,0,1.8c0,7.9,0,15.7,0,23.6c0,4.6,0,9.2-0.5,13.8c-0.3,2.6-1,4.4-4,4.7c-0.9,0.1-1.9,0.2-3.1,1.3
			c6.4,0.6,12.3,0.9,18.3-0.3c-0.6-0.5-1.2-0.7-1.8-0.9c-5-1.5-5.1-1.5-5.1-6.9c0-11,0-21.9,0-32.9c0-0.4-0.2-0.9,0.5-1
			c5.7,11.6,11.4,23.2,17,34.8c1.1,2.3,2.2,4.7,3.5,6.9c1.1,2,2.3,2,3.1,0c1.7-4.6,4.5-8.7,6.2-13.2c3.9-10.2,9-19.9,14.3-29.4
			c0.1-0.2,0.3-0.3,0.7-0.6c0,12,0,23.8,0,35.5c0,5.6-0.1,5.6-5.5,6.5c-0.5,0.1-1.1,0-1.1,0.7c0,0.5,0.1,1.2,0.9,1.3
			c0.7,0,1.3,0.1,2,0.1c5.2-0.3,10.4-0.5,15.7-0.8c0.4-0.5,1.3-0.1,1.5-0.9c-4.2-0.6-4.9-1.3-5.4-5.4c-0.2-1.7-0.4-3.5-0.5-5.2
			c-0.7-12.1-0.1-24.2,0.5-36.4C224.8,848.2,224.7,848.2,228.6,847.7z"/>
		<path class="st18" d="M810.1,941.8c-4-1-8-1.1-12.1-0.6c-8.3,1-15.9,3.6-21.6,10.1c-6,6.6-7.1,14.6-6,23.2
			c1.5,11.5,9.1,20.2,20.2,23.1c0.7,0.2,1.7,0,2.2,0.9c3.2,0,6.3,0,9.5,0c0.1-0.4,0.4-0.4,0.7-0.5c17-2.7,27.4-15.8,26.2-33
			C828.4,953.9,820.7,944.5,810.1,941.8z M819.3,980.8c-2.4,7.3-7.1,12.5-14.8,14c-8.1,1.6-14.9-1.2-19.8-7.7
			c-6.9-9.2-8.2-19.6-4.6-30.4c2.5-7.4,8.2-11.7,15.9-12.6c8.6-1,15.4,2.2,20.4,9.4c3.5,5.2,4.3,11.1,4.4,17.2
			C820.8,974.2,820.4,977.6,819.3,980.8z"/>
		<path class="st18" d="M650.6,942.4c-6.9-1.9-13.8-1.8-20.7,0c-9.8,2.6-15.9,9.7-18.5,19c-2.6,9.4-1.4,18.8,5,27.1
			c1.8,2.4,3.8,4.2,6.2,5.7c3.5,2.2,7.4,3,11.2,4.2c0.3,0,0.7,0,1,0c2.1-1,4.3-0.3,6.5-0.4c12.5-0.9,22.6-8.7,26.6-20.5
			C673.4,961.7,665.9,946.5,650.6,942.4z M658.4,983.6c-6.3,13.6-24.1,15.9-33.2,4c-7-9.2-8.5-19.9-5.1-30.9
			c2.6-8.5,9.7-11.7,17.9-12.5c8.7-0.8,15,3.1,19.3,10.6c2.7,4.8,3.8,10.1,3.8,16.3C661.1,975,660.3,979.4,658.4,983.6z"/>
		<path class="st18" d="M604.6,989.9c-6.4,3.7-13.3,5.2-20.6,3.7c-14.4-2.9-21.6-15.6-20-29.8c1-8.6,5.2-14.9,13.4-18
			c5.9-2.2,12-2.4,18.1-0.5c4.5,1.4,7.2,3.1,6.6,8.2c-0.1,1.2,0.7,1.8,1.6,1.8c1,0,1.2-1,1.2-1.9c0-1.7,0.3-3.3,0.6-5
			c0.3-1.6,1.3-3.7,0.6-4.8c-0.7-1.3-3-0.5-4.6-0.8c-7.1-1.3-14.2-2.5-21.5-1.2c-9.5,1.7-17.2,6-21.8,14.8
			c-8.5,16.2,0.5,35.7,18.6,40.5c2,0.5,4.1,0.4,5.9,1.5c0.2,0,0.3,0,0.5,0c2.3-1.1,4.7-0.2,7-0.4c4.8-0.2,9.2-1.8,13.6-3.6
			c1.1-0.5,1.7-1.5,2.5-2.3c0.8-0.9,0.5-1.9,0-2.5C605.7,988.5,605.1,989.6,604.6,989.9z"/>
		<path class="st18" d="M590.1,998.4c0-0.2,0-0.3,0-0.4c-2.3,0.6-4.7-0.2-7,0.4C585.5,998.4,587.8,998.4,590.1,998.4z"/>
		<path class="st18" d="M641.4,998.4c0-0.1,0-0.3,0-0.4c-2.1,0.5-4.4-0.2-6.5,0.4C637.1,998.4,639.3,998.4,641.4,998.4z"/>
		<path class="st18" d="M424.7,942.6c-4.7-0.9-9.4-0.8-14.1-0.4c-1.2,0.1-3.1-0.3-3.2,1.4c-0.1,2,1.9,1.6,3.2,1.9
			c0.5,0.1,1,0.2,1.5,0.3c1.5,0.3,2.4,0.8,2.4,2.8c0,12.2,0.2,24.4,0.3,36.6c0,0.5,0.4,1.2-0.4,1.6c-3-2.4-5.5-5.3-7.9-8.3
			c-8.5-10.7-17.1-21.4-25.6-32.1c-1.8-2.3-3.8-4.1-6.9-4.5c-2.9-0.4-5.8,0-8.7,0.4c-0.6,0.1-1.7,0.2-1.8,1.1
			c-0.2,1.1,1,1.1,1.6,1.2c5,1.1,6,4.6,5.9,9c-0.1,6.8-0.1,13.6-0.1,20.3c0,4.7,0.1,9.4-0.1,14c-0.3,5.3-0.4,5.3-5.5,6.3
			c-0.9,0.2-1.7,0.7-1.7,1.5c-0.1,1,1.1,0.9,1.7,1c4.4,0.7,8.9,0.9,13.4,0.3c1.2-0.2,3.1,0.3,3.3-1c0.2-1.6-1.9-1.8-3.1-2.2
			c-3.8-1.2-3.9-1.1-3.9-5.2c-0.1-11.4-0.1-22.8-0.1-34.1c0-0.5-0.2-1.1,0.3-1.7c0.2,0.1,0.4,0.2,0.6,0.4
			c10.8,13.1,21.7,26.2,32.4,39.4c2.4,2.9,5.1,4.6,8.7,5.2c2.1,0.4,2.6-0.2,2.6-2.3c-0.3-14.3-0.4-28.6-0.5-42.9
			c-0.1-6.1,0.1-6.2,5.7-8c0.1,0,0.2,0,0.2-0.1c0.8,0,1.4-0.5,1.3-1.2C426.1,942.7,425.3,942.7,424.7,942.6z"/>
		<path class="st18" d="M206.5,942.5c-5.9-0.9-11.9-0.2-16.9-0.4c-6.1,0-11.1,0-16.2,0.1c-0.7,0-2.1-0.9-2.2,0.9
			c-0.1,1.4,0.3,1.9,1.8,2.2c4.9,0.9,4.9,1.1,5,6.3c0.1,10,0.2,19.9,0.3,29.9c0,2.8,0.1,5.5-0.1,8.3c-0.1,1.8,0,3.7-2.5,4.3
			c-1,0.2-1.3,1.6-1.2,2.6c0.1,1,1.2,0.5,1.9,0.6c7.5,0.1,15.1,0.4,22.6-0.2c12.7-1,22-6.8,27.1-18.8
			C233.3,961.3,224.4,945.3,206.5,942.5z M217.7,980.3c-3,8.3-9.7,13.2-18.4,13.6c-3.6,0.2-7.1-0.1-10.7-0.4c-1.5-0.1-1.9-0.5-1.9-2
			c0.1-7.3,0-14.5,0-21.8c0-7.3,0-14.5,0-21.8c0-0.9-0.3-2.1,1.3-2.1c5.6-0.2,11.3-0.7,16.8,0.6c7.5,1.7,12.2,6.3,13.9,14
			C220.2,967,220,973.7,217.7,980.3z"/>
		<path class="st18" d="M825,847.7c-6.3-2-12.7-2.3-19.2-2.1c-6.9,0.2-13.8-0.6-20.6,0.7c-0.5,0.1-1.4,0-1.4,0.7
			c0,0.5,0.4,1,0.8,1.5c0.6,0.8,1.5,1.1,2.4,0.9c1.9-0.4,2.6,0.7,2.9,2.3c0.2,1.1,0.4,2.1,0.5,3.2c1,12.4,0.4,24.9,0.4,37.3
			c0,2.2-0.3,4.5-2.9,5.6c-0.9,0.3-1.2,1.5-1,2.4c0.3,1,1.3,0.5,1.9,0.5c3.7,0.1,7.5,0,11.2,0c0-0.1,0-0.1,0-0.2c4,0,8,0.2,11.9,0
			c18.1-1.2,29.7-14.6,28.6-32.8C839.9,857.3,834.8,850.7,825,847.7z M830.5,882.4c-2.8,9.2-9.5,14.3-19.2,15
			c-3.7,0.2-7.3-0.3-10.9-0.4c-1.7-0.1-1.3-1.2-1.3-2.1c0-7.3,0-14.5,0-21.8c-0.1,0-0.2,0-0.3,0c0-7.2,0.1-14.4,0-21.6
			c0-1.7,0.5-2.2,2.2-2.3c5.2-0.4,10.4-0.5,15.6,0.5c8.2,1.7,13.2,6.6,14.8,14.9C832.5,870.6,832.3,876.6,830.5,882.4z"/>
		<path class="st18" d="M358,845.9c-4.8-0.5-9.6-0.7-14.4,0c-0.9,0.1-2.3-0.1-2.4,1.2c-0.2,1.6,1.4,1.3,2.3,1.7
			c0.5,0.2,0.9,0.3,1.4,0.4c3.5,0.7,3.6,0.7,3.7,4.5c0.2,10.2,0.3,20.4,0.3,30.6c0,2-0.2,4.1-0.4,6.4c-2.5-2.1-4.4-4.2-6.2-6.4
			c-8.8-10.6-17.5-21.2-25.9-32.1c-1.2-1.5-2.4-3-3.7-4.4c-1.6-1.8-3.5-2.6-6-2.2c-2.5,0.4-5,0.3-7.4,0c-0.8-0.1-2.1-1-2.1,1
			c0,1.4,0,2.3,1.9,2.3c4.1,0.2,5.2,1.3,5.7,5.4c0.1,0.7,0.2,1.5,0.2,2.2c-0.5,11.1,0.1,22.2-0.3,33.4c-0.1,4-0.2,8.1-5.7,8.5
			c-0.5,0-1.8,0.1-1.5,1.2c0.2,0.9,1.2,0.8,1.9,0.8c4.1,0.1,8.1,0.2,12.2,0.2c1.5,0,3.9,0.5,4.1-1c0.2-1.4-2.2-2-3.6-2.2
			c-2.6-0.3-3.2-1.8-3.3-4.1c-0.4-8.9-0.1-17.9-0.2-26.8c0-3.2,0-6.5,0-9.7c1,0.1,1.3,0.8,1.7,1.2c4.7,5.4,9.3,10.9,14,16.3
			c2.9,3.4,5.4,7.2,8.2,10.6c3.3,3.9,6.9,7.6,10,11.8c2,2.8,4.5,4.3,7.8,4.7c2.1,0.3,2.8,0,2.8-2.4c-0.2-14.4-0.3-28.8-0.3-43.2
			c0-5.5,0.3-5.9,5.3-7.4c0.8-0.3,1.8-0.6,1.8-1.5C359.9,845.9,358.7,846,358,845.9z"/>
		<path class="st18" d="M468.5,943.1c-6.9-1.1-13.9-0.9-20.9-1.2c-4.7-0.1-9.5-0.2-14.2,0.3c-1,0.1-2.5,0.2-2.5,1
			c0,1.2,1.3,2,2.5,2.4c0.2,0.1,0.5,0,0.7,0.1c1.5,0.2,2.4,1.1,2.7,2.5c0.3,1.6,0.7,3.1,0.8,4.7c1.1,12,0.2,24.1-0.1,36.1
			c0,2.1-0.1,4.4-2.7,5.4c-0.8,0.3-1.2,1.3-1.1,2.1c0.2,1,1.2,0.6,1.9,0.6c8,0.3,16.1,0.6,24.1-0.2c17.3-1.8,28.8-15.3,27.7-32.7
			C486.9,953.6,479,944.7,468.5,943.1z M477.8,978.3c-2.3,9-8.4,14.1-17.9,15c-3.9,0.4-7.8,0.4-11.7,0.2c-1.7-0.1-2.5-0.5-2.2-2.3
			c0-0.1,0-0.2,0-0.2c0-7.1,0-14.2,0-21.3c-0.1,0-0.2,0-0.3,0c0-7.3,0.1-14.5,0-21.8c0-1.6,0.4-2.2,2-2.2c5-0.1,9.9-0.4,14.9,0.4
			c9.1,1.6,14.2,6.4,15.8,15.5C479.4,967.2,479.2,972.8,477.8,978.3z"/>
		<path class="st18" d="M660.7,848.8c5.3,0.9,5.7,1.1,5.8,6.5c0.2,12.8,0.3,25.6-0.6,38.4c-0.1,1.8-0.2,3.5-2.3,4.2
			c-0.8,0.3-1.3,1.5-1,2.3c0.3,0.8,1.3,0.3,2,0.3c3.6,0,7.1,0,10.7,0c0,0,0-0.1,0-0.1c2.9,0,5.8-0.1,8.7,0
			c7.1,0.2,13.5-1.7,19.5-5.5c3.7-2.4,6.8-5.3,9-9.2c3.2-5.7,4.1-11.9,3.6-18.4c-0.9-11.1-8.1-18.9-19-20.7
			c-4.8-0.8-9.6-0.9-14.4-0.7c-7.4,0.2-14.8,0.5-22.1-0.6c-1.2-0.2-1.6,0.1-1.6,1.4C659,848,659.3,848.6,660.7,848.8z M676.3,849.2
			c5.1-0.1,10.3-0.6,15.4,0.4c8.8,1.7,13.5,6.3,15.2,15c1.2,6.2,1,12.3-1,18.3c-2.9,9-9.8,14.2-19.4,14.4c-3.5,0.1-7-0.3-10.4-0.3
			c-1.6,0-1.4-1-1.4-2c0-3.7-0.1-7.4-0.1-11c0-3.6,0-7.2,0-10.8c-0.1,0-0.2,0-0.3,0c0-7.3,0-14.6,0-21.8
			C674.3,849.9,674.6,849.3,676.3,849.2z"/>
		<path class="st18" d="M292.5,845.7c-4.5,0-9-0.1-13.4,0c-1.5,0-4-0.3-4.1,1.3c-0.2,2.3,2.4,1.6,3.9,1.9c1.9,0.4,2.9,1,3.1,3.3
			c0.5,5.6,0.7,11.2,0.8,16.8c0.1,4.8-0.1,9.5-0.5,14.3c-0.6,7.9-4.7,12.4-12.4,13.6c-3.2,0.5-6.3,0.1-9.4-0.6
			c-6.6-1.5-9.5-4.8-10.1-11.5c-0.8-9.6-0.2-19.2,0.2-28.8c0.1-1.7,0.4-3.3,0.7-5c0.6-3,0.9-3.2,3.6-1.9c1.7,0.8,2.3-0.2,2.8-1.4
			c0.6-1.6-0.8-1.6-1.7-1.7c-1.5-0.3-2.9-0.5-4.4-0.5c-5.1,0-10.3,0.1-15.4,0.1c-1,0-1.3,0.2-1.3,1.2c-0.1,1.6,0.6,1.7,1.9,1.8
			c4.8,0.3,5.5,1.1,5.5,6c0,0.6,0,1.2,0,1.8c0,9.8,0,19.6,0.2,29.3c0.1,5.8,2,11,7.5,13.4c9,4.1,18.5,4.2,27.4-0.1
			c4.9-2.4,8.3-6.6,8.5-12.8c0.2-5.2,0.4-10.4,0.4-15.5c0-5-0.1-10,0.2-15c0.3-5.8,0.8-6.2,6.2-6.8c1-0.1,1.3-0.4,1.3-1.4
			C293.9,846.2,293.7,845.7,292.5,845.7z"/>
		<path class="st18" d="M274.5,986.3c-0.6,1.3-0.9,2.7-1.2,4.1c-0.4,1.9-1.5,2.6-3.3,3.1c-6.4,1.4-12.7,0.5-19.1,0.2
			c-1.3-0.1-1.4-0.7-1.4-1.8c0-6.7,0-13.4,0-20.1c0-1.2,0.3-1.6,1.5-1.6c3.7-0.1,7.5-0.5,11.2,0c5.3,0.8,4.4-0.4,5.2,5.7
			c0.1,1.1,0.7,1.6,1.4,1.7c0.9,0.2,1.6-0.6,1.6-1.5c0.1-4.8,0.1-9.5,0-14.3c0-0.9-0.4-2.2-1.7-2c-1.2,0.1-1.2,1.1-1.2,2.3
			c0.1,3.5-1.1,4.9-4.5,5.1c-4,0.2-8,0-11.9,0.1c-1.1,0-1.4-0.5-1.4-1.5c0-6.2,0.1-12.4,0.1-18.6c0-1,0.3-1.5,1.4-1.5
			c5.6-0.3,11.1-0.6,16.6,0.1c3.7,0.5,4.2,1.1,4.2,4.9c0,0.4,0,0.9,0.1,1.2c0.4,0.9,0.9,1.7,2,1.6c1-0.1,1.4-0.9,1.4-2
			c-0.1-2.4,0.4-4.7,0.9-6.9c0.3-1.7,0.2-2.5-2-2.4c-6.4,0.2-12.8,0.1-19.2,0.1c-6.6,0-13.1,0-19.7,0c-0.7,0-1.8-0.6-1.9,0.9
			c-0.1,1.2,0.3,1.8,1.5,2c0.8,0.1,1.6,0.6,2.4,0.7c2.4,0.5,3.4,1.8,3.6,4.3c1,12.9,0.9,25.9,0.4,38.9c-0.2,4-0.9,4.8-4.8,5.7
			c-0.8,0.2-2-0.1-1.8,1.3c0.1,1.1,1.2,0.9,2,1.1c4,0.7,8.1,0.3,12.2,0.3c8.5,0,17.1-0.1,25.6-0.2c0.8,0,2,0.5,2.1-1
			c0.3-3,0.6-6,0.9-9c0.1-0.8-0.1-1.9-0.9-2.1C275.6,984.6,274.9,985.5,274.5,986.3z"/>
		<path class="st18" d="M358.4,994.3c-2.8-1.1-4.6-3.1-5.8-6.1c-1.7-4.4-3.6-8.8-5.6-13.1c-4.4-9.9-7.9-20.2-12.9-29.8
			c-0.8-1.5-1.2-4-3.3-3.9c-2.1,0.1-2.4,2.5-3.1,4.1c-6.6,14.8-13.1,29.5-19.7,44.3c-1,2.3-2.1,4.4-5.1,4.3c-0.9,0-1.6,0.7-1.6,1.6
			c-0.1,1,0.9,1,1.6,1.2c4.2,1,8.4,0.8,12.6,0.4c1.3-0.2,3.6,0.1,3.7-1.5c0.1-1.9-2.2-2-3.6-2.2c-2.4-0.4-2.8-1.6-2.2-3.7
			c1-3.8,2.9-7.3,4.2-11c0.3-1,1-0.9,1.8-0.9c6.5,0,12.9,0,19.4-0.1c0.8,0,1.4,0,1.8,1c1.8,4.8,3.6,9.5,5.4,14.4
			c-1.9,0.4-3.5,0.8-5.2,1.1c-0.9,0.2-1.7,0.5-1.6,1.5c0.1,1,1.1,0.9,1.8,1c5.7,0.9,11.4,0.8,17.1,0c0.6-0.1,1.7,0.1,1.7-0.9
			C359.8,995,359.2,994.6,358.4,994.3z M319.8,974.7c2.8-7.5,5.7-14.9,9.6-22.2c3.1,7.6,6.1,14.8,9.2,22.2
			C332.3,974.7,326.2,974.7,319.8,974.7z"/>
		<path class="st18" d="M548.6,994.1c-2,0-2.9-1.5-3.7-2.9c-1.6-2.6-2.7-5.5-4-8.3c-5.6-12.2-10.1-24.9-16-36.9
			c-0.9-1.7-1.5-4.6-3.4-4.5c-2.2,0.1-3,2.9-3.8,4.9c-5.8,14.5-12.7,28.6-19,42.9c-1.1,2.5-2.1,5-5.5,4.8c-0.8,0-1.3,0.8-1.5,1.5
			c-0.3,1,0.7,1,1.2,1.2c5.3,1.2,10.5,1.1,15.8-0.1c1.5-0.3,1.3-1.2,0.5-2.1c-0.7-0.9-1.8-0.8-2.7-1c-3.1-0.8-3.3-1-2.5-4.1
			c0.9-3.4,2.6-6.5,3.7-9.8c0.5-1.4,1.1-2,2.7-1.9c3.1,0.1,6.1,0,9.2,0c0,0,0,0,0-0.1c3.2,0,6.5,0.1,9.7,0c1.1,0,1.6,0.4,2,1.4
			c1.5,4.2,3.1,8.3,4.6,12.4c0.4,1.1,0.6,1.8-1,1.9c-1.5,0.1-2.9,0.6-4.4,0.8c-1.3,0.1-1,1-1.1,1.8c-0.1,1,0.5,1.1,1.2,1.1
			c6,0.2,11.9,0.5,17.9-0.4c0.6-0.1,1.7,0,1.7-1C550.1,995,549.6,994.1,548.6,994.1z M511.8,974.8c-1,0-1.6-0.1-1.2-1.4
			c2.5-7.1,4.9-14.1,9.3-20.9c3.1,7.5,6.1,14.7,9.2,22.3C523,974.8,517.4,974.8,511.8,974.8z"/>
		<path class="st18" d="M523,900.4c4.9,1,9.9,0.9,14.8,0c0.6-0.1,1.5-0.1,1.6-1c0.1-0.9-0.5-1.6-1.3-1.9c-0.6-0.2-1.3-0.3-1.9-0.4
			c-2.9-0.6-3.3-1.2-2.6-4.1c1-3.7,2.9-7.1,4.1-10.7c0.4-1.1,1.1-0.9,1.8-0.9c3.2,0,6.3,0,9.5,0c0,0,0,0,0,0c3.2,0,6.5,0.1,9.7,0
			c1.3,0,1.9,0.4,2.3,1.7c1.1,3.2,2.3,6.3,3.5,9.4c1.6,4.4,1.6,4.4-3,5.2c-1,0.2-2.1,0.4-2.1,1.6c0,1.3,1.4,1.1,2.1,1.1
			c5.5,0.7,11.1,0.6,16.6,0.1c0.7-0.1,1.9,0.1,1.9-1.1c0-0.9-0.7-1.8-1.8-1.8c-1.7,0-2.5-1.2-3.2-2.4c-1.1-1.9-2.2-3.9-3.1-6
			c-5.9-13.4-11.6-26.9-17.5-40.4c-0.7-1.6-1.3-4.1-3.1-4.2c-2.1,0-2.4,2.6-3.2,4.3c-6.7,15-13.4,30-20.1,45c-0.9,2-2.1,3.8-4.8,3.7
			c-1,0-1.6,0.6-1.7,1.5C521.1,900.4,522.3,900.3,523,900.4z M549.5,856.1c3.1,7.7,6.1,14.9,9.1,22.3c-6.4,0-12.4,0-18.8,0
			C542.5,870.7,545.1,863.3,549.5,856.1z"/>
		<path class="st18" d="M735,900.8c1.5-0.2,4.2,0.1,4.3-1.5c0.2-2-2.4-1.9-4-2.3c-1.5-0.4-2.4-1-1.9-3c0.9-4.1,3.1-7.7,4.3-11.7
			c0.3-1,1.1-0.8,1.8-0.8c3.2,0,6.3,0,9.5,0c0,0,0,0,0,0c0.7,0,1.5,0,2.2,0c3,0,6.6-1,8.8,0.4c2.3,1.4,2.4,5.4,3.6,8.3
			c0.2,0.5,0.4,0.9,0.5,1.4c0.6,1.6,2.1,3.7,1.6,4.8c-0.7,1.5-3.2,0.9-5,1.3c-0.1,0-0.2,0-0.2,0c-1.1,0.1-1.5,0.6-1.5,1.8
			c0,1.4,0.9,1.1,1.7,1.1c5.8-0.2,11.6-0.5,17.4-0.8c0.6,0,1.6,0.3,1.7-0.5c0.1-0.9-0.6-1.6-1.5-1.6c-1.8-0.1-2.7-1.3-3.4-2.6
			c-1-1.8-2.1-3.6-2.9-5.5c-4.5-10.4-8.9-20.8-13.4-31.2c-1.8-4.1-3.7-8.2-5.9-12.1c-0.9-1.6-1.8-1.6-3-0.3
			c-1.2,1.4-1.9,3.1-2.6,4.8c-5.9,14.7-12.8,28.9-19.3,43.4c-0.9,2-2.1,3.7-4.6,3.5c-1.1-0.1-1.7,0.8-1.8,1.7c-0.1,1,1,1,1.6,1.1
			C726.9,901.4,731,901.2,735,900.8z M749.4,856c3.1,7.6,6.1,14.8,9.2,22.3c-6.4,0-12.5,0-18.8,0C742.3,870.6,745,863.3,749.4,856z"
			/>
		<path class="st18" d="M475.7,848.6c4.3,0.2,5.8,1.4,5.8,5.5c0.1,12.4,0.3,24.8-0.3,37.1c-0.3,5.3-0.5,5.2-5.5,6.8
			c-0.2,0-0.3,0.1-0.5,0.2c-0.5,0.4-1.8,0-1.6,1.2c0.1,0.9,1.2,0.7,1.8,1c0.5,0.2,1.1,0.2,1.7,0.2c4.9,0,9.8,0,14.7,0
			c1.2,0,2.5,0,3.7,0c0.9,0,1.1-0.4,1.2-1.2c0.1-0.9-0.4-1-1-1.1c-1.4-0.3-2.7-0.7-4.1-0.9c-1.6-0.2-2.2-0.8-2.3-2.5
			c-0.5-7.4-0.6-14.9-0.5-22.3c0-5.4-0.1-10.7,0-16.1c0.2-6.8,1.3-7.9,8.1-8.2c0.7,0,1.5,0,2.2,0c6.6,0.4,11.3,6,11.1,13
			c-0.2,6.4-4.4,9.9-11.5,9.8c-1.5,0-3-0.1-4.5,0.2c-1,0.2-1,0.7-0.5,1.3c1.2,1.5,2.9,2.3,4.8,2.2c7.6-0.2,14-2.9,18.1-9.5
			c4.9-7.8,1.6-16.2-7.3-18.6c-6.1-1.7-12.3-1.4-18.5-1.2c-5.3,0.2-10.6,0.6-15.9-0.2c-1.5-0.2-1.8,0.3-1.8,1.7
			C473.3,849,474.6,848.6,475.7,848.6z"/>
		<path class="st18" d="M412.7,900.5c8.9,2.2,17.6,0.3,26.3-1.5c2.5-0.5,4.3-4,3.6-6.4c-7,4.5-14.3,6.5-22.4,4.7
			c-13-2.9-20.9-14.2-20-28.3c0.7-10.3,6.5-17.7,15.9-20.3c4.7-1.3,9.5-1,14.2,0.1c4.6,1.1,8.6,2.6,8.4,8.6c0,0.6,0,1.7,1.1,1.6
			c0.9-0.1,1.4-0.7,1.5-1.7c0.4-3.1,0.8-6.1,1.3-9.2c0.2-1.4-0.2-1.7-1.5-1.6c-3.2,0.2-6.5-0.3-9.6-0.9c-12.2-2.4-23.1,0.4-33,7.9
			c-0.4,0.3-0.6,0.7-0.9,1.2c-1,2-2,4-3,6C386.5,876.3,395.5,896.3,412.7,900.5z"/>
		<path class="st18" d="M716.4,983.8c-1,0-1.7,0.5-1.8,1.6c-0.2,1.2-0.6,2.4-0.9,3.6c-0.7,2.5-2.1,4-4.8,4.4
			c-6.3,0.9-12.6,0.9-18.9,0.7c-1.4-0.1-1.7-0.6-1.7-2c0.1-7,0-14.1,0-21.1c0-6.6,0-13.2,0-19.8c0-1.4,0.1-2.8,0.5-4.2
			c0.5-1.7,1.4-2.6,3.3-2.1c0.8,0.2,1.6,0.3,2.5,0.2c0.9-0.1,1.5-0.8,1.6-1.7c0.1-1-0.9-0.8-1.5-0.9c-4.9-0.7-9.7-0.9-14.6-0.6
			c-2,0.1-4,0.1-5.9,0.6c-0.5,0.1-1.1,0.2-1.1,0.8c0,0.6,0.3,1.1,1,1.2c0.7,0.1,1.4,0.3,2.2,0.5c4.5,1.2,4.6,1.2,4.6,6.1
			c0,9.7,0,19.4-0.2,29.1c-0.1,4,0,8-0.7,12c-0.2,0.9-0.2,1.8-1.6,1.8c-1.3,0-1.5,1.2-1.5,2.2c0,1.4,1.2,0.8,1.9,0.8
			c6.8,0.2,13.6,0.4,20.4,0.5c5.2,0.1,10.5,0,15.6-0.7c0.7-0.1,1.7,0.1,1.8-0.9c0.4-3.5,0.7-7,0.9-10.5
			C717.4,985,717.5,983.9,716.4,983.8z"/>
		<path class="st18" d="M765.3,983.9c-0.8,0-1.7,0.3-1.9,1.3c-0.2,0.7-0.3,1.5-0.4,2.2c-0.7,3.5-2.5,5.8-6.3,6.4
			c-6,0.9-12.1,0.6-18.1,0.4c-1.5-0.1-1.4-0.9-1.4-2c0-6.9,0-13.9,0-20.8c-0.1,0-0.1,0-0.2,0c0-0.8,0-1.5,0-2.3
			c0-6.4,0-12.7,0.2-19.1c0.1-4.3,0.9-4.9,5.2-4.8c0.3,0,0.7,0,1,0c0.9-0.1,1.6-0.8,1.7-1.6c0.1-1.2-1-0.9-1.6-1
			c-6.4-0.9-12.7-0.9-19.1-0.2c-0.7,0.1-2.4-0.4-2.2,1.2c0.1,1.1,1.3,1.6,2.5,1.6c0.4,0,0.8,0,1.2,0c2-0.2,3,0.9,3.3,2.7
			c0.3,1.5,0.4,3,0.5,4.5c0.1,5.9,0.2,11.9,0.1,17.8c0,6.7,0.2,13.4-0.5,20c-0.2,1.7-0.4,3.5-2.5,4.1c-1,0.3-1.2,1.4-1.1,2.3
			c0.1,1,1.2,0.6,1.9,0.6c7.5,0.2,14.9,0.4,22.4,0.5c4.6,0.1,9.3,0,13.9-0.7c0.7-0.1,1.6,0,1.7-1.1c0.3-3.5,1.2-6.9,0.7-10.5
			C766,984.9,766.3,983.9,765.3,983.9z"/>
		<path class="st18" d="M585.8,848.5c4.2-0.5,5.8,1.1,5.9,5.4c0,11.8,0,23.6,0,35.4c0,3.3,0.1,6.7-3.1,9c-0.5,0.4-1,1.4-0.9,2
			c0.2,0.9,1.3,0.5,1.9,0.5c10.9,0,21.9-0.1,32.8-0.1c4.7,0,4.7,0,5.3-4.6c0.3-2.3,1.9-4.6,0.8-7.1c-0.3-0.6,0.4-1.7-1-1.6
			c-1,0.1-1.8,0.4-2,1.5c-0.4,1.4-0.8,2.7-1.1,4.1c-0.5,2.6-1.9,3.8-4.5,4.1c-6.4,0.8-12.7,0.9-19.1,0.6c-1.4-0.1-1.6-0.6-1.6-1.8
			c0.1-6.8,0-13.5,0-20.3c0-7.8-0.8-15.6,0.2-23.3c0.4-3.3,1.2-3.8,4.4-3.5c1.4,0.1,3,0.1,3.1-1.6c0.1-1.5-1.6-1.3-2.6-1.4
			c-6.3-0.9-12.6-0.3-18.9-0.1c-0.9,0-1.9-0.2-1.6,1.4C584.1,848.3,584.3,848.7,585.8,848.5z"/>
		<path class="st18" d="M448.6,848.3c1.1,0.1,2.1,0.4,3.2,0.4c1.7,0,2.3,0.6,2.3,2.4c0.1,13.3,0.4,26.6,0.5,39.9c0,1-0.1,2-0.3,3
			c-0.4,2.3-1.4,3.7-4,3.5c-1.4-0.1-2.8,0.4-2.7,1.8c0,1.2,1.6,1.2,2.6,1.2c5.7,0.1,11.4,0.1,17.2,0.1c0.9,0,2-0.1,2.2-1.2
			c0.2-1.3-1-1.6-2-1.7c-0.4-0.1-0.8-0.1-1.2-0.2c-2.4,0-3.5-1.1-3.7-3.7c-0.8-13-1-25.9-0.2-38.9c0.1-1.7-0.1-3.8,0.7-5.2
			c1-1.7,3.4-0.7,5.1-1.2c0.1,0,0.2-0.1,0.2-0.1c1.1,0,1.6-0.5,1.5-1.7c-0.1-1.3-0.7-1.4-1.8-1.4c-3.1,0.1-6.3,0-9.5,0
			c0,0.2,0,0.3,0,0.5c-3.3,0-6.6,0-10,0c-0.8,0-1.4,0.1-1.5,1.2C447.2,848.2,447.8,848.3,448.6,848.3z"/>
		<path class="st18" d="M366.2,897.5c-1,0.2-1.8,0.8-1.9,1.7c-0.1,1.2,1,1.1,1.8,1.3c3.6,0.9,7.3,0.4,10.9,0.5c2.7,0,5.5-0.1,8.2,0
			c1.2,0.1,1.5-0.2,1.5-1.5c0-2.4-1.8-1.7-3-2c-1.9-0.4-4-0.1-4.2-3.2c-0.9-13.3-1.1-26.6-0.2-39.9c0.3-4.9,0.5-4.9,5.1-6.1
			c0.9-0.2,2-0.4,2-1.5c0-1.2-1.3-1.1-2.1-1.2c-6-0.8-12.1-0.5-18.1,0.5c-0.6,0.1-2-0.3-1.8,1.1c0.1,1,0.9,1.5,2,1.6
			c0.7,0,1.3,0.1,2,0.1c1.8,0,2.6,0.7,2.7,2.7c1.1,13.5,1.1,27.1,0,40.6C370.8,896.6,370.7,896.6,366.2,897.5z"/>
		<path class="st18" d="M634.9,848.4c4.8,0.4,5.5,1,5.5,6c0.1,8.3,0.1,16.5,0.1,24.8c0,4.5,0.2,9-0.4,13.5c-0.6,4.5-0.6,4.5-5.2,5.2
			c-0.8,0.1-1.8,0-1.8,1.2c0,1.3,1.2,1,1.8,1.1c5.4,0.7,10.7,0.7,16.1,0.4c0.9-0.1,1.8-0.1,2.7-0.3c0.6-0.2,1.5-0.1,1.5-1
			c0-0.9-0.6-1.2-1.5-1.4c-1.1-0.2-2.3-0.6-3.4-0.7c-1.5-0.1-1.9-1-2-2.3c-1.1-13.5-1.3-27-0.4-40.6c0.3-5,0.5-5,5.4-5.6
			c0.1,0,0.2,0,0.2,0c1.3-0.2,1.5-1.2,1.5-2.2c0-1.3-1.1-0.8-1.7-0.8c-3-0.1-6,0-9,0c0,0,0,0,0,0c-3.2,0-6.5,0-9.7,0
			c-1.1,0-2.2,0.2-2.2,1.8C632.9,849.1,634.2,848.4,634.9,848.4z"/>
		<path class="st18" d="M228.5,899.9c0.6,0,1.3,0.1,1.9,0.1c0.3,0,1,0.1,0.6-0.6c-0.2-0.4-0.6-0.4-1.1-0.3
			C230.1,900.4,228.9,899.3,228.5,899.9z"/>
	</g>
	<path class="st18" d="M483.3,282.4c60.4,0,120.8,0,181.3,0c3.7,0,3.3-0.4,3.3,3.4c0,92.1,0,184.2,0.2,276.3c0,12.2,0,24.4-0.7,36.6
		c-2.2,35.7-13.5,68-36.3,95.7c-23.8,28.9-54.3,47.9-89.8,59c-18.6,5.8-37.7,8.9-57.2,9.2c-44.8,0.5-85.7-11.4-121.5-39
		c-27.5-21.2-45.6-49.3-55.8-82.6c-5.8-19.1-8.5-38.5-8.4-58.5c0.1-99,0.1-197.9,0.1-296.9c0-3.5,0-3.5,3.5-3.5
		c46.7,0,93.4,0,140.2,0.1c13.8,0,27.5,0,41.3,0C483.3,282.2,483.3,282.3,483.3,282.4z"/>
	<path class="st19" d="M472.4,779.8c2-1.5,2.8-3.4,3.2-5.8c0.6-3.8,1.5-4.6,5.3-4.6c4.1,0,8.3,0,12.4-0.1c0.8,0,1.6-0.2,1.6,0.9
		c0,4.1,3.4,6.6,5,10.2c1.4-3.1,2.9-6.1,4-9.2c0.7-1.9,1.7-2.3,3.5-2.3c4.1,0.1,8.1,0.1,12.2,0c1.5,0,2.5,0.5,3.2,1.8
		c1.9,3.4,3,7.1,4.4,10.6c0.5,1.3,1.2,2,2.6,1.7c5.9-1.3,9,1.4,10.2,7.1c0.4,2,1.4,3.9,2.2,5.8c0.5,1.1,0.3,1.8-1.1,1.6
		c-0.5,0-1,0-1.5,0c-35.8,0-71.5,0-107.3,0c-3.4,0-3.6-0.1-2.1-3.2c1.5-3,3-5.9,3.6-9.2c0.3-1.5,1.3-2.3,2.9-2
		c5.9,0.9,9.2-1,10.9-7.3c1.8-6.8,2.5-6.6,9.5-6.7c2.7,0,5.3,0.1,8-0.1c1.5-0.1,2.4,0.4,3,1.9C469.6,773.8,471,776.7,472.4,779.8z"
		/>
	<path class="st20" d="M264.9,460.2c1.3-0.9,2,0.3,2.7,0.9c3,2.7,5,6,6.4,9.7c0.3,0.8,0.7,1.6,1.3,2.9c0.8-6.1,1.4-11.8,3.6-17.1
		c1.6-3.9,3.8-7.2,7.8-9c0.6-0.3,1.5-1.4,2.2,0.1c-0.5,5.6-0.1,11.1-0.2,16.7c0,1.3-0.3,2.7,0.2,3.9c0.1,6.2,2.2,11.9,3.7,17.8
		c1.3,5.3,1.4,10.7,0.8,16.1c-0.3,2.2-1.4,3.2-3.5,3.2c-1,0-2,0.1-3,0.1c-5.3,0.3-10.6,0.3-15.9,0c-3-0.2-5.9-0.3-8.9-0.6
		c-3.4-0.3-4-1.1-4.1-4.6c-0.1-2.5-0.3-5-0.3-7.5c-0.1-4.4-1.8-8.1-3.4-11.9c-0.9-2.1-1.7-4.3-2.1-7.1c4.6,3.2,7.5,7.7,11.8,10.6
		c1.5-0.3,0.7-1.4,0.7-2.2c0.1-6.5,0-13,0-19.5C264.7,461.8,264.5,461,264.9,460.2z"/>
	<path class="st20" d="M677.7,501.9c-0.8,0-1.4-0.2-1.5-1.2c-0.8-8-0.7-16,1.7-23.8c2.7-8.6,3.3-17.5,2.4-26.4c-0.2-2,0-4-0.1-6
		c-0.1-1.7,0.6-1.5,1.7-1c5.6,2.8,7.8,7.8,9.3,13.5c1,3.9,1.2,8,2.6,12.3c1.4-2.6,2.6-4.8,3.8-7.1c1.2-2.3,3.1-4.1,5.2-5.6
		c1.2-0.9,1.9-0.9,1.8,0.9c-0.3,4-0.4,8-0.8,12c-0.4,3.5,0.2,7,0.4,10.5c0.1,1.4,1.1,0.7,1.6,0.3c1.7-1.6,3.4-3.2,5-4.9
		c1.8-1.8,3.5-3.8,6.4-4.9c-0.9,3.4-1.6,6.6-3.3,9.3c-2.3,3.6-2.4,7.5-2.7,11.5c-0.2,2.7-0.1,5.5-0.1,8.3c0,1.6-0.5,2-2,2
		c-3-0.1-6,0-9,0c-6.5,0.5-13,0.1-19.5,0.2C679.7,501.7,678.7,501.4,677.7,501.9z"/>
	<path class="st21" d="M464.6,237.8c0.8,0,1.7,0,2.5,0c1.3,0.7,2.7-0.2,4,0.5c4.5,1,8.9,2,13.4,3c1,0.6,0.9,1.6,0.6,2.5
		c-1,3-1.5,6-0.4,9c1.2,3.3,0.1,5.2-3.5,6.7c-1,0.4-2,0.6-3.1,0.8c-0.8,0.6-1.7-0.1-2.5,0.5c-0.5,0-1,0-1.5,0
		c-2.3,0.4-4.6,0.4-6.9,0c-0.8,0-1.7,0-2.5,0c-1.3-0.7-2.7,0.1-4-0.5c-0.7,0-1.3,0-2,0c-1.4-0.9-3.3,0.7-4.5-1
		c-0.7-0.8-1.3-1.7-2-2.5c-0.4-1.5-0.4-3,0-4.5c0.7-2.2,0.2-4.3-0.4-6.5c-0.8-3.2-0.5-3.6,2.9-4.1c1.9,3.3,5.4,3.2,8.4,4.1
		c0.8,0.3,1.7,0.3,2.6,0.3c0.5,0,1,0.1,1.5,0.2c2.2,0.4,4.4,0.4,6.5,0c1.9-0.7,3.9-0.6,5.7-1.5c0.6-0.3,1.4-0.5,1.3-1.3
		c-0.1-0.8-0.9-1-1.5-1.2c-1.8-0.6-3.8-0.5-5.5-1.2c-2.4-0.4-4.7-0.4-7,0c-0.7,0.1-1.3,0.2-2,0.2c-1.2,0-2.3-0.1-3.5,0.3
		c-0.4,0.1-0.8,0.2-1.2,0.2c-1,0-2.1,0-3.1,0.4c-0.8,0.2-1.6,0.1-2.3-0.5c1.2-2.9,4.1-2.7,6.5-3.5
		C462.2,237.7,463.5,238.5,464.6,237.8z"/>
	<path class="st22" d="M536.8,273c-4-1.9-5.5-5.7-7-9.5c-0.7-0.5-1-1.3-1.1-2.2c-0.1-0.5-0.2-0.9-0.3-1.4c-0.2-0.9-0.3-1.9-0.4-2.8
		c0-0.2,0-0.5,0.1-0.7c0.1-2.1,0.3-4.2-0.2-6.3c-0.1-0.4-0.2-0.7-0.2-1.1c-0.1-0.9,0-1.7-0.5-2.5c-0.5-1.1-0.7-2.2-0.4-3.4
		c0.1-0.2,0.3-0.5,0.4-0.7c0.7-2.1,4.5-3,6.7-1.3c2,1.5,3.9,3.2,4.7,5.8c1.4,1.7,0.2,3.9,1,5.8c2.1,5.4,3.6,10.9,3.4,16.8
		c-0.5,1.6-0.7,3.5-3,3.5C539.2,273.3,538,273.3,536.8,273z"/>
	<path class="st23" d="M420.3,263.4c-1,0-2.1,0.1-3-0.5c0.1-0.6,0.3-1.2-0.5-1.5c-0.2,0-0.3,0-0.5,0c-0.8-0.3-1.6-0.6-2.5-0.5
		c-0.7,0-1.3,0-2,0c-0.4-0.8-0.4-1.7,0-2.5c-0.4-3.2,2.4-5.1,7.5-5.5c0.9-0.6,2.1,0.2,3-0.5c0.5,0,1,0,1.5,0c3.5-0.4,6.9-0.4,10.4,0
		c0.3,0,0.7,0,1,0c0.7,0.6,1.7-0.1,2.5,0.5c4.4,0.3,7.3,2.7,8,6.5c0.4,1.2,0.4,2.4,0,3.6c-0.3,0.5-0.7,0-1,0
		c-1.1-0.7-2.4,0.1-3.5-0.5c-2-0.4-3.6,1-5.5,1c-1.3,0.7-2.7-0.2-4,0.5c-3,0-6,0-9,0C422,263.3,421,264,420.3,263.4z"/>
	<path class="st22" d="M563.2,270.4c-3-0.6-4.1-3-4.9-5.5c-0.5-4.3-2.2-8.3-3.7-12.4c-0.5-1.4-0.9-2.8-1-4.4c0-1.4-0.1-2.8,0.1-4.2
		c0.1-0.7,0.4-1.4,1.1-1.7c1.7,0.5,0.9,2.1,1.5,3.1c0.7,2.6,0.7,5.4,2,7.9c-0.7-3.5-1.4-6.9-1.1-10.5c0.1-1.8,0.8-2.9,2.8-2.3
		c1.1,0.6,2,1.5,2.9,2.4c2.8,1.1,3.8,3.7,5,6.2c1.7,3.8,2.5,7.8,2.9,11.9c0.4,2.3,0.4,4.7,0,7c-0.6,2-2.3,2.2-4,2.5
		C565.6,270.8,564.4,270.8,563.2,270.4z"/>
	<path class="st24" d="M554.8,242.3c-0.2,0.5-0.3,1-0.5,1.5c-0.4,1.5-0.4,3,0,4.5c0.5,4,2.6,7.5,3.6,11.3c0.5,1.7,1.4,3.4,0.4,5.3
		c-0.8,1-0.3,2.3-0.7,3.3c-0.6,1.6-1.8,2.6-3.3,3.2c-0.8,0.3-1.7,0.3-2.5,0c-3.4-1-5.4-3.5-7-6.6c-0.2,0.1-0.8,1.6-1,2.5
		c-0.2,0.7-0.4,1.3-0.5,2c-1-2.1-0.8-4.5-1.2-6.8c-0.5-3.4-1.9-6.5-2.9-9.8c-0.3-2-0.4-4,0-6c-0.4-3.5,1.4-5.5,4.5-6.5
		c1-0.3,2-0.4,3,0c0.4,0.2,0.5,0.6,0.6,1c0.1,1.2-1.1,0.9-1.6,1.4c-0.5,0.3-0.8,0.6-1.1,1.1c-0.4,0.9-0.2,1.9,0.1,2.8
		c1.5,6.3,3,12.5,6.9,17.8c0.9,1.2,1.7,2.7,3.5,2.8c0.8-1.6,0.4-3.3,0.1-4.9c-0.7-4.2-2.5-7.9-4-11.8c-0.4-1.2-1-2.3-1-3.6
		c0-0.4,0.1-1.1,0.4-1.1c1.9,0.1,1.7-1.4,2-2.6c0.2-2.1,2.1-3.1,3.2-4.6c0.7-1,1.7,0,2.5,0.2c0.8,0.3,1.5,0.9,2.3,1.4
		c0.2,0.5,0,0.7-0.5,0.5c-2-0.4-2.5,0.5-2.5,2.4c0,3.4,0.5,6.6,1.4,9.8c0.2,0.7,0.6,1.7-0.3,1.9c-0.9,0.3-1.1-0.8-1.4-1.5
		c-1-2.7-1.3-5.5-1.7-8.3c-0.4-0.7-0.1-1.4-0.2-2.2C555.5,242.7,555.6,242.1,554.8,242.3z"/>
	<path class="st21" d="M528.4,248.8c0,0.3,0,0.7,0,1c0.4,2.3,0.4,4.7,0,7l0,0c-0.6,1.1-1.3,2.2-2.1,3.2c-0.9,0.2-2-0.3-2.9,0.3
		c-0.7,0-1.3,0-2,0c-2.1,0.7-4.4-0.2-6.5,0.5c-2.8,0-5.6,0-8.5,0c-1.1-0.6-2.4,0.2-3.5-0.5c-4.4-0.1-7.2-2.3-7.5-6
		c-0.6-0.9,0.1-2.1-0.5-3c0.1-1.7,1.3-1.5,2.5-1.5c2.7,3.6,6.9,3.7,10.8,4.6c2.8,0.4,5.6,0.4,8.4,0c2.7-0.5,5.5-0.7,8-2.1
		c0.8-1.4-0.5-3.2,0.7-4.5c0-0.5,0-1,0-1.5c0.5-0.9,0.2-1.8,0.2-2.7c0.1-1.2,0.8-1.3,1.7-0.8c0.1,1.2-0.2,2.4,0.5,3.5
		C528.5,247.1,527.8,248.1,528.4,248.8z"/>
	<path class="st21" d="M452.2,261.4c0.3-0.7,0.8-1,1.5-1c0.7-0.5,1.1,0,1.5,0.5c1.9,1.5,4.1,2.2,6.5,2.5c0.7,0.6,1.7-0.1,2.5,0.5
		c0.3,0,0.7,0,1,0c3.1,0.4,6.3,0.4,9.4,0c3.2-0.1,6.2-0.4,8.5-3.1c0.4-0.5,1.2-1,2-0.7c0.8,0.3,0.5,1.2,0.5,1.8
		c0,3.1-1.3,5.5-4.1,6.9c-1.7,0.8-3.5,1.5-5.4,1.7c-3.1,0.4-6.3,0.4-9.4,0c-0.3,0-0.7,0-1,0c-0.7-0.6-1.7,0.1-2.5-0.5
		c-3.4,0-6.3-1.6-9.4-2.7c-1.1-0.4-1.1-1.4-1-2.3C452,263.8,452.8,262.5,452.2,261.4z"/>
	<path class="st21" d="M528.9,259.9c0.4,0.2,0.5,0.6,0.5,1c-0.6,1.3,0.3,2.7-0.5,4c-0.3,1.9-1.4,3.2-3.1,3.8
		c-2.2,0.9-4.4,1.8-6.9,1.7c-3.1,0.4-6.3,0.4-9.4,0c-0.5,0-1,0-1.5,0c-0.8-0.6-1.7,0.1-2.5-0.5c-3.2,0.2-6-1.4-9.1-2
		c-0.9-0.2-0.9-0.8-0.9-1.5c0-1.3,0-2.7,0-4c0.7-0.5-0.4-1.9,1-2c3.3,2.3,6.7,4.3,10.9,4c1.4,0.7,3-0.1,4.5,0.5c0.8,0,1.7,0,2.5,0
		c1.1-0.6,2.4,0.2,3.5-0.5c3-0.3,5.9-1,8-3.5c0.3-0.7,0.9-1.1,1.6-1.4C528,259.4,528.5,259.5,528.9,259.9z"/>
	<path class="st22" d="M525.4,252.9c-2.7,1.3-5.5,2-8.4,2c-3,0.4-6,0.4-9,0c-2.8,0-5.4-1-8.1-1.8c-1.6-0.5-1.8-2-2.4-3.2
		c1.7-2.5,4.3-3,7-3c1.3-0.7,2.7,0.2,4-0.5c1.5,0,3,0,4.5,0c1.6,0.7,3.4-0.2,5,0.5c0.3,0,0.7,0,1,0c0.7,0.6,1.7-0.1,2.5,0.5
		c1.1-0.2,2,0.3,3,0.5C525.6,249.3,525.1,251.2,525.4,252.9z"/>
	<path class="st25" d="M550.8,246.9c1.4,3.9,2.9,7.8,4.3,11.7c0.5,1.2,0.9,2.5,0.7,3.9c0.4,2,0.4,4,0,6c-2.6-0.6-3.9-2.7-5.2-4.7
		c-3.4-5.3-5.2-11.2-6.2-17.4c-0.3-1-0.4-2,0-3.1c0.2-0.5,0.5-0.8,1-1c0.8-0.4,1.7-0.4,2.5,0c0.8,1,1.6,2,2.5,3
		C550.8,245.7,550.3,246.4,550.8,246.9z"/>
	<path class="st26" d="M264.9,460.2c0,7.5,0,15,0,22.5c0,0.6,0.7,2-1,1.5c0.9-0.7,0.5-1.7,0.5-2.6c0-6.3,0-12.6,0-18.9
		C264.4,461.9,264.1,461,264.9,460.2z"/>
	<path class="st27" d="M677.7,501.9c0.5-0.5,1.2-0.4,1.9-0.4c6.9,0,13.7,0,20.6,0c-0.6,0.7-1.4,0.4-2.1,0.4
		C691.3,501.9,684.5,501.9,677.7,501.9z"/>
	<path class="st28" d="M288.8,468.3c-0.5-0.4-0.5-1-0.5-1.6c0-5.9,0-11.8,0-17.7c0-0.5,0-1,0.4-1.4
		C288.8,454.5,288.8,461.4,288.8,468.3z"/>
	<path class="st29" d="M270.9,505.4c5.3,0,10.6,0,15.9,0c-1.7,1-3.6,0.5-5.3,0.4C278,505.8,274.4,506.4,270.9,505.4z"/>
	<path class="st30" d="M434.2,252.4c-3.5,0-6.9,0-10.4,0C427.3,251.6,430.8,251.6,434.2,252.4z"/>
	<path class="st31" d="M474.6,263.9c-3.1,0.8-6.3,0.8-9.4,0C468.3,263.9,471.4,263.9,474.6,263.9z"/>
	<path class="st32" d="M466.6,270.5c3.1,0,6.3,0,9.4,0C472.9,271.2,469.8,271.2,466.6,270.5z"/>
	<path class="st33" d="M509.5,270.5c3.2,0,6.3,0,9.4,0C515.8,271.2,512.6,271.2,509.5,270.5z"/>
	<path class="st34" d="M467.1,260.9c2.3,0,4.6,0,6.9,0C471.8,261.7,469.4,261.7,467.1,260.9z"/>
	<path class="st35" d="M570.7,267.9c0-2.3,0-4.7,0-7C571.5,263.3,571.5,265.6,570.7,267.9z"/>
	<path class="st36" d="M514.9,260.9c2.1-1,4.3-0.3,6.5-0.5C519.3,261.5,517.1,260.7,514.9,260.9z"/>
	<path class="st37" d="M550.8,246.9c-0.6-0.4-0.5-1-0.5-1.5c1.8,0.5,1.9-1,2.5-2C553.4,245.2,552.1,246.1,550.8,246.9z"/>
	<path class="st38" d="M525.4,252.9c-0.7-1.6-0.1-3.4-1-5c0.3,0,0.6,0,1,0C525.1,249.5,526,251.2,525.4,252.9z"/>
	<path class="st39" d="M539.3,246.8c0,2,0,4,0,6c-1-1.9-0.2-4-0.5-6C539,246.8,539.2,246.8,539.3,246.8z"/>
	<path class="st40" d="M455.2,260.9c-0.5-0.2-1-0.3-1.5-0.5c0.2-0.3,0.3-0.7,0.5-1c1.3,1.1,3.2-0.1,4.5,1
		C457.5,260.6,456.2,259.9,455.2,260.9z"/>
	<path class="st41" d="M560.2,240.9c0.2-0.2,0.3-0.3,0.5-0.5c1,0.6,1.9,1.3,2.1,2.5C561.8,242.4,560.8,241.9,560.2,240.9z"/>
	<path class="st42" d="M527.3,242.9c-1-0.1-1.5,0.3-1.5,1.4c0,0.7,0.2,1.5-0.5,2.1c0-0.8,0-1.6,0-2.4c-0.1-1.6,0.8-1.7,2-1.6
		C527.4,242.5,527.4,242.7,527.3,242.9z"/>
	<path class="st43" d="M528.9,264.9c0.2-1.3-0.5-2.8,0.5-4c0.2,0.8,0.3,1.7,0.5,2.5C529.5,263.9,529.2,264.4,528.9,264.9z"/>
	<path class="st44" d="M517.9,246.8c-1.7-0.2-3.4,0.5-5-0.5C514.6,246.6,516.3,245.8,517.9,246.8z"/>
	<path class="st45" d="M543.8,267.4c0-1-0.2-2,0.1-2.8c0.4-1,0.7-0.3,0.9,0.3C543.9,265.5,544.7,266.8,543.8,267.4z"/>
	<path class="st46" d="M452.2,252.4c0,1.5,0,3,0,4.5C451.4,255.4,451.4,253.9,452.2,252.4z"/>
	<path class="st47" d="M511.9,264.9c-1.5-0.2-3.1,0.5-4.5-0.5C508.9,264.6,510.5,263.9,511.9,264.9z"/>
	<path class="st48" d="M527.4,259.9c-0.5,0.3-1,0.7-1.5,1c-0.7-0.9-1.7-0.4-2.5-0.6c0.9-0.9,2-0.3,3-0.5
		C526.7,259.6,527,259.6,527.4,259.9z"/>
	<path class="st49" d="M416.8,261.4c0.6,0,1.3-0.2,1.5,0.5c0.3,0.8-1,0.4-1.1,1C416,262.8,417,261.9,416.8,261.4z"/>
	<path class="st50" d="M460.6,260.4c1.3,0.2,2.8-0.5,4,0.5C463.3,260.7,461.9,261.4,460.6,260.4z"/>
	<path class="st51" d="M431.8,263.9c1.2-1,2.6-0.3,4-0.5C434.5,264.4,433.1,263.7,431.8,263.9z"/>
	<path class="st52" d="M508.4,246.4c-1.2,1-2.7,0.3-4,0.5C505.7,245.8,507.1,246.6,508.4,246.4z"/>
	<path class="st53" d="M471.1,238.3c-1.3-0.2-2.8,0.5-4-0.5C468.4,238,469.9,237.3,471.1,238.3z"/>
	<path class="st54" d="M503,260.4c1.2,0.2,2.4-0.4,3.5,0.5C505.3,260.7,504,261.3,503,260.4z"/>
	<path class="st55" d="M452.2,261.4c0.9,1.1,0.3,2.3,0.5,3.5C451.7,263.9,452.3,262.6,452.2,261.4z"/>
	<path class="st56" d="M563.2,270.4c1.2,0,2.3,0,3.5,0C565.6,271.2,564.4,271.2,563.2,270.4z"/>
	<path class="st57" d="M536.8,273c1.2,0,2.3,0,3.5,0C539.2,273.7,538,273.7,536.8,273z"/>
	<path class="st47" d="M517.9,264.4c-1.1,0.9-2.3,0.3-3.5,0.5C515.5,264,516.8,264.6,517.9,264.4z"/>
	<path class="st58" d="M445.7,262.9c0-1.2,0-2.4,0-3.6C446.5,260.6,446.5,261.8,445.7,262.9z"/>
	<path class="st53" d="M464.6,237.8c-1.1,0.9-2.3,0.3-3.5,0.5C462.2,237.4,463.5,238,464.6,237.8z"/>
	<path class="st59" d="M441.2,262.4c1.2,0.2,2.4-0.5,3.5,0.5C443.6,262.7,442.3,263.4,441.2,262.4z"/>
	<path class="st60" d="M547.8,242.3c-0.8,0-1.7,0-2.5,0c0.5-0.8,1.6-0.2,2.1-1C547.5,241.7,547.7,242,547.8,242.3z"/>
	<path class="st61" d="M422.3,252.4c-0.9,0.9-2,0.3-3,0.5C420.2,252,421.3,252.5,422.3,252.4z"/>
	<path class="st62" d="M546.8,240.3c-1,0-2,0-3,0C544.8,239.6,545.8,239.6,546.8,240.3z"/>
	<path class="st63" d="M485.1,243.8c0-0.9,0-1.7-0.6-2.5C486.1,241.8,485.7,242.8,485.1,243.8z"/>
	<path class="st64" d="M413.8,260.9c1-0.8,1.7,0.1,2.5,0.5C415.4,261.5,414.6,261.4,413.8,260.9z"/>
	<path class="st65" d="M496.5,260.4c-0.8,0.4-0.2,1.6-1,2C495.9,261.8,494.6,260.3,496.5,260.4z"/>
	<path class="st66" d="M495,251.3c0.9,0.9,0.4,2,0.5,3C494.6,253.5,495.1,252.4,495,251.3z"/>
	<path class="st67" d="M420.3,263.4c0.8,0.1,1.8-0.3,2.5,0.5C421.9,263.8,421,264.3,420.3,263.4z"/>
	<path class="st68" d="M505.5,269.9c0.8,0.1,1.8-0.3,2.5,0.5C507.1,270.3,506.2,270.8,505.5,269.9z"/>
	<path class="st69" d="M551.8,271.5c0.8,0,1.7,0,2.5,0C553.4,272.2,552.6,272.2,551.8,271.5z"/>
	<path class="st70" d="M411.8,258.4c0,0.8,0,1.7,0,2.5C411.1,260.1,411.1,259.2,411.8,258.4z"/>
	<path class="st71" d="M521.4,247.3c-0.8-0.1-1.8,0.3-2.5-0.5C519.8,247,520.7,246.5,521.4,247.3z"/>
	<path class="st72" d="M463.1,269.9c0.8,0.1,1.8-0.3,2.5,0.5C464.8,270.3,463.8,270.8,463.1,269.9z"/>
	<path class="st73" d="M475.6,260.9c0.7-0.8,1.6-0.4,2.5-0.5C477.4,261.2,476.4,260.8,475.6,260.9z"/>
	<path class="st74" d="M464.1,263.9c-0.8-0.1-1.8,0.3-2.5-0.5C462.5,263.5,463.4,263.1,464.1,263.9z"/>
	<path class="st75" d="M437.7,252.9c-0.8-0.1-1.8,0.3-2.5-0.5C436.1,252.5,437,252,437.7,252.9z"/>
	<path class="st76" d="M622.6,294.5c-9.1,11.7-17.8,22.8-26.5,34c-16.9,21.6-33.8,43.2-50.7,64.8c-18.4,23.5-36.8,46.9-55,70.6
		c-32,41.6-64.8,82.6-97.1,124c-16.7,21.3-33.1,42.9-49.7,64.3c-3.8,4.9-7.8,9.5-11.6,14.4c-1.3,1.6-2,1.4-3.1-0.2
		c-4.6-6.8-7.2-14.4-9.6-22.2c-4.3-14.3-7.3-28.9-9-43.8c-0.6-5.2-0.9-10.3-0.9-15.5c0-18.2,0-36.5-0.2-54.7
		c-0.6-60.5-0.3-121-0.1-181.4c0-16.6,0.2-33.3,0.4-49.9c0.1-4.7,0.1-4.7,4.6-4.7c68.8,0,137.6-0.1,206.4,0.2
		c33.3,0.1,66.5,0.1,99.8,0.2C620.8,294.5,621.4,294.5,622.6,294.5z"/>
	<path class="st76" d="M656.7,368.1c0.2,4.3,0.6,8.1,0.6,11.8c0.1,15.4,0.2,30.8,0,46.2c-0.8,50.9-0.2,101.7-0.3,152.6
		c-0.1,18.5-1.6,36.8-6.5,54.8c-6.2,22.4-16.7,42.4-32.2,59.8c-26.5,30-59.7,48-98.5,55.9c-12.4,2.5-25,3.7-37.8,3.8
		c-30.1,0.3-58.7-6.2-85.6-19.8c-6.7-3.4-13.2-7.4-19.5-11.6c-1.5-1-1.5-1.7-0.4-3.1c22.4-28.1,44.8-56.2,67.1-84.3
		c27-34,53.9-68,81-102c16.5-20.7,33.1-41.2,49.6-61.8c16.7-20.7,33.3-41.5,49.9-62.2c10.2-12.7,20.4-25.3,30.6-38
		C655.2,369.7,655.8,369.1,656.7,368.1z"/>
	<path class="st0" d="M654.1,347.6c0.3,3.7-1.4,6.4-3.7,9.2c-14.2,17.8-28.3,35.8-42.4,53.8c-18.9,24-37.7,47.9-56.6,71.9
		c-18.6,23.6-37.3,47.2-55.9,70.8c-17.3,21.9-34.7,43.7-52,65.6c-17.9,22.7-35.7,45.5-53.5,68.2c-6.9,8.8-13.7,17.6-20.5,26.5
		c-1.4,1.9-2.4,1.6-3.9,0.4c-5.1-4.2-9.6-9-14.1-13.8c-5.6-6.2-10.9-12.6-15.9-19.3c-1.8-2.4-1.8-4.1,0.1-6.5
		c7.1-8.9,14.1-18,21.1-26.9c19-24.3,38-48.5,57.1-72.8c16.8-21.4,33.7-42.8,50.5-64.3c16.2-20.8,32.4-41.7,48.5-62.6
		c15-19.5,30.4-38.6,45.7-57.9c13.6-17.2,27.1-34.5,40.6-51.7c10.7-13.6,21.7-26.8,31.7-40.9c1.6-2.2,3.2-3.1,5.9-3
		c5.6,0.2,11.1,0.1,16.7,0.1c1.4,0,1.9,0.1,1.7,1.9c-0.5,6.6-0.6,13.2-0.8,19.8c-0.4,4.1-0.1,8.1-0.2,12.2
		C654.1,334.8,654.2,341.2,654.1,347.6z"/>
	<path class="st77" d="M486.3,783.1c0.3,0,0.7,0,1,0c4.9,0.1,4.7-0.8,3,4.3c-0.7,2.2-1.6,4.4-2.4,6.5c-0.3,0.7-0.8,1.5-1.6,1.5
		c-0.7,0-0.9-0.9-1.2-1.5c-0.8-1.6-1.6-3.1-2.8-4.4c-1.3-1.5-0.7-3.7-1.2-5.5c-0.2-0.7,0.6-0.9,1.2-0.9
		C483.7,783.1,485,783.1,486.3,783.1z"/>
	<path class="st78" d="M462.2,785.1c-0.1,3-2.2,5.5-2.2,8.6c0,1.1-1.6,1.4-2.5,1.7c-1,0.3-0.7-1.1-1.2-1.6c-2.1-2.5-2.4-5.8-3.4-8.8
		c0.1-1.1,0.4-1.8,1.7-1.7c2.1,0.1,4.2,0.1,6.4,0C462.3,783.3,462.7,783.8,462.2,785.1z"/>
	<path class="st79" d="M518.9,784.6c-0.3,3.5-2,6.4-3.5,9.4c-0.5,0.9-1,1-1.5,0c-1.5-3-3.2-6-3.5-9.4c-0.4-0.8-0.1-1.3,0.8-1.3
		c2.3,0,4.6,0,6.9,0C519,783.3,519.3,783.8,518.9,784.6z"/>
	<path class="st80" d="M462.2,785.1c0-1-0.3-1.6-1.4-1.6c-2.1,0-4.2,0.1-6.2,0c-1.2-0.1-1.2,0.9-1.7,1.5c-0.3-1.3,0-2,1.5-2
		c2.2,0.1,4.4,0,6.7,0C462.6,783,463.1,783.6,462.2,785.1z"/>
	<path class="st81" d="M518.9,784.6c-0.1-0.5-0.3-1-0.9-1c-2.3,0-4.5,0-6.8,0c-0.6,0-0.8,0.5-0.8,1c-0.7-0.9-0.6-1.6,0.7-1.6
		c2.4,0,4.8,0,7.2,0C519.5,783.1,519.7,783.7,518.9,784.6z"/>
	<path class="st82" d="M460.1,241.3c0.3,0,0.7,0,1,0c1.1-0.6,2.4,0.1,3.5-0.5c0.7,0,1.3,0,2,0c2.5-0.4,5-0.4,7.5,0
		c2,0.6,4.3,0.3,6.2,1.3c0.7,0.3,1.7,0.6,1.6,1.6c0,0.9-0.9,1.1-1.5,1.5c-1.9,1.3-4.2,1.2-6.3,1.7c-2.3,0.4-4.7,0.4-7,0
		c-0.5,0-1,0-1.5,0c-0.7-0.6-1.7,0.1-2.5-0.5c-2.6,0.1-4.9-1.1-7.2-1.9c-1.3-0.4-1.3-1.5-1.2-2.6l0,0c0.8,0,1.7,0,2.5,0
		C458.1,241.2,459.2,242,460.1,241.3z"/>
	<path class="st83" d="M474.1,240.8c-2.5,0-5,0-7.5,0C469.1,240,471.6,240,474.1,240.8z"/>
	<path class="st84" d="M467.1,246.9c2.3,0,4.7,0,7,0C471.8,247.7,469.4,247.6,467.1,246.9z"/>
	<path class="st85" d="M464.6,240.8c-1.1,0.9-2.3,0.3-3.5,0.5C462.2,240.4,463.5,241,464.6,240.8z"/>
	<path class="st86" d="M460.1,241.3c-0.9,0.9-2,0.3-3,0.5C458,241,459.1,241.4,460.1,241.3z"/>
	<path class="st87" d="M463.1,246.4c0.8,0.1,1.8-0.3,2.5,0.5C464.8,246.8,463.8,247.2,463.1,246.4z"/>
	<path class="st88" d="M527.4,259.9c-0.3,0-0.7,0-1,0c-0.3-1.7,0.9-2.3,2-3c0.6,0.9,0.5,2,0.5,3
		C528.4,259.9,527.9,259.9,527.4,259.9z"/>
	<path class="st89" d="M528.4,256.9c0-2.3,0-4.7,0-7C529.2,252.2,529.2,254.5,528.4,256.9z"/>
	<path class="st90" d="M528.4,248.8c-0.8-0.7-0.4-1.6-0.5-2.5C528.7,247.1,528.3,248,528.4,248.8z"/>
	<path class="st91" d="M554.8,242.3c0.3-0.5,0.7-1.3,0.9-0.1c0.2,1,0,2.1,0,3.1C554.7,244.6,555.8,243.1,554.8,242.3z"/>
	<path class="st92" d="M554.3,248.4c-0.8-1.5-0.8-3,0-4.5C554.3,245.3,554.3,246.9,554.3,248.4z"/>
	<path class="st93" d="M555.7,268.4c0-2,0-4,0-6C556.5,264.4,556.6,266.4,555.7,268.4z"/>
	<path class="st94" d="M544.3,243.3c0,1,0,2,0,3.1C543.6,245.3,543.6,244.3,544.3,243.3z"/>
	<path class="st95" d="M508,254.9c3,0,6,0,9,0C513.9,255.7,511,255.7,508,254.9z"/>
	<path class="st96" d="M346.1,372.8c2.8,1.6,2.6,4.4,2.9,7c0.3,2.7,0.5,5.5,0.6,8.2c0.1,1.8,0.9,1.9,2.2,1.2c3.3-1.9,5.6-4.9,7.7-8
		c4-5.9,6.9-12.4,11.4-18c1.2-1.5,1.6-3.5,1.6-5.4c0-2.8,0-5.5,0-8.3c0-2.5,0.2-4.8,1.3-7.1c0.9-1.7,0.7-3.1-1-4.3
		c-1.5-1.2-2.6-2.8-3.5-4.5c-1.8-3.4-0.9-6.4,2.4-8.3c1.6-1,3.3-1.8,4.9-3c3.9-2.9,5.3-6.7,4.6-11.4c-0.2-1.6-0.5-3.3,1-4.3
		c1.6-1.1,3.6-0.7,5.3-0.4c1.1,0.2,1.2,1.5,1.5,2.4c1,3.2,1.6,6.7,3.9,9.4c2.4,2.8,5.2,4.9,8.6,6.1c2.8,1,3.8,3,3,5.8
		c-0.6,1.9-1.6,3.5-2.6,5.1c-1.6,2.6-1.9,5.2-0.1,8c2.4,3.8,3.5,7.9,3.1,12.4c-0.2,2,0,4,0,6c0.1,2.4,0.5,4.6,2,6.6
		c1.3,1.7,1.6,3.7,2,5.8c0.8,4.2,2.6,8.1,5.6,11.3c0.8,0.9,1.8,1.4,3.1,1.3c2.5-0.3,3-1,2.3-3.4c-0.4-1.2-0.8-2.4-1.5-3.4
		c-2.1-3.2-1.8-6.4-0.2-9.7c1.6-3.3,3.1-6.6,4.6-10c0.7-1.5,1-2.9,0.1-4.5c-1.2-2.4,0.1-5.2,2.8-5.8c2-0.5,3.7-1.4,5.5-2.2
		c2.8-1.3,5-3.1,6.2-6.1c1.2-2.8,3.7-3.2,6.1-1.3c0.6,0.5,0.5,1.1,0.2,1.5c-2.2,4.6-1.1,8.7,1,13c1.7,3.3,1.1,7.5-3.1,9.2
		c-0.8,0.3-1.3,1-1.6,1.8c-1.5,4-3.1,7.9-4.4,12c-1.1,3.4-0.4,6.6,1.2,9.7c1.2,2.4,2.3,4.8,2.9,7.4c0.6,2.3,0.4,4.4-0.8,6.3
		c-3.9,6.2-3.6,13-2.7,19.9c0.5,4.2,1.3,8.4,1.2,12.9c-3.3-1.2-6.5-2.2-9.6-3.4c-1.9-0.7-2.7-0.3-2.3,1.9c2,12.7,3.9,25.4,5.8,38.1
		c1.9,12.9,3.8,25.7,5.7,38.6c0.3,2,1.6,4.4,0.4,6c-1.1,1.4-3.4,1.9-5.2,2.7c-16.6,7.7-33.9,11.9-52.3,10.5
		c-12-0.9-23.7-3.9-35.1-7.7c-3.8-1.3-7.7-2.7-11.5-4c-1.1-0.4-1.5-0.9-1.2-2.2c4.3-23.1,8.5-46.2,12.7-69.4c2-11.2,4-22.3,6.1-33.5
		c0.3-1.8,0.2-3-1.9-3.8c-6.7-2.5-9.7-7.6-9.7-14.7c0-6,0.4-12,0.6-18c0.1-2.7,2.6-1.7,3.9-2.5C345,371.7,345.6,372.1,346.1,372.8z"
		/>
	<path class="st82" d="M344.1,353.8c-1.2-0.2-2.2-0.8-3.1-1.5c-1.4-1.1-2.8-2.4-2.2-4.4c0.6-2.1,1.3-4.4,4-4.9
		c0.6-0.1,1.1-0.3,1.7-0.3c2.3-0.2,5.3,1.5,5.6,3.1c0.7,3.2-0.2,5-3,6.3C346.1,352.8,345.6,354.4,344.1,353.8z"/>
	<path class="st97" d="M344.1,353.8c1-0.5,2-1.1,3-1.6c-1.1,3-1.1,3-0.8,6.7c1.4,0,2.2-1.3,3.4-1.8c0.4-0.2,0.8-0.4,1.1-0.1
		c0.4,0.3,0.3,0.7,0.1,1.1c-0.5,1.2-1,2.4-2.3,3.2c-1.9,1.1-2.7,2.7-2.5,5c0.2,2.2,0,4.3,0,6.5c-0.7-0.2-1.4-0.4-2.1-0.6
		c0.3-2,0.2-3.8-2.1-4.7c-1.3-0.5-1.3-2-1.7-3.2c-0.1-0.2,0.2-0.8,0.3-0.8c1-0.1,2.1-0.2,3,0.4c0.3,0.2,0.4,0.6,1,1.5
		C344.4,361.1,344.2,357.5,344.1,353.8z"/>
	<path class="st98" d="M616.6,515.5c0.1,4.3,0.8,8.6,1.5,12.9c1.2,6.9-0.7,12.8-5.1,18.1c-5.4,6.4-12.3,11-19.1,15.8
		c-0.7,0.5-1.5,1-2.3,1.5c-3.5,1.8-7.4,2.4-11.1,3.3c-3.2,0.8-3.7,1.2-3.5,4.4c0.3,5-1,9.4-3.7,13.5c-2.3,3.5-2.7,7.5-2.8,11.5
		c-0.2,4.6-1.1,5.6-5.6,5.6c-3.1,0-6.1-0.1-9.2,0.1c-2.3-0.1-4.5,0.1-6.6-1.2c-0.9-1.8-1-3.7-1-5.6c-0.1-3.9-0.2-7.8-0.3-11.8
		c-0.2-6.8-0.8-13.5-0.7-20.3c0.1-3.2,0.5-3.6,3.6-3.8c1.8-0.1,3.6-0.3,5.2-1.3c4.6-1.7,7.7-5,10.5-8.8c0.5-0.7,0.9-1.6,2-1.8
		c2.1,0.5,3.7,1.9,5.4,3c1.1,0.7,2.1,1.2,3.5,1c3.3-0.6,6.5-1.2,9.8-1.6c3.9-0.5,6.6-3,9.3-5.4c2-1.7,3.9-3.6,5.9-5.4
		c1.8-1.6,3.2-3.3,3.2-5.9c0-3.6,1.2-7,1.7-10.6c0.7-5-0.7-9.2-3.9-12.9c-2.2-2.5-2.7-5.3-1.1-8.3c2-1.2,4.1-2.1,5.4-4.1
		c3.8-4.1,5.3-3.6,8,2.1c1,2.2,0.8,4.7,1.1,7.1C617.7,509.4,617.8,512.5,616.6,515.5z"/>
	<path class="st99" d="M549.2,600.6c2.2,0.3,4.4,0.5,6.6,0.8c4.5,0.1,9.1,0.6,13.6-0.3c1.2-0.2,2.3-0.2,3.3,0.7
		c1.2,2.4,2.3,4.9,3.5,7.3c0.4,1,0.1,2-0.4,2.9c-2,3.8-2.6,7.9-2.4,12.1c0.1,2.7,0,5.4,0,8c-0.1,3.5-0.7,6.8-2.7,9.8
		c-0.1,0.2-0.2,0.4-0.4,0.7c-1.9,4-1.9,4-6.3,3.7c-4.4-0.2-8.9-0.5-13.3-0.8c-2.2,0.9-4.4-0.1-6.6-0.1c-1,0-1.9-0.3-2.9-0.3
		c-3.5-0.7-7.1-0.3-10.4-1.7c-1.6,0-3.1,0-4.7,0c-1.2,0-1.5-0.5-1-1.5c0.1-0.2,0.1-0.3,0.2-0.5c4.8-7.6,5.5-16.5,7.7-24.9
		c1.7-6.6,3.9-12.9,8.9-17.8c0.2-0.2,0.4-0.3,0.7-0.4C544.8,598.9,547.3,599,549.2,600.6z"/>
	<path class="st98" d="M572.8,632.4c0.1-5.1-0.5-10.1,0.4-15.2c0.5-2.9,2.4-5.3,3.1-8.1c4.6,5.5,8.4,11.5,11.9,17.8
		c2.4,4.5,4.5,9.1,7.1,13.5c3,4.9,3,9.8,1.6,15.1c-2.5,10-5.8,19.8-8.6,29.7c-0.5,1.8-0.7,3.6-1.2,5.3c-0.9,3,0.6,4.7,2.8,6.2
		c2.5,1.6,5.3,2.2,8,3.3c1.9,0.7,4.7,1.4,4.6,3.5c-0.1,2.2-3,2.5-5,2.8c-7.3,0.9-14.5,0.1-21.4-2.9c-1.1-0.5-1.6-1.2-1.6-2.5
		c0.1-2.2,0.7-4.3,1.4-6.3c2-5.6,2.9-11.2,2.7-17.2c-0.2-6.5-0.5-13,0.9-19.4c0.1-0.6,0.3-1.1,0.5-1.7c2.2-3.2,1.9-6.4,0.4-9.8
		c-1.5-3.4-3.5-6.5-5.8-9.3C573.5,635.8,572.8,634.3,572.8,632.4z"/>
	<path class="st98" d="M541.4,644.5c3.1,0.4,6.2,0.7,9.4,1.1c-0.3,1.4-0.7,2.7-1,4.1c-0.7,4.4-2.6,8.2-4.8,11.9
		c-6.3,10.4-10.2,21.8-12.5,33.8c-0.7,3.5,1,6.2,3.8,8.1c2.1,1.6,4.5,2.9,6.6,4.5c2.2,1.7,1.9,3-0.7,4c-2.1,0.8-4.2,0.6-6.3-0.1
		c-3.8-1.3-7.8-2.2-11.8-2.8c-5.1-0.8-7-4.1-4.4-8.6c4.8-8.2,4-17,3.5-25.8c0-0.9-0.1-1.8-0.1-2.7c0.4-1.6,0.2-3.3,0.6-4.9
		c1.4-5.9,5.1-10.1,10.4-12.3c4.2-1.7,6.6-4.2,6.7-8.8C540.7,645.5,540.9,644.9,541.4,644.5z"/>
	<path class="st100" d="M607.5,497.3c-0.7,2.9-2.8,3.8-5.4,4.1c-4.3-8.8-11.4-14.8-19.5-19.8c-2-1.2-2.7-2.5-2-4.9
		c0.5-1.8,1.7-2.4,3.1-2.8c7.1-2.2,10.3-6.3,10.4-13.8c0-2.1,0.6-2.4,2.4-1.7c8,2.8,13.8,7.7,15.9,16.4c0.4,1.7,0,2.2-1.7,2.2
		c-4.2,0-8.3,0.2-12.1,2c-3,1.4-3.3,2.1-1.6,4.9C599.8,488.7,603.3,493.3,607.5,497.3z"/>
	<path class="st100" d="M568.4,547.5c-2.5,3.7-5.1,7.3-9.1,9.7c-0.8,0.5-1.6,0.7-2.5,1c-1.6,0.6-3.3,0.8-5,0.7
		c-2.4-0.2-4.9,0.2-7.3-0.3c-2.1-1.9-2.3-3-0.8-5.5c0.6-0.5,1.1-1,1.7-1.4c3.1-2,3.6-4.7,2.3-7.9c0.1-0.6,0.6-0.8,1.1-0.9
		c5.1-1.9,8-6,10.1-10.8c0.7-1.7,1.3-3.4,2.1-5.1c0.4-0.7,0.6-1.9,1.9-1.5c1.7,2.3,1.1,4.9,0.8,7.3c-0.3,2.6,0.4,4.5,2,6.4
		c1.1,1.3,2.6,2.4,2.6,4.4C568.4,544.9,568.4,546.2,568.4,547.5z"/>
	<path class="st101" d="M543.8,553.1c-0.4,1.7-0.7,3.4,0.6,5c0.4,0.5,0.6,1.1,0.6,1.8c0.1,0.5,0.1,1-0.1,1.5
		c-3.1,2.9-4,6.8-4.4,10.8c-0.2,2,0,3.8,2,5c0.9,0.5,1.4,1.4,1.5,2.5c0.2,3.9-0.1,7.7-1,11.5c-1.5,0.1-0.8-0.8-0.7-1.5
		c0.3-2.3-0.1-3.1-2.9-2.6c-7.7,1.3-11.6-3.2-10.1-11.1c0.5-2.8,1.7-5.4,2.7-8c1-2.5,1.9-5,2.5-7.6
		C535.9,554.8,537.9,553.2,543.8,553.1z"/>
	<path class="st100" d="M545.9,541.1c-4-1.5-6-5.4-4.9-10.2c1.1-4.8,3.6-8.7,7.7-11.6c4.1-2.9,9-2.8,12.6,0.2
		c-0.6,2.2-2.5,3.7-3.3,5.8c-2.1,5.2-5.1,9.7-8.9,13.8C548.2,540.1,547.5,541.3,545.9,541.1z"/>
	<path class="st101" d="M568.3,543.6c-0.2-0.2-0.3-0.4-0.5-0.6c-3.5-3.6-6-7.5-4.7-12.9c0.3-1.5,0.2-3.2-0.5-4.7
		c-0.9-1.6-1.1-3.2,0.3-4.6c3,3.1,6.1,6.1,10.5,7.1c1.3,0.3,0.8,1.2,0.5,2c-0.7,2.1-1,4.1,0.4,6.1c1.1,1.6,0.9,3.3-0.9,4.5
		C571.8,541.7,570.3,543,568.3,543.6z"/>
	<path class="st102" d="M572.7,601.8c-4.8,0-9.5,0-14.3-0.1c-0.9,0-1.8,0.2-2.6-0.4c3.3,0,6.6,0,9.9,0c2.9,0,3.9-0.9,3.9-3.8
		c0-5.4,0.9-10.6,4.1-15.2c2.4-3.4,2.5-7.3,2.4-11.3c-0.1-3.8,0.1-3.9,3.6-4.8c3.9-1,7.9-1.8,11.8-2.7c-1.3,1.4-2.9,2.2-4.6,3
		c-3.4,1.6-5.3,4.3-6.4,7.8c-1.3,4.3-3,8.3-6,11.7c-3.5,4.1-2.9,8.8-2.3,13.5C572.5,600.3,572.6,601.1,572.7,601.8z"/>
	<path class="st102" d="M541.4,644.5c-0.1,1.3-0.2,2.6-0.4,4c-0.3,3.2-2.1,5-5,6.2c-7.6,3-12.2,8.3-12.7,16.8c0,0.2-0.2,0.4-0.3,0.7
		c-0.5-7.1,2.8-12.7,6.7-18.1c2.3-3.3,3.1-6.8,1.2-10.5C534.4,643.3,537.9,644,541.4,644.5z"/>
	<path class="st99" d="M562.9,520.9c-0.2,1.5,0.2,3.1-0.3,4.6c-1.4,2-2,4.3-3,6.5c-2.4,5.4-5.7,10.1-11.9,11.7
		c-0.9-0.6-1.4-1.7-1.9-2.6c4.3-3.4,7.5-7.8,9.9-12.6c1.6-3.1,2.8-6.4,5.4-8.9C562,519.8,562.5,520.3,562.9,520.9z"/>
	<path class="st103" d="M572.8,632.4c0.4,3.2,3.1,4.9,4.6,7.4c2.1,3.5,4.5,6.8,4.9,11c0.2,2.2,0,4.3-2.2,5.6
		c-0.7-4.9-2.4-9.3-6-12.8c-1-0.9-2-1.8-3.4-1.6C571.2,638.8,573,635.8,572.8,632.4z"/>
	<path class="st104" d="M616.6,515.5c-0.2-3-0.3-6-0.1-9c2.6,1.7,4.7,3.9,6.5,6.5c1,1.5,0.4,2.6-0.5,3.8c-0.9,1.3-2.1,0.7-3.1,0.3
		C618.5,516.6,617.6,516,616.6,515.5z"/>
	<path class="st105" d="M542.3,589.7c0.1,0.5,0.3,1,0.4,1.5c1.6,2.6,0.5,5-0.4,7.5c-0.2,0-0.3,0.1-0.5,0.1
		C542,595.8,541.4,592.7,542.3,589.7z"/>
	<path class="st106" d="M429.2,488.7c0.9,7.5,1.6,14.9,2.7,22.2c0.3,1.9-0.5,2.5-1.8,3.2c-6,3-12.4,4.6-18.8,6
		c-9.2,1.9-18.5,3.4-28,3.4c-10.6,0-20.7-1.8-30.5-5.7c-3.9-1.6-7.9-3-11.9-4.3c-1.3-0.4-1.8-0.9-1.4-2.3c0.5-1.7-0.5-4.4,0.7-4.9
		c1.5-0.6,2.7,1.9,4.1,3c4.2,3.3,9.9,1.9,11.7-3.1c-5,1-9.2-0.6-12.9-3.7c-1.2-1-1.6-2-1.3-3.4c0.7-3.9,1.4-7.9,2.1-11.9
		c1.3,0,2,1,2.9,1.7c3.4,2.5,7.1,3.5,11.2,2.6c3-0.6,3-0.5,3.2,2.6c0.3,4.5,0.6,9,0.9,13.5c0,0.6-0.1,1.4,0.6,1.8
		c4.6,2.3,8.7,5.8,14,6.9c3.8,0.8,7.6,0.8,11.1-1.1c2-1.1,3.5-2.7,4.2-5.1c-7.1,3.5-17.4,1.8-23-3.5c-1.9-1.8-2.4-4.1-2.2-6.6
		c1.2-15.6,2.1-31.2,2.7-46.8c0.2-5.8,0.1-11.5-4-16.4c-0.5,0.1-0.4,0.8-0.6,1.1c-0.5,1.5-1.1,1.9-2.6,1c-2.6-1.6-5.6-2-8.6-1.3
		c-1.4,0.3-2.6,0.5-2-2c1.3-5.8,1.2-5.8,6.9-7.2c0.8-0.2,2.9,0.6,2.4-1.3c-0.4-1.6-1.5-3-3.7-2.1c-1.1,0.5-2.3,0.7-3.6,1.1
		c0.5-2.9,1-5.6,1.3-8.2c1-8.3-1.7-12.5-7.8-14.6c-3.6-1.3-4.9-3.2-4.5-6.9c0.3-2.6,0.1-5.3,0-8c-0.1-1.4,0.4-2,1.8-1.8
		c0.7,0.1,1.5,0.1,2.2,0c1.2-0.1,1.6,0.3,1.6,1.5c-0.1,2.1,0,4.2,0,6.3c4.2-0.4,6.7-2.9,9-5.8c2.5-3.1,5.4-5.9,8.5-8.4
		c0.8-0.7,1.8-1.3,2.7-1.8c3.5-1.9,3.6-1.9,6.2,1.1c3.1,3.5,7,5.5,11.6,6.2c1.8,0.3,2.3,0.9,1.4,2.6c-0.6,1.2-0.8,2.5-1.3,3.7
		c-0.5,1.1-0.3,1.7,0.7,2.5c3.2,2.4,4.6,2.1,6.1-1.8c0.5-1.3-0.6-2-1.1-2.8c-2.2-3.6-2.2-3.6,1.7-5.5c2.3-1.1,4.4-2.3,6.1-4.1
		c0.9-1,2-1.7,3.3-2.3c2.2-1,4.1-0.5,5.5,1.4c1.9,2.7,2.5,5.8,2.6,9c0.1,1.3-0.5,2.7-1.6,3.5c-2.2,1.7-3.3,4.1-4.3,6.6
		c-0.9,2.3-2,4.6-3.8,6.4c-1.2,1.2-2.6,2-4.2,2.5c-2.8,0.8-3.5,0.4-3.9-2.7c-0.5-3.7-0.5-3.8-4.3-3.5c-2.7,0.2-5.5,0.3-8.2-0.1
		c-3.9-0.6-7.4-1.8-9.2-5.8c-0.8-1.7-1.4-1.8-2.7-0.4c-1.7,1.8-3.9,3.1-6.1,4.3c-0.7,0.4-1.5,0.8-2.1,1.3c-0.8,0.7-2.1,1.6-1.4,2.8
		c0.8,1.4,1.9,0.3,2.8-0.1c5.5-2.3,5.5-2.3,5.4,3.8c-0.1,3.7-1,7.3,0,11c0.5,1.8,1,3.5,2.6,5.5c0.4-7.7,0.7-14.8,1-22.1
		c2.8,0.8,5.1,2.4,7.8,3.1c3.3,0.8,6.6,0.2,9.9-0.1c1.6-0.1,2.2,0.2,2.1,2c-0.1,3.3,0,6.7,0,10c0,0.8-0.1,1.6,0.9,2.1
		c4.4,2.1,8.9,3.4,13.8,3.9c0.6,0.1,1.2-0.1,1.6-0.6c-1.2-3.1-4.1-3.3-6.8-3.8c-1.7-0.3-3.2-0.8-4.1-2.4c-1.8-2.9-1.3-4.4,1.8-5.5
		c3.6-1.2,6.4-3.4,8.8-6.2c1.3-1.6,2.4-2.1,3.8-0.2c0.6,0.8,1.5,1.3,2.3,1.9c0.6,0.3,1.3,1.2,1.9,0.5c0.5-0.6,0.3-1.6-0.2-2.4
		c-0.8-1.2-1.5-2.3-1.6-3.8c-0.2-2,0.7-2.3,2.3-2c1.6,0.3,2.8,1.2,4.1,2.3c3.8,3.3,3.7,2.3,5.8-1c0.9-1.4,1.6-2.9,1.3-4.9
		c-0.8,0.7-1.4,1.3-2,1.8c-4.2,3.6-8.6,2.1-9.8-3.4c-0.9-4,0.7-5.6,4.6-4.8c1.1,0.2,2.4,1.7,3.4,0.2c1.3-1.8,1.3-5.5,0.3-6.9
		c-4.1-5.4-3.8-11.4,0.9-16.6c1.3-1.5,3-1.6,4.8-1.1c4.3,1.2,6.4,5.4,4.7,9.6c-0.5,1.2-1.1,2.5-1.9,3.5c-1.9,2.4-1.4,4.7,0,7.1
		c1.6,2.7,3.3,5.4,4,8.5c0.6,2.4,0.4,4.7-0.7,6.8c-2.5,4.8-5.9,8.8-11.4,10.4c-2.1,0.6-2.1,2.8-2.4,4.5c-0.5,3.3-0.5,6.7-0.2,10
		c0.2,2.1-0.1,3.5-2.7,2.6c-0.7-0.3-1.6-0.2-2.5-0.1c-0.8,0.1-1.3,0.8-1.5,1.5c-0.2,0.9,0.7,1,1.3,1.1c1.4,0.4,2.9,0.7,4.3,1
		c0.8,0.2,1.6,0.3,1.7,1.5c0.6,5.5,1.3,11.1,2,16.6c0,0.1-0.1,0.3-0.2,0.8c-4.6-3-7.9-1-11,3.7c-0.4-6.1-0.7-11.5-1.1-17.2
		c-1.8,1.8-2.6,3.7-2.5,5.9c0.2,9.4,0.4,18.9,0.6,28.3c0.3,9.8,0.6,19.6,0.9,29.3c0.1,3.2,0.3,6.3,0.4,9.5c0,1.2,0.5,1.4,1.5,1.2
		c2.4-0.4,4.8-0.7,7.1-0.8c1-0.1,1.5-0.3,1.4-1.4c0-1-0.1-1.8-1.3-2c-1.1-0.2-2.1-0.6-3.2-0.5c-2.1,0.1-2.6-0.9-2.6-2.9
		c-0.2-12.1-0.5-24.2-0.8-36.6c2.3,2.2,3.6,5.8,7.5,5.3c1.2-0.1,1.8-1,2.1-2.4c-0.4-0.1-0.8-0.2-1.2-0.2c-4.6-0.3-6-1.3-6.8-5.8
		c-0.5-2.8-0.6-5.7,0.4-8.4c0.6-1.8,1.6-3.6,3.9-3.8c2.2-0.2,3.5,1.2,4.6,2.9c1.5,2.5,1.3,5.7-0.4,7.7c-0.6,0.7-1.3,1.7-2.5,1.3
		c-1.2-0.3-2.2-0.8-2.2-2.3c0-0.4-0.4-0.8-0.8-1.4c-1.2,1.8-1.4,3.4-0.3,5c1.1,1.5,2.7,1.5,4.3,0.8c1.4-0.6,2.7-1.2,4.3-1.9
		c0.6,5.5,1.3,10.8,1.9,16.4c-1.6-0.8-2.9-1.7-4.4-2.2c-2.6-1-4.9-0.2-6.5,2.1c-3,4.5-2.7,13.7,0.5,17.9c1.6,2.1,4,2.9,6.4,2.1
		c0.5-0.2,1.6-0.1,1.4-1.1c-0.2-0.9-0.9-1.3-1.9-1.3c-4.3,0.3-4.8-0.1-6-4.3c-1.1-4-0.4-7.9,1.3-11.6c0.8-1.8,2.2-1.3,3.6-1.2
		c2.3,0.2,4,1.5,4.5,3.7c0.5,2.4,0,4.7-1.5,6.6c-1.3,1.7-3,1.4-4.1-0.5c-0.4-0.8-0.6-2-2-2c-0.4,0.6,0,1.3,0,1.9
		c0.1,1.7,0.3,3.5,2,4.3c2,0.8,3.5-0.5,4.9-1.7C427.2,490.7,428.1,489.8,429.2,488.7z"/>
	<path class="st106" d="M384.7,308.9c1.8,2.3,2.2,5,2.7,7.7c0.4,2.3,1.2,4,3.8,4.6c2.4,0.5,3.7,2.7,5.6,4c1,0.7,2.1,1.3,3.2,1.9
		c2.3,1.4,2.6,2.8,0.8,4.9c-1,1.2-2.2,2.4-2.7,3.9c-0.9,2.7-2.4,3.5-5.1,2.7c-3.9-1.1-7.7-0.3-11.6,0.4c-2.1,0.4-3.8,0.2-4.9-2
		c-1-1.9-2.4-3.6-3.7-5.3c-0.9-1.2-0.5-2.6,0.5-3c2.6-0.9,3.8-3.2,5.6-4.8c1.3-1.1,2.3-2.4,4-2.9c1.1-0.3,1.1-1.5,1.2-2.5
		C384.3,315.4,384.5,312.1,384.7,308.9z"/>
	<path class="st106" d="M397,354.6c0,5.7-1.3,10.3-1.8,15c-0.3,2.5-2,3.7-4.8,3.7c-1.4,0-2.8-0.3-4.2-0.4c-0.6-0.1-1.1-0.2-1.3-1
		c-1.5-7-4.1-13.9-3.6-21.3c0.3-4.2,1.8-6.4,4.9-6.8c4.5-0.7,8.2,1.1,9.7,4.6C397,350.6,397,353,397,354.6z"/>
	<path class="st106" d="M362.9,472.8c0,3.7,0.5,7.3,0.1,11c-0.3,2.9-1.5,4.2-4.4,4.4c-2.4,0.2-4.8-0.1-7.1-0.7
		c-4.4-1.2-6.6-4-6.4-8.6c0.3-5.1,0.9-10.3,1.8-15.4c0.7-4.4,4.7-7.1,9.2-6.9c3.2,0.2,5.4,3,5.9,7.5c0.3,0.6,0.5,1.3-0.4,1.7
		c-1-0.2-1.4-1.1-2.1-1.7c-3.7-3.3-8.6-2.1-10.1,2.6c-1.3,4.2-1.2,8.4,0.4,12.5c0.7,1.9,1.8,3.4,3.6,4.3c1.2,0.7,2.5,0.6,4.1-0.4
		c-1.9-0.5-3.5-0.6-4.7-1.6c-4-3.1-4.7-12.4-1.1-16.1c1.5-1.5,3.4-1.9,5.3-1.3c2.1,0.6,3.2,2.3,3.6,4.4c0.3,1.9,0,3.9-0.7,5.7
		c-1.1,2.8-3.4,3.1-5.4,0.8c-0.4-0.4-0.6-1-1.3-1.4c-0.4,1.6,0,2.9,1.2,3.7c1.4,0.9,2.9,0.9,4.2-0.1c1.2-0.9,1.9-2,2.3-3.5
		c0.2-0.9,0.3-1.8,0.9-2.6C363.4,471,362.4,472.4,362.9,472.8z"/>
	<path class="st106" d="M441.2,341.1c-0.4,1.5-0.8,2.8-1.1,4.1c-0.6,2-0.7,3.8,0.7,5.8c1.6,2.5,1.7,5.7,2,8.6
		c0.1,0.9-0.5,1.3-1.1,1.8c-2.8,2-5.5,4.4-8.9,0.9c-0.8-0.9-2.4-0.9-3.6-1.4c-1.1-0.5-3.2,0.7-3.3-1.5c-0.1-2.6-2-5.5,1.5-7.5
		c2.5-1.4,5-2.8,7.7-4c1.8-0.8,3.3-1.7,3.4-4.1C438.5,342.4,439.5,341.5,441.2,341.1z"/>
	<path class="st106" d="M433.2,407.8c0.9,7.7,1.8,15.2,2.7,23c-4.1-1.5-7.7-3.3-11.5-4.2c-0.9-0.2-0.8-1-0.8-1.6
		C422.8,418.7,425.5,411,433.2,407.8z"/>
	<path class="st106" d="M364.6,449c0,0.4-0.1,1-0.1,1.5c-0.3,3.8-0.6,4-4.1,3c-3-0.9-6.2-1.2-9.3-1.1c-1.4,0.1-1.8-0.2-1.6-1.6
		c0.3-1.7,0.3-3.5,0.7-5.2c0.8-3.5,2.4-4.6,6-4.5c0.9,0,1.8,0,2.7,0.2C363.6,442.5,364.6,443.9,364.6,449z"/>
	<path class="st107" d="M375.6,376.5c0.9,0.2,1.9,0.2,2.6,0.6c5.8,3.4,11.9,1.4,17.9,1.1c1.1-0.1,2.3-0.2,4-0.4
		c-3.8,4.4-7.9,6.6-13.2,6.1C382,383.4,378.1,381.2,375.6,376.5z"/>
	<path class="st108" d="M362.9,472.8c-0.3-0.5-0.5-1-0.8-1.5c-0.9-0.8-0.8-1.8-0.4-2.8c0.2-0.3,0.4-0.4,0.7-0.2
		C363.2,469.7,363.1,471.2,362.9,472.8z"/>
	<path class="st109" d="M362.5,468.2l-0.2,0l-0.2,0c-0.8-0.7-1-1.5-0.5-2.5c0.5-0.4,0.3-1,0.4-1.5
		C362.9,465.5,362.5,466.9,362.5,468.2z"/>
	<path class="st110" d="M542.3,598.7c0.1-2.5,0.3-5,0.4-7.5c0.3-4,0.5-8,0.8-12c0.9-4.7,0.5-9.5,0.6-14.2c0-1.3,0-2.7,0.7-3.9
		c-0.1-0.3-0.2-0.7-0.3-1c0.1-1.2,0.5-1.9,2-1.8c1.8,0.1,3.6,0.3,5.4-0.2c1.7,0,3.4,0,5.1,0c-1.8,1.7-4.1,2.1-6.4,1.9
		c-2.2-0.2-2.8,0.4-2.7,2.7c0.6,12.6,1,25.3,1.5,37.9C546.9,600,544.5,599.7,542.3,598.7z"/>
	<path class="st111" d="M551.7,558.2c-1.5,0.9-3.2,0.4-4.7,0.4c-1.3,0-2.1,0.4-2.6,1.6c0-0.7,0-1.4,0-2
		C546.8,558.1,549.3,558.1,551.7,558.2z"/>
	<path class="st103" d="M544.7,561.1c-0.1,5.5,0.6,11-0.4,16.4c-0.1,0.7-0.3,1.3-0.9,1.7c-0.2-0.7-0.4-1.3-1.1-1.5
		c-2.3-0.7-2.7-2.5-2.5-4.6C540.3,568.6,540.5,564,544.7,561.1z"/>
	<path class="st96" d="M380.9,497.9c-5.1-1.9-8.3-6.7-8.4-12c-0.1-5.8,3.2-11.6,7.6-13.7c1.4-0.6,1.8-0.3,1.7,1.1
		c-0.2,1.5-0.5,2.9-1.7,4c-4,3.8-4.3,11.6-0.6,15.6C380.7,494.3,381.2,495.8,380.9,497.9z"/>
	<path class="st112" d="M386.3,433.5c3.2-0.2,6.1,0.4,8.9,1.5c1,0.4,2,0.9,2.4,2c0.4,0.9,0.8,2.1,0,2.8c-1,0.8-2,0.1-2.9-0.5
		c-4.4-3.1-9-3.3-13.8-0.8c-0.8,0.4-2,1.7-2.7,0.3c-0.7-1.4-0.9-3.2,1.1-4C381.5,433.7,384,433.3,386.3,433.5z"/>
	<path class="st113" d="M402.1,427.2c-0.3,1.1-1,1.6-1.9,1.9c-2.8,0.8-8.4-1-10.2-3.5c-2.2-2.9-5.2-3-8.3-2.4
		c-2.1,0.4-4.2,0.9-6.5,1.5c3.5-4.7,11.4-5.8,16.1-2.1C394.6,425.2,398.1,426.8,402.1,427.2z"/>
	<path class="st114" d="M401,483.9c0.1,2.3-1.1,4.6-3.3,6.3c-1.4,1.1-1.8,0.5-2-0.9c-0.2-1.9,0.4-3.6,0.9-5.4c0.5-2.1,0.9-4-0.9-5.8
		c-1-0.9-0.7-2.5-0.7-3.8c0-0.5,0.3-0.8,0.8-0.7c0.8,0,1.6-0.3,2.2,0.7C399.5,477.1,401,480,401,483.9z"/>
	<path class="st115" d="M388.6,501.4c-1.5-2.7-1.2-5.4-1-7.9c0.2-2.4,0.1-4.6-3.1-5.6c2.2-1.5,3.3-3.4,4-6.2c1.4,2.3,2,4.4,3.7,5.7
		c0.5,0.4-0.3,0.8-0.7,1.1c-1.5,1-1.9,2.4-1.7,4.1C390.2,495.5,389.7,498.4,388.6,501.4z"/>
	<path class="st116" d="M400,446.7c-1.5,0.3-2.2-0.4-2.1-2.3c0.1-1.9,0.9-2.2,2.6-2.3c2.7-0.1,2.1,1.9,2.2,3.2
		C402.9,447.1,401.4,446.7,400,446.7z"/>
	<path class="st117" d="M371.3,439.9c-1.5,0-2.1-1.3-2.2-2.4c-0.1-1.2,0.5-2.6,2.2-2.4c1.3,0.2,3.2,0.1,3.1,2.1
		C374.3,438.8,373.6,440.4,371.3,439.9z"/>
	<path class="st118" d="M376.3,448c-1.1-0.1-2.2-0.4-2.1-1.8c0.1-1.4,0.7-3,2.3-3.1c1.4-0.1,2.7,1,2.7,2.6
		C379.2,447.4,377.7,447.8,376.3,448z"/>
	<path class="st119" d="M386.7,469c0.3-0.6-0.8-2.5,1.5-2.2c1.6,0.2,3,0.7,2.7,2.7c-0.1,1,0.2,2.5-1.6,2.1
		C388.2,471.3,386,472,386.7,469z"/>
	<path class="st120" d="M397.3,453.6c0.6,2-0.2,2.1-1.5,2.3c-2,0.3-2.6-1-2.7-2.4c-0.1-1.9,1.4-2.6,3-2.5
		C398.2,451.1,396.7,453.1,397.3,453.6z"/>
	<path class="st121" d="M403.9,435.4c-0.5-1.6,0.4-2.1,1.8-2.2c2-0.1,2.6,1.2,2.7,2.8c0.1,1.7-1.3,1.7-2.4,1.8
		C404.3,438,403.6,437.1,403.9,435.4z"/>
	<path class="st122" d="M383.8,454.3c0.3,1.8-0.9,2.2-2.3,2.2c-1.3,0-2.4-0.6-2.3-2c0.1-1.9,1.8-2.1,3.3-2.3
		C384,452.1,383.9,453.2,383.8,454.3z"/>
	<path class="st120" d="M386.4,461.9c0-1.4,0-2.4,1.7-2.2c1.3,0.2,2.7,0.2,2.8,2.1c0.1,2.2-1.7,2.3-3,2.5
		C386.2,464.3,386.7,462.6,386.4,461.9z"/>
	<path class="st121" d="M362.9,422.6c-1.4,0-2.6-0.6-2.5-2.1c0.1-1.6,1.4-2.3,2.9-2.5c1.7-0.2,1.9,1.2,1.9,2.3
		C365.2,421.6,364.4,422.6,362.9,422.6z"/>
	<path class="st123" d="M389.3,475.1c1.1,0,1.8,0.3,1.7,1.5c-0.1,1.3-0.3,2.9-1.9,3c-1.3,0.1-3-0.7-2.9-2.4
		C386.3,475.6,387.8,475.2,389.3,475.1z"/>
	<path class="st124" d="M410.6,428.7c-1.3-0.2-2.9-0.2-2.8-2c0.1-1.9,1.8-2.1,3.3-2.2c0.9,0,2,0,1.6,1.4
		C412.4,427.1,413,429.1,410.6,428.7z"/>
	<path class="st125" d="M366.5,430.6c-1.2,0.2-1.8-0.3-1.5-1.5c0.3-1.1-0.3-2.8,1.7-2.6c1.4,0.1,2.8,0.5,2.7,2.2
		C369.4,430.5,367.8,430.5,366.5,430.6z"/>
	<path class="st126" d="M357.5,412.3c0-1.3,0.3-2.1,1.3-2c1.3,0.1,2.4,1,2.5,2.3c0.1,1.6-1.5,1.7-2.5,1.7
		C357.2,414.4,358.1,412.7,357.5,412.3z"/>
	<path class="st127" d="M415.9,418.9c-0.2,1.1-0.4,2.4-1.7,2.5c-1.5,0.1-1.7-1.3-1.9-2.5c-0.2-1.2,0.8-1.8,1.6-1.8
		C414.9,417.1,415.8,417.7,415.9,418.9z"/>
	<path class="st128" d="M357.3,404.5c-0.3,1-0.5,2.2-1.7,2.1c-1.4-0.1-1.2-1.5-1.4-2.5c-0.2-0.8,0.2-1.3,1.1-1.1
		C356.1,403.2,357.3,403.1,357.3,404.5z"/>
	<path class="st129" d="M419,410.8c-0.1,1.4-1.1,1.5-2.1,1.7c-0.6,0.1-1.5,0.3-1.4-0.8c0.1-1.1,0.3-2.3,1.6-2.5
		C418.1,409.1,418.8,409.8,419,410.8z"/>
	<path class="st130" d="M421.7,404.6c-0.6,0.6-0.8,1.8-1.9,1.6c-0.8-0.2-2-0.5-1.9-1.6c0.1-1,1.2-1.4,2-1.5
		C420.8,403,421.3,403.8,421.7,404.6z"/>
	<path class="st122" d="M353.4,399.6c-0.8-0.1-1.8,0.1-1.5-1.3c0.2-0.9,0.4-2,1.6-1.9c1.2,0.1,1.2,1.2,1.3,2.1
		C355,399.8,354.1,399.6,353.4,399.6z"/>
	<path class="st113" d="M361.7,465.7c0.2,0.8,0.3,1.7,0.5,2.5c0,1,0,2.1,0,3.1c-0.3,2.3-0.7,4.7-2.5,6.4c-1.6,1.5-4.3,1.7-5.9,0.3
		c-1.6-1.3-1.7-3.4-0.4-5.6c0.7,1,1.4,2.1,2.2,3c1.2,1.4,2.5,1.3,3.4-0.4c1.2-2.2,1.5-4.6,0.9-7c-0.4-1.6-1.4-2.9-3.1-3.2
		c-1.8-0.4-3.4,0.1-4.7,1.5c-2.8,3.2-2.3,11.8,0.9,14.7c1.2,1.1,2.6,1.3,4.2,1.3c0.6,0,1.5-0.2,1.7,0.7c0.2,0.9-0.6,1.3-1.3,1.5
		c-2.3,0.8-4.2,0.3-5.9-1.4c-4-4-4.6-15-1-19.5C353.1,460.2,359,461.3,361.7,465.7z"/>
	<g>
		
			<image style="overflow:visible;opacity:0.9;" width="291" height="343" xlink:href="7F321C03.png"  transform="matrix(1 0 0 1 360.6496 334.1496)">
		</image>
		<g>
			<text transform="matrix(0.6206 -0.7863 0.7802 0.6255 403.3452 665.6939)" class="st131 st132 st133 st134">ANDACOLLO</text>
		</g>
	</g>
</g>
</svg>
